<?xml version="1.0" encoding="utf-8" standalone="no"?>
<!DOCTYPE svg PUBLIC "-//W3C//DTD SVG 1.1//EN"
  "http://www.w3.org/Graphics/SVG/1.1/DTD/svg11.dtd">
<svg xmlns:xlink="http://www.w3.org/1999/xlink" width="432pt" height="432pt" viewBox="0 0 432 432" xmlns="http://www.w3.org/2000/svg" version="1.1">
 <metadata>
  <rdf:RDF xmlns:dc="http://purl.org/dc/elements/1.1/" xmlns:cc="http://creativecommons.org/ns#" xmlns:rdf="http://www.w3.org/1999/02/22-rdf-syntax-ns#">
   <cc:Work>
    <dc:type rdf:resource="http://purl.org/dc/dcmitype/StillImage"/>
    <dc:date>2022-08-29T16:59:33.891963</dc:date>
    <dc:format>image/svg+xml</dc:format>
    <dc:creator>
     <cc:Agent>
      <dc:title>Matplotlib v3.5.3, https://matplotlib.org/</dc:title>
     </cc:Agent>
    </dc:creator>
   </cc:Work>
  </rdf:RDF>
 </metadata>
 <defs>
  <style type="text/css">*{stroke-linejoin: round; stroke-linecap: butt}</style>
 </defs>
 <g id="figure_1">
  <g id="patch_1">
   <path d="M 0 432 
L 432 432 
L 432 0 
L 0 0 
z
" style="fill: #ffffff"/>
  </g>
  <g id="axes_1">
   <g id="patch_2">
    <path d="M 65.43 380.34 
L 419.04 380.34 
L 419.04 12.96 
L 65.43 12.96 
z
" style="fill: #eaeaf2"/>
   </g>
   <g id="matplotlib.axis_1">
    <g id="xtick_1">
     <g id="line2d_1">
      <path d="M 93.947613 380.34 
L 93.947613 12.96 
" clip-path="url(#p5e0800cb71)" style="fill: none; stroke: #ffffff; stroke-linecap: round"/>
     </g>
     <g id="text_1">
      <!-- 0 -->
      <g style="fill: #262626" transform="translate(90.448238 398.198281)scale(0.11 -0.11)">
       <defs>
        <path id="DejaVuSans-30" d="M 2034 4250 
Q 1547 4250 1301 3770 
Q 1056 3291 1056 2328 
Q 1056 1369 1301 889 
Q 1547 409 2034 409 
Q 2525 409 2770 889 
Q 3016 1369 3016 2328 
Q 3016 3291 2770 3770 
Q 2525 4250 2034 4250 
z
M 2034 4750 
Q 2819 4750 3233 4129 
Q 3647 3509 3647 2328 
Q 3647 1150 3233 529 
Q 2819 -91 2034 -91 
Q 1250 -91 836 529 
Q 422 1150 422 2328 
Q 422 3509 836 4129 
Q 1250 4750 2034 4750 
z
" transform="scale(0.015625)"/>
       </defs>
       <use xlink:href="#DejaVuSans-30"/>
      </g>
     </g>
    </g>
    <g id="xtick_2">
     <g id="line2d_2">
      <path d="M 136.77371 380.34 
L 136.77371 12.96 
" clip-path="url(#p5e0800cb71)" style="fill: none; stroke: #ffffff; stroke-linecap: round"/>
     </g>
     <g id="text_2">
      <!-- 20 -->
      <g style="fill: #262626" transform="translate(129.77496 398.198281)scale(0.11 -0.11)">
       <defs>
        <path id="DejaVuSans-32" d="M 1228 531 
L 3431 531 
L 3431 0 
L 469 0 
L 469 531 
Q 828 903 1448 1529 
Q 2069 2156 2228 2338 
Q 2531 2678 2651 2914 
Q 2772 3150 2772 3378 
Q 2772 3750 2511 3984 
Q 2250 4219 1831 4219 
Q 1534 4219 1204 4116 
Q 875 4013 500 3803 
L 500 4441 
Q 881 4594 1212 4672 
Q 1544 4750 1819 4750 
Q 2544 4750 2975 4387 
Q 3406 4025 3406 3419 
Q 3406 3131 3298 2873 
Q 3191 2616 2906 2266 
Q 2828 2175 2409 1742 
Q 1991 1309 1228 531 
z
" transform="scale(0.015625)"/>
       </defs>
       <use xlink:href="#DejaVuSans-32"/>
       <use xlink:href="#DejaVuSans-30" x="63.623047"/>
      </g>
     </g>
    </g>
    <g id="xtick_3">
     <g id="line2d_3">
      <path d="M 179.599808 380.34 
L 179.599808 12.96 
" clip-path="url(#p5e0800cb71)" style="fill: none; stroke: #ffffff; stroke-linecap: round"/>
     </g>
     <g id="text_3">
      <!-- 40 -->
      <g style="fill: #262626" transform="translate(172.601058 398.198281)scale(0.11 -0.11)">
       <defs>
        <path id="DejaVuSans-34" d="M 2419 4116 
L 825 1625 
L 2419 1625 
L 2419 4116 
z
M 2253 4666 
L 3047 4666 
L 3047 1625 
L 3713 1625 
L 3713 1100 
L 3047 1100 
L 3047 0 
L 2419 0 
L 2419 1100 
L 313 1100 
L 313 1709 
L 2253 4666 
z
" transform="scale(0.015625)"/>
       </defs>
       <use xlink:href="#DejaVuSans-34"/>
       <use xlink:href="#DejaVuSans-30" x="63.623047"/>
      </g>
     </g>
    </g>
    <g id="xtick_4">
     <g id="line2d_4">
      <path d="M 222.425905 380.34 
L 222.425905 12.96 
" clip-path="url(#p5e0800cb71)" style="fill: none; stroke: #ffffff; stroke-linecap: round"/>
     </g>
     <g id="text_4">
      <!-- 60 -->
      <g style="fill: #262626" transform="translate(215.427155 398.198281)scale(0.11 -0.11)">
       <defs>
        <path id="DejaVuSans-36" d="M 2113 2584 
Q 1688 2584 1439 2293 
Q 1191 2003 1191 1497 
Q 1191 994 1439 701 
Q 1688 409 2113 409 
Q 2538 409 2786 701 
Q 3034 994 3034 1497 
Q 3034 2003 2786 2293 
Q 2538 2584 2113 2584 
z
M 3366 4563 
L 3366 3988 
Q 3128 4100 2886 4159 
Q 2644 4219 2406 4219 
Q 1781 4219 1451 3797 
Q 1122 3375 1075 2522 
Q 1259 2794 1537 2939 
Q 1816 3084 2150 3084 
Q 2853 3084 3261 2657 
Q 3669 2231 3669 1497 
Q 3669 778 3244 343 
Q 2819 -91 2113 -91 
Q 1303 -91 875 529 
Q 447 1150 447 2328 
Q 447 3434 972 4092 
Q 1497 4750 2381 4750 
Q 2619 4750 2861 4703 
Q 3103 4656 3366 4563 
z
" transform="scale(0.015625)"/>
       </defs>
       <use xlink:href="#DejaVuSans-36"/>
       <use xlink:href="#DejaVuSans-30" x="63.623047"/>
      </g>
     </g>
    </g>
    <g id="xtick_5">
     <g id="line2d_5">
      <path d="M 265.252003 380.34 
L 265.252003 12.96 
" clip-path="url(#p5e0800cb71)" style="fill: none; stroke: #ffffff; stroke-linecap: round"/>
     </g>
     <g id="text_5">
      <!-- 80 -->
      <g style="fill: #262626" transform="translate(258.253253 398.198281)scale(0.11 -0.11)">
       <defs>
        <path id="DejaVuSans-38" d="M 2034 2216 
Q 1584 2216 1326 1975 
Q 1069 1734 1069 1313 
Q 1069 891 1326 650 
Q 1584 409 2034 409 
Q 2484 409 2743 651 
Q 3003 894 3003 1313 
Q 3003 1734 2745 1975 
Q 2488 2216 2034 2216 
z
M 1403 2484 
Q 997 2584 770 2862 
Q 544 3141 544 3541 
Q 544 4100 942 4425 
Q 1341 4750 2034 4750 
Q 2731 4750 3128 4425 
Q 3525 4100 3525 3541 
Q 3525 3141 3298 2862 
Q 3072 2584 2669 2484 
Q 3125 2378 3379 2068 
Q 3634 1759 3634 1313 
Q 3634 634 3220 271 
Q 2806 -91 2034 -91 
Q 1263 -91 848 271 
Q 434 634 434 1313 
Q 434 1759 690 2068 
Q 947 2378 1403 2484 
z
M 1172 3481 
Q 1172 3119 1398 2916 
Q 1625 2713 2034 2713 
Q 2441 2713 2670 2916 
Q 2900 3119 2900 3481 
Q 2900 3844 2670 4047 
Q 2441 4250 2034 4250 
Q 1625 4250 1398 4047 
Q 1172 3844 1172 3481 
z
" transform="scale(0.015625)"/>
       </defs>
       <use xlink:href="#DejaVuSans-38"/>
       <use xlink:href="#DejaVuSans-30" x="63.623047"/>
      </g>
     </g>
    </g>
    <g id="xtick_6">
     <g id="line2d_6">
      <path d="M 308.0781 380.34 
L 308.0781 12.96 
" clip-path="url(#p5e0800cb71)" style="fill: none; stroke: #ffffff; stroke-linecap: round"/>
     </g>
     <g id="text_6">
      <!-- 100 -->
      <g style="fill: #262626" transform="translate(297.579975 398.198281)scale(0.11 -0.11)">
       <defs>
        <path id="DejaVuSans-31" d="M 794 531 
L 1825 531 
L 1825 4091 
L 703 3866 
L 703 4441 
L 1819 4666 
L 2450 4666 
L 2450 531 
L 3481 531 
L 3481 0 
L 794 0 
L 794 531 
z
" transform="scale(0.015625)"/>
       </defs>
       <use xlink:href="#DejaVuSans-31"/>
       <use xlink:href="#DejaVuSans-30" x="63.623047"/>
       <use xlink:href="#DejaVuSans-30" x="127.246094"/>
      </g>
     </g>
    </g>
    <g id="xtick_7">
     <g id="line2d_7">
      <path d="M 350.904198 380.34 
L 350.904198 12.96 
" clip-path="url(#p5e0800cb71)" style="fill: none; stroke: #ffffff; stroke-linecap: round"/>
     </g>
     <g id="text_7">
      <!-- 120 -->
      <g style="fill: #262626" transform="translate(340.406073 398.198281)scale(0.11 -0.11)">
       <use xlink:href="#DejaVuSans-31"/>
       <use xlink:href="#DejaVuSans-32" x="63.623047"/>
       <use xlink:href="#DejaVuSans-30" x="127.246094"/>
      </g>
     </g>
    </g>
    <g id="xtick_8">
     <g id="line2d_8">
      <path d="M 393.730295 380.34 
L 393.730295 12.96 
" clip-path="url(#p5e0800cb71)" style="fill: none; stroke: #ffffff; stroke-linecap: round"/>
     </g>
     <g id="text_8">
      <!-- 140 -->
      <g style="fill: #262626" transform="translate(383.23217 398.198281)scale(0.11 -0.11)">
       <use xlink:href="#DejaVuSans-31"/>
       <use xlink:href="#DejaVuSans-34" x="63.623047"/>
       <use xlink:href="#DejaVuSans-30" x="127.246094"/>
      </g>
     </g>
    </g>
    <g id="text_9">
     <!-- $x$ (m) -->
     <g style="fill: #262626" transform="translate(226.215 413.604063)scale(0.12 -0.12)">
      <defs>
       <path id="DejaVuSans-Oblique-78" d="M 3841 3500 
L 2234 1784 
L 3219 0 
L 2559 0 
L 1819 1388 
L 531 0 
L -166 0 
L 1556 1844 
L 641 3500 
L 1300 3500 
L 1972 2234 
L 3144 3500 
L 3841 3500 
z
" transform="scale(0.015625)"/>
       <path id="DejaVuSans-20" transform="scale(0.015625)"/>
       <path id="DejaVuSans-28" d="M 1984 4856 
Q 1566 4138 1362 3434 
Q 1159 2731 1159 2009 
Q 1159 1288 1364 580 
Q 1569 -128 1984 -844 
L 1484 -844 
Q 1016 -109 783 600 
Q 550 1309 550 2009 
Q 550 2706 781 3412 
Q 1013 4119 1484 4856 
L 1984 4856 
z
" transform="scale(0.015625)"/>
       <path id="DejaVuSans-6d" d="M 3328 2828 
Q 3544 3216 3844 3400 
Q 4144 3584 4550 3584 
Q 5097 3584 5394 3201 
Q 5691 2819 5691 2113 
L 5691 0 
L 5113 0 
L 5113 2094 
Q 5113 2597 4934 2840 
Q 4756 3084 4391 3084 
Q 3944 3084 3684 2787 
Q 3425 2491 3425 1978 
L 3425 0 
L 2847 0 
L 2847 2094 
Q 2847 2600 2669 2842 
Q 2491 3084 2119 3084 
Q 1678 3084 1418 2786 
Q 1159 2488 1159 1978 
L 1159 0 
L 581 0 
L 581 3500 
L 1159 3500 
L 1159 2956 
Q 1356 3278 1631 3431 
Q 1906 3584 2284 3584 
Q 2666 3584 2933 3390 
Q 3200 3197 3328 2828 
z
" transform="scale(0.015625)"/>
       <path id="DejaVuSans-29" d="M 513 4856 
L 1013 4856 
Q 1481 4119 1714 3412 
Q 1947 2706 1947 2009 
Q 1947 1309 1714 600 
Q 1481 -109 1013 -844 
L 513 -844 
Q 928 -128 1133 580 
Q 1338 1288 1338 2009 
Q 1338 2731 1133 3434 
Q 928 4138 513 4856 
z
" transform="scale(0.015625)"/>
      </defs>
      <use xlink:href="#DejaVuSans-Oblique-78" transform="translate(0 0.125)"/>
      <use xlink:href="#DejaVuSans-20" transform="translate(59.179688 0.125)"/>
      <use xlink:href="#DejaVuSans-28" transform="translate(90.966797 0.125)"/>
      <use xlink:href="#DejaVuSans-6d" transform="translate(129.980469 0.125)"/>
      <use xlink:href="#DejaVuSans-29" transform="translate(227.392578 0.125)"/>
     </g>
    </g>
   </g>
   <g id="matplotlib.axis_2">
    <g id="ytick_1">
     <g id="line2d_9">
      <path d="M 65.43 373.728552 
L 419.04 373.728552 
" clip-path="url(#p5e0800cb71)" style="fill: none; stroke: #ffffff; stroke-linecap: round"/>
     </g>
     <g id="text_10">
      <!-- −80 -->
      <g style="fill: #262626" transform="translate(32.714844 377.907693)scale(0.11 -0.11)">
       <defs>
        <path id="DejaVuSans-2212" d="M 678 2272 
L 4684 2272 
L 4684 1741 
L 678 1741 
L 678 2272 
z
" transform="scale(0.015625)"/>
       </defs>
       <use xlink:href="#DejaVuSans-2212"/>
       <use xlink:href="#DejaVuSans-38" x="83.789062"/>
       <use xlink:href="#DejaVuSans-30" x="147.412109"/>
      </g>
     </g>
    </g>
    <g id="ytick_2">
     <g id="line2d_10">
      <path d="M 65.43 330.902455 
L 419.04 330.902455 
" clip-path="url(#p5e0800cb71)" style="fill: none; stroke: #ffffff; stroke-linecap: round"/>
     </g>
     <g id="text_11">
      <!-- −60 -->
      <g style="fill: #262626" transform="translate(32.714844 335.081595)scale(0.11 -0.11)">
       <use xlink:href="#DejaVuSans-2212"/>
       <use xlink:href="#DejaVuSans-36" x="83.789062"/>
       <use xlink:href="#DejaVuSans-30" x="147.412109"/>
      </g>
     </g>
    </g>
    <g id="ytick_3">
     <g id="line2d_11">
      <path d="M 65.43 288.076357 
L 419.04 288.076357 
" clip-path="url(#p5e0800cb71)" style="fill: none; stroke: #ffffff; stroke-linecap: round"/>
     </g>
     <g id="text_12">
      <!-- −40 -->
      <g style="fill: #262626" transform="translate(32.714844 292.255498)scale(0.11 -0.11)">
       <use xlink:href="#DejaVuSans-2212"/>
       <use xlink:href="#DejaVuSans-34" x="83.789062"/>
       <use xlink:href="#DejaVuSans-30" x="147.412109"/>
      </g>
     </g>
    </g>
    <g id="ytick_4">
     <g id="line2d_12">
      <path d="M 65.43 245.25026 
L 419.04 245.25026 
" clip-path="url(#p5e0800cb71)" style="fill: none; stroke: #ffffff; stroke-linecap: round"/>
     </g>
     <g id="text_13">
      <!-- −20 -->
      <g style="fill: #262626" transform="translate(32.714844 249.4294)scale(0.11 -0.11)">
       <use xlink:href="#DejaVuSans-2212"/>
       <use xlink:href="#DejaVuSans-32" x="83.789062"/>
       <use xlink:href="#DejaVuSans-30" x="147.412109"/>
      </g>
     </g>
    </g>
    <g id="ytick_5">
     <g id="line2d_13">
      <path d="M 65.43 202.424162 
L 419.04 202.424162 
" clip-path="url(#p5e0800cb71)" style="fill: none; stroke: #ffffff; stroke-linecap: round"/>
     </g>
     <g id="text_14">
      <!-- 0 -->
      <g style="fill: #262626" transform="translate(48.93125 206.603303)scale(0.11 -0.11)">
       <use xlink:href="#DejaVuSans-30"/>
      </g>
     </g>
    </g>
    <g id="ytick_6">
     <g id="line2d_14">
      <path d="M 65.43 159.598065 
L 419.04 159.598065 
" clip-path="url(#p5e0800cb71)" style="fill: none; stroke: #ffffff; stroke-linecap: round"/>
     </g>
     <g id="text_15">
      <!-- 20 -->
      <g style="fill: #262626" transform="translate(41.9325 163.777205)scale(0.11 -0.11)">
       <use xlink:href="#DejaVuSans-32"/>
       <use xlink:href="#DejaVuSans-30" x="63.623047"/>
      </g>
     </g>
    </g>
    <g id="ytick_7">
     <g id="line2d_15">
      <path d="M 65.43 116.771967 
L 419.04 116.771967 
" clip-path="url(#p5e0800cb71)" style="fill: none; stroke: #ffffff; stroke-linecap: round"/>
     </g>
     <g id="text_16">
      <!-- 40 -->
      <g style="fill: #262626" transform="translate(41.9325 120.951108)scale(0.11 -0.11)">
       <use xlink:href="#DejaVuSans-34"/>
       <use xlink:href="#DejaVuSans-30" x="63.623047"/>
      </g>
     </g>
    </g>
    <g id="ytick_8">
     <g id="line2d_16">
      <path d="M 65.43 73.945869 
L 419.04 73.945869 
" clip-path="url(#p5e0800cb71)" style="fill: none; stroke: #ffffff; stroke-linecap: round"/>
     </g>
     <g id="text_17">
      <!-- 60 -->
      <g style="fill: #262626" transform="translate(41.9325 78.12501)scale(0.11 -0.11)">
       <use xlink:href="#DejaVuSans-36"/>
       <use xlink:href="#DejaVuSans-30" x="63.623047"/>
      </g>
     </g>
    </g>
    <g id="ytick_9">
     <g id="line2d_17">
      <path d="M 65.43 31.119772 
L 419.04 31.119772 
" clip-path="url(#p5e0800cb71)" style="fill: none; stroke: #ffffff; stroke-linecap: round"/>
     </g>
     <g id="text_18">
      <!-- 80 -->
      <g style="fill: #262626" transform="translate(41.9325 35.298913)scale(0.11 -0.11)">
       <use xlink:href="#DejaVuSans-38"/>
       <use xlink:href="#DejaVuSans-30" x="63.623047"/>
      </g>
     </g>
    </g>
    <g id="text_19">
     <!-- $y$ (m) -->
     <g style="fill: #262626" transform="translate(26.194844 212.67)rotate(-90)scale(0.12 -0.12)">
      <defs>
       <path id="DejaVuSans-Oblique-79" d="M 1588 -325 
Q 1188 -997 936 -1164 
Q 684 -1331 294 -1331 
L -159 -1331 
L -63 -850 
L 269 -850 
Q 509 -850 678 -719 
Q 847 -588 1056 -206 
L 1234 128 
L 459 3500 
L 1069 3500 
L 1650 819 
L 3256 3500 
L 3859 3500 
L 1588 -325 
z
" transform="scale(0.015625)"/>
      </defs>
      <use xlink:href="#DejaVuSans-Oblique-79" transform="translate(0 0.125)"/>
      <use xlink:href="#DejaVuSans-20" transform="translate(59.179688 0.125)"/>
      <use xlink:href="#DejaVuSans-28" transform="translate(90.966797 0.125)"/>
      <use xlink:href="#DejaVuSans-6d" transform="translate(129.980469 0.125)"/>
      <use xlink:href="#DejaVuSans-29" transform="translate(227.392578 0.125)"/>
     </g>
    </g>
   </g>
   <g id="patch_3">
    <path d="M 67.880028 221.594423 
L 89.293077 221.594423 
L 89.293077 200.181374 
L 67.880028 200.181374 
L 67.880028 221.594423 
z
" clip-path="url(#p5e0800cb71)" style="fill: none; stroke: #808080; stroke-linejoin: miter"/>
   </g>
   <g id="line2d_18">
    <path d="M 93.947613 202.424162 
L 95.171971 202.777858 
L 96.927037 203.305375 
L 98.323917 203.454694 
L 99.331466 203.397809 
L 102.470098 202.982045 
L 103.846239 203.002274 
L 108.652591 202.385364 
L 112.143094 202.181386 
L 116.435485 202.313084 
L 117.680801 202.47083 
L 124.176291 202.310431 
L 124.668625 202.353221 
L 125.72197 202.274297 
L 130.156759 202.240209 
L 135.246977 202.445805 
L 136.577305 202.571614 
L 139.111483 202.563336 
L 140.702812 202.595034 
L 141.220079 202.525887 
L 144.0621 202.762951 
L 145.697669 202.700917 
L 146.808058 202.786263 
L 149.948754 202.797345 
L 153.489978 202.757118 
L 154.572827 202.703337 
L 156.616839 202.577882 
L 160.716584 202.456672 
L 161.751646 202.490614 
L 164.216937 202.541524 
L 165.219097 202.553422 
L 167.570041 202.652308 
L 168.014137 202.557139 
L 168.449665 202.638772 
L 170.410422 202.590426 
L 171.466645 202.600248 
L 175.763887 202.507968 
L 177.381349 202.483975 
L 178.409819 202.563711 
L 179.525407 202.507029 
L 181.187007 202.526686 
L 187.919845 202.453049 
L 190.686186 202.391655 
L 192.261777 202.426603 
L 194.676744 202.39336 
L 195.429158 202.486928 
L 198.240264 202.471177 
L 201.002766 202.534025 
L 215.015641 202.371277 
L 219.150079 202.514062 
L 220.076377 202.501074 
L 236.279494 202.617695 
L 240.368216 202.910803 
L 246.292856 203.0129 
L 247.779252 202.956575 
L 249.834795 202.90421 
L 251.787317 202.834326 
L 253.289027 202.878477 
L 255.283347 202.902081 
L 256.841966 202.968364 
L 264.171901 203.067143 
L 268.499306 203.083179 
L 272.297689 203.10636 
L 286.786803 202.941389 
L 288.378058 202.92717 
L 308.322366 203.174754 
L 309.460278 203.201672 
L 311.684277 203.245751 
L 315.318755 203.27751 
L 317.743874 203.253592 
L 320.083315 203.244969 
L 322.399892 203.179666 
L 323.798021 203.167888 
L 335.422089 202.932078 
L 339.345258 203.017968 
L 340.849159 203.118786 
L 349.298869 203.333625 
L 349.898458 203.233679 
L 350.900365 203.30774 
L 352.99705 203.265717 
L 353.615537 203.220789 
L 354.186141 203.317821 
L 355.876427 203.254532 
L 357.613929 203.230996 
L 362.385486 203.231863 
L 365.391498 203.274308 
L 368.227066 203.318857 
L 370.792078 203.319543 
L 374.581386 203.313261 
L 378.745188 203.157754 
L 389.857905 203.226806 
L 391.35643 203.346127 
L 392.67481 203.75004 
L 393.456267 204.189045 
L 394.552665 205.017256 
L 396.918277 206.867998 
L 397.434835 207.081923 
L 398.607344 207.278204 
L 399.223312 207.258961 
L 400.002971 207.225205 
L 403.295854 206.337895 
L 405.154526 205.283862 
L 407.365045 203.170331 
L 408.112638 202.032114 
L 409.371171 199.535524 
L 409.723095 197.431204 
L 409.784101 196.011095 
L 409.598974 194.510003 
L 408.954983 192.332136 
L 408.286989 190.930572 
L 407.462174 189.68223 
L 405.967191 188.032367 
L 404.270044 186.799678 
L 403.060209 186.15605 
L 400.354319 185.36979 
L 397.765694 185.118009 
L 394.772103 184.922591 
L 393.082019 184.694882 
L 391.487658 184.201861 
L 390.406515 183.923094 
L 388.730434 183.728529 
L 386.69538 183.97173 
L 385.380766 184.157809 
L 383.715377 184.210116 
L 381.132591 183.718529 
L 377.910162 182.998261 
L 376.545581 183.049512 
L 373.199967 183.360497 
L 372.233886 183.345358 
L 361.803974 183.084218 
L 360.46508 183.10194 
L 358.388176 183.155051 
L 356.290914 183.15945 
L 352.979978 183.321877 
L 350.638841 183.66224 
L 341.176511 184.003027 
L 335.799619 184.00658 
L 334.184086 184.000905 
L 328.99989 183.957275 
L 326.121455 183.971254 
L 319.51213 183.92223 
L 318.438005 183.94015 
L 316.899983 183.97682 
L 314.386248 183.963318 
L 304.890972 184.003352 
L 297.030637 184.210988 
L 294.567883 184.298684 
L 291.91913 184.382628 
L 290.659295 184.365921 
L 284.902271 184.434666 
L 280.939345 184.418457 
L 280.40264 184.36012 
L 279.542801 184.434229 
L 277.667127 184.364319 
L 277.214485 184.238392 
L 275.424738 184.372133 
L 273.560874 184.427571 
L 264.842443 184.4247 
L 260.800392 184.462724 
L 238.418485 184.675162 
L 236.663848 184.688464 
L 235.85366 184.698251 
L 233.144726 184.575112 
L 232.293941 184.663263 
L 227.757241 184.707151 
L 226.959386 184.783305 
L 224.21474 184.843548 
L 222.588364 184.929119 
L 216.100859 184.941181 
L 213.849677 184.955159 
L 212.698367 184.931143 
L 212.15219 184.978722 
L 211.592225 184.899725 
L 211.126674 185.017027 
L 210.1109 185.018709 
L 208.593563 185.038384 
L 208.064792 185.000004 
L 207.565742 185.108316 
L 206.564022 185.058021 
L 205.050388 185.04293 
L 202.887211 185.008799 
L 200.25795 185.101857 
L 199.24833 185.145631 
L 197.58312 185.040382 
L 193.876123 185.082405 
L 192.802264 185.070642 
L 185.38089 185.156917 
L 178.256119 185.169598 
L 177.29529 185.175161 
L 170.142611 185.14967 
L 169.236743 185.207811 
L 167.509268 185.19712 
L 166.217487 185.276379 
L 164.514858 185.29034 
L 162.667448 185.274063 
L 157.053132 185.343742 
L 151.106244 185.501339 
L 148.459882 185.51646 
L 147.196791 185.528993 
L 145.503132 185.461974 
L 143.633622 185.483261 
L 142.688273 185.448754 
L 141.739556 185.515138 
L 140.184348 185.593838 
L 139.149015 185.556725 
L 131.572831 185.465297 
L 128.51047 185.554777 
L 125.590035 185.518447 
L 125.029555 185.646902 
L 123.348515 185.648633 
L 121.70789 185.696709 
L 119.449823 185.688387 
L 117.209025 185.749698 
L 109.882126 185.864035 
L 108.943538 185.841544 
L 107.047116 185.857936 
L 104.770028 185.817163 
L 103.912588 185.822043 
L 94.396117 185.607171 
L 93.220987 185.474596 
L 89.897216 185.84387 
L 88.441382 186.550916 
L 85.348069 188.638362 
L 83.731084 190.077375 
L 83.042371 190.529084 
L 79.86332 192.76723 
L 79.015869 194.013113 
L 78.531624 194.958298 
L 77.500698 197.629738 
L 77.22038 198.433734 
L 76.29922 200.060585 
L 75.741885 201.389127 
L 75.551003 202.338643 
L 75.605415 203.989523 
L 75.785507 205.228808 
L 76.061809 206.426483 
L 76.895578 208.174241 
L 77.879051 209.724684 
L 78.333674 210.380778 
L 78.73658 211.054833 
L 78.586552 210.887899 
" clip-path="url(#p5e0800cb71)" style="fill: none; stroke-dasharray: 5.55,2.4; stroke-dashoffset: 0; stroke: #000000; stroke-opacity: 0.5; stroke-width: 1.5"/>
   </g>
   <g id="line2d_19">
    <path d="M 96.793534 203.320997 
L 98.485448 203.853907 
L 99.747858 204.190567 
L 101.704331 204.285473 
L 103.552604 204.03282 
L 104.863461 203.863981 
L 105.632893 203.863675 
L 106.076451 203.790936 
L 106.540628 203.8908 
L 107.502753 203.68822 
L 109.37582 203.526083 
L 110.467601 203.480205 
L 118.345757 203.164512 
L 120.368044 203.389776 
L 126.048989 203.232942 
L 128.196656 203.194281 
L 134.832043 203.237073 
L 138.150067 203.402871 
L 139.493539 203.419718 
L 144.810113 203.498483 
L 146.454364 203.602894 
L 147.49378 203.548373 
L 150.007032 203.699171 
L 163.582892 203.204731 
L 164.546416 203.296893 
L 166.443937 203.308146 
L 167.817657 203.349752 
L 172.579016 203.346932 
L 173.108266 203.397217 
L 173.591387 203.320567 
L 175.295536 203.360077 
L 176.261259 203.289902 
L 177.351752 203.274813 
L 178.903372 203.200636 
L 180.556158 203.254162 
L 182.68443 203.226411 
L 183.727195 203.255115 
L 196.471603 203.103194 
L 197.17424 203.179068 
L 197.916982 203.132527 
L 203.323833 203.179272 
L 206.211298 203.121254 
L 207.216761 203.089545 
L 208.882665 203.090139 
L 209.741712 202.952492 
L 212.785321 203.017973 
L 213.938677 202.915498 
L 220.851507 203.074908 
L 223.077484 203.00788 
L 224.363778 203.068202 
L 235.311386 203.061769 
L 242.612741 203.438164 
L 250.861303 203.409233 
L 251.676868 203.387243 
L 254.721644 203.33085 
L 256.695978 203.40023 
L 281.922273 203.42962 
L 288.812665 203.317258 
L 306.254967 203.47081 
L 307.312002 203.475468 
L 308.996186 203.532185 
L 310.107497 203.522967 
L 332.412633 203.335569 
L 334.251258 203.203895 
L 335.233735 203.246569 
L 339.56551 203.326787 
L 340.764679 203.438685 
L 341.472189 203.443372 
L 348.875515 203.648372 
L 349.924557 203.540834 
L 350.930145 203.606922 
L 351.467004 203.639264 
L 355.896164 203.566035 
L 360.621685 203.567491 
L 362.329471 203.5715 
L 374.229623 203.633953 
L 376.895615 203.511192 
L 390.812645 203.760219 
L 391.6427 203.995301 
L 392.403609 204.335818 
L 395.717954 206.836054 
L 396.801256 207.276086 
L 397.881877 207.357303 
L 400.041551 207.247844 
L 401.28675 206.94234 
L 401.787729 206.733298 
L 402.233198 206.670624 
L 404.049799 205.778274 
L 405.447622 204.736986 
L 406.478711 203.804765 
L 406.910383 203.296278 
L 408.620056 200.524195 
L 408.860337 199.84113 
L 409.33391 196.366743 
L 409.278856 195.370472 
L 408.769845 193.154409 
L 407.79446 191.121127 
L 406.973878 189.906318 
L 406.053646 188.736876 
L 404.772473 187.661744 
L 403.002371 186.496047 
L 400.995236 185.702905 
L 397.04383 185.143047 
L 393.896469 184.894568 
L 391.158448 184.306002 
L 390.145248 183.999388 
L 388.307179 183.697887 
L 386.75453 183.734726 
L 385.386225 183.994199 
L 384.552391 184.053888 
L 382.849368 184.068344 
L 381.097315 183.825092 
L 379.632242 183.360916 
L 377.963005 183.026375 
L 376.703764 182.876357 
L 375.285463 183.009111 
L 374.390344 183.15097 
L 371.898941 183.136855 
L 369.396272 183.120694 
L 367.5779 183.005695 
L 365.879565 182.973151 
L 363.54957 182.921609 
L 353.538 182.962955 
L 352.234533 183.088859 
L 350.33288 183.367156 
L 348.802373 183.468904 
L 347.893181 183.558533 
L 338.093575 183.682494 
L 337.09255 183.698718 
L 328.846928 183.682674 
L 326.001146 183.66305 
L 322.464247 183.629757 
L 318.062375 183.552864 
L 315.440231 183.597212 
L 314.428243 183.556609 
L 309.534441 183.524035 
L 308.249005 183.490476 
L 304.345129 183.561165 
L 302.202605 183.614296 
L 301.155515 183.607547 
L 286.766885 183.879558 
L 285.043682 183.936037 
L 283.441709 183.953965 
L 277.250559 183.914138 
L 276.299976 183.728355 
L 275.522449 183.961976 
L 275.010113 183.847662 
L 272.570411 183.930413 
L 267.425824 183.941288 
L 261.076353 183.936951 
L 241.424038 184.228079 
L 240.870965 184.113897 
L 239.955377 184.224526 
L 238.046691 184.221842 
L 237.554479 184.158091 
L 228.248979 184.193917 
L 226.510692 184.234011 
L 222.06447 184.359504 
L 220.936855 184.392822 
L 216.072622 184.44327 
L 215.519847 184.381248 
L 214.424186 184.437677 
L 207.351587 184.469667 
L 206.38509 184.56964 
L 205.938366 184.501554 
L 204.439222 184.529296 
L 203.384775 184.465917 
L 201.861179 184.463847 
L 199.659335 184.536434 
L 198.179262 184.571022 
L 196.577945 184.485229 
L 194.594053 184.592551 
L 192.792927 184.463085 
L 188.615492 184.663617 
L 186.904693 184.632347 
L 169.156005 184.622452 
L 168.564825 184.681898 
L 166.430405 184.67709 
L 164.839403 184.683238 
L 162.421763 184.767067 
L 161.039016 184.697114 
L 159.395785 184.788895 
L 158.272076 184.727222 
L 157.256305 184.804834 
L 156.316086 184.719594 
L 155.342578 184.787042 
L 154.382906 184.801807 
L 149.834128 184.935491 
L 148.958251 184.950659 
L 147.680486 184.941553 
L 146.841853 184.969141 
L 125.02537 184.965329 
L 123.859472 185.084405 
L 122.821249 185.135872 
L 105.806003 185.349268 
L 104.891005 185.249002 
L 103.187796 185.349768 
L 102.376866 185.312034 
L 95.503325 185.116281 
L 94.988617 185.200153 
L 94.386203 185.082911 
L 89.807153 185.123275 
L 88.769815 185.336878 
L 87.771809 185.771738 
L 84.154008 188.078059 
L 83.002697 189.098777 
L 80.509204 190.754672 
L 78.954559 191.830589 
L 78.619748 192.157142 
L 76.929718 195.010719 
L 76.71651 195.47929 
L 76.431132 196.495809 
L 76.002898 197.588592 
L 75.156651 199.126347 
L 74.6114 200.378173 
L 74.486384 200.823286 
L 74.456181 202.504896 
L 74.677519 204.228704 
L 74.994828 205.371828 
L 76.425996 208.034969 
L 77.470101 209.590988 
L 77.371546 209.431488 
" clip-path="url(#p5e0800cb71)" style="fill: none; stroke: #4c72b0; stroke-opacity: 0.75; stroke-width: 1.5; stroke-linecap: round"/>
   </g>
   <g id="line2d_20">
    <path d="M 102.996054 204.957297 
L 104.250267 205.182248 
L 105.177764 204.913976 
L 105.965513 204.808523 
L 101.502714 203.814675 
L 102.194782 203.811925 
L 102.991374 203.69045 
L 103.520586 203.45999 
L 105.108498 203.079618 
L 110.116773 201.640036 
L 111.813322 201.386759 
L 112.441508 202.201571 
L 114.728489 202.115505 
L 116.670234 202.384239 
L 117.765161 202.405121 
L 118.697916 202.108198 
L 120.700947 202.161319 
L 121.647017 202.150232 
L 123.581533 201.67772 
L 126.81843 201.717289 
L 130.601925 202.664622 
L 132.193851 202.811027 
L 134.183966 201.342226 
L 138.072959 201.316885 
L 138.939883 201.390506 
L 140.475074 201.347378 
L 142.442119 201.521874 
L 142.783165 201.998778 
L 145.497003 202.279449 
L 148.007683 203.567499 
L 149.787104 203.741473 
L 150.653379 203.779911 
L 154.124505 202.509204 
L 157.590065 202.574988 
L 160.923998 203.54952 
L 165.123032 203.85815 
L 166.470906 204.06558 
L 168.072875 204.13921 
L 169.906046 201.449328 
L 173.1689 201.350907 
L 174.304322 202.508963 
L 178.696499 202.588983 
L 180.187607 203.945092 
L 182.933082 204.082631 
L 185.405014 202.221578 
L 187.085063 202.225092 
L 189.451366 202.2143 
L 190.081663 202.008272 
L 192.826957 201.985112 
L 195.998001 201.962971 
L 198.581951 202.210628 
L 200.105557 202.190338 
L 200.646306 202.191908 
L 201.843524 201.48439 
L 205.071275 201.475691 
L 208.389344 202.258287 
L 212.441025 202.313739 
L 213.790888 200.524361 
L 216.343772 200.439173 
L 219.38772 201.320558 
L 221.338031 201.306339 
L 222.968799 201.354625 
L 222.806457 202.769049 
L 225.873416 203.012932 
L 228.012553 201.410931 
L 230.644106 201.424609 
L 232.107023 201.465135 
L 233.376061 203.115876 
L 234.211851 203.139332 
L 235.23161 203.347864 
L 237.173245 203.499343 
L 239.70978 202.803446 
L 246.884567 203.205619 
L 247.650652 203.123484 
L 252.472891 203.476664 
L 255.090292 203.245268 
L 258.583143 203.453373 
L 261.142758 203.436676 
L 262.078088 203.517143 
L 264.572389 203.593545 
L 268.300134 203.876291 
L 270.84529 203.362096 
L 274.161889 203.515096 
L 275.799946 201.428417 
L 278.809237 201.336548 
L 281.179801 201.195168 
L 283.59707 201.207043 
L 286.368015 203.018634 
L 290.666901 203.265314 
L 292.139294 203.80376 
L 294.773437 204.029853 
L 298.117642 203.419583 
L 302.708204 203.629358 
L 303.988469 202.080821 
L 305.902572 202.108584 
L 306.838461 202.147491 
L 308.467353 202.986122 
L 312.802598 203.127147 
L 313.535631 202.207307 
L 316.638564 202.191573 
L 321.220649 202.157757 
L 324.192745 202.836619 
L 326.051158 202.949197 
L 327.823846 202.898778 
L 330.214757 202.976859 
L 331.89424 203.031457 
L 334.016916 202.240294 
L 337.639437 202.26569 
L 338.725285 203.537826 
L 341.135498 203.736961 
L 341.851951 202.181857 
L 345.868458 202.317786 
L 347.085108 202.599468 
L 349.901888 202.755071 
L 351.393157 202.710057 
L 352.935632 201.383389 
L 355.875724 201.306357 
L 357.850148 202.616896 
L 361.965297 202.824667 
L 364.047026 202.053871 
L 368.427866 202.110746 
L 369.377327 204.133266 
L 376.131255 204.670655 
L 377.004977 204.786082 
L 380.721532 202.732864 
L 383.942794 202.840002 
L 384.77257 202.823577 
L 385.76797 201.260302 
L 389.009741 201.284623 
L 389.481303 202.832334 
L 391.06577 202.924557 
L 392.33541 203.254689 
L 392.701058 203.378253 
L 396.87326 204.34571 
L 397.228239 206.030953 
L 398.802611 206.14496 
L 401.66296 206.546392 
L 403.115557 206.389979 
L 404.353387 206.075388 
L 403.886468 205.334649 
L 405.520042 204.439746 
L 406.739588 203.42917 
L 407.296368 202.617518 
L 409.374986 202.018144 
L 409.847802 201.154558 
L 410.274241 199.129817 
L 410.310266 196.282061 
L 410.032402 195.075699 
L 408.9617 192.846893 
L 408.217393 191.821758 
L 407.405054 190.969124 
L 405.631641 188.01038 
L 404.646704 187.318887 
L 402.489394 186.305614 
L 401.390602 186.055482 
L 399.963645 186.245031 
L 395.241353 185.639075 
L 392.649664 184.016679 
L 390.166463 183.498334 
L 389.275362 183.474481 
L 387.689464 183.552482 
L 385.825401 183.482174 
L 384.771154 185.007576 
L 384.16907 184.897114 
L 382.229312 184.24166 
L 379.614516 182.999873 
L 378.882162 182.849421 
L 377.288928 182.872548 
L 376.489684 182.938036 
L 374.20127 183.457058 
L 371.596468 183.216868 
L 368.463161 182.271771 
L 365.463048 181.947083 
L 364.126369 182.268554 
L 358.751514 181.955368 
L 358.01302 182.214376 
L 356.890571 182.155966 
L 354.149816 182.346586 
L 351.56551 185.325432 
L 349.976118 185.479791 
L 348.432772 185.579221 
L 346.074377 184.890424 
L 343.013636 184.971742 
L 340.794773 185.473676 
L 336.883635 185.492717 
L 336.400435 183.712016 
L 331.60197 183.475218 
L 328.418662 182.758555 
L 325.639783 182.596365 
L 320.44706 182.213105 
L 320.561852 183.770432 
L 317.482056 183.636998 
L 314.719045 184.257468 
L 311.111852 184.149165 
L 308.185228 184.690749 
L 307.459144 184.642987 
L 306.036522 184.725528 
L 303.997274 183.751569 
L 300.943707 183.708464 
L 299.787424 184.554826 
L 296.089207 184.598034 
L 293.610559 184.26029 
L 285.346812 184.166514 
L 282.800627 183.981065 
L 281.773815 185.643099 
L 279.355246 185.44784 
L 278.672939 185.638869 
L 275.190704 183.847308 
L 273.64887 183.857575 
L 268.79316 183.589116 
L 267.847161 183.457802 
L 264.787467 185.905497 
L 260.800809 185.956116 
L 261.291777 183.9219 
L 258.173414 183.795964 
L 256.670014 183.250969 
L 254.00254 183.012548 
L 252.388115 182.885428 
L 250.707164 183.724908 
L 248.774031 183.669355 
L 247.86165 183.482525 
L 246.902117 183.481791 
L 244.587305 185.675235 
L 242.05629 185.657791 
L 241.239865 185.567439 
L 238.450671 186.619085 
L 236.283933 186.574244 
L 233.385343 185.565828 
L 231.308619 185.494617 
L 230.445025 185.273443 
L 225.946995 185.314727 
L 224.126736 185.367018 
L 222.521411 185.272688 
L 220.36152 185.481957 
L 216.427545 185.318634 
L 215.493133 185.025538 
L 214.540767 184.976815 
L 213.691412 185.060225 
L 211.429099 184.88988 
L 208.581547 185.620876 
L 205.074732 185.423338 
L 201.022557 185.535725 
L 199.13953 185.424026 
L 197.300048 185.784254 
L 194.017698 185.554828 
L 193.635261 186.71658 
L 192.757473 186.654395 
L 191.864941 186.76776 
L 191.30074 186.68099 
L 189.512747 186.637788 
L 180.931258 186.100478 
L 180.03561 186.143499 
L 171.778003 185.641518 
L 171.883531 186.452318 
L 170.372059 186.388894 
L 168.928122 186.416739 
L 166.903685 185.756258 
L 164.739782 185.652482 
L 163.193227 185.569524 
L 161.498923 185.16951 
L 157.520205 184.86051 
L 156.258771 185.462728 
L 147.639489 184.908897 
L 145.730058 185.524552 
L 143.713379 185.446501 
L 141.591017 185.29485 
L 140.631636 186.945106 
L 137.269517 186.767701 
L 133.735197 186.637835 
L 132.37466 187.242807 
L 128.401137 187.25691 
L 128.998803 186.218337 
L 122.319591 185.926669 
L 124.473783 186.441458 
L 119.792432 186.256478 
L 116.140362 186.149959 
L 116.988553 185.69157 
L 109.131835 185.217889 
L 111.983756 186.51053 
L 106.465352 186.270959 
L 109.522141 185.63703 
L 106.610833 185.342411 
L 103.879378 185.12707 
L 103.280159 185.820085 
L 98.301938 185.370759 
L 96.490605 185.198659 
L 97.142648 186.929305 
L 90.516649 186.492949 
L 88.815162 186.447302 
L 90.405488 186.574756 
L 83.715944 187.992721 
L 85.991953 190.348226 
L 82.549517 192.132628 
L 84.36881 190.137924 
L 82.166837 191.306674 
L 80.093682 192.316817 
L 78.895834 193.133502 
L 79.147263 193.353827 
L 78.189252 194.320695 
L 76.558065 196.242195 
L 77.311058 197.859025 
L 76.408129 198.88513 
L 74.828256 201.130243 
L 74.159734 202.287052 
L 75.869883 200.410406 
L 75.674028 201.607672 
L 75.610188 202.908617 
L 75.721638 204.245182 
L 76.152664 205.403503 
L 76.781994 206.516303 
L 77.66472 208.695134 
L 78.281374 210.133733 
L 78.219283 210.014991 
L 79.120466 210.114493 
L 78.732846 211.352917 
L 78.732846 211.352917 
" clip-path="url(#p5e0800cb71)" style="fill: none; stroke: #55a868; stroke-opacity: 0.75; stroke-width: 1.5; stroke-linecap: round"/>
   </g>
   <g id="line2d_21">
    <path d="M 94.53786 203.392038 
L 96.667292 204.062847 
L 97.48686 204.267048 
L 99.465538 204.359704 
L 100.890819 204.178371 
L 102.60925 203.949852 
L 103.394759 203.940226 
L 103.848288 203.882679 
L 104.310134 203.976236 
L 105.274245 203.773025 
L 107.190606 203.600311 
L 108.282248 203.533866 
L 112.984376 203.362991 
L 116.205208 203.21495 
L 118.186771 203.4306 
L 124.504268 203.304164 
L 134.83538 203.332052 
L 136.755284 203.472697 
L 138.744205 203.433778 
L 139.740867 203.508004 
L 141.463429 203.47431 
L 142.012176 203.446552 
L 143.625194 203.646775 
L 146.793581 203.6729 
L 147.771288 203.748739 
L 152.43253 203.620112 
L 155.086087 203.530211 
L 157.457058 203.334008 
L 157.87994 203.41346 
L 159.415817 203.302901 
L 161.611673 203.337816 
L 163.969751 203.359553 
L 164.910717 203.394878 
L 193.277291 203.118602 
L 194.048049 203.130572 
L 194.775986 203.213054 
L 195.535037 203.165686 
L 202.792863 203.214256 
L 204.780313 203.102667 
L 206.408536 203.107876 
L 207.245373 202.961368 
L 210.169921 203.036925 
L 211.320433 202.934864 
L 219.925492 203.047944 
L 220.871975 203.079335 
L 222.19595 203.07161 
L 227.475424 203.046725 
L 228.546654 203.026261 
L 230.010827 203.064968 
L 236.801012 203.241959 
L 238.513583 203.346366 
L 241.599627 203.498826 
L 242.198509 203.441671 
L 243.352547 203.515899 
L 245.475688 203.396785 
L 247.117865 203.350967 
L 260.485071 203.438264 
L 262.630896 203.469695 
L 265.374967 203.393031 
L 265.908713 203.462351 
L 266.450809 203.397431 
L 267.528132 203.411089 
L 271.296355 203.444821 
L 294.138679 203.221363 
L 303.333977 203.301396 
L 305.511516 203.330202 
L 307.167478 203.359379 
L 309.998078 203.456317 
L 314.838734 203.410564 
L 317.721153 203.356535 
L 319.058061 203.314007 
L 321.437762 203.26258 
L 324.909983 203.230052 
L 326.348592 203.178698 
L 331.364104 202.97519 
L 332.315255 203.007285 
L 335.438128 203.060082 
L 336.995572 203.13365 
L 338.197782 203.138981 
L 339.637335 203.204056 
L 341.326729 203.288629 
L 345.497983 203.404703 
L 347.060574 203.237853 
L 348.062019 203.300894 
L 349.710683 203.285924 
L 350.253647 203.183126 
L 350.77096 203.294997 
L 355.226341 203.241652 
L 377.882243 203.036539 
L 379.906654 203.025055 
L 388.350902 203.338825 
L 389.522314 203.832905 
L 393.216337 206.519405 
L 393.937567 206.739203 
L 395.029647 206.825319 
L 397.18668 206.708876 
L 398.408121 206.398459 
L 400.682525 205.491329 
L 401.608198 204.911074 
L 403.597984 203.221167 
L 404.02058 202.717138 
L 405.726416 199.932677 
L 405.958614 199.258623 
L 406.40199 195.848966 
L 406.182098 194.133613 
L 405.835595 192.70596 
L 404.53304 190.056638 
L 403.164537 188.370204 
L 401.963641 187.338379 
L 400.222433 186.228802 
L 398.266319 185.460837 
L 395.106957 184.961473 
L 390.329771 184.514482 
L 388.786334 184.116985 
L 387.786545 183.813313 
L 385.913792 183.546336 
L 384.919244 183.556303 
L 383.976438 183.695942 
L 382.27184 183.901132 
L 380.609213 183.926031 
L 378.495616 183.554829 
L 374.883251 182.781633 
L 373.56445 182.872092 
L 370.201511 183.063283 
L 362.242353 182.854854 
L 359.882575 182.813429 
L 357.369308 182.867779 
L 350.683914 183.062494 
L 348.790496 183.344246 
L 347.283152 183.447866 
L 346.384116 183.536305 
L 343.110887 183.643632 
L 340.967734 183.682778 
L 334.936601 183.702293 
L 326.86889 183.663301 
L 325.148208 183.691271 
L 319.630382 183.642275 
L 316.41318 183.624228 
L 314.983314 183.650828 
L 313.984365 183.607574 
L 312.463723 183.632865 
L 306.351092 183.565776 
L 305.954922 183.645905 
L 305.126623 183.586607 
L 302.553773 183.755103 
L 301.865133 183.70077 
L 293.155748 183.995485 
L 288.260968 184.036108 
L 282.899936 184.117851 
L 281.87111 184.13203 
L 277.541707 183.958167 
L 277.07891 183.876209 
L 276.29473 184.110685 
L 275.855645 184.008189 
L 273.040694 184.092374 
L 267.652847 184.064479 
L 266.573035 183.983993 
L 265.142479 184.096315 
L 249.269972 184.362863 
L 248.204571 184.397437 
L 243.759104 184.41176 
L 243.207136 184.307793 
L 242.306321 184.421081 
L 236.577701 184.370143 
L 234.892938 184.308108 
L 233.14775 184.399683 
L 232.801129 184.320074 
L 231.632537 184.411749 
L 219.005715 184.671229 
L 218.468281 184.60187 
L 217.392812 184.665858 
L 215.632516 184.620806 
L 215.084972 184.584732 
L 214.522884 184.709453 
L 213.995087 184.589957 
L 211.673739 184.725029 
L 209.550363 184.80591 
L 209.106516 184.739242 
L 207.681907 184.778799 
L 206.629242 184.710814 
L 205.640746 184.691604 
L 201.523746 184.811703 
L 199.944509 184.736202 
L 197.999461 184.832338 
L 196.262799 184.712136 
L 192.202124 184.916589 
L 191.550611 184.857749 
L 186.463238 184.870713 
L 181.178601 184.888279 
L 180.271746 184.876571 
L 169.95325 184.953374 
L 169.580584 185.012325 
L 169.248287 184.937853 
L 166.934506 185.035438 
L 165.593574 184.956038 
L 164.368147 185.033031 
L 161.978599 185.081801 
L 160.574082 185.057264 
L 157.707564 185.085769 
L 151.921028 185.232781 
L 133.800951 185.257423 
L 132.933453 185.263854 
L 128.933434 185.333338 
L 127.395325 185.391966 
L 125.098454 185.396408 
L 122.395798 185.43052 
L 119.783464 185.511362 
L 118.824441 185.494115 
L 115.208836 185.562019 
L 113.891397 185.544048 
L 109.491684 185.582771 
L 108.679982 185.551528 
L 105.24595 185.429328 
L 104.250372 185.403316 
L 102.078957 185.364645 
L 101.579339 185.451919 
L 101.023604 185.321997 
L 96.514153 185.354124 
L 95.505502 185.566992 
L 94.5817 185.98273 
L 91.036337 188.216692 
L 90.773746 188.498564 
L 89.092043 189.815838 
L 88.670057 189.99588 
L 88.04884 190.487482 
L 85.892043 191.943611 
L 85.546595 192.271953 
L 84.536289 193.90112 
L 84.128427 194.750303 
L 83.70262 195.555225 
L 83.342411 196.801423 
L 82.986351 197.660007 
L 82.292907 198.759624 
L 81.467045 200.890587 
L 81.443617 202.578967 
L 81.66324 204.28675 
L 81.985299 205.417695 
L 83.060913 207.594138 
L 84.445098 209.670801 
L 84.348862 209.508714 
" clip-path="url(#p5e0800cb71)" style="fill: none; stroke: #c44e52; stroke-opacity: 0.75; stroke-width: 1.5; stroke-linecap: round"/>
   </g>
   <g id="patch_4">
    <path d="M 65.43 380.34 
L 65.43 12.96 
" style="fill: none; stroke: #ffffff; stroke-width: 1.25; stroke-linejoin: miter; stroke-linecap: square"/>
   </g>
   <g id="patch_5">
    <path d="M 419.04 380.34 
L 419.04 12.96 
" style="fill: none; stroke: #ffffff; stroke-width: 1.25; stroke-linejoin: miter; stroke-linecap: square"/>
   </g>
   <g id="patch_6">
    <path d="M 65.43 380.34 
L 419.04 380.34 
" style="fill: none; stroke: #ffffff; stroke-width: 1.25; stroke-linejoin: miter; stroke-linecap: square"/>
   </g>
   <g id="patch_7">
    <path d="M 65.43 12.96 
L 419.04 12.96 
" style="fill: none; stroke: #ffffff; stroke-width: 1.25; stroke-linejoin: miter; stroke-linecap: square"/>
   </g>
   <g id="legend_1">
    <g id="patch_8">
     <path d="M 204.132656 86.34375 
L 411.34 86.34375 
Q 413.54 86.34375 413.54 84.14375 
L 413.54 20.66 
Q 413.54 18.46 411.34 18.46 
L 204.132656 18.46 
Q 201.932656 18.46 201.932656 20.66 
L 201.932656 84.14375 
Q 201.932656 86.34375 204.132656 86.34375 
z
" style="fill: #eaeaf2; opacity: 0.8; stroke: #cccccc; stroke-linejoin: miter"/>
    </g>
    <g id="line2d_22">
     <path d="M 206.332656 27.368281 
L 217.332656 27.368281 
L 228.332656 27.368281 
" style="fill: none; stroke-dasharray: 5.55,2.4; stroke-dashoffset: 0; stroke: #000000; stroke-opacity: 0.5; stroke-width: 1.5"/>
    </g>
    <g id="text_20">
     <!-- Ground Truth -->
     <g style="fill: #262626" transform="translate(237.132656 31.218281)scale(0.11 -0.11)">
      <defs>
       <path id="DejaVuSans-47" d="M 3809 666 
L 3809 1919 
L 2778 1919 
L 2778 2438 
L 4434 2438 
L 4434 434 
Q 4069 175 3628 42 
Q 3188 -91 2688 -91 
Q 1594 -91 976 548 
Q 359 1188 359 2328 
Q 359 3472 976 4111 
Q 1594 4750 2688 4750 
Q 3144 4750 3555 4637 
Q 3966 4525 4313 4306 
L 4313 3634 
Q 3963 3931 3569 4081 
Q 3175 4231 2741 4231 
Q 1884 4231 1454 3753 
Q 1025 3275 1025 2328 
Q 1025 1384 1454 906 
Q 1884 428 2741 428 
Q 3075 428 3337 486 
Q 3600 544 3809 666 
z
" transform="scale(0.015625)"/>
       <path id="DejaVuSans-72" d="M 2631 2963 
Q 2534 3019 2420 3045 
Q 2306 3072 2169 3072 
Q 1681 3072 1420 2755 
Q 1159 2438 1159 1844 
L 1159 0 
L 581 0 
L 581 3500 
L 1159 3500 
L 1159 2956 
Q 1341 3275 1631 3429 
Q 1922 3584 2338 3584 
Q 2397 3584 2469 3576 
Q 2541 3569 2628 3553 
L 2631 2963 
z
" transform="scale(0.015625)"/>
       <path id="DejaVuSans-6f" d="M 1959 3097 
Q 1497 3097 1228 2736 
Q 959 2375 959 1747 
Q 959 1119 1226 758 
Q 1494 397 1959 397 
Q 2419 397 2687 759 
Q 2956 1122 2956 1747 
Q 2956 2369 2687 2733 
Q 2419 3097 1959 3097 
z
M 1959 3584 
Q 2709 3584 3137 3096 
Q 3566 2609 3566 1747 
Q 3566 888 3137 398 
Q 2709 -91 1959 -91 
Q 1206 -91 779 398 
Q 353 888 353 1747 
Q 353 2609 779 3096 
Q 1206 3584 1959 3584 
z
" transform="scale(0.015625)"/>
       <path id="DejaVuSans-75" d="M 544 1381 
L 544 3500 
L 1119 3500 
L 1119 1403 
Q 1119 906 1312 657 
Q 1506 409 1894 409 
Q 2359 409 2629 706 
Q 2900 1003 2900 1516 
L 2900 3500 
L 3475 3500 
L 3475 0 
L 2900 0 
L 2900 538 
Q 2691 219 2414 64 
Q 2138 -91 1772 -91 
Q 1169 -91 856 284 
Q 544 659 544 1381 
z
M 1991 3584 
L 1991 3584 
z
" transform="scale(0.015625)"/>
       <path id="DejaVuSans-6e" d="M 3513 2113 
L 3513 0 
L 2938 0 
L 2938 2094 
Q 2938 2591 2744 2837 
Q 2550 3084 2163 3084 
Q 1697 3084 1428 2787 
Q 1159 2491 1159 1978 
L 1159 0 
L 581 0 
L 581 3500 
L 1159 3500 
L 1159 2956 
Q 1366 3272 1645 3428 
Q 1925 3584 2291 3584 
Q 2894 3584 3203 3211 
Q 3513 2838 3513 2113 
z
" transform="scale(0.015625)"/>
       <path id="DejaVuSans-64" d="M 2906 2969 
L 2906 4863 
L 3481 4863 
L 3481 0 
L 2906 0 
L 2906 525 
Q 2725 213 2448 61 
Q 2172 -91 1784 -91 
Q 1150 -91 751 415 
Q 353 922 353 1747 
Q 353 2572 751 3078 
Q 1150 3584 1784 3584 
Q 2172 3584 2448 3432 
Q 2725 3281 2906 2969 
z
M 947 1747 
Q 947 1113 1208 752 
Q 1469 391 1925 391 
Q 2381 391 2643 752 
Q 2906 1113 2906 1747 
Q 2906 2381 2643 2742 
Q 2381 3103 1925 3103 
Q 1469 3103 1208 2742 
Q 947 2381 947 1747 
z
" transform="scale(0.015625)"/>
       <path id="DejaVuSans-54" d="M -19 4666 
L 3928 4666 
L 3928 4134 
L 2272 4134 
L 2272 0 
L 1638 0 
L 1638 4134 
L -19 4134 
L -19 4666 
z
" transform="scale(0.015625)"/>
       <path id="DejaVuSans-74" d="M 1172 4494 
L 1172 3500 
L 2356 3500 
L 2356 3053 
L 1172 3053 
L 1172 1153 
Q 1172 725 1289 603 
Q 1406 481 1766 481 
L 2356 481 
L 2356 0 
L 1766 0 
Q 1100 0 847 248 
Q 594 497 594 1153 
L 594 3053 
L 172 3053 
L 172 3500 
L 594 3500 
L 594 4494 
L 1172 4494 
z
" transform="scale(0.015625)"/>
       <path id="DejaVuSans-68" d="M 3513 2113 
L 3513 0 
L 2938 0 
L 2938 2094 
Q 2938 2591 2744 2837 
Q 2550 3084 2163 3084 
Q 1697 3084 1428 2787 
Q 1159 2491 1159 1978 
L 1159 0 
L 581 0 
L 581 4863 
L 1159 4863 
L 1159 2956 
Q 1366 3272 1645 3428 
Q 1925 3584 2291 3584 
Q 2894 3584 3203 3211 
Q 3513 2838 3513 2113 
z
" transform="scale(0.015625)"/>
      </defs>
      <use xlink:href="#DejaVuSans-47"/>
      <use xlink:href="#DejaVuSans-72" x="77.490234"/>
      <use xlink:href="#DejaVuSans-6f" x="116.353516"/>
      <use xlink:href="#DejaVuSans-75" x="177.535156"/>
      <use xlink:href="#DejaVuSans-6e" x="240.914062"/>
      <use xlink:href="#DejaVuSans-64" x="304.292969"/>
      <use xlink:href="#DejaVuSans-20" x="367.769531"/>
      <use xlink:href="#DejaVuSans-54" x="399.556641"/>
      <use xlink:href="#DejaVuSans-72" x="445.890625"/>
      <use xlink:href="#DejaVuSans-75" x="487.003906"/>
      <use xlink:href="#DejaVuSans-74" x="550.382812"/>
      <use xlink:href="#DejaVuSans-68" x="589.591797"/>
     </g>
    </g>
    <g id="line2d_23">
     <path d="M 206.332656 43.514219 
L 217.332656 43.514219 
L 228.332656 43.514219 
" style="fill: none; stroke: #4c72b0; stroke-opacity: 0.75; stroke-width: 1.5; stroke-linecap: round"/>
    </g>
    <g id="text_21">
     <!-- GNSS-Stereo-Inertial (Ours) -->
     <g style="fill: #262626" transform="translate(237.132656 47.364219)scale(0.11 -0.11)">
      <defs>
       <path id="DejaVuSans-4e" d="M 628 4666 
L 1478 4666 
L 3547 763 
L 3547 4666 
L 4159 4666 
L 4159 0 
L 3309 0 
L 1241 3903 
L 1241 0 
L 628 0 
L 628 4666 
z
" transform="scale(0.015625)"/>
       <path id="DejaVuSans-53" d="M 3425 4513 
L 3425 3897 
Q 3066 4069 2747 4153 
Q 2428 4238 2131 4238 
Q 1616 4238 1336 4038 
Q 1056 3838 1056 3469 
Q 1056 3159 1242 3001 
Q 1428 2844 1947 2747 
L 2328 2669 
Q 3034 2534 3370 2195 
Q 3706 1856 3706 1288 
Q 3706 609 3251 259 
Q 2797 -91 1919 -91 
Q 1588 -91 1214 -16 
Q 841 59 441 206 
L 441 856 
Q 825 641 1194 531 
Q 1563 422 1919 422 
Q 2459 422 2753 634 
Q 3047 847 3047 1241 
Q 3047 1584 2836 1778 
Q 2625 1972 2144 2069 
L 1759 2144 
Q 1053 2284 737 2584 
Q 422 2884 422 3419 
Q 422 4038 858 4394 
Q 1294 4750 2059 4750 
Q 2388 4750 2728 4690 
Q 3069 4631 3425 4513 
z
" transform="scale(0.015625)"/>
       <path id="DejaVuSans-2d" d="M 313 2009 
L 1997 2009 
L 1997 1497 
L 313 1497 
L 313 2009 
z
" transform="scale(0.015625)"/>
       <path id="DejaVuSans-65" d="M 3597 1894 
L 3597 1613 
L 953 1613 
Q 991 1019 1311 708 
Q 1631 397 2203 397 
Q 2534 397 2845 478 
Q 3156 559 3463 722 
L 3463 178 
Q 3153 47 2828 -22 
Q 2503 -91 2169 -91 
Q 1331 -91 842 396 
Q 353 884 353 1716 
Q 353 2575 817 3079 
Q 1281 3584 2069 3584 
Q 2775 3584 3186 3129 
Q 3597 2675 3597 1894 
z
M 3022 2063 
Q 3016 2534 2758 2815 
Q 2500 3097 2075 3097 
Q 1594 3097 1305 2825 
Q 1016 2553 972 2059 
L 3022 2063 
z
" transform="scale(0.015625)"/>
       <path id="DejaVuSans-49" d="M 628 4666 
L 1259 4666 
L 1259 0 
L 628 0 
L 628 4666 
z
" transform="scale(0.015625)"/>
       <path id="DejaVuSans-69" d="M 603 3500 
L 1178 3500 
L 1178 0 
L 603 0 
L 603 3500 
z
M 603 4863 
L 1178 4863 
L 1178 4134 
L 603 4134 
L 603 4863 
z
" transform="scale(0.015625)"/>
       <path id="DejaVuSans-61" d="M 2194 1759 
Q 1497 1759 1228 1600 
Q 959 1441 959 1056 
Q 959 750 1161 570 
Q 1363 391 1709 391 
Q 2188 391 2477 730 
Q 2766 1069 2766 1631 
L 2766 1759 
L 2194 1759 
z
M 3341 1997 
L 3341 0 
L 2766 0 
L 2766 531 
Q 2569 213 2275 61 
Q 1981 -91 1556 -91 
Q 1019 -91 701 211 
Q 384 513 384 1019 
Q 384 1609 779 1909 
Q 1175 2209 1959 2209 
L 2766 2209 
L 2766 2266 
Q 2766 2663 2505 2880 
Q 2244 3097 1772 3097 
Q 1472 3097 1187 3025 
Q 903 2953 641 2809 
L 641 3341 
Q 956 3463 1253 3523 
Q 1550 3584 1831 3584 
Q 2591 3584 2966 3190 
Q 3341 2797 3341 1997 
z
" transform="scale(0.015625)"/>
       <path id="DejaVuSans-6c" d="M 603 4863 
L 1178 4863 
L 1178 0 
L 603 0 
L 603 4863 
z
" transform="scale(0.015625)"/>
       <path id="DejaVuSans-4f" d="M 2522 4238 
Q 1834 4238 1429 3725 
Q 1025 3213 1025 2328 
Q 1025 1447 1429 934 
Q 1834 422 2522 422 
Q 3209 422 3611 934 
Q 4013 1447 4013 2328 
Q 4013 3213 3611 3725 
Q 3209 4238 2522 4238 
z
M 2522 4750 
Q 3503 4750 4090 4092 
Q 4678 3434 4678 2328 
Q 4678 1225 4090 567 
Q 3503 -91 2522 -91 
Q 1538 -91 948 565 
Q 359 1222 359 2328 
Q 359 3434 948 4092 
Q 1538 4750 2522 4750 
z
" transform="scale(0.015625)"/>
       <path id="DejaVuSans-73" d="M 2834 3397 
L 2834 2853 
Q 2591 2978 2328 3040 
Q 2066 3103 1784 3103 
Q 1356 3103 1142 2972 
Q 928 2841 928 2578 
Q 928 2378 1081 2264 
Q 1234 2150 1697 2047 
L 1894 2003 
Q 2506 1872 2764 1633 
Q 3022 1394 3022 966 
Q 3022 478 2636 193 
Q 2250 -91 1575 -91 
Q 1294 -91 989 -36 
Q 684 19 347 128 
L 347 722 
Q 666 556 975 473 
Q 1284 391 1588 391 
Q 1994 391 2212 530 
Q 2431 669 2431 922 
Q 2431 1156 2273 1281 
Q 2116 1406 1581 1522 
L 1381 1569 
Q 847 1681 609 1914 
Q 372 2147 372 2553 
Q 372 3047 722 3315 
Q 1072 3584 1716 3584 
Q 2034 3584 2315 3537 
Q 2597 3491 2834 3397 
z
" transform="scale(0.015625)"/>
      </defs>
      <use xlink:href="#DejaVuSans-47"/>
      <use xlink:href="#DejaVuSans-4e" x="77.490234"/>
      <use xlink:href="#DejaVuSans-53" x="152.294922"/>
      <use xlink:href="#DejaVuSans-53" x="215.771484"/>
      <use xlink:href="#DejaVuSans-2d" x="279.248047"/>
      <use xlink:href="#DejaVuSans-53" x="315.332031"/>
      <use xlink:href="#DejaVuSans-74" x="378.808594"/>
      <use xlink:href="#DejaVuSans-65" x="418.017578"/>
      <use xlink:href="#DejaVuSans-72" x="479.541016"/>
      <use xlink:href="#DejaVuSans-65" x="518.404297"/>
      <use xlink:href="#DejaVuSans-6f" x="579.927734"/>
      <use xlink:href="#DejaVuSans-2d" x="642.984375"/>
      <use xlink:href="#DejaVuSans-49" x="679.068359"/>
      <use xlink:href="#DejaVuSans-6e" x="708.560547"/>
      <use xlink:href="#DejaVuSans-65" x="771.939453"/>
      <use xlink:href="#DejaVuSans-72" x="833.462891"/>
      <use xlink:href="#DejaVuSans-74" x="874.576172"/>
      <use xlink:href="#DejaVuSans-69" x="913.785156"/>
      <use xlink:href="#DejaVuSans-61" x="941.568359"/>
      <use xlink:href="#DejaVuSans-6c" x="1002.847656"/>
      <use xlink:href="#DejaVuSans-20" x="1030.630859"/>
      <use xlink:href="#DejaVuSans-28" x="1062.417969"/>
      <use xlink:href="#DejaVuSans-4f" x="1101.431641"/>
      <use xlink:href="#DejaVuSans-75" x="1180.142578"/>
      <use xlink:href="#DejaVuSans-72" x="1243.521484"/>
      <use xlink:href="#DejaVuSans-73" x="1284.634766"/>
      <use xlink:href="#DejaVuSans-29" x="1336.734375"/>
     </g>
    </g>
    <g id="line2d_24">
     <path d="M 206.332656 59.660156 
L 217.332656 59.660156 
L 228.332656 59.660156 
" style="fill: none; stroke: #55a868; stroke-opacity: 0.75; stroke-width: 1.5; stroke-linecap: round"/>
    </g>
    <g id="text_22">
     <!-- GNSS-Stereo-Inertial (Qin et al) -->
     <g style="fill: #262626" transform="translate(237.132656 63.510156)scale(0.11 -0.11)">
      <defs>
       <path id="DejaVuSans-51" d="M 2522 4238 
Q 1834 4238 1429 3725 
Q 1025 3213 1025 2328 
Q 1025 1447 1429 934 
Q 1834 422 2522 422 
Q 3209 422 3611 934 
Q 4013 1447 4013 2328 
Q 4013 3213 3611 3725 
Q 3209 4238 2522 4238 
z
M 3406 84 
L 4238 -825 
L 3475 -825 
L 2784 -78 
Q 2681 -84 2626 -87 
Q 2572 -91 2522 -91 
Q 1538 -91 948 567 
Q 359 1225 359 2328 
Q 359 3434 948 4092 
Q 1538 4750 2522 4750 
Q 3503 4750 4090 4092 
Q 4678 3434 4678 2328 
Q 4678 1516 4351 937 
Q 4025 359 3406 84 
z
" transform="scale(0.015625)"/>
      </defs>
      <use xlink:href="#DejaVuSans-47"/>
      <use xlink:href="#DejaVuSans-4e" x="77.490234"/>
      <use xlink:href="#DejaVuSans-53" x="152.294922"/>
      <use xlink:href="#DejaVuSans-53" x="215.771484"/>
      <use xlink:href="#DejaVuSans-2d" x="279.248047"/>
      <use xlink:href="#DejaVuSans-53" x="315.332031"/>
      <use xlink:href="#DejaVuSans-74" x="378.808594"/>
      <use xlink:href="#DejaVuSans-65" x="418.017578"/>
      <use xlink:href="#DejaVuSans-72" x="479.541016"/>
      <use xlink:href="#DejaVuSans-65" x="518.404297"/>
      <use xlink:href="#DejaVuSans-6f" x="579.927734"/>
      <use xlink:href="#DejaVuSans-2d" x="642.984375"/>
      <use xlink:href="#DejaVuSans-49" x="679.068359"/>
      <use xlink:href="#DejaVuSans-6e" x="708.560547"/>
      <use xlink:href="#DejaVuSans-65" x="771.939453"/>
      <use xlink:href="#DejaVuSans-72" x="833.462891"/>
      <use xlink:href="#DejaVuSans-74" x="874.576172"/>
      <use xlink:href="#DejaVuSans-69" x="913.785156"/>
      <use xlink:href="#DejaVuSans-61" x="941.568359"/>
      <use xlink:href="#DejaVuSans-6c" x="1002.847656"/>
      <use xlink:href="#DejaVuSans-20" x="1030.630859"/>
      <use xlink:href="#DejaVuSans-28" x="1062.417969"/>
      <use xlink:href="#DejaVuSans-51" x="1101.431641"/>
      <use xlink:href="#DejaVuSans-69" x="1180.142578"/>
      <use xlink:href="#DejaVuSans-6e" x="1207.925781"/>
      <use xlink:href="#DejaVuSans-20" x="1271.304688"/>
      <use xlink:href="#DejaVuSans-65" x="1303.091797"/>
      <use xlink:href="#DejaVuSans-74" x="1364.615234"/>
      <use xlink:href="#DejaVuSans-20" x="1403.824219"/>
      <use xlink:href="#DejaVuSans-61" x="1435.611328"/>
      <use xlink:href="#DejaVuSans-6c" x="1496.890625"/>
      <use xlink:href="#DejaVuSans-29" x="1524.673828"/>
     </g>
    </g>
    <g id="line2d_25">
     <path d="M 206.332656 75.806094 
L 217.332656 75.806094 
L 228.332656 75.806094 
" style="fill: none; stroke: #c44e52; stroke-opacity: 0.75; stroke-width: 1.5; stroke-linecap: round"/>
    </g>
    <g id="text_23">
     <!-- Stereo-Inertial (Campos et al) -->
     <g style="fill: #262626" transform="translate(237.132656 79.656094)scale(0.11 -0.11)">
      <defs>
       <path id="DejaVuSans-43" d="M 4122 4306 
L 4122 3641 
Q 3803 3938 3442 4084 
Q 3081 4231 2675 4231 
Q 1875 4231 1450 3742 
Q 1025 3253 1025 2328 
Q 1025 1406 1450 917 
Q 1875 428 2675 428 
Q 3081 428 3442 575 
Q 3803 722 4122 1019 
L 4122 359 
Q 3791 134 3420 21 
Q 3050 -91 2638 -91 
Q 1578 -91 968 557 
Q 359 1206 359 2328 
Q 359 3453 968 4101 
Q 1578 4750 2638 4750 
Q 3056 4750 3426 4639 
Q 3797 4528 4122 4306 
z
" transform="scale(0.015625)"/>
       <path id="DejaVuSans-70" d="M 1159 525 
L 1159 -1331 
L 581 -1331 
L 581 3500 
L 1159 3500 
L 1159 2969 
Q 1341 3281 1617 3432 
Q 1894 3584 2278 3584 
Q 2916 3584 3314 3078 
Q 3713 2572 3713 1747 
Q 3713 922 3314 415 
Q 2916 -91 2278 -91 
Q 1894 -91 1617 61 
Q 1341 213 1159 525 
z
M 3116 1747 
Q 3116 2381 2855 2742 
Q 2594 3103 2138 3103 
Q 1681 3103 1420 2742 
Q 1159 2381 1159 1747 
Q 1159 1113 1420 752 
Q 1681 391 2138 391 
Q 2594 391 2855 752 
Q 3116 1113 3116 1747 
z
" transform="scale(0.015625)"/>
      </defs>
      <use xlink:href="#DejaVuSans-53"/>
      <use xlink:href="#DejaVuSans-74" x="63.476562"/>
      <use xlink:href="#DejaVuSans-65" x="102.685547"/>
      <use xlink:href="#DejaVuSans-72" x="164.208984"/>
      <use xlink:href="#DejaVuSans-65" x="203.072266"/>
      <use xlink:href="#DejaVuSans-6f" x="264.595703"/>
      <use xlink:href="#DejaVuSans-2d" x="327.652344"/>
      <use xlink:href="#DejaVuSans-49" x="363.736328"/>
      <use xlink:href="#DejaVuSans-6e" x="393.228516"/>
      <use xlink:href="#DejaVuSans-65" x="456.607422"/>
      <use xlink:href="#DejaVuSans-72" x="518.130859"/>
      <use xlink:href="#DejaVuSans-74" x="559.244141"/>
      <use xlink:href="#DejaVuSans-69" x="598.453125"/>
      <use xlink:href="#DejaVuSans-61" x="626.236328"/>
      <use xlink:href="#DejaVuSans-6c" x="687.515625"/>
      <use xlink:href="#DejaVuSans-20" x="715.298828"/>
      <use xlink:href="#DejaVuSans-28" x="747.085938"/>
      <use xlink:href="#DejaVuSans-43" x="786.099609"/>
      <use xlink:href="#DejaVuSans-61" x="855.923828"/>
      <use xlink:href="#DejaVuSans-6d" x="917.203125"/>
      <use xlink:href="#DejaVuSans-70" x="1014.615234"/>
      <use xlink:href="#DejaVuSans-6f" x="1078.091797"/>
      <use xlink:href="#DejaVuSans-73" x="1139.273438"/>
      <use xlink:href="#DejaVuSans-20" x="1191.373047"/>
      <use xlink:href="#DejaVuSans-65" x="1223.160156"/>
      <use xlink:href="#DejaVuSans-74" x="1284.683594"/>
      <use xlink:href="#DejaVuSans-20" x="1323.892578"/>
      <use xlink:href="#DejaVuSans-61" x="1355.679688"/>
      <use xlink:href="#DejaVuSans-6c" x="1416.958984"/>
      <use xlink:href="#DejaVuSans-29" x="1444.742188"/>
     </g>
    </g>
   </g>
  </g>
  <g id="axes_2">
   <g id="patch_9">
    <path d="M 268.561707 358.34 
L 397.04 358.34 
L 397.04 229.861707 
L 268.561707 229.861707 
z
" style="fill: #eaeaf2"/>
   </g>
   <g id="matplotlib.axis_3">
    <g id="xtick_9">
     <g id="line2d_26">
      <path d="M 296.488924 358.34 
L 296.488924 229.861707 
" clip-path="url(#p8222b84de8)" style="fill: none; stroke: #ffffff; stroke-linecap: round"/>
     </g>
     <g id="text_24">
      <!-- −10 -->
      <g style="fill: #262626" transform="translate(284.881346 376.198281)scale(0.11 -0.11)">
       <use xlink:href="#DejaVuSans-2212"/>
       <use xlink:href="#DejaVuSans-31" x="83.789062"/>
       <use xlink:href="#DejaVuSans-30" x="147.412109"/>
      </g>
     </g>
    </g>
    <g id="xtick_10">
     <g id="line2d_27">
      <path d="M 360.728071 358.34 
L 360.728071 229.861707 
" clip-path="url(#p8222b84de8)" style="fill: none; stroke: #ffffff; stroke-linecap: round"/>
     </g>
     <g id="text_25">
      <!-- −5 -->
      <g style="fill: #262626" transform="translate(352.619867 376.198281)scale(0.11 -0.11)">
       <defs>
        <path id="DejaVuSans-35" d="M 691 4666 
L 3169 4666 
L 3169 4134 
L 1269 4134 
L 1269 2991 
Q 1406 3038 1543 3061 
Q 1681 3084 1819 3084 
Q 2600 3084 3056 2656 
Q 3513 2228 3513 1497 
Q 3513 744 3044 326 
Q 2575 -91 1722 -91 
Q 1428 -91 1123 -41 
Q 819 9 494 109 
L 494 744 
Q 775 591 1075 516 
Q 1375 441 1709 441 
Q 2250 441 2565 725 
Q 2881 1009 2881 1497 
Q 2881 1984 2565 2268 
Q 2250 2553 1709 2553 
Q 1456 2553 1204 2497 
Q 953 2441 691 2322 
L 691 4666 
z
" transform="scale(0.015625)"/>
       </defs>
       <use xlink:href="#DejaVuSans-2212"/>
       <use xlink:href="#DejaVuSans-35" x="83.789062"/>
      </g>
     </g>
    </g>
   </g>
   <g id="matplotlib.axis_4">
    <g id="ytick_10">
     <g id="line2d_28">
      <path d="M 268.561707 346.101068 
L 397.04 346.101068 
" clip-path="url(#p8222b84de8)" style="fill: none; stroke: #ffffff; stroke-linecap: round"/>
     </g>
     <g id="text_26">
      <!-- −8 -->
      <g style="fill: #262626" transform="translate(242.845301 350.280208)scale(0.11 -0.11)">
       <use xlink:href="#DejaVuSans-2212"/>
       <use xlink:href="#DejaVuSans-38" x="83.789062"/>
      </g>
     </g>
    </g>
    <g id="ytick_11">
     <g id="line2d_29">
      <path d="M 268.561707 320.405409 
L 397.04 320.405409 
" clip-path="url(#p8222b84de8)" style="fill: none; stroke: #ffffff; stroke-linecap: round"/>
     </g>
     <g id="text_27">
      <!-- −6 -->
      <g style="fill: #262626" transform="translate(242.845301 324.58455)scale(0.11 -0.11)">
       <use xlink:href="#DejaVuSans-2212"/>
       <use xlink:href="#DejaVuSans-36" x="83.789062"/>
      </g>
     </g>
    </g>
    <g id="ytick_12">
     <g id="line2d_30">
      <path d="M 268.561707 294.709751 
L 397.04 294.709751 
" clip-path="url(#p8222b84de8)" style="fill: none; stroke: #ffffff; stroke-linecap: round"/>
     </g>
     <g id="text_28">
      <!-- −4 -->
      <g style="fill: #262626" transform="translate(242.845301 298.888891)scale(0.11 -0.11)">
       <use xlink:href="#DejaVuSans-2212"/>
       <use xlink:href="#DejaVuSans-34" x="83.789062"/>
      </g>
     </g>
    </g>
    <g id="ytick_13">
     <g id="line2d_31">
      <path d="M 268.561707 269.014092 
L 397.04 269.014092 
" clip-path="url(#p8222b84de8)" style="fill: none; stroke: #ffffff; stroke-linecap: round"/>
     </g>
     <g id="text_29">
      <!-- −2 -->
      <g style="fill: #262626" transform="translate(242.845301 273.193233)scale(0.11 -0.11)">
       <use xlink:href="#DejaVuSans-2212"/>
       <use xlink:href="#DejaVuSans-32" x="83.789062"/>
      </g>
     </g>
    </g>
    <g id="ytick_14">
     <g id="line2d_32">
      <path d="M 268.561707 243.318434 
L 397.04 243.318434 
" clip-path="url(#p8222b84de8)" style="fill: none; stroke: #ffffff; stroke-linecap: round"/>
     </g>
     <g id="text_30">
      <!-- 0 -->
      <g style="fill: #262626" transform="translate(252.062957 247.497574)scale(0.11 -0.11)">
       <use xlink:href="#DejaVuSans-30"/>
      </g>
     </g>
    </g>
   </g>
   <g id="patch_10">
    <path d="M 268.561707 229.861707 
L 67.880028 200.181374 
" style="fill: none; stroke: #808080; stroke-linejoin: miter"/>
   </g>
   <g id="patch_11">
    <path d="M 397.04 358.34 
L 89.293077 221.594423 
" style="fill: none; stroke: #808080; stroke-linejoin: miter"/>
   </g>
   <g id="line2d_33">
    <path d="M 424.967217 243.318434 
L 427.274771 243.783055 
L 429.660685 244.429794 
L 433 245.683491 
M 433 142.582543 
L 431.172747 142.461228 
L 427.658245 142.416485 
L 424.090937 141.914583 
L 420.607463 141.62104 
L 417.252687 141.890709 
L 413.886195 141.749181 
L 410.624616 141.961342 
L 407.217925 142.324984 
L 400.664835 143.836681 
L 394.721033 146.58642 
L 391.929833 148.078958 
L 389.368944 149.759053 
L 387.1141 151.442944 
L 384.875136 152.934741 
L 382.265632 154.148258 
L 380.023876 155.48084 
L 377.803128 157.160668 
L 375.488491 159.130789 
L 373.369957 160.603635 
L 371.702355 162.237605 
L 370.13722 163.949658 
L 368.541831 165.376041 
L 366.871794 166.634634 
L 365.341399 168.112213 
L 363.668044 169.237712 
L 361.922896 170.649198 
L 359.535764 171.947967 
L 357.472187 173.374411 
L 355.567832 174.941845 
L 353.526288 176.069421 
L 344.51068 181.527047 
L 340.461463 185.37684 
L 338.514913 187.846112 
L 336.896984 190.291129 
L 333.701356 195.666575 
L 331.363902 201.149595 
L 330.008519 203.374234 
L 328.640186 206.439537 
L 327.752711 209.471779 
L 327.220033 212.173854 
L 326.285727 214.551889 
L 325.523946 216.907273 
L 324.603819 219.375863 
L 323.096895 221.773233 
L 321.873357 224.107428 
L 320.265078 226.272331 
L 319.076862 229.136974 
L 316.762831 234.252265 
L 315.732853 237.108221 
L 314.922693 239.878341 
L 314.587561 242.805321 
L 314.50689 249.286423 
L 314.914031 252.710596 
L 315.141343 256.321183 
L 317.652393 267.332358 
L 320.8174 274.38964 
L 324.543287 281.215933 
L 328.555845 287.121563 
L 330.15543 289.058967 
L 332.204535 292.715792 
L 333.562541 294.726716 
L 333.701023 295.102461 
L 333.670662 294.921311 
L 333.281608 294.569019 
L 333.159786 294.260123 
L 332.829667 294.061051 
L 332.800854 294.100854 
" clip-path="url(#p8222b84de8)" style="fill: none; stroke-dasharray: 5.55,2.4; stroke-dashoffset: 0; stroke: #000000; stroke-opacity: 0.5; stroke-width: 1.5"/>
   </g>
   <g id="line2d_34">
    <path d="M 433 139.683227 
L 431.213245 139.97438 
L 427.598757 139.270925 
L 422.705954 139.242404 
L 419.828353 139.047509 
L 416.259517 138.637518 
L 409.716209 138.934259 
L 406.680249 138.811049 
L 403.696907 139.010992 
L 400.12446 139.513111 
L 397.096398 140.192449 
L 393.900431 140.794732 
L 387.912396 143.403888 
L 379.518997 148.517729 
L 374.951922 150.759932 
L 372.575596 152.266642 
L 370.502847 154.10858 
L 368.149655 155.553051 
L 359.297721 163.366123 
L 354.397932 166.831057 
L 352.101524 167.849726 
L 350.212163 169.663447 
L 341.400746 175.116923 
L 339.712454 175.998397 
L 336.985467 177.816517 
L 333.000031 181.716313 
L 329.777323 186.618246 
L 328.197675 189.065705 
L 326.742221 191.542229 
L 325.553026 194.324087 
L 324.245614 196.638967 
L 322.859849 198.837777 
L 321.580599 201.649203 
L 320.981521 204.698762 
L 319.421343 209.156335 
L 318.45807 212.133719 
L 317.298929 214.305013 
L 313.200668 221.007132 
L 312.221448 223.531544 
L 309.820118 228.412828 
L 308.949939 231.042501 
L 308.199843 233.713177 
L 307.921609 239.737154 
L 308.018625 243.802835 
L 308.250689 247.266782 
L 309.346652 254.145685 
L 310.181493 257.507169 
L 311.25051 261.004427 
L 312.811697 264.026633 
L 314.184796 267.809659 
L 316.125253 270.95932 
L 317.802837 274.01994 
L 319.837516 276.983277 
L 323.257252 281.669377 
L 324.252352 283.414837 
L 325.092927 284.595014 
L 325.649377 285.57043 
L 326.148676 286.164084 
L 326.102147 286.319389 
L 325.979423 286.025093 
L 325.696753 285.726163 
L 325.47272 285.281288 
L 325.510814 285.362388 
" clip-path="url(#p8222b84de8)" style="fill: none; stroke: #4c72b0; stroke-opacity: 0.75; stroke-width: 1.5; stroke-linecap: round"/>
   </g>
   <g id="line2d_35">
    <path d="M 433 149.471212 
L 425.058958 148.946898 
L 414.849845 147.828364 
L 404.381436 147.731157 
L 394.172515 147.457272 
L 403.714466 148.221999 
L 371.321567 154.967459 
L 363.577204 156.729789 
L 377.233259 170.862818 
L 371.281087 173.991783 
L 362.176235 178.987381 
L 356.578641 181.569231 
L 367.494399 169.601005 
L 361.073236 173.318177 
L 341.843633 182.674364 
L 334.656542 187.574473 
L 336.16512 188.896423 
L 330.417051 194.697629 
L 325.706559 200.441638 
L 320.629932 206.22663 
L 325.147886 215.927613 
L 319.730315 222.084244 
L 314.709416 229.050679 
L 310.251079 235.55492 
L 306.239947 242.495771 
L 316.500836 231.2359 
L 315.985024 233.514405 
L 315.325707 238.419495 
L 314.942669 246.225163 
L 315.611369 254.244554 
L 318.197525 261.194479 
L 321.973504 267.871277 
L 325.360591 277.284245 
L 327.269862 280.944267 
L 330.969785 289.575861 
L 330.59724 288.863405 
L 336.004338 289.460421 
L 333.678614 296.890961 
L 333.678614 296.890961 
" clip-path="url(#p8222b84de8)" style="fill: none; stroke: #55a868; stroke-opacity: 0.75; stroke-width: 1.5; stroke-linecap: round"/>
   </g>
   <g id="line2d_36">
    <path d="M 428.508698 249.125691 
L 430.873186 249.745726 
L 433 250.447468 
M 433 142.767 
L 428.771739 144.669842 
L 420.562302 149.686321 
L 416.059445 151.783905 
L 413.715512 153.279882 
L 411.583345 155.161472 
L 409.258478 156.678328 
L 407.49956 158.073612 
L 405.924015 159.764844 
L 402.011109 162.834998 
L 400.648705 164.327046 
L 395.833797 167.668488 
L 393.301882 168.748741 
L 391.489322 170.478256 
L 382.808063 175.891317 
L 381.277569 176.719489 
L 378.572142 178.573439 
L 374.561113 182.405179 
L 369.974604 189.634934 
L 368.499272 192.180184 
L 367.381902 194.908579 
L 366.052102 197.27528 
L 364.687266 199.326277 
L 363.497263 202.104814 
L 362.781804 205.123259 
L 360.309815 212.536024 
L 359.199649 214.733501 
L 355.038984 221.331206 
L 354.084254 223.988789 
L 351.791188 228.749973 
L 350.87843 231.428858 
L 350.083813 234.116981 
L 349.769291 240.183996 
L 350.17145 247.655766 
L 351.260979 254.493962 
L 352.097526 257.842768 
L 353.193332 261.27963 
L 354.647692 264.430511 
L 356.103781 268.177972 
L 359.647021 274.338289 
L 361.720324 277.351959 
L 365.161267 282.070287 
L 366.139468 283.862162 
L 367.980403 286.619309 
L 367.952131 286.798268 
L 367.58992 286.182236 
L 367.311051 285.728571 
L 367.37471 285.825743 
" clip-path="url(#p8222b84de8)" style="fill: none; stroke: #c44e52; stroke-opacity: 0.75; stroke-width: 1.5; stroke-linecap: round"/>
   </g>
   <g id="patch_12">
    <path d="M 268.561707 358.34 
L 268.561707 229.861707 
" style="fill: none; stroke: #000000; stroke-width: 1.25; stroke-linejoin: miter; stroke-linecap: square"/>
   </g>
   <g id="patch_13">
    <path d="M 397.04 358.34 
L 397.04 229.861707 
" style="fill: none; stroke: #000000; stroke-width: 1.25; stroke-linejoin: miter; stroke-linecap: square"/>
   </g>
   <g id="patch_14">
    <path d="M 268.561707 358.34 
L 397.04 358.34 
" style="fill: none; stroke: #000000; stroke-width: 1.25; stroke-linejoin: miter; stroke-linecap: square"/>
   </g>
   <g id="patch_15">
    <path d="M 268.561707 229.861707 
L 397.04 229.861707 
" style="fill: none; stroke: #000000; stroke-width: 1.25; stroke-linejoin: miter; stroke-linecap: square"/>
   </g>
  </g>
 </g>
 <defs>
  <clipPath id="p5e0800cb71">
   <rect x="65.43" y="12.96" width="353.61" height="367.38"/>
  </clipPath>
  <clipPath id="p8222b84de8">
   <rect x="268.561707" y="229.861707" width="128.478293" height="128.478293"/>
  </clipPath>
 </defs>
</svg>
