<?xml version="1.0" encoding="utf-8" standalone="no"?>
<!DOCTYPE svg PUBLIC "-//W3C//DTD SVG 1.1//EN"
  "http://www.w3.org/Graphics/SVG/1.1/DTD/svg11.dtd">
<svg xmlns:xlink="http://www.w3.org/1999/xlink" width="432pt" height="432pt" viewBox="0 0 432 432" xmlns="http://www.w3.org/2000/svg" version="1.1">
 <metadata>
  <rdf:RDF xmlns:dc="http://purl.org/dc/elements/1.1/" xmlns:cc="http://creativecommons.org/ns#" xmlns:rdf="http://www.w3.org/1999/02/22-rdf-syntax-ns#">
   <cc:Work>
    <dc:type rdf:resource="http://purl.org/dc/dcmitype/StillImage"/>
    <dc:date>2022-08-29T16:59:56.605643</dc:date>
    <dc:format>image/svg+xml</dc:format>
    <dc:creator>
     <cc:Agent>
      <dc:title>Matplotlib v3.5.3, https://matplotlib.org/</dc:title>
     </cc:Agent>
    </dc:creator>
   </cc:Work>
  </rdf:RDF>
 </metadata>
 <defs>
  <style type="text/css">*{stroke-linejoin: round; stroke-linecap: butt}</style>
 </defs>
 <g id="figure_1">
  <g id="patch_1">
   <path d="M 0 432 
L 432 432 
L 432 0 
L 0 0 
z
" style="fill: #ffffff"/>
  </g>
  <g id="axes_1">
   <g id="patch_2">
    <path d="M 65.43 380.34 
L 413.392771 380.34 
L 413.392771 12.96 
L 65.43 12.96 
z
" style="fill: #eaeaf2"/>
   </g>
   <g id="matplotlib.axis_1">
    <g id="xtick_1">
     <g id="line2d_1">
      <path d="M 77.160502 380.34 
L 77.160502 12.96 
" clip-path="url(#pbacf955749)" style="fill: none; stroke: #ffffff; stroke-linecap: round"/>
     </g>
     <g id="text_1">
      <!-- 0 -->
      <g style="fill: #262626" transform="translate(73.661127 398.198281)scale(0.11 -0.11)">
       <defs>
        <path id="DejaVuSans-30" d="M 2034 4250 
Q 1547 4250 1301 3770 
Q 1056 3291 1056 2328 
Q 1056 1369 1301 889 
Q 1547 409 2034 409 
Q 2525 409 2770 889 
Q 3016 1369 3016 2328 
Q 3016 3291 2770 3770 
Q 2525 4250 2034 4250 
z
M 2034 4750 
Q 2819 4750 3233 4129 
Q 3647 3509 3647 2328 
Q 3647 1150 3233 529 
Q 2819 -91 2034 -91 
Q 1250 -91 836 529 
Q 422 1150 422 2328 
Q 422 3509 836 4129 
Q 1250 4750 2034 4750 
z
" transform="scale(0.015625)"/>
       </defs>
       <use xlink:href="#DejaVuSans-30"/>
      </g>
     </g>
    </g>
    <g id="xtick_2">
     <g id="line2d_2">
      <path d="M 124.526262 380.34 
L 124.526262 12.96 
" clip-path="url(#pbacf955749)" style="fill: none; stroke: #ffffff; stroke-linecap: round"/>
     </g>
     <g id="text_2">
      <!-- 20 -->
      <g style="fill: #262626" transform="translate(117.527512 398.198281)scale(0.11 -0.11)">
       <defs>
        <path id="DejaVuSans-32" d="M 1228 531 
L 3431 531 
L 3431 0 
L 469 0 
L 469 531 
Q 828 903 1448 1529 
Q 2069 2156 2228 2338 
Q 2531 2678 2651 2914 
Q 2772 3150 2772 3378 
Q 2772 3750 2511 3984 
Q 2250 4219 1831 4219 
Q 1534 4219 1204 4116 
Q 875 4013 500 3803 
L 500 4441 
Q 881 4594 1212 4672 
Q 1544 4750 1819 4750 
Q 2544 4750 2975 4387 
Q 3406 4025 3406 3419 
Q 3406 3131 3298 2873 
Q 3191 2616 2906 2266 
Q 2828 2175 2409 1742 
Q 1991 1309 1228 531 
z
" transform="scale(0.015625)"/>
       </defs>
       <use xlink:href="#DejaVuSans-32"/>
       <use xlink:href="#DejaVuSans-30" x="63.623047"/>
      </g>
     </g>
    </g>
    <g id="xtick_3">
     <g id="line2d_3">
      <path d="M 171.892022 380.34 
L 171.892022 12.96 
" clip-path="url(#pbacf955749)" style="fill: none; stroke: #ffffff; stroke-linecap: round"/>
     </g>
     <g id="text_3">
      <!-- 40 -->
      <g style="fill: #262626" transform="translate(164.893272 398.198281)scale(0.11 -0.11)">
       <defs>
        <path id="DejaVuSans-34" d="M 2419 4116 
L 825 1625 
L 2419 1625 
L 2419 4116 
z
M 2253 4666 
L 3047 4666 
L 3047 1625 
L 3713 1625 
L 3713 1100 
L 3047 1100 
L 3047 0 
L 2419 0 
L 2419 1100 
L 313 1100 
L 313 1709 
L 2253 4666 
z
" transform="scale(0.015625)"/>
       </defs>
       <use xlink:href="#DejaVuSans-34"/>
       <use xlink:href="#DejaVuSans-30" x="63.623047"/>
      </g>
     </g>
    </g>
    <g id="xtick_4">
     <g id="line2d_4">
      <path d="M 219.257782 380.34 
L 219.257782 12.96 
" clip-path="url(#pbacf955749)" style="fill: none; stroke: #ffffff; stroke-linecap: round"/>
     </g>
     <g id="text_4">
      <!-- 60 -->
      <g style="fill: #262626" transform="translate(212.259032 398.198281)scale(0.11 -0.11)">
       <defs>
        <path id="DejaVuSans-36" d="M 2113 2584 
Q 1688 2584 1439 2293 
Q 1191 2003 1191 1497 
Q 1191 994 1439 701 
Q 1688 409 2113 409 
Q 2538 409 2786 701 
Q 3034 994 3034 1497 
Q 3034 2003 2786 2293 
Q 2538 2584 2113 2584 
z
M 3366 4563 
L 3366 3988 
Q 3128 4100 2886 4159 
Q 2644 4219 2406 4219 
Q 1781 4219 1451 3797 
Q 1122 3375 1075 2522 
Q 1259 2794 1537 2939 
Q 1816 3084 2150 3084 
Q 2853 3084 3261 2657 
Q 3669 2231 3669 1497 
Q 3669 778 3244 343 
Q 2819 -91 2113 -91 
Q 1303 -91 875 529 
Q 447 1150 447 2328 
Q 447 3434 972 4092 
Q 1497 4750 2381 4750 
Q 2619 4750 2861 4703 
Q 3103 4656 3366 4563 
z
" transform="scale(0.015625)"/>
       </defs>
       <use xlink:href="#DejaVuSans-36"/>
       <use xlink:href="#DejaVuSans-30" x="63.623047"/>
      </g>
     </g>
    </g>
    <g id="xtick_5">
     <g id="line2d_5">
      <path d="M 266.623542 380.34 
L 266.623542 12.96 
" clip-path="url(#pbacf955749)" style="fill: none; stroke: #ffffff; stroke-linecap: round"/>
     </g>
     <g id="text_5">
      <!-- 80 -->
      <g style="fill: #262626" transform="translate(259.624792 398.198281)scale(0.11 -0.11)">
       <defs>
        <path id="DejaVuSans-38" d="M 2034 2216 
Q 1584 2216 1326 1975 
Q 1069 1734 1069 1313 
Q 1069 891 1326 650 
Q 1584 409 2034 409 
Q 2484 409 2743 651 
Q 3003 894 3003 1313 
Q 3003 1734 2745 1975 
Q 2488 2216 2034 2216 
z
M 1403 2484 
Q 997 2584 770 2862 
Q 544 3141 544 3541 
Q 544 4100 942 4425 
Q 1341 4750 2034 4750 
Q 2731 4750 3128 4425 
Q 3525 4100 3525 3541 
Q 3525 3141 3298 2862 
Q 3072 2584 2669 2484 
Q 3125 2378 3379 2068 
Q 3634 1759 3634 1313 
Q 3634 634 3220 271 
Q 2806 -91 2034 -91 
Q 1263 -91 848 271 
Q 434 634 434 1313 
Q 434 1759 690 2068 
Q 947 2378 1403 2484 
z
M 1172 3481 
Q 1172 3119 1398 2916 
Q 1625 2713 2034 2713 
Q 2441 2713 2670 2916 
Q 2900 3119 2900 3481 
Q 2900 3844 2670 4047 
Q 2441 4250 2034 4250 
Q 1625 4250 1398 4047 
Q 1172 3844 1172 3481 
z
" transform="scale(0.015625)"/>
       </defs>
       <use xlink:href="#DejaVuSans-38"/>
       <use xlink:href="#DejaVuSans-30" x="63.623047"/>
      </g>
     </g>
    </g>
    <g id="xtick_6">
     <g id="line2d_6">
      <path d="M 313.989303 380.34 
L 313.989303 12.96 
" clip-path="url(#pbacf955749)" style="fill: none; stroke: #ffffff; stroke-linecap: round"/>
     </g>
     <g id="text_6">
      <!-- 100 -->
      <g style="fill: #262626" transform="translate(303.491178 398.198281)scale(0.11 -0.11)">
       <defs>
        <path id="DejaVuSans-31" d="M 794 531 
L 1825 531 
L 1825 4091 
L 703 3866 
L 703 4441 
L 1819 4666 
L 2450 4666 
L 2450 531 
L 3481 531 
L 3481 0 
L 794 0 
L 794 531 
z
" transform="scale(0.015625)"/>
       </defs>
       <use xlink:href="#DejaVuSans-31"/>
       <use xlink:href="#DejaVuSans-30" x="63.623047"/>
       <use xlink:href="#DejaVuSans-30" x="127.246094"/>
      </g>
     </g>
    </g>
    <g id="xtick_7">
     <g id="line2d_7">
      <path d="M 361.355063 380.34 
L 361.355063 12.96 
" clip-path="url(#pbacf955749)" style="fill: none; stroke: #ffffff; stroke-linecap: round"/>
     </g>
     <g id="text_7">
      <!-- 120 -->
      <g style="fill: #262626" transform="translate(350.856938 398.198281)scale(0.11 -0.11)">
       <use xlink:href="#DejaVuSans-31"/>
       <use xlink:href="#DejaVuSans-32" x="63.623047"/>
       <use xlink:href="#DejaVuSans-30" x="127.246094"/>
      </g>
     </g>
    </g>
    <g id="xtick_8">
     <g id="line2d_8">
      <path d="M 408.720823 380.34 
L 408.720823 12.96 
" clip-path="url(#pbacf955749)" style="fill: none; stroke: #ffffff; stroke-linecap: round"/>
     </g>
     <g id="text_8">
      <!-- 140 -->
      <g style="fill: #262626" transform="translate(398.222698 398.198281)scale(0.11 -0.11)">
       <use xlink:href="#DejaVuSans-31"/>
       <use xlink:href="#DejaVuSans-34" x="63.623047"/>
       <use xlink:href="#DejaVuSans-30" x="127.246094"/>
      </g>
     </g>
    </g>
    <g id="text_9">
     <!-- $x$ (m) -->
     <g style="fill: #262626" transform="translate(223.391386 413.604063)scale(0.12 -0.12)">
      <defs>
       <path id="DejaVuSans-Oblique-78" d="M 3841 3500 
L 2234 1784 
L 3219 0 
L 2559 0 
L 1819 1388 
L 531 0 
L -166 0 
L 1556 1844 
L 641 3500 
L 1300 3500 
L 1972 2234 
L 3144 3500 
L 3841 3500 
z
" transform="scale(0.015625)"/>
       <path id="DejaVuSans-20" transform="scale(0.015625)"/>
       <path id="DejaVuSans-28" d="M 1984 4856 
Q 1566 4138 1362 3434 
Q 1159 2731 1159 2009 
Q 1159 1288 1364 580 
Q 1569 -128 1984 -844 
L 1484 -844 
Q 1016 -109 783 600 
Q 550 1309 550 2009 
Q 550 2706 781 3412 
Q 1013 4119 1484 4856 
L 1984 4856 
z
" transform="scale(0.015625)"/>
       <path id="DejaVuSans-6d" d="M 3328 2828 
Q 3544 3216 3844 3400 
Q 4144 3584 4550 3584 
Q 5097 3584 5394 3201 
Q 5691 2819 5691 2113 
L 5691 0 
L 5113 0 
L 5113 2094 
Q 5113 2597 4934 2840 
Q 4756 3084 4391 3084 
Q 3944 3084 3684 2787 
Q 3425 2491 3425 1978 
L 3425 0 
L 2847 0 
L 2847 2094 
Q 2847 2600 2669 2842 
Q 2491 3084 2119 3084 
Q 1678 3084 1418 2786 
Q 1159 2488 1159 1978 
L 1159 0 
L 581 0 
L 581 3500 
L 1159 3500 
L 1159 2956 
Q 1356 3278 1631 3431 
Q 1906 3584 2284 3584 
Q 2666 3584 2933 3390 
Q 3200 3197 3328 2828 
z
" transform="scale(0.015625)"/>
       <path id="DejaVuSans-29" d="M 513 4856 
L 1013 4856 
Q 1481 4119 1714 3412 
Q 1947 2706 1947 2009 
Q 1947 1309 1714 600 
Q 1481 -109 1013 -844 
L 513 -844 
Q 928 -128 1133 580 
Q 1338 1288 1338 2009 
Q 1338 2731 1133 3434 
Q 928 4138 513 4856 
z
" transform="scale(0.015625)"/>
      </defs>
      <use xlink:href="#DejaVuSans-Oblique-78" transform="translate(0 0.125)"/>
      <use xlink:href="#DejaVuSans-20" transform="translate(59.179688 0.125)"/>
      <use xlink:href="#DejaVuSans-28" transform="translate(90.966797 0.125)"/>
      <use xlink:href="#DejaVuSans-6d" transform="translate(129.980469 0.125)"/>
      <use xlink:href="#DejaVuSans-29" transform="translate(227.392578 0.125)"/>
     </g>
    </g>
   </g>
   <g id="matplotlib.axis_2">
    <g id="ytick_1">
     <g id="line2d_9">
      <path d="M 65.43 337.471053 
L 413.392771 337.471053 
" clip-path="url(#pbacf955749)" style="fill: none; stroke: #ffffff; stroke-linecap: round"/>
     </g>
     <g id="text_10">
      <!-- −60 -->
      <g style="fill: #262626" transform="translate(32.714844 341.650194)scale(0.11 -0.11)">
       <defs>
        <path id="DejaVuSans-2212" d="M 678 2272 
L 4684 2272 
L 4684 1741 
L 678 1741 
L 678 2272 
z
" transform="scale(0.015625)"/>
       </defs>
       <use xlink:href="#DejaVuSans-2212"/>
       <use xlink:href="#DejaVuSans-36" x="83.789062"/>
       <use xlink:href="#DejaVuSans-30" x="147.412109"/>
      </g>
     </g>
    </g>
    <g id="ytick_2">
     <g id="line2d_10">
      <path d="M 65.43 290.105293 
L 413.392771 290.105293 
" clip-path="url(#pbacf955749)" style="fill: none; stroke: #ffffff; stroke-linecap: round"/>
     </g>
     <g id="text_11">
      <!-- −40 -->
      <g style="fill: #262626" transform="translate(32.714844 294.284434)scale(0.11 -0.11)">
       <use xlink:href="#DejaVuSans-2212"/>
       <use xlink:href="#DejaVuSans-34" x="83.789062"/>
       <use xlink:href="#DejaVuSans-30" x="147.412109"/>
      </g>
     </g>
    </g>
    <g id="ytick_3">
     <g id="line2d_11">
      <path d="M 65.43 242.739533 
L 413.392771 242.739533 
" clip-path="url(#pbacf955749)" style="fill: none; stroke: #ffffff; stroke-linecap: round"/>
     </g>
     <g id="text_12">
      <!-- −20 -->
      <g style="fill: #262626" transform="translate(32.714844 246.918673)scale(0.11 -0.11)">
       <use xlink:href="#DejaVuSans-2212"/>
       <use xlink:href="#DejaVuSans-32" x="83.789062"/>
       <use xlink:href="#DejaVuSans-30" x="147.412109"/>
      </g>
     </g>
    </g>
    <g id="ytick_4">
     <g id="line2d_12">
      <path d="M 65.43 195.373773 
L 413.392771 195.373773 
" clip-path="url(#pbacf955749)" style="fill: none; stroke: #ffffff; stroke-linecap: round"/>
     </g>
     <g id="text_13">
      <!-- 0 -->
      <g style="fill: #262626" transform="translate(48.93125 199.552913)scale(0.11 -0.11)">
       <use xlink:href="#DejaVuSans-30"/>
      </g>
     </g>
    </g>
    <g id="ytick_5">
     <g id="line2d_13">
      <path d="M 65.43 148.008012 
L 413.392771 148.008012 
" clip-path="url(#pbacf955749)" style="fill: none; stroke: #ffffff; stroke-linecap: round"/>
     </g>
     <g id="text_14">
      <!-- 20 -->
      <g style="fill: #262626" transform="translate(41.9325 152.187153)scale(0.11 -0.11)">
       <use xlink:href="#DejaVuSans-32"/>
       <use xlink:href="#DejaVuSans-30" x="63.623047"/>
      </g>
     </g>
    </g>
    <g id="ytick_6">
     <g id="line2d_14">
      <path d="M 65.43 100.642252 
L 413.392771 100.642252 
" clip-path="url(#pbacf955749)" style="fill: none; stroke: #ffffff; stroke-linecap: round"/>
     </g>
     <g id="text_15">
      <!-- 40 -->
      <g style="fill: #262626" transform="translate(41.9325 104.821393)scale(0.11 -0.11)">
       <use xlink:href="#DejaVuSans-34"/>
       <use xlink:href="#DejaVuSans-30" x="63.623047"/>
      </g>
     </g>
    </g>
    <g id="ytick_7">
     <g id="line2d_15">
      <path d="M 65.43 53.276492 
L 413.392771 53.276492 
" clip-path="url(#pbacf955749)" style="fill: none; stroke: #ffffff; stroke-linecap: round"/>
     </g>
     <g id="text_16">
      <!-- 60 -->
      <g style="fill: #262626" transform="translate(41.9325 57.455633)scale(0.11 -0.11)">
       <use xlink:href="#DejaVuSans-36"/>
       <use xlink:href="#DejaVuSans-30" x="63.623047"/>
      </g>
     </g>
    </g>
    <g id="text_17">
     <!-- $y$ (m) -->
     <g style="fill: #262626" transform="translate(26.194844 212.67)rotate(-90)scale(0.12 -0.12)">
      <defs>
       <path id="DejaVuSans-Oblique-79" d="M 1588 -325 
Q 1188 -997 936 -1164 
Q 684 -1331 294 -1331 
L -159 -1331 
L -63 -850 
L 269 -850 
Q 509 -850 678 -719 
Q 847 -588 1056 -206 
L 1234 128 
L 459 3500 
L 1069 3500 
L 1650 819 
L 3256 3500 
L 3859 3500 
L 1588 -325 
z
" transform="scale(0.015625)"/>
      </defs>
      <use xlink:href="#DejaVuSans-Oblique-79" transform="translate(0 0.125)"/>
      <use xlink:href="#DejaVuSans-20" transform="translate(59.179688 0.125)"/>
      <use xlink:href="#DejaVuSans-28" transform="translate(90.966797 0.125)"/>
      <use xlink:href="#DejaVuSans-6d" transform="translate(129.980469 0.125)"/>
      <use xlink:href="#DejaVuSans-29" transform="translate(227.392578 0.125)"/>
     </g>
    </g>
   </g>
   <g id="patch_3">
    <path d="M 353.770302 210.288048 
L 377.453182 210.288048 
L 377.453182 186.605168 
L 353.770302 186.605168 
L 353.770302 210.288048 
z
" clip-path="url(#pbacf955749)" style="fill: none; stroke: #808080; stroke-linejoin: miter"/>
   </g>
   <g id="line2d_16">
    <path d="M 77.160502 195.373773 
L 77.168332 195.369552 
L 77.023773 195.350435 
L 76.617412 195.310274 
L 76.117809 195.394782 
L 76.88825 195.303913 
L 77.391303 195.377551 
L 77.594852 195.287949 
L 78.371076 195.367534 
L 87.435776 195.642732 
L 87.985471 195.744459 
L 92.639647 195.30016 
L 94.797152 195.248212 
L 95.94945 195.168986 
L 103.145081 195.348695 
L 105.914688 195.193491 
L 107.373999 195.325825 
L 109.216247 195.160239 
L 109.71628 194.999548 
L 110.368836 194.993442 
L 111.627571 194.702238 
L 116.977219 194.867054 
L 120.654926 195.183377 
L 121.617909 195.310956 
L 123.119218 195.317589 
L 124.092719 195.271103 
L 125.768487 194.966416 
L 133.650332 195.025544 
L 136.116089 194.867719 
L 138.01547 194.941496 
L 138.582716 194.849596 
L 140.516155 194.770801 
L 142.551973 194.736108 
L 150.120814 194.789366 
L 151.841613 194.702342 
L 155.237158 194.800168 
L 155.760964 194.704327 
L 156.93342 194.741112 
L 157.508128 194.644984 
L 158.651571 194.712273 
L 159.86222 194.592628 
L 160.901788 194.72657 
L 161.491359 194.679785 
L 162.080426 194.749467 
L 171.176332 194.044467 
L 171.693231 194.089924 
L 172.542814 193.915267 
L 174.111115 194.074763 
L 190.106998 194.566875 
L 192.929011 194.17234 
L 197.428262 194.186467 
L 197.911336 194.116954 
L 199.407571 194.210629 
L 202.644487 194.292125 
L 203.152873 194.174517 
L 206.576572 194.247959 
L 208.380952 194.021626 
L 208.975616 193.960057 
L 209.62161 194.07818 
L 212.693578 193.981196 
L 213.965514 194.004665 
L 214.457728 193.920887 
L 215.588857 194.05011 
L 219.274038 194.10562 
L 219.694867 193.977051 
L 221.433107 194.341843 
L 222.512023 194.426663 
L 223.090287 194.465039 
L 226.033552 194.038361 
L 227.568717 193.975622 
L 235.210768 194.093003 
L 236.430071 194.129423 
L 240.398665 194.067171 
L 241.796833 193.957881 
L 244.624481 194.015362 
L 245.306731 193.945052 
L 248.113338 194.003423 
L 252.05949 193.920139 
L 259.201608 193.937238 
L 262.316059 193.782004 
L 266.626876 193.831314 
L 270.762091 193.901166 
L 275.786759 193.794542 
L 278.156115 193.6072 
L 284.730764 193.599284 
L 286.044548 193.44976 
L 289.513172 192.649227 
L 291.060023 192.647157 
L 292.348944 192.889039 
L 293.468997 193.36616 
L 294.047531 193.793385 
L 294.771616 194.153922 
L 295.953588 194.907285 
L 296.781805 195.407857 
L 297.783158 196.229388 
L 298.698308 196.735218 
L 297.655339 196.276291 
L 298.019365 196.385662 
L 297.39366 196.17599 
L 296.760768 195.810724 
L 295.806159 195.322928 
L 296.402519 195.469828 
L 299.168436 195.077239 
L 299.46758 194.947531 
L 300.022469 194.846628 
L 302.038398 194.371911 
L 302.771184 194.356044 
L 310.478865 194.273347 
L 311.302817 194.254065 
L 312.482133 194.188531 
L 313.337947 194.253528 
L 314.604708 194.186255 
L 316.596211 194.264095 
L 322.947451 194.032302 
L 331.451532 193.924958 
L 336.046872 193.819756 
L 340.689905 193.763685 
L 344.621968 193.702464 
L 346.065923 193.718464 
L 346.659301 193.629286 
L 347.983993 193.652074 
L 350.51105 193.618554 
L 351.710517 193.504823 
L 352.373848 193.604471 
L 353.619851 193.524083 
L 354.237326 193.629812 
L 355.999749 193.490659 
L 356.653135 193.589669 
L 357.24454 193.488628 
L 358.480818 193.542912 
L 359.022344 193.464511 
L 361.580402 193.521384 
L 362.842553 193.463216 
L 364.184263 193.501675 
L 366.933552 193.494535 
L 367.567739 193.539736 
L 369.013178 193.482202 
L 376.245067 193.583471 
L 376.954076 193.758919 
L 379.70867 193.799617 
L 383.356154 193.347322 
L 388.488006 193.412347 
L 389.548476 193.588759 
L 390.659045 193.804715 
L 392.229847 193.968216 
L 396.40223 194.444322 
L 397.743464 194.561154 
L 399.074695 194.86301 
L 400.266194 195.4366 
L 401.301364 196.190509 
L 401.955016 196.678366 
L 403.582014 198.918575 
L 404.706136 201.350501 
L 404.802453 201.987377 
L 404.643477 201.586132 
L 404.291825 201.009786 
L 403.566434 200.092667 
L 402.28098 198.820069 
L 401.299512 198.274364 
L 399.680147 196.898693 
L 398.072856 194.997804 
L 396.93437 192.930347 
L 396.513852 191.416852 
L 396.504216 191.748136 
L 396.368118 192.369813 
L 395.483619 194.036943 
L 393.956009 195.644241 
L 393.319528 196.114821 
L 391.153689 197.219248 
L 389.706529 197.837238 
L 388.663962 198.10783 
L 387.629952 198.246792 
L 386.106438 198.20729 
L 384.134429 198.132027 
L 383.216921 198.108695 
L 378.978912 198.362535 
L 377.244207 198.243018 
L 374.674559 198.358436 
L 372.628841 198.445018 
L 371.192451 198.437927 
L 369.753034 198.489452 
L 368.349038 198.521987 
L 367.03701 198.45654 
L 363.168655 198.394683 
L 362.692879 198.358371 
L 364.807678 198.41243 
L 365.611742 198.446608 
L 365.611742 198.446608 
" clip-path="url(#pbacf955749)" style="fill: none; stroke-dasharray: 5.55,2.4; stroke-dashoffset: 0; stroke: #000000; stroke-opacity: 0.5; stroke-width: 1.5"/>
   </g>
   <g id="line2d_17">
    <path d="M 82.183603 195.277662 
L 81.497774 195.249171 
L 81.190394 195.307601 
L 81.792976 195.21572 
L 82.384287 195.325698 
L 82.560943 195.192662 
L 84.261658 195.339102 
L 85.119292 195.284002 
L 85.768969 195.311225 
L 86.746048 195.416396 
L 88.394635 195.394894 
L 89.772179 195.444292 
L 91.114919 195.495421 
L 92.367732 195.554784 
L 92.828117 195.640689 
L 94.712976 195.39047 
L 96.086036 195.201762 
L 98.464879 195.189703 
L 100.625299 195.083515 
L 109.425024 195.204475 
L 110.368439 195.167371 
L 111.361935 195.331423 
L 112.373953 195.306823 
L 116.05259 194.796679 
L 117.841421 194.738952 
L 118.370227 194.861374 
L 123.239124 195.034158 
L 125.671636 195.217043 
L 127.029771 195.230644 
L 127.700041 195.282275 
L 128.012679 195.145148 
L 128.724507 195.107549 
L 129.164361 194.969428 
L 130.995168 194.883094 
L 131.491917 195.036782 
L 133.092894 194.947927 
L 134.446243 195.0291 
L 137.898611 194.978089 
L 139.152475 194.886918 
L 150.834349 194.786023 
L 153.462296 194.778708 
L 155.309837 194.719933 
L 157.433749 194.892564 
L 168.678412 194.494071 
L 169.725157 194.273208 
L 170.557445 194.25726 
L 171.939033 194.17082 
L 172.454678 194.261728 
L 173.852351 194.112419 
L 174.500363 194.162119 
L 174.882779 194.013354 
L 177.743346 194.196114 
L 178.139988 194.146234 
L 179.147383 194.229174 
L 179.52263 194.124656 
L 180.699061 194.305987 
L 185.77001 194.395061 
L 186.887653 194.470414 
L 188.845352 194.50451 
L 190.002154 194.58435 
L 192.853257 194.501502 
L 193.430103 194.400675 
L 196.205098 194.258477 
L 196.998615 194.268165 
L 197.505285 194.35643 
L 198.910542 194.25152 
L 199.399922 194.298365 
L 199.867171 194.21882 
L 200.967172 194.319565 
L 201.897746 194.363499 
L 203.945366 194.338932 
L 206.135572 194.25414 
L 206.802658 194.223815 
L 207.891832 194.388963 
L 209.028647 194.183512 
L 210.792173 194.11192 
L 211.342313 194.217447 
L 211.869787 194.07238 
L 212.982323 194.034567 
L 215.015927 194.181972 
L 215.492126 194.0632 
L 220.103554 194.290764 
L 220.718045 194.081227 
L 221.657887 194.306381 
L 223.253954 194.406983 
L 223.721515 194.516429 
L 224.590656 194.405209 
L 225.052921 194.427676 
L 225.541085 194.29886 
L 229.592538 194.057055 
L 241.2829 194.167507 
L 241.916403 194.061002 
L 244.611731 194.125194 
L 249.184115 194.106847 
L 253.132154 194.064351 
L 267.990581 194.023535 
L 273.393892 194.091378 
L 274.350662 194.052518 
L 277.300467 193.793555 
L 285.511497 193.617499 
L 287.223833 193.172666 
L 288.779949 192.911222 
L 291.200814 193.067857 
L 292.277689 193.457921 
L 295.467613 195.239108 
L 296.793826 196.270422 
L 297.255224 196.535376 
L 297.554667 196.69023 
L 296.715756 196.290431 
L 296.504369 196.22541 
L 296.899182 196.330549 
L 296.561901 196.251188 
L 294.745404 195.287511 
L 295.305912 195.440229 
L 296.31752 195.433175 
L 297.616312 195.254615 
L 299.167638 194.902108 
L 300.096268 194.672401 
L 301.347543 194.565434 
L 303.092752 194.54786 
L 309.138381 194.481741 
L 310.441047 194.484085 
L 311.203885 194.400116 
L 311.995938 194.427781 
L 312.839301 194.383145 
L 313.744985 194.435756 
L 337.21374 194.092632 
L 337.847024 194.150084 
L 339.034402 194.005138 
L 347.381608 193.919953 
L 348.513726 193.89977 
L 349.729348 193.812504 
L 350.301662 193.920181 
L 351.051938 193.778146 
L 352.080218 193.929098 
L 353.160329 193.738469 
L 358.113968 193.828623 
L 364.072389 193.819571 
L 365.370883 193.867098 
L 366.049207 193.800053 
L 367.408521 193.812914 
L 372.460888 193.810665 
L 376.522996 194.131555 
L 377.748419 194.023392 
L 378.552242 193.818909 
L 385.348734 193.740259 
L 393.467552 194.721557 
L 395.137113 194.966142 
L 397.212602 195.756666 
L 398.776872 196.933386 
L 399.524004 197.837127 
L 400.954698 200.00816 
L 401.27517 200.852095 
L 401.569161 201.810532 
L 401.314938 201.160769 
L 400.859783 200.523297 
L 400.310658 199.915637 
L 399.92545 199.489636 
L 399.983478 199.578098 
L 399.718858 199.310061 
L 399.036036 198.644679 
L 398.364363 198.197141 
L 397.898881 197.854255 
L 395.938925 195.981487 
L 394.531175 193.449742 
L 394.024296 192.134824 
L 393.815113 191.226812 
L 393.802713 191.594879 
L 393.604732 192.255269 
L 393.443246 192.793153 
L 392.931358 193.636596 
L 392.805944 193.841216 
L 391.047401 195.684484 
L 390.374834 196.067557 
L 389.536705 196.527948 
L 387.222888 197.596806 
L 384.75079 197.990877 
L 380.962836 197.909009 
L 380.028543 197.967085 
L 379.036499 198.077905 
L 378.014366 198.182404 
L 373.862347 197.963528 
L 371.997865 198.096519 
L 361.338534 197.913888 
L 361.121417 197.879787 
L 363.301574 197.990151 
L 363.703178 197.985988 
L 363.703178 197.985988 
" clip-path="url(#pbacf955749)" style="fill: none; stroke: #4c72b0; stroke-opacity: 0.75; stroke-width: 1.5; stroke-linecap: round"/>
   </g>
   <g id="line2d_18">
    <path d="M 76.081292 196.254432 
L 76.071249 196.25988 
L 76.071305 196.259369 
L 75.828794 195.859231 
L 75.723525 195.858458 
L 75.260427 196.04955 
L 74.020319 195.750898 
L 76.601152 196.431077 
L 76.54199 195.331812 
L 77.187175 194.733796 
L 77.868094 194.470822 
L 78.181517 194.464786 
L 78.902902 193.272039 
L 79.360212 193.06823 
L 79.367426 195.555067 
L 82.232546 195.777397 
L 84.691925 196.541861 
L 85.418855 196.551929 
L 86.623007 196.978547 
L 89.272679 197.286736 
L 91.696679 197.790406 
L 94.197587 195.733652 
L 98.59216 196.776179 
L 99.381213 194.387462 
L 100.770436 195.044313 
L 101.766609 195.693775 
L 104.878832 197.061 
L 105.242811 197.128595 
L 107.221109 197.639767 
L 108.422686 198.085138 
L 112.705257 195.752454 
L 116.899012 196.803461 
L 119.440152 197.337126 
L 122.11893 197.492578 
L 129.012903 197.699465 
L 130.632511 197.916875 
L 130.839332 195.8745 
L 131.498609 196.025161 
L 135.031583 195.859152 
L 137.470083 196.057968 
L 139.90641 195.88694 
L 142.507634 195.870763 
L 141.900212 193.972589 
L 144.690413 193.405299 
L 149.683419 193.377846 
L 152.984136 193.123608 
L 153.121002 192.98727 
L 156.884644 193.036781 
L 170.505826 192.814499 
L 167.658795 194.412567 
L 172.844115 192.188851 
L 177.269822 192.369989 
L 185.522329 193.45635 
L 182.678633 192.471551 
L 188.430465 193.463302 
L 188.07396 195.854309 
L 186.662563 193.653604 
L 186.503188 193.660493 
L 187.436158 193.765935 
L 171.646374 195.07985 
L 174.527649 195.622573 
L 166.763686 193.869022 
L 168.865168 194.176831 
L 170.554193 194.509811 
L 169.434356 193.618493 
L 170.88471 193.6768 
L 171.695819 193.843694 
L 172.609934 193.901915 
L 173.908692 194.388272 
L 175.543232 194.604478 
L 177.8245 194.855949 
L 180.109149 194.461797 
L 183.061827 194.705369 
L 189.327263 195.382445 
L 190.607944 194.493991 
L 193.153536 194.570901 
L 194.028523 194.700875 
L 196.604263 194.536062 
L 198.574994 194.646858 
L 202.195742 193.595278 
L 203.142825 193.724138 
L 204.71652 193.615826 
L 205.710427 193.450306 
L 206.794717 193.609129 
L 207.040824 194.571864 
L 208.79072 194.697924 
L 212.083711 192.823151 
L 213.177596 192.64658 
L 217.144738 192.384904 
L 219.663336 193.715366 
L 220.647904 193.641949 
L 221.600826 193.458597 
L 223.218284 193.49389 
L 225.017113 194.366796 
L 227.864006 194.283495 
L 230.024402 193.332573 
L 234.051521 192.948004 
L 234.66771 193.182284 
L 239.067811 193.14171 
L 244.446667 193.265611 
L 247.544341 193.148875 
L 249.65674 193.745748 
L 252.908031 193.660961 
L 254.534822 193.633217 
L 255.294029 194.802788 
L 256.923454 194.85319 
L 258.48993 194.963889 
L 260.405222 192.871917 
L 261.780338 192.838237 
L 264.236043 192.701018 
L 265.192817 193.608486 
L 274.104572 193.64519 
L 276.686825 193.022681 
L 280.122259 192.941191 
L 284.149108 192.802528 
L 290.74218 193.154976 
L 292.290476 192.758674 
L 292.586259 191.525029 
L 295.613373 190.486463 
L 296.63816 191.925626 
L 297.213959 191.826307 
L 297.161718 191.84883 
L 298.542028 194.347094 
L 298.545173 194.343235 
L 297.881609 195.242679 
L 297.558956 195.233869 
L 297.026974 196.380485 
L 296.847932 196.359642 
L 297.165235 196.394003 
L 296.975318 196.675803 
L 296.292399 196.587347 
L 296.754832 194.364067 
L 295.556385 194.309314 
L 295.593195 194.320868 
L 295.069564 194.042539 
L 295.316447 194.067214 
L 296.070107 194.021073 
L 296.862428 193.940265 
L 298.242704 194.3657 
L 300.28473 194.018625 
L 300.784748 194.278984 
L 303.262325 194.11756 
L 303.500168 192.958839 
L 309.91025 191.740353 
L 311.882615 193.05752 
L 312.698875 193.041911 
L 315.675169 192.660166 
L 317.108561 193.369755 
L 320.021355 193.093282 
L 323.064671 193.171572 
L 327.475079 192.7183 
L 330.605456 194.012243 
L 335.791206 193.870154 
L 338.815429 192.274767 
L 341.021253 192.014953 
L 342.116064 192.000335 
L 343.825098 192.770833 
L 350.568698 192.452504 
L 352.579116 192.520415 
L 353.547405 192.302445 
L 355.256995 192.328842 
L 357.449988 194.21631 
L 366.879248 194.907861 
L 372.474887 194.969756 
L 374.745128 195.263133 
L 377.740812 194.063721 
L 381.498054 193.614623 
L 385.571231 193.629679 
L 387.983105 193.816521 
L 387.601334 193.375598 
L 391.382179 193.673428 
L 394.151848 195.616772 
L 395.66896 195.775175 
L 397.523943 196.474591 
L 399.685921 197.087201 
L 400.723225 197.908503 
L 401.144069 198.45504 
L 402.661138 197.17431 
L 403.548342 198.445475 
L 403.865284 199.164071 
L 404.450308 201.111228 
L 404.418388 201.057071 
L 404.582084 202.813537 
L 404.539902 202.742095 
L 404.379534 202.380563 
L 403.415411 201.855355 
L 402.38412 200.730607 
L 403.681819 199.78828 
L 402.365362 199.803318 
L 401.149275 198.850319 
L 399.991622 197.954358 
L 399.557431 197.430809 
L 397.637459 197.748126 
L 396.442062 195.890969 
L 395.978095 194.787445 
L 397.104221 194.39515 
L 397.073752 193.962273 
L 397.074471 194.264084 
L 395.939065 193.203474 
L 395.561014 194.017941 
L 395.323288 194.349092 
L 395.059428 195.47852 
L 393.835557 196.697313 
L 393.239721 197.020978 
L 392.413964 198.999589 
L 390.426806 199.92942 
L 389.549537 200.155837 
L 387.570435 200.807435 
L 383.805654 200.741175 
L 381.979842 200.140473 
L 380.208602 200.308814 
L 378.647272 200.158433 
L 378.360111 199.479559 
L 373.114144 199.27397 
L 367.353171 199.143851 
L 366.596391 199.057383 
L 363.571276 199.86261 
L 363.514152 199.857034 
L 363.595563 199.871011 
L 362.89652 199.223318 
L 362.906012 199.223891 
L 362.104987 199.084054 
L 362.124059 199.087833 
L 362.651326 199.782643 
L 362.648204 199.784044 
L 362.42792 198.690396 
L 363.827113 198.793844 
L 364.50139 198.833852 
L 364.50139 198.833852 
" clip-path="url(#pbacf955749)" style="fill: none; stroke: #55a868; stroke-opacity: 0.75; stroke-width: 1.5; stroke-linecap: round"/>
   </g>
   <g id="line2d_19">
    <path d="M 81.884807 195.266997 
L 82.389574 195.187018 
L 82.988804 195.290781 
L 83.160875 195.17212 
L 84.881823 195.313458 
L 85.757979 195.245159 
L 87.080799 195.3278 
L 88.034446 195.411313 
L 90.485679 195.435594 
L 93.563594 195.640712 
L 97.864023 195.185886 
L 98.30303 195.301198 
L 100.909871 195.085623 
L 109.26155 195.222197 
L 110.820628 195.128715 
L 113.214949 195.272099 
L 116.26925 194.737213 
L 125.090301 195.105806 
L 126.099229 195.297194 
L 126.515005 195.184401 
L 129.565501 195.076527 
L 130.050522 194.950068 
L 131.877711 194.865075 
L 132.363697 195.034836 
L 133.533187 194.896872 
L 135.854368 195.022243 
L 138.249239 195.00605 
L 140.62789 194.878707 
L 141.817999 194.956504 
L 144.339404 194.77245 
L 149.168228 194.711834 
L 154.255221 194.751918 
L 156.098952 194.691941 
L 157.702066 194.848174 
L 158.727251 194.863556 
L 159.236742 194.736578 
L 163.611969 194.604783 
L 164.322354 194.712219 
L 164.816192 194.649492 
L 165.862413 194.708341 
L 167.457228 194.617788 
L 169.000207 194.526684 
L 169.481448 194.497908 
L 170.527585 194.269841 
L 171.360261 194.269229 
L 172.741387 194.199918 
L 173.23709 194.285529 
L 176.138075 194.077662 
L 178.90936 194.178991 
L 179.867861 194.245648 
L 180.22899 194.141109 
L 181.427606 194.329773 
L 188.452203 194.485947 
L 193.009405 194.637891 
L 194.166953 194.416376 
L 195.951814 194.28956 
L 196.406873 194.351254 
L 197.687863 194.299251 
L 198.17643 194.382617 
L 199.588208 194.263165 
L 200.092669 194.315627 
L 200.582313 194.238399 
L 201.66904 194.346599 
L 202.599311 194.382101 
L 204.117683 194.370652 
L 207.433503 194.239944 
L 208.52067 194.395289 
L 210.287645 194.162266 
L 211.42284 194.137982 
L 211.96887 194.226457 
L 213.080912 194.03804 
L 220.771427 194.302327 
L 221.389416 194.09209 
L 222.356785 194.320909 
L 223.349779 194.400467 
L 225.764062 194.439476 
L 226.223176 194.312228 
L 228.853548 194.102859 
L 230.275543 194.075034 
L 241.871657 194.18629 
L 242.514894 194.076108 
L 245.766507 194.153035 
L 247.15803 194.113967 
L 251.77224 194.074352 
L 255.30061 194.103296 
L 260.616241 194.000479 
L 265.178948 193.963484 
L 267.906705 194.012903 
L 270.52696 194.076663 
L 271.981402 194.067262 
L 273.020587 194.087106 
L 274.611096 194.059657 
L 277.624451 193.796351 
L 285.715963 193.596584 
L 287.998011 193.047378 
L 289.702003 192.899882 
L 291.080532 192.951817 
L 292.549519 193.438951 
L 296.253266 195.646454 
L 297.028205 196.237284 
L 297.503245 196.501827 
L 297.83578 196.666696 
L 297.189526 196.299732 
L 296.781927 196.213455 
L 296.839453 196.237901 
L 295.022615 195.270792 
L 295.601273 195.433811 
L 296.145817 195.425888 
L 296.848278 195.420464 
L 298.132302 195.203628 
L 298.687293 195.064433 
L 299.440167 194.875591 
L 300.377824 194.662983 
L 301.24362 194.54329 
L 303.331778 194.535116 
L 308.220921 194.488686 
L 309.808919 194.496809 
L 336.016366 194.08096 
L 338.067754 194.102721 
L 340.020641 194.007955 
L 349.383537 193.830844 
L 349.943091 193.955047 
L 350.67912 193.802867 
L 351.709465 193.964935 
L 352.789666 193.754466 
L 358.957411 193.854903 
L 361.605085 193.832889 
L 366.212814 193.863802 
L 368.964543 193.830164 
L 373.324294 193.980715 
L 374.607276 194.143433 
L 377.156867 194.042577 
L 378.484286 193.809372 
L 380.204519 193.726327 
L 382.873444 193.736705 
L 385.433673 193.815518 
L 388.306977 194.28611 
L 390.329456 194.449021 
L 394.574953 194.978934 
L 396.664667 195.772828 
L 398.478627 197.226457 
L 399.816788 199.06646 
L 400.909811 201.393267 
L 400.999072 201.828734 
L 400.826321 201.358229 
L 400.460933 200.756728 
L 399.611376 199.749143 
L 399.168101 199.32953 
L 398.486014 198.667081 
L 395.999123 196.578188 
L 395.017248 195.347051 
L 394.336281 194.230085 
L 393.962294 193.44791 
L 393.38299 191.793263 
L 393.304666 191.260262 
L 393.288173 191.617511 
L 393.198619 192.091965 
L 393.037312 192.55357 
L 392.43785 193.614834 
L 391.773854 194.451003 
L 389.508785 196.310414 
L 386.727162 197.576049 
L 384.31546 197.948346 
L 381.000275 197.801216 
L 380.12582 197.876714 
L 376.89092 198.095086 
L 375.292044 197.955588 
L 373.505877 197.925779 
L 371.678192 198.04317 
L 366.773251 198.058596 
L 364.798574 197.973196 
L 361.025494 197.822489 
L 363.594806 197.918075 
" clip-path="url(#pbacf955749)" style="fill: none; stroke: #c44e52; stroke-opacity: 0.75; stroke-width: 1.5; stroke-linecap: round"/>
   </g>
   <g id="patch_4">
    <path d="M 65.43 380.34 
L 65.43 12.96 
" style="fill: none; stroke: #ffffff; stroke-width: 1.25; stroke-linejoin: miter; stroke-linecap: square"/>
   </g>
   <g id="patch_5">
    <path d="M 413.392771 380.34 
L 413.392771 12.96 
" style="fill: none; stroke: #ffffff; stroke-width: 1.25; stroke-linejoin: miter; stroke-linecap: square"/>
   </g>
   <g id="patch_6">
    <path d="M 65.43 380.34 
L 413.392771 380.34 
" style="fill: none; stroke: #ffffff; stroke-width: 1.25; stroke-linejoin: miter; stroke-linecap: square"/>
   </g>
   <g id="patch_7">
    <path d="M 65.43 12.96 
L 413.392771 12.96 
" style="fill: none; stroke: #ffffff; stroke-width: 1.25; stroke-linejoin: miter; stroke-linecap: square"/>
   </g>
   <g id="legend_1">
    <g id="patch_8">
     <path d="M 198.485427 86.34375 
L 405.692771 86.34375 
Q 407.892771 86.34375 407.892771 84.14375 
L 407.892771 20.66 
Q 407.892771 18.46 405.692771 18.46 
L 198.485427 18.46 
Q 196.285427 18.46 196.285427 20.66 
L 196.285427 84.14375 
Q 196.285427 86.34375 198.485427 86.34375 
z
" style="fill: #eaeaf2; opacity: 0.8; stroke: #cccccc; stroke-linejoin: miter"/>
    </g>
    <g id="line2d_20">
     <path d="M 200.685427 27.368281 
L 211.685427 27.368281 
L 222.685427 27.368281 
" style="fill: none; stroke-dasharray: 5.55,2.4; stroke-dashoffset: 0; stroke: #000000; stroke-opacity: 0.5; stroke-width: 1.5"/>
    </g>
    <g id="text_18">
     <!-- Ground Truth -->
     <g style="fill: #262626" transform="translate(231.485427 31.218281)scale(0.11 -0.11)">
      <defs>
       <path id="DejaVuSans-47" d="M 3809 666 
L 3809 1919 
L 2778 1919 
L 2778 2438 
L 4434 2438 
L 4434 434 
Q 4069 175 3628 42 
Q 3188 -91 2688 -91 
Q 1594 -91 976 548 
Q 359 1188 359 2328 
Q 359 3472 976 4111 
Q 1594 4750 2688 4750 
Q 3144 4750 3555 4637 
Q 3966 4525 4313 4306 
L 4313 3634 
Q 3963 3931 3569 4081 
Q 3175 4231 2741 4231 
Q 1884 4231 1454 3753 
Q 1025 3275 1025 2328 
Q 1025 1384 1454 906 
Q 1884 428 2741 428 
Q 3075 428 3337 486 
Q 3600 544 3809 666 
z
" transform="scale(0.015625)"/>
       <path id="DejaVuSans-72" d="M 2631 2963 
Q 2534 3019 2420 3045 
Q 2306 3072 2169 3072 
Q 1681 3072 1420 2755 
Q 1159 2438 1159 1844 
L 1159 0 
L 581 0 
L 581 3500 
L 1159 3500 
L 1159 2956 
Q 1341 3275 1631 3429 
Q 1922 3584 2338 3584 
Q 2397 3584 2469 3576 
Q 2541 3569 2628 3553 
L 2631 2963 
z
" transform="scale(0.015625)"/>
       <path id="DejaVuSans-6f" d="M 1959 3097 
Q 1497 3097 1228 2736 
Q 959 2375 959 1747 
Q 959 1119 1226 758 
Q 1494 397 1959 397 
Q 2419 397 2687 759 
Q 2956 1122 2956 1747 
Q 2956 2369 2687 2733 
Q 2419 3097 1959 3097 
z
M 1959 3584 
Q 2709 3584 3137 3096 
Q 3566 2609 3566 1747 
Q 3566 888 3137 398 
Q 2709 -91 1959 -91 
Q 1206 -91 779 398 
Q 353 888 353 1747 
Q 353 2609 779 3096 
Q 1206 3584 1959 3584 
z
" transform="scale(0.015625)"/>
       <path id="DejaVuSans-75" d="M 544 1381 
L 544 3500 
L 1119 3500 
L 1119 1403 
Q 1119 906 1312 657 
Q 1506 409 1894 409 
Q 2359 409 2629 706 
Q 2900 1003 2900 1516 
L 2900 3500 
L 3475 3500 
L 3475 0 
L 2900 0 
L 2900 538 
Q 2691 219 2414 64 
Q 2138 -91 1772 -91 
Q 1169 -91 856 284 
Q 544 659 544 1381 
z
M 1991 3584 
L 1991 3584 
z
" transform="scale(0.015625)"/>
       <path id="DejaVuSans-6e" d="M 3513 2113 
L 3513 0 
L 2938 0 
L 2938 2094 
Q 2938 2591 2744 2837 
Q 2550 3084 2163 3084 
Q 1697 3084 1428 2787 
Q 1159 2491 1159 1978 
L 1159 0 
L 581 0 
L 581 3500 
L 1159 3500 
L 1159 2956 
Q 1366 3272 1645 3428 
Q 1925 3584 2291 3584 
Q 2894 3584 3203 3211 
Q 3513 2838 3513 2113 
z
" transform="scale(0.015625)"/>
       <path id="DejaVuSans-64" d="M 2906 2969 
L 2906 4863 
L 3481 4863 
L 3481 0 
L 2906 0 
L 2906 525 
Q 2725 213 2448 61 
Q 2172 -91 1784 -91 
Q 1150 -91 751 415 
Q 353 922 353 1747 
Q 353 2572 751 3078 
Q 1150 3584 1784 3584 
Q 2172 3584 2448 3432 
Q 2725 3281 2906 2969 
z
M 947 1747 
Q 947 1113 1208 752 
Q 1469 391 1925 391 
Q 2381 391 2643 752 
Q 2906 1113 2906 1747 
Q 2906 2381 2643 2742 
Q 2381 3103 1925 3103 
Q 1469 3103 1208 2742 
Q 947 2381 947 1747 
z
" transform="scale(0.015625)"/>
       <path id="DejaVuSans-54" d="M -19 4666 
L 3928 4666 
L 3928 4134 
L 2272 4134 
L 2272 0 
L 1638 0 
L 1638 4134 
L -19 4134 
L -19 4666 
z
" transform="scale(0.015625)"/>
       <path id="DejaVuSans-74" d="M 1172 4494 
L 1172 3500 
L 2356 3500 
L 2356 3053 
L 1172 3053 
L 1172 1153 
Q 1172 725 1289 603 
Q 1406 481 1766 481 
L 2356 481 
L 2356 0 
L 1766 0 
Q 1100 0 847 248 
Q 594 497 594 1153 
L 594 3053 
L 172 3053 
L 172 3500 
L 594 3500 
L 594 4494 
L 1172 4494 
z
" transform="scale(0.015625)"/>
       <path id="DejaVuSans-68" d="M 3513 2113 
L 3513 0 
L 2938 0 
L 2938 2094 
Q 2938 2591 2744 2837 
Q 2550 3084 2163 3084 
Q 1697 3084 1428 2787 
Q 1159 2491 1159 1978 
L 1159 0 
L 581 0 
L 581 4863 
L 1159 4863 
L 1159 2956 
Q 1366 3272 1645 3428 
Q 1925 3584 2291 3584 
Q 2894 3584 3203 3211 
Q 3513 2838 3513 2113 
z
" transform="scale(0.015625)"/>
      </defs>
      <use xlink:href="#DejaVuSans-47"/>
      <use xlink:href="#DejaVuSans-72" x="77.490234"/>
      <use xlink:href="#DejaVuSans-6f" x="116.353516"/>
      <use xlink:href="#DejaVuSans-75" x="177.535156"/>
      <use xlink:href="#DejaVuSans-6e" x="240.914062"/>
      <use xlink:href="#DejaVuSans-64" x="304.292969"/>
      <use xlink:href="#DejaVuSans-20" x="367.769531"/>
      <use xlink:href="#DejaVuSans-54" x="399.556641"/>
      <use xlink:href="#DejaVuSans-72" x="445.890625"/>
      <use xlink:href="#DejaVuSans-75" x="487.003906"/>
      <use xlink:href="#DejaVuSans-74" x="550.382812"/>
      <use xlink:href="#DejaVuSans-68" x="589.591797"/>
     </g>
    </g>
    <g id="line2d_21">
     <path d="M 200.685427 43.514219 
L 211.685427 43.514219 
L 222.685427 43.514219 
" style="fill: none; stroke: #4c72b0; stroke-opacity: 0.75; stroke-width: 1.5; stroke-linecap: round"/>
    </g>
    <g id="text_19">
     <!-- GNSS-Stereo-Inertial (Ours) -->
     <g style="fill: #262626" transform="translate(231.485427 47.364219)scale(0.11 -0.11)">
      <defs>
       <path id="DejaVuSans-4e" d="M 628 4666 
L 1478 4666 
L 3547 763 
L 3547 4666 
L 4159 4666 
L 4159 0 
L 3309 0 
L 1241 3903 
L 1241 0 
L 628 0 
L 628 4666 
z
" transform="scale(0.015625)"/>
       <path id="DejaVuSans-53" d="M 3425 4513 
L 3425 3897 
Q 3066 4069 2747 4153 
Q 2428 4238 2131 4238 
Q 1616 4238 1336 4038 
Q 1056 3838 1056 3469 
Q 1056 3159 1242 3001 
Q 1428 2844 1947 2747 
L 2328 2669 
Q 3034 2534 3370 2195 
Q 3706 1856 3706 1288 
Q 3706 609 3251 259 
Q 2797 -91 1919 -91 
Q 1588 -91 1214 -16 
Q 841 59 441 206 
L 441 856 
Q 825 641 1194 531 
Q 1563 422 1919 422 
Q 2459 422 2753 634 
Q 3047 847 3047 1241 
Q 3047 1584 2836 1778 
Q 2625 1972 2144 2069 
L 1759 2144 
Q 1053 2284 737 2584 
Q 422 2884 422 3419 
Q 422 4038 858 4394 
Q 1294 4750 2059 4750 
Q 2388 4750 2728 4690 
Q 3069 4631 3425 4513 
z
" transform="scale(0.015625)"/>
       <path id="DejaVuSans-2d" d="M 313 2009 
L 1997 2009 
L 1997 1497 
L 313 1497 
L 313 2009 
z
" transform="scale(0.015625)"/>
       <path id="DejaVuSans-65" d="M 3597 1894 
L 3597 1613 
L 953 1613 
Q 991 1019 1311 708 
Q 1631 397 2203 397 
Q 2534 397 2845 478 
Q 3156 559 3463 722 
L 3463 178 
Q 3153 47 2828 -22 
Q 2503 -91 2169 -91 
Q 1331 -91 842 396 
Q 353 884 353 1716 
Q 353 2575 817 3079 
Q 1281 3584 2069 3584 
Q 2775 3584 3186 3129 
Q 3597 2675 3597 1894 
z
M 3022 2063 
Q 3016 2534 2758 2815 
Q 2500 3097 2075 3097 
Q 1594 3097 1305 2825 
Q 1016 2553 972 2059 
L 3022 2063 
z
" transform="scale(0.015625)"/>
       <path id="DejaVuSans-49" d="M 628 4666 
L 1259 4666 
L 1259 0 
L 628 0 
L 628 4666 
z
" transform="scale(0.015625)"/>
       <path id="DejaVuSans-69" d="M 603 3500 
L 1178 3500 
L 1178 0 
L 603 0 
L 603 3500 
z
M 603 4863 
L 1178 4863 
L 1178 4134 
L 603 4134 
L 603 4863 
z
" transform="scale(0.015625)"/>
       <path id="DejaVuSans-61" d="M 2194 1759 
Q 1497 1759 1228 1600 
Q 959 1441 959 1056 
Q 959 750 1161 570 
Q 1363 391 1709 391 
Q 2188 391 2477 730 
Q 2766 1069 2766 1631 
L 2766 1759 
L 2194 1759 
z
M 3341 1997 
L 3341 0 
L 2766 0 
L 2766 531 
Q 2569 213 2275 61 
Q 1981 -91 1556 -91 
Q 1019 -91 701 211 
Q 384 513 384 1019 
Q 384 1609 779 1909 
Q 1175 2209 1959 2209 
L 2766 2209 
L 2766 2266 
Q 2766 2663 2505 2880 
Q 2244 3097 1772 3097 
Q 1472 3097 1187 3025 
Q 903 2953 641 2809 
L 641 3341 
Q 956 3463 1253 3523 
Q 1550 3584 1831 3584 
Q 2591 3584 2966 3190 
Q 3341 2797 3341 1997 
z
" transform="scale(0.015625)"/>
       <path id="DejaVuSans-6c" d="M 603 4863 
L 1178 4863 
L 1178 0 
L 603 0 
L 603 4863 
z
" transform="scale(0.015625)"/>
       <path id="DejaVuSans-4f" d="M 2522 4238 
Q 1834 4238 1429 3725 
Q 1025 3213 1025 2328 
Q 1025 1447 1429 934 
Q 1834 422 2522 422 
Q 3209 422 3611 934 
Q 4013 1447 4013 2328 
Q 4013 3213 3611 3725 
Q 3209 4238 2522 4238 
z
M 2522 4750 
Q 3503 4750 4090 4092 
Q 4678 3434 4678 2328 
Q 4678 1225 4090 567 
Q 3503 -91 2522 -91 
Q 1538 -91 948 565 
Q 359 1222 359 2328 
Q 359 3434 948 4092 
Q 1538 4750 2522 4750 
z
" transform="scale(0.015625)"/>
       <path id="DejaVuSans-73" d="M 2834 3397 
L 2834 2853 
Q 2591 2978 2328 3040 
Q 2066 3103 1784 3103 
Q 1356 3103 1142 2972 
Q 928 2841 928 2578 
Q 928 2378 1081 2264 
Q 1234 2150 1697 2047 
L 1894 2003 
Q 2506 1872 2764 1633 
Q 3022 1394 3022 966 
Q 3022 478 2636 193 
Q 2250 -91 1575 -91 
Q 1294 -91 989 -36 
Q 684 19 347 128 
L 347 722 
Q 666 556 975 473 
Q 1284 391 1588 391 
Q 1994 391 2212 530 
Q 2431 669 2431 922 
Q 2431 1156 2273 1281 
Q 2116 1406 1581 1522 
L 1381 1569 
Q 847 1681 609 1914 
Q 372 2147 372 2553 
Q 372 3047 722 3315 
Q 1072 3584 1716 3584 
Q 2034 3584 2315 3537 
Q 2597 3491 2834 3397 
z
" transform="scale(0.015625)"/>
      </defs>
      <use xlink:href="#DejaVuSans-47"/>
      <use xlink:href="#DejaVuSans-4e" x="77.490234"/>
      <use xlink:href="#DejaVuSans-53" x="152.294922"/>
      <use xlink:href="#DejaVuSans-53" x="215.771484"/>
      <use xlink:href="#DejaVuSans-2d" x="279.248047"/>
      <use xlink:href="#DejaVuSans-53" x="315.332031"/>
      <use xlink:href="#DejaVuSans-74" x="378.808594"/>
      <use xlink:href="#DejaVuSans-65" x="418.017578"/>
      <use xlink:href="#DejaVuSans-72" x="479.541016"/>
      <use xlink:href="#DejaVuSans-65" x="518.404297"/>
      <use xlink:href="#DejaVuSans-6f" x="579.927734"/>
      <use xlink:href="#DejaVuSans-2d" x="642.984375"/>
      <use xlink:href="#DejaVuSans-49" x="679.068359"/>
      <use xlink:href="#DejaVuSans-6e" x="708.560547"/>
      <use xlink:href="#DejaVuSans-65" x="771.939453"/>
      <use xlink:href="#DejaVuSans-72" x="833.462891"/>
      <use xlink:href="#DejaVuSans-74" x="874.576172"/>
      <use xlink:href="#DejaVuSans-69" x="913.785156"/>
      <use xlink:href="#DejaVuSans-61" x="941.568359"/>
      <use xlink:href="#DejaVuSans-6c" x="1002.847656"/>
      <use xlink:href="#DejaVuSans-20" x="1030.630859"/>
      <use xlink:href="#DejaVuSans-28" x="1062.417969"/>
      <use xlink:href="#DejaVuSans-4f" x="1101.431641"/>
      <use xlink:href="#DejaVuSans-75" x="1180.142578"/>
      <use xlink:href="#DejaVuSans-72" x="1243.521484"/>
      <use xlink:href="#DejaVuSans-73" x="1284.634766"/>
      <use xlink:href="#DejaVuSans-29" x="1336.734375"/>
     </g>
    </g>
    <g id="line2d_22">
     <path d="M 200.685427 59.660156 
L 211.685427 59.660156 
L 222.685427 59.660156 
" style="fill: none; stroke: #55a868; stroke-opacity: 0.75; stroke-width: 1.5; stroke-linecap: round"/>
    </g>
    <g id="text_20">
     <!-- GNSS-Stereo-Inertial (Qin et al) -->
     <g style="fill: #262626" transform="translate(231.485427 63.510156)scale(0.11 -0.11)">
      <defs>
       <path id="DejaVuSans-51" d="M 2522 4238 
Q 1834 4238 1429 3725 
Q 1025 3213 1025 2328 
Q 1025 1447 1429 934 
Q 1834 422 2522 422 
Q 3209 422 3611 934 
Q 4013 1447 4013 2328 
Q 4013 3213 3611 3725 
Q 3209 4238 2522 4238 
z
M 3406 84 
L 4238 -825 
L 3475 -825 
L 2784 -78 
Q 2681 -84 2626 -87 
Q 2572 -91 2522 -91 
Q 1538 -91 948 567 
Q 359 1225 359 2328 
Q 359 3434 948 4092 
Q 1538 4750 2522 4750 
Q 3503 4750 4090 4092 
Q 4678 3434 4678 2328 
Q 4678 1516 4351 937 
Q 4025 359 3406 84 
z
" transform="scale(0.015625)"/>
      </defs>
      <use xlink:href="#DejaVuSans-47"/>
      <use xlink:href="#DejaVuSans-4e" x="77.490234"/>
      <use xlink:href="#DejaVuSans-53" x="152.294922"/>
      <use xlink:href="#DejaVuSans-53" x="215.771484"/>
      <use xlink:href="#DejaVuSans-2d" x="279.248047"/>
      <use xlink:href="#DejaVuSans-53" x="315.332031"/>
      <use xlink:href="#DejaVuSans-74" x="378.808594"/>
      <use xlink:href="#DejaVuSans-65" x="418.017578"/>
      <use xlink:href="#DejaVuSans-72" x="479.541016"/>
      <use xlink:href="#DejaVuSans-65" x="518.404297"/>
      <use xlink:href="#DejaVuSans-6f" x="579.927734"/>
      <use xlink:href="#DejaVuSans-2d" x="642.984375"/>
      <use xlink:href="#DejaVuSans-49" x="679.068359"/>
      <use xlink:href="#DejaVuSans-6e" x="708.560547"/>
      <use xlink:href="#DejaVuSans-65" x="771.939453"/>
      <use xlink:href="#DejaVuSans-72" x="833.462891"/>
      <use xlink:href="#DejaVuSans-74" x="874.576172"/>
      <use xlink:href="#DejaVuSans-69" x="913.785156"/>
      <use xlink:href="#DejaVuSans-61" x="941.568359"/>
      <use xlink:href="#DejaVuSans-6c" x="1002.847656"/>
      <use xlink:href="#DejaVuSans-20" x="1030.630859"/>
      <use xlink:href="#DejaVuSans-28" x="1062.417969"/>
      <use xlink:href="#DejaVuSans-51" x="1101.431641"/>
      <use xlink:href="#DejaVuSans-69" x="1180.142578"/>
      <use xlink:href="#DejaVuSans-6e" x="1207.925781"/>
      <use xlink:href="#DejaVuSans-20" x="1271.304688"/>
      <use xlink:href="#DejaVuSans-65" x="1303.091797"/>
      <use xlink:href="#DejaVuSans-74" x="1364.615234"/>
      <use xlink:href="#DejaVuSans-20" x="1403.824219"/>
      <use xlink:href="#DejaVuSans-61" x="1435.611328"/>
      <use xlink:href="#DejaVuSans-6c" x="1496.890625"/>
      <use xlink:href="#DejaVuSans-29" x="1524.673828"/>
     </g>
    </g>
    <g id="line2d_23">
     <path d="M 200.685427 75.806094 
L 211.685427 75.806094 
L 222.685427 75.806094 
" style="fill: none; stroke: #c44e52; stroke-opacity: 0.75; stroke-width: 1.5; stroke-linecap: round"/>
    </g>
    <g id="text_21">
     <!-- Stereo-Inertial (Campos et al) -->
     <g style="fill: #262626" transform="translate(231.485427 79.656094)scale(0.11 -0.11)">
      <defs>
       <path id="DejaVuSans-43" d="M 4122 4306 
L 4122 3641 
Q 3803 3938 3442 4084 
Q 3081 4231 2675 4231 
Q 1875 4231 1450 3742 
Q 1025 3253 1025 2328 
Q 1025 1406 1450 917 
Q 1875 428 2675 428 
Q 3081 428 3442 575 
Q 3803 722 4122 1019 
L 4122 359 
Q 3791 134 3420 21 
Q 3050 -91 2638 -91 
Q 1578 -91 968 557 
Q 359 1206 359 2328 
Q 359 3453 968 4101 
Q 1578 4750 2638 4750 
Q 3056 4750 3426 4639 
Q 3797 4528 4122 4306 
z
" transform="scale(0.015625)"/>
       <path id="DejaVuSans-70" d="M 1159 525 
L 1159 -1331 
L 581 -1331 
L 581 3500 
L 1159 3500 
L 1159 2969 
Q 1341 3281 1617 3432 
Q 1894 3584 2278 3584 
Q 2916 3584 3314 3078 
Q 3713 2572 3713 1747 
Q 3713 922 3314 415 
Q 2916 -91 2278 -91 
Q 1894 -91 1617 61 
Q 1341 213 1159 525 
z
M 3116 1747 
Q 3116 2381 2855 2742 
Q 2594 3103 2138 3103 
Q 1681 3103 1420 2742 
Q 1159 2381 1159 1747 
Q 1159 1113 1420 752 
Q 1681 391 2138 391 
Q 2594 391 2855 752 
Q 3116 1113 3116 1747 
z
" transform="scale(0.015625)"/>
      </defs>
      <use xlink:href="#DejaVuSans-53"/>
      <use xlink:href="#DejaVuSans-74" x="63.476562"/>
      <use xlink:href="#DejaVuSans-65" x="102.685547"/>
      <use xlink:href="#DejaVuSans-72" x="164.208984"/>
      <use xlink:href="#DejaVuSans-65" x="203.072266"/>
      <use xlink:href="#DejaVuSans-6f" x="264.595703"/>
      <use xlink:href="#DejaVuSans-2d" x="327.652344"/>
      <use xlink:href="#DejaVuSans-49" x="363.736328"/>
      <use xlink:href="#DejaVuSans-6e" x="393.228516"/>
      <use xlink:href="#DejaVuSans-65" x="456.607422"/>
      <use xlink:href="#DejaVuSans-72" x="518.130859"/>
      <use xlink:href="#DejaVuSans-74" x="559.244141"/>
      <use xlink:href="#DejaVuSans-69" x="598.453125"/>
      <use xlink:href="#DejaVuSans-61" x="626.236328"/>
      <use xlink:href="#DejaVuSans-6c" x="687.515625"/>
      <use xlink:href="#DejaVuSans-20" x="715.298828"/>
      <use xlink:href="#DejaVuSans-28" x="747.085938"/>
      <use xlink:href="#DejaVuSans-43" x="786.099609"/>
      <use xlink:href="#DejaVuSans-61" x="855.923828"/>
      <use xlink:href="#DejaVuSans-6d" x="917.203125"/>
      <use xlink:href="#DejaVuSans-70" x="1014.615234"/>
      <use xlink:href="#DejaVuSans-6f" x="1078.091797"/>
      <use xlink:href="#DejaVuSans-73" x="1139.273438"/>
      <use xlink:href="#DejaVuSans-20" x="1191.373047"/>
      <use xlink:href="#DejaVuSans-65" x="1223.160156"/>
      <use xlink:href="#DejaVuSans-74" x="1284.683594"/>
      <use xlink:href="#DejaVuSans-20" x="1323.892578"/>
      <use xlink:href="#DejaVuSans-61" x="1355.679688"/>
      <use xlink:href="#DejaVuSans-6c" x="1416.958984"/>
      <use xlink:href="#DejaVuSans-29" x="1444.742188"/>
     </g>
    </g>
   </g>
  </g>
  <g id="axes_2">
   <g id="patch_9">
    <path d="M 249.295491 358.34 
L 391.392771 358.34 
L 391.392771 216.242719 
L 249.295491 216.242719 
z
" style="fill: #eaeaf2"/>
   </g>
   <g id="matplotlib.axis_3">
    <g id="xtick_9">
     <g id="line2d_24">
      <path d="M 259.279737 358.34 
L 259.279737 216.242719 
" clip-path="url(#p2bd50cc915)" style="fill: none; stroke: #ffffff; stroke-linecap: round"/>
     </g>
     <g id="text_22">
      <!-- 117.5 -->
      <g style="fill: #262626" transform="translate(243.534269 376.198281)scale(0.11 -0.11)">
       <defs>
        <path id="DejaVuSans-37" d="M 525 4666 
L 3525 4666 
L 3525 4397 
L 1831 0 
L 1172 0 
L 2766 4134 
L 525 4134 
L 525 4666 
z
" transform="scale(0.015625)"/>
        <path id="DejaVuSans-2e" d="M 684 794 
L 1344 794 
L 1344 0 
L 684 0 
L 684 794 
z
" transform="scale(0.015625)"/>
        <path id="DejaVuSans-35" d="M 691 4666 
L 3169 4666 
L 3169 4134 
L 1269 4134 
L 1269 2991 
Q 1406 3038 1543 3061 
Q 1681 3084 1819 3084 
Q 2600 3084 3056 2656 
Q 3513 2228 3513 1497 
Q 3513 744 3044 326 
Q 2575 -91 1722 -91 
Q 1428 -91 1123 -41 
Q 819 9 494 109 
L 494 744 
Q 775 591 1075 516 
Q 1375 441 1709 441 
Q 2250 441 2565 725 
Q 2881 1009 2881 1497 
Q 2881 1984 2565 2268 
Q 2250 2553 1709 2553 
Q 1456 2553 1204 2497 
Q 953 2441 691 2322 
L 691 4666 
z
" transform="scale(0.015625)"/>
       </defs>
       <use xlink:href="#DejaVuSans-31"/>
       <use xlink:href="#DejaVuSans-31" x="63.623047"/>
       <use xlink:href="#DejaVuSans-37" x="127.246094"/>
       <use xlink:href="#DejaVuSans-2e" x="190.869141"/>
       <use xlink:href="#DejaVuSans-35" x="222.65625"/>
      </g>
     </g>
    </g>
    <g id="xtick_10">
     <g id="line2d_25">
      <path d="M 294.804058 358.34 
L 294.804058 216.242719 
" clip-path="url(#p2bd50cc915)" style="fill: none; stroke: #ffffff; stroke-linecap: round"/>
     </g>
     <g id="text_23">
      <!-- 120.0 -->
      <g style="fill: #262626" transform="translate(279.058589 376.198281)scale(0.11 -0.11)">
       <use xlink:href="#DejaVuSans-31"/>
       <use xlink:href="#DejaVuSans-32" x="63.623047"/>
       <use xlink:href="#DejaVuSans-30" x="127.246094"/>
       <use xlink:href="#DejaVuSans-2e" x="190.869141"/>
       <use xlink:href="#DejaVuSans-30" x="222.65625"/>
      </g>
     </g>
    </g>
    <g id="xtick_11">
     <g id="line2d_26">
      <path d="M 330.328378 358.34 
L 330.328378 216.242719 
" clip-path="url(#p2bd50cc915)" style="fill: none; stroke: #ffffff; stroke-linecap: round"/>
     </g>
     <g id="text_24">
      <!-- 122.5 -->
      <g style="fill: #262626" transform="translate(314.582909 376.198281)scale(0.11 -0.11)">
       <use xlink:href="#DejaVuSans-31"/>
       <use xlink:href="#DejaVuSans-32" x="63.623047"/>
       <use xlink:href="#DejaVuSans-32" x="127.246094"/>
       <use xlink:href="#DejaVuSans-2e" x="190.869141"/>
       <use xlink:href="#DejaVuSans-35" x="222.65625"/>
      </g>
     </g>
    </g>
    <g id="xtick_12">
     <g id="line2d_27">
      <path d="M 365.852698 358.34 
L 365.852698 216.242719 
" clip-path="url(#p2bd50cc915)" style="fill: none; stroke: #ffffff; stroke-linecap: round"/>
     </g>
     <g id="text_25">
      <!-- 125.0 -->
      <g style="fill: #262626" transform="translate(350.107229 376.198281)scale(0.11 -0.11)">
       <use xlink:href="#DejaVuSans-31"/>
       <use xlink:href="#DejaVuSans-32" x="63.623047"/>
       <use xlink:href="#DejaVuSans-35" x="127.246094"/>
       <use xlink:href="#DejaVuSans-2e" x="190.869141"/>
       <use xlink:href="#DejaVuSans-30" x="222.65625"/>
      </g>
     </g>
    </g>
   </g>
   <g id="matplotlib.axis_4">
    <g id="ytick_8">
     <g id="line2d_28">
      <path d="M 249.295491 354.112713 
L 391.392771 354.112713 
" clip-path="url(#p2bd50cc915)" style="fill: none; stroke: #ffffff; stroke-linecap: round"/>
     </g>
     <g id="text_26">
      <!-- −6 -->
      <g style="fill: #262626" transform="translate(223.579084 358.291854)scale(0.11 -0.11)">
       <use xlink:href="#DejaVuSans-2212"/>
       <use xlink:href="#DejaVuSans-36" x="83.789062"/>
      </g>
     </g>
    </g>
    <g id="ytick_9">
     <g id="line2d_29">
      <path d="M 249.295491 325.693257 
L 391.392771 325.693257 
" clip-path="url(#p2bd50cc915)" style="fill: none; stroke: #ffffff; stroke-linecap: round"/>
     </g>
     <g id="text_27">
      <!-- −4 -->
      <g style="fill: #262626" transform="translate(223.579084 329.872398)scale(0.11 -0.11)">
       <use xlink:href="#DejaVuSans-2212"/>
       <use xlink:href="#DejaVuSans-34" x="83.789062"/>
      </g>
     </g>
    </g>
    <g id="ytick_10">
     <g id="line2d_30">
      <path d="M 249.295491 297.273801 
L 391.392771 297.273801 
" clip-path="url(#p2bd50cc915)" style="fill: none; stroke: #ffffff; stroke-linecap: round"/>
     </g>
     <g id="text_28">
      <!-- −2 -->
      <g style="fill: #262626" transform="translate(223.579084 301.452942)scale(0.11 -0.11)">
       <use xlink:href="#DejaVuSans-2212"/>
       <use xlink:href="#DejaVuSans-32" x="83.789062"/>
      </g>
     </g>
    </g>
    <g id="ytick_11">
     <g id="line2d_31">
      <path d="M 249.295491 268.854345 
L 391.392771 268.854345 
" clip-path="url(#p2bd50cc915)" style="fill: none; stroke: #ffffff; stroke-linecap: round"/>
     </g>
     <g id="text_29">
      <!-- 0 -->
      <g style="fill: #262626" transform="translate(232.796741 273.033486)scale(0.11 -0.11)">
       <use xlink:href="#DejaVuSans-30"/>
      </g>
     </g>
    </g>
    <g id="ytick_12">
     <g id="line2d_32">
      <path d="M 249.295491 240.434889 
L 391.392771 240.434889 
" clip-path="url(#p2bd50cc915)" style="fill: none; stroke: #ffffff; stroke-linecap: round"/>
     </g>
     <g id="text_30">
      <!-- 2 -->
      <g style="fill: #262626" transform="translate(232.796741 244.61403)scale(0.11 -0.11)">
       <use xlink:href="#DejaVuSans-32"/>
      </g>
     </g>
    </g>
   </g>
   <g id="patch_10">
    <path d="M 249.295491 216.242719 
L 353.770302 186.605168 
" style="fill: none; stroke: #808080; stroke-linejoin: miter"/>
   </g>
   <g id="patch_11">
    <path d="M 391.392771 358.34 
L 377.453182 210.288048 
" style="fill: none; stroke: #808080; stroke-linejoin: miter"/>
   </g>
   <g id="line2d_33">
    <path d="M -1 262.13007 
L -0.765484 262.160878 
L 1.566481 261.742896 
L 4.125035 262.049367 
L 6.701364 262.132876 
L 11.687953 261.537252 
L 17.151998 261.954893 
L 20.392256 261.925687 
L 23.225321 262.116842 
L 26.250949 262.19628 
L 29.16611 262.047541 
L 32.053232 261.643388 
L 35.072965 261.685925 
L 37.872216 261.469165 
L 41.044351 261.635633 
L 44.180315 261.291675 
L 47.595809 261.132013 
L 54.268025 261.114253 
L 64.358384 260.805521 
L 79.832654 260.718395 
L 83.744694 260.516206 
L 87.774074 260.749891 
L 103.789725 260.481898 
L 115.382872 260.161455 
L 119.281004 259.990514 
L 127.539904 259.970618 
L 131.275926 259.389175 
L 135.385389 259.382765 
L 139.239968 259.615552 
L 142.954916 259.530245 
L 159.290682 259.628658 
L 163.313903 259.838575 
L 166.934265 259.725087 
L 170.813113 259.193818 
L 175.107138 259.033495 
L 179.230216 259.229663 
L 183.154323 258.977802 
L 190.697889 259.09586 
L 194.405486 258.826494 
L 198.630951 258.993202 
L 203.069219 258.922491 
L 206.629488 258.387422 
L 210.691822 258.742632 
L 214.577636 258.524154 
L 222.822085 258.67212 
L 226.173672 258.27997 
L 229.739978 258.323031 
L 236.936783 257.640648 
L 240.916769 258.238536 
L 248.392786 257.756208 
L 252.097638 258.390582 
L 255.594898 258.017136 
L 259.056688 257.427535 
L 262.672175 257.555663 
L 266.59249 258.149721 
L 270.140918 257.543478 
L 273.915548 257.790419 
L 277.558586 257.869184 
L 280.807747 257.398777 
L 284.552045 257.613578 
L 288.181785 257.474009 
L 292.33611 257.547328 
L 296.156093 257.740012 
L 299.880711 257.3948 
L 303.729 257.391007 
L 307.924477 257.727888 
L 315.735789 257.517687 
L 319.69118 257.689458 
L 328.274991 257.57892 
L 332.080112 257.850123 
L 336.467758 257.436846 
L 344.977235 257.500838 
L 348.86252 257.308627 
L 353.427942 257.516354 
L 366.339805 257.642911 
L 370.812751 257.388993 
L 375.385194 257.468125 
L 384.14408 258.112533 
L 388.398138 259.165226 
L 396.778497 259.486719 
L 400.795124 259.365469 
L 404.925699 259.409412 
L 408.797701 258.888521 
L 412.789827 258.007486 
L 416.161563 257.384544 
L 419.872511 257.278145 
L 423.442675 256.801082 
L 430.566098 256.684726 
L 433 256.757672 
M 433 285.4706 
L 431.480258 285.403871 
L 428.720163 284.996115 
L 422.970026 285.486987 
L 419.6979 285.560205 
L 413.778894 286.633559 
L 407.389889 287.311216 
L 400.547155 286.78692 
L 397.207771 286.464684 
L 393.568218 286.32293 
L 390.138923 286.069818 
L 382.535726 286.055638 
L 378.709502 286.501262 
L 370.650832 287.01649 
L 362.446728 287.281817 
L 358.334181 287.112128 
L 353.828388 287.239272 
L 349.84865 287.616116 
L 345.191887 287.54842 
L 341.001879 287.70821 
L 336.76791 287.743629 
L 332.738029 287.315506 
L 321.695549 287.323884 
L 315.684389 287.042321 
L 313.329284 287.181336 
L 308.737251 287.086048 
L 305.68561 286.979805 
L 302.830955 286.761936 
L 303.919412 286.776018 
L 304.402155 286.759486 
L 306.467766 286.929906 
L 315.519748 287.08629 
L 317.838203 286.899243 
L 320.344131 287.29136 
L 320.344131 287.29136 
" clip-path="url(#p2bd50cc915)" style="fill: none; stroke-dasharray: 5.55,2.4; stroke-dashoffset: 0; stroke: #000000; stroke-opacity: 0.5; stroke-width: 1.5"/>
   </g>
   <g id="line2d_34">
    <path d="M -1 263.147029 
L 1.087532 262.960314 
L 3.709488 262.910581 
L 6.340849 263.250807 
L 11.724821 263.177171 
L 15.56717 263.510529 
L 17.574527 263.524626 
L 29.910256 262.775683 
L 33.285807 262.946422 
L 35.874216 262.524253 
L 45.577305 262.523966 
L 52.02185 262.216494 
L 55.776645 262.386868 
L 59.342175 261.972391 
L 67.806242 262.189303 
L 71.522768 261.936225 
L 90.430344 261.970622 
L 97.745585 261.495232 
L 101.527289 261.759245 
L 105.419071 261.50427 
L 109.307179 261.665448 
L 125.466925 260.714217 
L 137.399838 261.220373 
L 144.567276 260.923618 
L 149.956123 261.1675 
L 153.755825 261.512212 
L 156.960495 261.010895 
L 160.880094 260.642539 
L 164.692516 260.564654 
L 168.609095 260.599429 
L 172.886337 260.468125 
L 176.524069 260.736203 
L 180.099869 260.804668 
L 183.265133 260.425648 
L 186.949479 260.463187 
L 190.566744 260.16162 
L 194.735945 259.993678 
L 198.633528 260.456966 
L 207.049117 260.122208 
L 210.963328 260.131429 
L 213.883723 260.250839 
L 217.756036 260.010329 
L 221.07117 259.511473 
L 225.049769 259.486735 
L 228.483653 260.132797 
L 232.985312 259.280584 
L 239.15499 260.186296 
L 242.43646 259.493564 
L 245.635657 259.042523 
L 254.011828 259.34943 
L 257.410761 259.260774 
L 261.200932 259.661062 
L 265.132201 259.194644 
L 268.442019 259.257026 
L 272.349242 259.652203 
L 279.115551 259.547025 
L 283.250474 259.76191 
L 286.746881 259.607714 
L 295.48159 259.765395 
L 299.437095 259.526458 
L 307.142613 259.674955 
L 311.108014 259.529137 
L 315.324092 259.891173 
L 318.898981 259.814299 
L 322.968923 259.412029 
L 327.279538 259.711675 
L 331.12481 259.489196 
L 335.557129 259.406692 
L 341.046328 259.603417 
L 343.749435 259.513311 
L 353.261597 259.676394 
L 357.141844 259.280696 
L 361.439009 259.4757 
L 369.779331 260.394577 
L 373.964168 261.20154 
L 377.590816 261.299589 
L 385.811658 261.401041 
L 393.164197 260.75206 
L 397.987134 259.525164 
L 401.284309 259.446519 
L 408.275915 258.714149 
L 411.655336 258.904109 
L 414.880521 258.702052 
L 418.141211 258.919603 
L 421.219242 258.72543 
L 424.470574 258.757504 
L 427.616134 259.003006 
L 433 259.077715 
M 433 284.446183 
L 426.984512 284.197091 
L 420.402301 284.070801 
L 417.908226 283.713014 
L 414.992452 283.660944 
L 412.4507 284.065761 
L 409.812853 284.094332 
L 406.844942 284.41422 
L 403.898428 285.07837 
L 400.892677 285.079141 
L 397.876136 285.556165 
L 394.75988 285.706133 
L 377.134044 284.403557 
L 373.439905 284.471709 
L 369.847762 284.392877 
L 366.132405 284.822689 
L 358.660869 285.190825 
L 354.605858 285.160741 
L 350.567653 285.305986 
L 346.873075 285.189973 
L 341.463695 285.530407 
L 328.964674 285.297437 
L 320.65161 284.595658 
L 317.052075 284.843186 
L 313.930916 284.74584 
L 310.869422 284.772974 
L 305.472027 284.399372 
L 299.971528 284.440774 
L 296.40691 284.244003 
L 295.355856 284.07298 
L 294.704886 284.095039 
L 293.402185 283.89043 
L 296.055848 284.165387 
L 297.659628 284.223445 
L 300.364532 284.193267 
L 306.483125 284.552614 
L 308.892747 284.527639 
L 308.892747 284.527639 
" clip-path="url(#p2bd50cc915)" style="fill: none; stroke: #4c72b0; stroke-opacity: 0.75; stroke-width: 1.5; stroke-linecap: round"/>
   </g>
   <g id="line2d_35">
    <path d="M -1 254.937122 
L 2.866934 254.863176 
L 20.724696 252.572707 
L 29.325045 256.830241 
L 34.981594 256.246325 
L 40.815709 255.43491 
L 46.801811 255.1714 
L 65.061708 255.641144 
L 71.820001 255.097249 
L 78.659881 254.278511 
L 85.370748 253.72722 
L 91.524156 252.921508 
L 110.306418 260.68517 
L 128.037697 259.891704 
L 135.035315 260.056463 
L 141.420915 259.832631 
L 159.566253 250.26031 
L 165.982372 249.26297 
L 172.801196 248.701425 
L 179.370063 248.613721 
L 189.624268 253.236709 
L 196.207429 252.929969 
L 203.713022 252.859585 
L 220.803144 251.801938 
L 230.085866 251.326733 
L 242.148377 251.734197 
L 247.958112 250.426381 
L 258.215651 250.584763 
L 271.373612 261.909568 
L 277.280531 262.383655 
L 283.472921 262.385591 
L 290.043093 262.834558 
L 300.391856 264.513823 
L 307.261844 264.782554 
L 314.172996 265.379981 
L 320.884747 265.371045 
L 327.949171 266.058876 
L 353.85345 266.498694 
L 361.523006 266.430248 
L 368.569342 267.484914 
L 375.144451 268.190508 
L 393.118552 260.994033 
L 399.572293 260.056053 
L 403.793416 258.975961 
L 409.767715 258.426667 
L 421.405631 258.164792 
L 433 258.217008 
M 433 300.83696 
L 429.507602 301.058762 
L 418.552733 297.454548 
L 413.282798 298.013321 
L 407.925295 298.464594 
L 402.30107 297.777186 
L 398.55731 297.562308 
L 396.834348 293.489066 
L 390.420933 293.141223 
L 383.796933 293.222455 
L 365.358547 292.255532 
L 342.465596 291.913981 
L 330.792705 291.474814 
L 326.252025 290.956008 
L 309.679737 295.896523 
L 307.758591 295.753914 
L 308.247062 295.837773 
L 304.052804 291.951619 
L 304.109751 291.955055 
L 299.303604 291.116034 
L 299.418035 291.138708 
L 302.581638 295.307565 
L 302.562908 295.315975 
L 301.241202 288.754083 
L 302.518175 288.917944 
L 313.682019 289.61482 
L 313.682019 289.61482 
" clip-path="url(#p2bd50cc915)" style="fill: none; stroke: #55a868; stroke-opacity: 0.75; stroke-width: 1.5; stroke-linecap: round"/>
   </g>
   <g id="line2d_36">
    <path d="M -1 263.243134 
L 2.301021 262.918766 
L 4.847493 262.889278 
L 7.471472 263.21229 
L 12.632146 263.13812 
L 16.344762 263.48583 
L 18.330634 263.503297 
L 30.522779 262.878245 
L 33.78005 262.999918 
L 36.480485 262.501666 
L 48.860908 262.441519 
L 51.929284 262.358621 
L 55.302479 262.433144 
L 58.782406 262.049937 
L 66.957647 262.26803 
L 70.663885 262.026111 
L 74.550319 262.034725 
L 78.365202 262.167871 
L 81.887261 262.127444 
L 85.525573 262.278635 
L 96.824228 261.592197 
L 100.514737 261.895197 
L 104.400751 261.700958 
L 107.886735 261.857688 
L 123.905448 260.96641 
L 135.706848 261.416592 
L 139.247966 261.160359 
L 142.771876 261.097468 
L 147.895856 261.372298 
L 151.64423 261.688102 
L 155.080206 261.228034 
L 159.053866 260.851163 
L 162.85468 260.662406 
L 170.826203 260.579425 
L 174.382353 260.921174 
L 178.049596 260.981392 
L 181.357147 260.585532 
L 184.919573 260.692857 
L 192.626327 260.159373 
L 196.587853 260.668114 
L 204.749417 260.241552 
L 208.493742 260.139942 
L 211.499156 260.353429 
L 215.413593 260.102013 
L 218.957962 259.575133 
L 222.974903 259.596775 
L 226.332226 260.34199 
L 230.748402 259.428913 
L 236.930471 260.40132 
L 240.099927 259.611412 
L 243.411676 259.138506 
L 254.898918 259.47045 
L 258.633163 259.832063 
L 262.437359 259.285532 
L 269.594287 259.607941 
L 276.612229 259.528645 
L 280.418147 259.741129 
L 283.924634 259.612061 
L 292.744256 259.740022 
L 296.304192 259.609045 
L 304.060918 259.744475 
L 308.01806 259.592294 
L 312.128238 259.92579 
L 315.723229 259.836134 
L 319.684285 259.496061 
L 323.950565 259.794523 
L 332.210351 259.495433 
L 337.747447 259.712829 
L 340.460939 259.592693 
L 350.091026 259.81596 
L 354.132756 259.398586 
L 358.418458 259.621184 
L 366.619446 260.495997 
L 370.636388 261.360509 
L 374.317336 261.472305 
L 378.733683 261.434972 
L 382.347363 261.562713 
L 389.614881 260.867173 
L 394.207685 259.68353 
L 401.103319 259.135553 
L 404.469565 258.788782 
L 407.900794 258.969674 
L 411.296551 258.853118 
L 414.448481 259.050674 
L 417.660358 258.839478 
L 420.898501 258.819156 
L 423.914348 259.031939 
L 427.492536 259.03723 
L 430.719169 259.170585 
L 433 259.124164 
M 433 284.282855 
L 432.566441 284.301787 
L 429.625271 284.114694 
L 417.923821 283.90131 
L 415.359893 283.491363 
L 412.675331 283.419005 
L 410.089224 283.871448 
L 407.428601 283.871992 
L 404.491284 284.164247 
L 401.52501 284.800689 
L 398.519864 284.865789 
L 395.468447 285.288888 
L 392.475028 285.51336 
L 388.019199 285.182224 
L 386.141382 284.927458 
L 374.922452 284.156611 
L 367.708945 284.166386 
L 364.052486 284.599823 
L 360.562127 284.648059 
L 356.742835 284.870729 
L 348.768385 285.006648 
L 344.983799 284.770928 
L 339.62844 285.181965 
L 327.313187 284.963288 
L 319.125399 284.322212 
L 315.465122 284.450884 
L 312.54595 284.328373 
L 309.528112 284.439786 
L 304.511742 284.041812 
L 299.654359 284.104987 
L 293.59806 283.67774 
L 292.826645 283.546641 
L 294.513362 283.729045 
L 297.00514 283.89172 
L 299.71354 283.827431 
L 301.289255 283.966021 
L 308.242518 284.120162 
L 308.242518 284.120162 
" clip-path="url(#p2bd50cc915)" style="fill: none; stroke: #c44e52; stroke-opacity: 0.75; stroke-width: 1.5; stroke-linecap: round"/>
   </g>
   <g id="patch_12">
    <path d="M 249.295491 358.34 
L 249.295491 216.242719 
" style="fill: none; stroke: #000000; stroke-width: 1.25; stroke-linejoin: miter; stroke-linecap: square"/>
   </g>
   <g id="patch_13">
    <path d="M 391.392771 358.34 
L 391.392771 216.242719 
" style="fill: none; stroke: #000000; stroke-width: 1.25; stroke-linejoin: miter; stroke-linecap: square"/>
   </g>
   <g id="patch_14">
    <path d="M 249.295491 358.34 
L 391.392771 358.34 
" style="fill: none; stroke: #000000; stroke-width: 1.25; stroke-linejoin: miter; stroke-linecap: square"/>
   </g>
   <g id="patch_15">
    <path d="M 249.295491 216.242719 
L 391.392771 216.242719 
" style="fill: none; stroke: #000000; stroke-width: 1.25; stroke-linejoin: miter; stroke-linecap: square"/>
   </g>
  </g>
 </g>
 <defs>
  <clipPath id="pbacf955749">
   <rect x="65.43" y="12.96" width="347.962771" height="367.38"/>
  </clipPath>
  <clipPath id="p2bd50cc915">
   <rect x="249.295491" y="216.242719" width="142.097281" height="142.097281"/>
  </clipPath>
 </defs>
</svg>
