<?xml version="1.0" encoding="utf-8" standalone="no"?>
<!DOCTYPE svg PUBLIC "-//W3C//DTD SVG 1.1//EN"
  "http://www.w3.org/Graphics/SVG/1.1/DTD/svg11.dtd">
<svg xmlns:xlink="http://www.w3.org/1999/xlink" width="432pt" height="432pt" viewBox="0 0 432 432" xmlns="http://www.w3.org/2000/svg" version="1.1">
 <metadata>
  <rdf:RDF xmlns:dc="http://purl.org/dc/elements/1.1/" xmlns:cc="http://creativecommons.org/ns#" xmlns:rdf="http://www.w3.org/1999/02/22-rdf-syntax-ns#">
   <cc:Work>
    <dc:type rdf:resource="http://purl.org/dc/dcmitype/StillImage"/>
    <dc:date>2022-08-29T17:01:03.343164</dc:date>
    <dc:format>image/svg+xml</dc:format>
    <dc:creator>
     <cc:Agent>
      <dc:title>Matplotlib v3.5.3, https://matplotlib.org/</dc:title>
     </cc:Agent>
    </dc:creator>
   </cc:Work>
  </rdf:RDF>
 </metadata>
 <defs>
  <style type="text/css">*{stroke-linejoin: round; stroke-linecap: butt}</style>
 </defs>
 <g id="figure_1">
  <g id="patch_1">
   <path d="M 0 432 
L 432 432 
L 432 0 
L 0 0 
z
" style="fill: #ffffff"/>
  </g>
  <g id="axes_1">
   <g id="patch_2">
    <path d="M 65.43 380.34 
L 419.04 380.34 
L 419.04 12.96 
L 65.43 12.96 
z
" style="fill: #eaeaf2"/>
   </g>
   <g id="matplotlib.axis_1">
    <g id="xtick_1">
     <g id="line2d_1">
      <path d="M 71.014077 380.34 
L 71.014077 12.96 
" clip-path="url(#pf0ad683f28)" style="fill: none; stroke: #ffffff; stroke-linecap: round"/>
     </g>
     <g id="text_1">
      <!-- −20 -->
      <g style="fill: #262626" transform="translate(59.406499 398.198281)scale(0.11 -0.11)">
       <defs>
        <path id="DejaVuSans-2212" d="M 678 2272 
L 4684 2272 
L 4684 1741 
L 678 1741 
L 678 2272 
z
" transform="scale(0.015625)"/>
        <path id="DejaVuSans-32" d="M 1228 531 
L 3431 531 
L 3431 0 
L 469 0 
L 469 531 
Q 828 903 1448 1529 
Q 2069 2156 2228 2338 
Q 2531 2678 2651 2914 
Q 2772 3150 2772 3378 
Q 2772 3750 2511 3984 
Q 2250 4219 1831 4219 
Q 1534 4219 1204 4116 
Q 875 4013 500 3803 
L 500 4441 
Q 881 4594 1212 4672 
Q 1544 4750 1819 4750 
Q 2544 4750 2975 4387 
Q 3406 4025 3406 3419 
Q 3406 3131 3298 2873 
Q 3191 2616 2906 2266 
Q 2828 2175 2409 1742 
Q 1991 1309 1228 531 
z
" transform="scale(0.015625)"/>
        <path id="DejaVuSans-30" d="M 2034 4250 
Q 1547 4250 1301 3770 
Q 1056 3291 1056 2328 
Q 1056 1369 1301 889 
Q 1547 409 2034 409 
Q 2525 409 2770 889 
Q 3016 1369 3016 2328 
Q 3016 3291 2770 3770 
Q 2525 4250 2034 4250 
z
M 2034 4750 
Q 2819 4750 3233 4129 
Q 3647 3509 3647 2328 
Q 3647 1150 3233 529 
Q 2819 -91 2034 -91 
Q 1250 -91 836 529 
Q 422 1150 422 2328 
Q 422 3509 836 4129 
Q 1250 4750 2034 4750 
z
" transform="scale(0.015625)"/>
       </defs>
       <use xlink:href="#DejaVuSans-2212"/>
       <use xlink:href="#DejaVuSans-32" x="83.789062"/>
       <use xlink:href="#DejaVuSans-30" x="147.412109"/>
      </g>
     </g>
    </g>
    <g id="xtick_2">
     <g id="line2d_2">
      <path d="M 113.113512 380.34 
L 113.113512 12.96 
" clip-path="url(#pf0ad683f28)" style="fill: none; stroke: #ffffff; stroke-linecap: round"/>
     </g>
     <g id="text_2">
      <!-- 0 -->
      <g style="fill: #262626" transform="translate(109.614137 398.198281)scale(0.11 -0.11)">
       <use xlink:href="#DejaVuSans-30"/>
      </g>
     </g>
    </g>
    <g id="xtick_3">
     <g id="line2d_3">
      <path d="M 155.212947 380.34 
L 155.212947 12.96 
" clip-path="url(#pf0ad683f28)" style="fill: none; stroke: #ffffff; stroke-linecap: round"/>
     </g>
     <g id="text_3">
      <!-- 20 -->
      <g style="fill: #262626" transform="translate(148.214197 398.198281)scale(0.11 -0.11)">
       <use xlink:href="#DejaVuSans-32"/>
       <use xlink:href="#DejaVuSans-30" x="63.623047"/>
      </g>
     </g>
    </g>
    <g id="xtick_4">
     <g id="line2d_4">
      <path d="M 197.312382 380.34 
L 197.312382 12.96 
" clip-path="url(#pf0ad683f28)" style="fill: none; stroke: #ffffff; stroke-linecap: round"/>
     </g>
     <g id="text_4">
      <!-- 40 -->
      <g style="fill: #262626" transform="translate(190.313632 398.198281)scale(0.11 -0.11)">
       <defs>
        <path id="DejaVuSans-34" d="M 2419 4116 
L 825 1625 
L 2419 1625 
L 2419 4116 
z
M 2253 4666 
L 3047 4666 
L 3047 1625 
L 3713 1625 
L 3713 1100 
L 3047 1100 
L 3047 0 
L 2419 0 
L 2419 1100 
L 313 1100 
L 313 1709 
L 2253 4666 
z
" transform="scale(0.015625)"/>
       </defs>
       <use xlink:href="#DejaVuSans-34"/>
       <use xlink:href="#DejaVuSans-30" x="63.623047"/>
      </g>
     </g>
    </g>
    <g id="xtick_5">
     <g id="line2d_5">
      <path d="M 239.411817 380.34 
L 239.411817 12.96 
" clip-path="url(#pf0ad683f28)" style="fill: none; stroke: #ffffff; stroke-linecap: round"/>
     </g>
     <g id="text_5">
      <!-- 60 -->
      <g style="fill: #262626" transform="translate(232.413067 398.198281)scale(0.11 -0.11)">
       <defs>
        <path id="DejaVuSans-36" d="M 2113 2584 
Q 1688 2584 1439 2293 
Q 1191 2003 1191 1497 
Q 1191 994 1439 701 
Q 1688 409 2113 409 
Q 2538 409 2786 701 
Q 3034 994 3034 1497 
Q 3034 2003 2786 2293 
Q 2538 2584 2113 2584 
z
M 3366 4563 
L 3366 3988 
Q 3128 4100 2886 4159 
Q 2644 4219 2406 4219 
Q 1781 4219 1451 3797 
Q 1122 3375 1075 2522 
Q 1259 2794 1537 2939 
Q 1816 3084 2150 3084 
Q 2853 3084 3261 2657 
Q 3669 2231 3669 1497 
Q 3669 778 3244 343 
Q 2819 -91 2113 -91 
Q 1303 -91 875 529 
Q 447 1150 447 2328 
Q 447 3434 972 4092 
Q 1497 4750 2381 4750 
Q 2619 4750 2861 4703 
Q 3103 4656 3366 4563 
z
" transform="scale(0.015625)"/>
       </defs>
       <use xlink:href="#DejaVuSans-36"/>
       <use xlink:href="#DejaVuSans-30" x="63.623047"/>
      </g>
     </g>
    </g>
    <g id="xtick_6">
     <g id="line2d_6">
      <path d="M 281.511251 380.34 
L 281.511251 12.96 
" clip-path="url(#pf0ad683f28)" style="fill: none; stroke: #ffffff; stroke-linecap: round"/>
     </g>
     <g id="text_6">
      <!-- 80 -->
      <g style="fill: #262626" transform="translate(274.512501 398.198281)scale(0.11 -0.11)">
       <defs>
        <path id="DejaVuSans-38" d="M 2034 2216 
Q 1584 2216 1326 1975 
Q 1069 1734 1069 1313 
Q 1069 891 1326 650 
Q 1584 409 2034 409 
Q 2484 409 2743 651 
Q 3003 894 3003 1313 
Q 3003 1734 2745 1975 
Q 2488 2216 2034 2216 
z
M 1403 2484 
Q 997 2584 770 2862 
Q 544 3141 544 3541 
Q 544 4100 942 4425 
Q 1341 4750 2034 4750 
Q 2731 4750 3128 4425 
Q 3525 4100 3525 3541 
Q 3525 3141 3298 2862 
Q 3072 2584 2669 2484 
Q 3125 2378 3379 2068 
Q 3634 1759 3634 1313 
Q 3634 634 3220 271 
Q 2806 -91 2034 -91 
Q 1263 -91 848 271 
Q 434 634 434 1313 
Q 434 1759 690 2068 
Q 947 2378 1403 2484 
z
M 1172 3481 
Q 1172 3119 1398 2916 
Q 1625 2713 2034 2713 
Q 2441 2713 2670 2916 
Q 2900 3119 2900 3481 
Q 2900 3844 2670 4047 
Q 2441 4250 2034 4250 
Q 1625 4250 1398 4047 
Q 1172 3844 1172 3481 
z
" transform="scale(0.015625)"/>
       </defs>
       <use xlink:href="#DejaVuSans-38"/>
       <use xlink:href="#DejaVuSans-30" x="63.623047"/>
      </g>
     </g>
    </g>
    <g id="xtick_7">
     <g id="line2d_7">
      <path d="M 323.610686 380.34 
L 323.610686 12.96 
" clip-path="url(#pf0ad683f28)" style="fill: none; stroke: #ffffff; stroke-linecap: round"/>
     </g>
     <g id="text_7">
      <!-- 100 -->
      <g style="fill: #262626" transform="translate(313.112561 398.198281)scale(0.11 -0.11)">
       <defs>
        <path id="DejaVuSans-31" d="M 794 531 
L 1825 531 
L 1825 4091 
L 703 3866 
L 703 4441 
L 1819 4666 
L 2450 4666 
L 2450 531 
L 3481 531 
L 3481 0 
L 794 0 
L 794 531 
z
" transform="scale(0.015625)"/>
       </defs>
       <use xlink:href="#DejaVuSans-31"/>
       <use xlink:href="#DejaVuSans-30" x="63.623047"/>
       <use xlink:href="#DejaVuSans-30" x="127.246094"/>
      </g>
     </g>
    </g>
    <g id="xtick_8">
     <g id="line2d_8">
      <path d="M 365.710121 380.34 
L 365.710121 12.96 
" clip-path="url(#pf0ad683f28)" style="fill: none; stroke: #ffffff; stroke-linecap: round"/>
     </g>
     <g id="text_8">
      <!-- 120 -->
      <g style="fill: #262626" transform="translate(355.211996 398.198281)scale(0.11 -0.11)">
       <use xlink:href="#DejaVuSans-31"/>
       <use xlink:href="#DejaVuSans-32" x="63.623047"/>
       <use xlink:href="#DejaVuSans-30" x="127.246094"/>
      </g>
     </g>
    </g>
    <g id="xtick_9">
     <g id="line2d_9">
      <path d="M 407.809556 380.34 
L 407.809556 12.96 
" clip-path="url(#pf0ad683f28)" style="fill: none; stroke: #ffffff; stroke-linecap: round"/>
     </g>
     <g id="text_9">
      <!-- 140 -->
      <g style="fill: #262626" transform="translate(397.311431 398.198281)scale(0.11 -0.11)">
       <use xlink:href="#DejaVuSans-31"/>
       <use xlink:href="#DejaVuSans-34" x="63.623047"/>
       <use xlink:href="#DejaVuSans-30" x="127.246094"/>
      </g>
     </g>
    </g>
    <g id="text_10">
     <!-- $x$ (m) -->
     <g style="fill: #262626" transform="translate(226.215 413.604063)scale(0.12 -0.12)">
      <defs>
       <path id="DejaVuSans-Oblique-78" d="M 3841 3500 
L 2234 1784 
L 3219 0 
L 2559 0 
L 1819 1388 
L 531 0 
L -166 0 
L 1556 1844 
L 641 3500 
L 1300 3500 
L 1972 2234 
L 3144 3500 
L 3841 3500 
z
" transform="scale(0.015625)"/>
       <path id="DejaVuSans-20" transform="scale(0.015625)"/>
       <path id="DejaVuSans-28" d="M 1984 4856 
Q 1566 4138 1362 3434 
Q 1159 2731 1159 2009 
Q 1159 1288 1364 580 
Q 1569 -128 1984 -844 
L 1484 -844 
Q 1016 -109 783 600 
Q 550 1309 550 2009 
Q 550 2706 781 3412 
Q 1013 4119 1484 4856 
L 1984 4856 
z
" transform="scale(0.015625)"/>
       <path id="DejaVuSans-6d" d="M 3328 2828 
Q 3544 3216 3844 3400 
Q 4144 3584 4550 3584 
Q 5097 3584 5394 3201 
Q 5691 2819 5691 2113 
L 5691 0 
L 5113 0 
L 5113 2094 
Q 5113 2597 4934 2840 
Q 4756 3084 4391 3084 
Q 3944 3084 3684 2787 
Q 3425 2491 3425 1978 
L 3425 0 
L 2847 0 
L 2847 2094 
Q 2847 2600 2669 2842 
Q 2491 3084 2119 3084 
Q 1678 3084 1418 2786 
Q 1159 2488 1159 1978 
L 1159 0 
L 581 0 
L 581 3500 
L 1159 3500 
L 1159 2956 
Q 1356 3278 1631 3431 
Q 1906 3584 2284 3584 
Q 2666 3584 2933 3390 
Q 3200 3197 3328 2828 
z
" transform="scale(0.015625)"/>
       <path id="DejaVuSans-29" d="M 513 4856 
L 1013 4856 
Q 1481 4119 1714 3412 
Q 1947 2706 1947 2009 
Q 1947 1309 1714 600 
Q 1481 -109 1013 -844 
L 513 -844 
Q 928 -128 1133 580 
Q 1338 1288 1338 2009 
Q 1338 2731 1133 3434 
Q 928 4138 513 4856 
z
" transform="scale(0.015625)"/>
      </defs>
      <use xlink:href="#DejaVuSans-Oblique-78" transform="translate(0 0.125)"/>
      <use xlink:href="#DejaVuSans-20" transform="translate(59.179688 0.125)"/>
      <use xlink:href="#DejaVuSans-28" transform="translate(90.966797 0.125)"/>
      <use xlink:href="#DejaVuSans-6d" transform="translate(129.980469 0.125)"/>
      <use xlink:href="#DejaVuSans-29" transform="translate(227.392578 0.125)"/>
     </g>
    </g>
   </g>
   <g id="matplotlib.axis_2">
    <g id="ytick_1">
     <g id="line2d_10">
      <path d="M 65.43 372.833244 
L 419.04 372.833244 
" clip-path="url(#pf0ad683f28)" style="fill: none; stroke: #ffffff; stroke-linecap: round"/>
     </g>
     <g id="text_11">
      <!-- −80 -->
      <g style="fill: #262626" transform="translate(32.714844 377.012384)scale(0.11 -0.11)">
       <use xlink:href="#DejaVuSans-2212"/>
       <use xlink:href="#DejaVuSans-38" x="83.789062"/>
       <use xlink:href="#DejaVuSans-30" x="147.412109"/>
      </g>
     </g>
    </g>
    <g id="ytick_2">
     <g id="line2d_11">
      <path d="M 65.43 330.733809 
L 419.04 330.733809 
" clip-path="url(#pf0ad683f28)" style="fill: none; stroke: #ffffff; stroke-linecap: round"/>
     </g>
     <g id="text_12">
      <!-- −60 -->
      <g style="fill: #262626" transform="translate(32.714844 334.91295)scale(0.11 -0.11)">
       <use xlink:href="#DejaVuSans-2212"/>
       <use xlink:href="#DejaVuSans-36" x="83.789062"/>
       <use xlink:href="#DejaVuSans-30" x="147.412109"/>
      </g>
     </g>
    </g>
    <g id="ytick_3">
     <g id="line2d_12">
      <path d="M 65.43 288.634374 
L 419.04 288.634374 
" clip-path="url(#pf0ad683f28)" style="fill: none; stroke: #ffffff; stroke-linecap: round"/>
     </g>
     <g id="text_13">
      <!-- −40 -->
      <g style="fill: #262626" transform="translate(32.714844 292.813515)scale(0.11 -0.11)">
       <use xlink:href="#DejaVuSans-2212"/>
       <use xlink:href="#DejaVuSans-34" x="83.789062"/>
       <use xlink:href="#DejaVuSans-30" x="147.412109"/>
      </g>
     </g>
    </g>
    <g id="ytick_4">
     <g id="line2d_13">
      <path d="M 65.43 246.534939 
L 419.04 246.534939 
" clip-path="url(#pf0ad683f28)" style="fill: none; stroke: #ffffff; stroke-linecap: round"/>
     </g>
     <g id="text_14">
      <!-- −20 -->
      <g style="fill: #262626" transform="translate(32.714844 250.71408)scale(0.11 -0.11)">
       <use xlink:href="#DejaVuSans-2212"/>
       <use xlink:href="#DejaVuSans-32" x="83.789062"/>
       <use xlink:href="#DejaVuSans-30" x="147.412109"/>
      </g>
     </g>
    </g>
    <g id="ytick_5">
     <g id="line2d_14">
      <path d="M 65.43 204.435505 
L 419.04 204.435505 
" clip-path="url(#pf0ad683f28)" style="fill: none; stroke: #ffffff; stroke-linecap: round"/>
     </g>
     <g id="text_15">
      <!-- 0 -->
      <g style="fill: #262626" transform="translate(48.93125 208.614645)scale(0.11 -0.11)">
       <use xlink:href="#DejaVuSans-30"/>
      </g>
     </g>
    </g>
    <g id="ytick_6">
     <g id="line2d_15">
      <path d="M 65.43 162.33607 
L 419.04 162.33607 
" clip-path="url(#pf0ad683f28)" style="fill: none; stroke: #ffffff; stroke-linecap: round"/>
     </g>
     <g id="text_16">
      <!-- 20 -->
      <g style="fill: #262626" transform="translate(41.9325 166.51521)scale(0.11 -0.11)">
       <use xlink:href="#DejaVuSans-32"/>
       <use xlink:href="#DejaVuSans-30" x="63.623047"/>
      </g>
     </g>
    </g>
    <g id="ytick_7">
     <g id="line2d_16">
      <path d="M 65.43 120.236635 
L 419.04 120.236635 
" clip-path="url(#pf0ad683f28)" style="fill: none; stroke: #ffffff; stroke-linecap: round"/>
     </g>
     <g id="text_17">
      <!-- 40 -->
      <g style="fill: #262626" transform="translate(41.9325 124.415776)scale(0.11 -0.11)">
       <use xlink:href="#DejaVuSans-34"/>
       <use xlink:href="#DejaVuSans-30" x="63.623047"/>
      </g>
     </g>
    </g>
    <g id="ytick_8">
     <g id="line2d_17">
      <path d="M 65.43 78.1372 
L 419.04 78.1372 
" clip-path="url(#pf0ad683f28)" style="fill: none; stroke: #ffffff; stroke-linecap: round"/>
     </g>
     <g id="text_18">
      <!-- 60 -->
      <g style="fill: #262626" transform="translate(41.9325 82.316341)scale(0.11 -0.11)">
       <use xlink:href="#DejaVuSans-36"/>
       <use xlink:href="#DejaVuSans-30" x="63.623047"/>
      </g>
     </g>
    </g>
    <g id="ytick_9">
     <g id="line2d_18">
      <path d="M 65.43 36.037765 
L 419.04 36.037765 
" clip-path="url(#pf0ad683f28)" style="fill: none; stroke: #ffffff; stroke-linecap: round"/>
     </g>
     <g id="text_19">
      <!-- 80 -->
      <g style="fill: #262626" transform="translate(41.9325 40.216906)scale(0.11 -0.11)">
       <use xlink:href="#DejaVuSans-38"/>
       <use xlink:href="#DejaVuSans-30" x="63.623047"/>
      </g>
     </g>
    </g>
    <g id="text_20">
     <!-- $y$ (m) -->
     <g style="fill: #262626" transform="translate(26.194844 212.67)rotate(-90)scale(0.12 -0.12)">
      <defs>
       <path id="DejaVuSans-Oblique-79" d="M 1588 -325 
Q 1188 -997 936 -1164 
Q 684 -1331 294 -1331 
L -159 -1331 
L -63 -850 
L 269 -850 
Q 509 -850 678 -719 
Q 847 -588 1056 -206 
L 1234 128 
L 459 3500 
L 1069 3500 
L 1650 819 
L 3256 3500 
L 3859 3500 
L 1588 -325 
z
" transform="scale(0.015625)"/>
      </defs>
      <use xlink:href="#DejaVuSans-Oblique-79" transform="translate(0 0.125)"/>
      <use xlink:href="#DejaVuSans-20" transform="translate(59.179688 0.125)"/>
      <use xlink:href="#DejaVuSans-28" transform="translate(90.966797 0.125)"/>
      <use xlink:href="#DejaVuSans-6d" transform="translate(129.980469 0.125)"/>
      <use xlink:href="#DejaVuSans-29" transform="translate(227.392578 0.125)"/>
     </g>
    </g>
   </g>
   <g id="patch_3">
    <path d="M 67.805305 186.928262 
L 88.855022 186.928262 
L 88.855022 165.878544 
L 67.805305 165.878544 
L 67.805305 186.928262 
z
" clip-path="url(#pf0ad683f28)" style="fill: none; stroke: #808080; stroke-linejoin: miter"/>
   </g>
   <g id="line2d_19">
    <path d="M 113.113512 204.435505 
L 115.614308 204.56728 
L 120.364053 204.542805 
L 121.641288 204.440128 
L 122.97062 204.43619 
L 124.777088 204.537228 
L 125.972169 204.379574 
L 129.698334 204.412298 
L 132.702527 204.500907 
L 136.055082 204.529211 
L 139.096685 204.615852 
L 140.528615 204.433396 
L 141.965495 204.281787 
L 142.825934 204.284351 
L 152.708843 204.224856 
L 155.017341 204.22043 
L 156.110829 204.126503 
L 158.609207 204.053127 
L 159.710071 204.064822 
L 160.827788 204.069851 
L 168.987633 204.162426 
L 182.84052 203.733104 
L 184.199008 203.795144 
L 189.246247 203.729592 
L 194.194624 203.787369 
L 195.257029 203.706829 
L 196.827996 203.782106 
L 197.933084 203.698146 
L 199.021446 203.679622 
L 208.650024 203.715437 
L 210.014058 203.518773 
L 210.479791 203.587714 
L 211.423675 203.548763 
L 217.147706 203.570818 
L 217.606428 203.418554 
L 219.548039 203.433978 
L 223.052086 203.362604 
L 226.028953 203.4246 
L 226.520094 203.387803 
L 228.020358 203.490458 
L 231.565233 203.605167 
L 232.648432 203.501306 
L 235.236462 203.550011 
L 237.945035 203.083124 
L 241.327995 203.050565 
L 241.814824 203.113706 
L 243.264891 203.023474 
L 245.6738 203.14407 
L 250.36747 203.104483 
L 252.345846 203.166189 
L 252.815685 203.210305 
L 254.78991 203.02284 
L 259.988814 202.914051 
L 261.39337 202.983641 
L 264.932033 202.983807 
L 266.158458 202.946277 
L 268.901535 202.962696 
L 275.513149 202.925612 
L 276.65047 202.820121 
L 285.891865 202.728287 
L 289.079241 202.592545 
L 290.32247 202.680677 
L 291.262691 202.677073 
L 295.58392 202.591451 
L 296.577873 202.63797 
L 300.790216 202.717508 
L 301.269692 202.560215 
L 303.97701 202.54556 
L 316.211078 202.47987 
L 317.448614 202.362782 
L 318.247925 202.438068 
L 319.128616 202.395511 
L 319.577498 202.454775 
L 321.038038 202.414188 
L 322.510915 202.411991 
L 323.865822 202.407804 
L 325.813062 202.404281 
L 327.336639 202.440082 
L 328.378422 202.504303 
L 328.81057 202.369408 
L 330.763647 202.352771 
L 333.688288 202.176317 
L 342.618734 202.126495 
L 344.1642 202.117202 
L 346.054692 202.1643 
L 346.947281 202.116925 
L 348.904758 202.223365 
L 350.166022 202.213787 
L 350.630699 202.237564 
L 351.399498 202.444173 
L 352.335818 202.438936 
L 353.657223 202.324321 
L 361.1662 202.003353 
L 362.265387 201.838329 
L 367.870049 201.586745 
L 371.285014 201.673948 
L 378.40358 202.018811 
L 379.337951 202.126404 
L 380.718079 201.960822 
L 383.406739 201.928677 
L 385.452188 201.980462 
L 386.335661 201.897487 
L 388.237343 201.991129 
L 390.795732 201.689365 
L 398.374928 201.673792 
L 400.168336 201.70726 
L 401.850665 201.543497 
L 404.245352 201.345461 
L 405.867372 201.441244 
L 409.867112 201.51379 
L 410.158774 201.566769 
L 409.66055 201.532194 
L 407.990194 201.654943 
L 405.392759 202.185933 
L 403.206637 202.250013 
L 402.367273 202.226458 
L 401.92691 202.232361 
L 399.648721 201.481936 
L 398.386702 200.797944 
L 397.898494 200.591935 
L 397.555933 200.29974 
L 396.570424 199.737309 
L 395.443782 198.550091 
L 394.42345 196.724397 
L 394.396381 196.636281 
L 394.448598 197.070123 
L 394.648074 198.361229 
L 394.693817 199.456968 
L 394.736369 199.947438 
L 394.795559 200.636736 
L 394.568483 202.597607 
L 394.551796 203.45701 
L 394.172047 204.926355 
L 393.817679 205.885195 
L 392.840245 207.180572 
L 392.102403 208.039044 
L 391.291744 208.672258 
L 389.356107 209.838934 
L 388.274789 210.239393 
L 386.703508 210.553293 
L 384.428805 210.621036 
L 383.541493 210.52062 
L 379.765722 209.940804 
L 378.948335 209.607891 
L 378.194976 209.286 
L 377.317205 209.005189 
L 375.37788 208.421565 
L 373.175465 208.3347 
L 370.820101 208.955813 
L 367.159905 210.673436 
L 364.10922 211.65415 
L 361.978894 211.373752 
L 360.104514 210.576992 
L 359.556193 210.31217 
L 358.81202 210.087376 
L 358.816562 210.203448 
L 358.012471 210.413737 
L 357.389186 210.696172 
L 355.100158 210.775305 
L 354.186338 210.591456 
L 353.00282 210.533326 
L 349.649301 211.153761 
L 348.769973 211.096319 
L 348.326693 211.165604 
L 345.92907 210.891879 
L 344.973996 210.884283 
L 342.35663 210.72989 
L 336.322648 211.041316 
L 332.379585 212.091599 
L 330.089775 212.63192 
L 328.461877 212.697541 
L 326.890639 212.359538 
L 325.526308 211.85602 
L 324.032359 211.53787 
L 322.527212 211.433553 
L 319.497279 211.613333 
L 315.307485 212.739594 
L 314.303418 212.593236 
L 313.678066 212.55571 
L 312.84125 212.682051 
L 309.758867 212.16333 
L 307.017551 212.287052 
L 305.222665 212.359425 
L 301.597177 212.292116 
L 296.880589 212.444096 
L 293.810813 212.372821 
L 289.171432 212.38625 
L 287.619195 212.389961 
L 278.630736 212.293466 
L 270.960203 212.579678 
L 269.928462 212.570151 
L 267.130798 212.741002 
L 264.955809 212.75706 
L 262.148148 212.757242 
L 258.868781 212.659559 
L 255.802908 212.638575 
L 255.426306 212.603734 
L 252.046848 212.657767 
L 249.321531 212.687244 
L 248.453071 212.692298 
L 246.383431 212.70231 
L 245.497047 212.799632 
L 238.759857 213.000769 
L 231.312303 212.991034 
L 227.578385 213.017682 
L 226.972216 212.98794 
L 221.292527 213.14036 
L 218.716111 213.198532 
L 212.332264 213.255018 
L 208.185939 213.266734 
L 207.259539 213.316547 
L 206.271143 213.319572 
L 203.796994 213.29691 
L 200.262067 213.25791 
L 199.26149 213.214765 
L 196.526928 213.377558 
L 195.431608 213.594822 
L 193.248378 213.775741 
L 188.887021 213.868359 
L 180.97246 213.495441 
L 170.425573 213.67736 
L 142.50836 213.95186 
L 141.31332 214.091221 
L 135.212219 214.269025 
L 125.813093 214.136681 
L 110.731837 214.099139 
L 108.737035 213.876766 
L 107.290062 214.008714 
L 102.812882 214.93579 
L 100.740086 214.777231 
L 100.213571 214.698892 
L 95.396603 214.497059 
L 94.430132 214.209412 
L 92.801582 213.706031 
L 90.949751 212.538456 
L 88.642015 209.432821 
L 88.507226 208.996925 
L 87.482701 207.524166 
L 86.672701 206.40212 
L 86.001311 205.867834 
L 85.33509 205.369848 
L 84.525847 204.941757 
L 82.178475 203.736557 
L 80.835911 202.901119 
L 79.170433 201.644285 
L 77.456228 200.219113 
L 76.69382 199.354119 
L 76.307225 198.888237 
L 76.029589 198.350994 
L 75.320001 195.776929 
L 74.775731 191.669642 
L 74.284074 189.683768 
L 74.159734 188.307002 
L 74.28575 186.950852 
L 74.614628 185.662232 
L 75.155991 184.467802 
L 76.499672 182.354306 
L 77.601042 180.552732 
L 78.16757 178.90695 
L 78.311515 177.897159 
L 78.375714 176.371629 
L 78.443852 176.178793 
L 78.330163 176.403403 
L 78.330163 176.403403 
" clip-path="url(#pf0ad683f28)" style="fill: none; stroke-dasharray: 5.55,2.4; stroke-dashoffset: 0; stroke: #000000; stroke-opacity: 0.5; stroke-width: 1.5"/>
   </g>
   <g id="line2d_20">
    <path d="M 115.971825 205.792751 
L 117.039289 205.871117 
L 119.569758 205.773337 
L 120.132613 205.847043 
L 121.299289 205.771886 
L 128.11594 205.60595 
L 129.170455 205.630801 
L 130.715254 205.648833 
L 134.203001 205.684595 
L 138.026264 205.739113 
L 139.20056 205.826268 
L 140.988314 205.749279 
L 142.369473 205.620957 
L 143.808648 205.524323 
L 149.006234 205.382241 
L 149.49841 205.304384 
L 150.683555 205.315335 
L 153.479363 205.243498 
L 154.886698 205.414366 
L 157.798528 205.252559 
L 160.239946 205.167645 
L 162.572981 205.159292 
L 165.367957 205.271068 
L 167.114111 205.240859 
L 170.053555 205.251498 
L 179.067443 204.864373 
L 182.126144 204.846035 
L 183.446234 204.76987 
L 183.853806 204.720221 
L 184.717073 204.790642 
L 186.048195 204.788634 
L 193.868793 204.754704 
L 195.374842 204.742387 
L 196.388498 204.687381 
L 198.485259 204.687229 
L 199.719331 204.566502 
L 200.220545 204.66284 
L 201.337574 204.59791 
L 203.36052 204.602746 
L 208.32397 204.697042 
L 209.665931 204.590303 
L 210.506858 204.430871 
L 211.539544 204.461985 
L 214.251918 204.421602 
L 214.651114 204.531279 
L 217.591984 204.494222 
L 218.579695 204.294457 
L 220.875051 204.321231 
L 222.25945 204.203939 
L 232.203507 204.371335 
L 233.290745 204.272784 
L 234.867632 204.365119 
L 235.880748 204.279227 
L 236.950277 204.044226 
L 240.328542 203.782248 
L 242.844663 203.829172 
L 244.763041 203.871068 
L 249.772912 203.952142 
L 252.36932 203.841682 
L 253.225805 203.888176 
L 254.235155 203.731653 
L 263.978102 203.65418 
L 265.198879 203.62524 
L 270.241921 203.564262 
L 272.800098 203.65022 
L 275.673399 203.521522 
L 276.773272 203.403202 
L 284.280083 203.454695 
L 285.463593 203.304605 
L 292.926282 203.209748 
L 294.514311 203.218546 
L 294.950296 203.085084 
L 295.92627 203.153577 
L 296.3934 203.10147 
L 297.402982 203.169433 
L 298.564759 203.190465 
L 298.838578 203.242115 
L 304.244936 203.008869 
L 306.460818 203.008345 
L 308.88257 203.076908 
L 309.339294 202.980515 
L 311.667425 203.113149 
L 312.171339 203.021714 
L 314.071449 203.022664 
L 314.54705 202.940936 
L 315.317715 203.013263 
L 315.690989 202.892142 
L 316.505642 202.90177 
L 316.894563 202.826884 
L 317.304131 202.905236 
L 320.047061 202.818651 
L 320.941018 202.892834 
L 325.755036 202.786947 
L 326.241279 202.854394 
L 326.728049 202.809289 
L 327.174927 202.917479 
L 328.174827 202.776651 
L 332.027472 202.592335 
L 332.973465 202.553252 
L 337.097499 202.534936 
L 338.143419 202.574463 
L 339.682298 202.545132 
L 341.196549 202.560144 
L 343.793467 202.395006 
L 344.672501 202.466994 
L 345.947431 202.397407 
L 346.938055 202.498239 
L 348.715092 202.497362 
L 349.583662 202.56311 
L 349.994834 202.727062 
L 352.963809 202.591792 
L 356.405962 202.42442 
L 357.283503 202.310361 
L 359.461425 202.309344 
L 361.502074 202.064167 
L 363.684585 201.871169 
L 365.394566 201.799345 
L 370.832755 201.905352 
L 372.64347 202.046808 
L 373.688181 201.988658 
L 375.230485 202.085516 
L 378.154796 202.203967 
L 379.077188 202.051288 
L 379.933484 202.125263 
L 387.345471 201.975927 
L 388.335443 201.828689 
L 388.873386 201.779937 
L 389.482769 201.849097 
L 391.036721 201.771995 
L 393.047052 201.811561 
L 395.112208 201.699427 
L 398.645704 201.713915 
L 401.500522 201.400655 
L 404.808451 201.514195 
L 407.852216 201.586641 
L 406.244883 201.561922 
L 405.253154 201.781669 
L 401.960687 202.230645 
L 400.373369 202.009527 
L 399.442447 202.063725 
L 398.616148 201.727326 
L 398.091041 201.678475 
L 395.63421 200.398393 
L 394.368587 199.551568 
L 392.742425 197.170991 
L 392.472552 196.516423 
L 392.54206 196.962423 
L 392.880706 200.172041 
L 392.444373 204.282696 
L 391.949582 205.613837 
L 391.651727 206.155729 
L 389.894057 208.098488 
L 387.105786 209.799308 
L 385.093009 210.235186 
L 381.012243 210.148846 
L 378.808056 209.801886 
L 374.520248 208.357029 
L 373.539308 208.258833 
L 371.88727 208.269904 
L 370.134051 208.616726 
L 368.478304 209.340461 
L 367.35044 209.808508 
L 364.977141 210.697535 
L 364.630531 210.765331 
L 363.850416 211.047573 
L 362.735031 211.309359 
L 361.617224 211.247302 
L 360.618953 210.929985 
L 360.085311 210.763638 
L 357.966287 209.896409 
L 358.027319 209.967733 
L 357.049506 210.21754 
L 356.784887 210.330702 
L 354.583178 210.541594 
L 354.019619 210.445586 
L 353.155061 210.313101 
L 352.273766 210.223324 
L 351.094153 210.411919 
L 350.250402 210.600379 
L 347.151931 210.801101 
L 346.23377 210.59828 
L 345.281001 210.567699 
L 343.464155 210.509782 
L 342.54963 210.399089 
L 341.308685 210.40822 
L 335.71651 210.666605 
L 333.836008 210.963825 
L 332.714742 211.276969 
L 331.636046 211.692346 
L 328.980917 212.212294 
L 328.428732 212.228275 
L 326.823192 212.031505 
L 325.300242 211.503602 
L 323.331671 211.08422 
L 320.376696 211.016112 
L 318.009113 211.488524 
L 315.817053 212.105577 
L 314.538459 212.171058 
L 313.777449 212.071708 
L 313.162141 212.103024 
L 312.625898 212.153835 
L 311.534837 211.99066 
L 310.034574 211.700164 
L 306.103025 211.784531 
L 305.654973 211.716196 
L 304.821904 211.818794 
L 301.118017 211.712293 
L 298.925574 211.8473 
L 295.960337 211.895048 
L 294.573243 211.829509 
L 276.077075 211.737384 
L 275.614651 211.779967 
L 263.251277 212.046702 
L 262.738486 211.97771 
L 261.091708 212.007301 
L 255.920887 211.864232 
L 255.469988 211.837022 
L 251.287434 211.881328 
L 249.547518 211.876506 
L 248.012434 211.921284 
L 245.232832 211.959258 
L 242.331903 212.147185 
L 239.605259 212.121979 
L 238.55028 212.152273 
L 234.177742 212.029617 
L 230.332941 212.128395 
L 227.991351 212.134017 
L 211.406253 212.276103 
L 210.301536 212.186047 
L 209.828887 212.269424 
L 209.32709 212.242889 
L 208.906686 212.349437 
L 197.925186 212.255752 
L 196.320506 212.572464 
L 194.081838 212.711454 
L 189.94583 212.809492 
L 182.342059 212.4018 
L 171.779848 212.520697 
L 145.005298 212.694667 
L 143.01553 212.853049 
L 135.502029 212.97526 
L 134.617983 212.927282 
L 130.295073 212.92229 
L 129.472543 212.849285 
L 129.076744 212.91933 
L 128.703406 212.821547 
L 127.762471 212.835981 
L 113.060825 212.713523 
L 111.143126 212.544392 
L 109.386131 212.644402 
L 105.939517 213.425036 
L 104.238443 213.497792 
L 103.20982 213.348562 
L 102.684951 213.304796 
L 98.102564 213.061903 
L 96.008803 212.575263 
L 93.708563 211.157862 
L 91.694765 208.693408 
L 91.26688 207.818437 
L 90.310526 206.470953 
L 89.428605 205.394471 
L 87.331082 203.862785 
L 85.949217 203.212785 
L 81.042666 199.572049 
L 80.288567 198.8635 
L 79.615079 198.020717 
L 78.88475 196.165335 
L 77.501114 188.410666 
L 77.526149 187.138623 
L 77.767683 185.930875 
L 78.176414 184.798583 
L 79.760779 182.176097 
L 80.904332 180.129287 
L 81.188774 179.366621 
L 81.41677 178.078832 
L 81.503207 176.822904 
L 81.610645 176.477471 
L 81.535688 176.696966 
" clip-path="url(#pf0ad683f28)" style="fill: none; stroke: #4c72b0; stroke-opacity: 0.75; stroke-width: 1.5; stroke-linecap: round"/>
   </g>
   <g id="line2d_21">
    <path d="M 129.74508 203.857708 
L 130.171984 205.648556 
L 131.699756 207.13125 
L 131.699756 207.13125 
L 132.182963 207.184098 
L 133.073438 207.691112 
L 136.155669 209.817194 
L 136.841837 210.536761 
L 137.619608 211.054085 
L 129.427707 203.073764 
L 130.790605 203.194356 
L 133.093303 203.140349 
L 135.816888 203.397267 
L 137.275812 203.153454 
L 139.214867 203.044189 
L 143.206107 204.355379 
L 146.53952 204.062434 
L 147.787301 202.546544 
L 150.1753 201.849636 
L 152.50495 203.404509 
L 153.936831 202.513934 
L 155.449179 201.936107 
L 155.782618 202.688551 
L 159.147174 201.617395 
L 160.083987 201.321921 
L 163.378054 202.756377 
L 167.981192 201.727056 
L 168.634534 202.972605 
L 169.846572 202.620485 
L 170.896308 202.609564 
L 173.072385 202.147908 
L 176.959096 203.963247 
L 178.484954 204.10875 
L 179.870777 204.004554 
L 180.771967 204.303773 
L 182.755952 204.27222 
L 181.568427 205.04322 
L 182.727192 205.317076 
L 184.541744 205.310617 
L 186.397187 205.802836 
L 187.824981 206.340933 
L 186.202005 203.292812 
L 188.570203 203.480966 
L 191.645397 203.838224 
L 194.272153 204.02373 
L 196.706248 204.72221 
L 196.212218 204.975138 
L 203.59613 207.038772 
L 206.520754 208.148104 
L 209.926985 208.761184 
L 210.849196 207.670728 
L 214.383606 209.165998 
L 218.339628 209.817187 
L 220.735185 209.875386 
L 224.566012 210.864835 
L 225.448418 210.95726 
L 218.557114 208.447457 
L 219.304238 208.451076 
L 221.515601 208.706095 
L 214.991275 205.557662 
L 217.31029 205.368168 
L 218.02844 205.214372 
L 211.557726 203.917078 
L 213.864219 203.651753 
L 215.125166 203.676257 
L 216.467513 203.540629 
L 218.155544 203.21541 
L 218.993944 203.208904 
L 220.523205 201.867126 
L 221.288497 201.650033 
L 226.013922 200.879957 
L 228.262191 200.720758 
L 229.33213 203.513416 
L 232.033495 203.268231 
L 234.378742 204.799911 
L 236.215137 204.559821 
L 237.991294 204.523478 
L 239.11519 203.149361 
L 243.015109 203.069233 
L 245.092982 203.098404 
L 247.930454 203.087701 
L 248.802736 202.880758 
L 251.868993 202.785057 
L 255.579993 202.299813 
L 256.31886 202.332579 
L 258.462453 202.14117 
L 259.052303 203.767714 
L 259.808944 203.840475 
L 262.397326 203.731071 
L 264.324866 204.777884 
L 265.310183 204.730342 
L 268.125581 204.900047 
L 269.011315 204.274122 
L 273.874493 204.376282 
L 275.039781 202.829055 
L 278.085138 202.718812 
L 278.751708 203.412263 
L 286.701761 203.276222 
L 289.326179 202.636516 
L 294.517309 202.60468 
L 299.52165 202.341189 
L 301.28765 202.185701 
L 303.054762 202.169683 
L 303.947727 202.343302 
L 309.461947 202.463312 
L 310.874095 202.153498 
L 311.509688 202.144691 
L 313.692342 202.991754 
L 315.005007 202.551854 
L 315.726421 202.640443 
L 316.229782 202.409995 
L 316.420404 202.474078 
L 321.30799 202.987278 
L 322.1166 203.047691 
L 322.556987 203.616122 
L 323.287333 203.61558 
L 325.018356 203.772908 
L 325.862153 203.841636 
L 327.961491 203.321545 
L 331.355169 203.389451 
L 333.677274 202.705579 
L 334.453259 202.713493 
L 337.79068 202.860077 
L 339.521086 202.928541 
L 341.872483 202.86378 
L 345.643877 203.337164 
L 347.263673 203.411902 
L 348.048082 203.070397 
L 348.832128 203.031485 
L 349.437932 203.126729 
L 350.685417 202.799453 
L 355.008764 202.945662 
L 358.566825 203.696372 
L 362.001669 203.771587 
L 363.075341 203.767477 
L 363.73538 201.92017 
L 370.293659 201.910461 
L 371.908176 202.013872 
L 372.831165 201.928003 
L 375.313018 201.398592 
L 377.037301 201.334289 
L 378.293964 201.448046 
L 378.713133 203.085288 
L 380.219853 203.215717 
L 390.233175 203.489845 
L 391.077492 203.660024 
L 393.601063 203.734243 
L 395.474429 203.854457 
L 401.046751 202.767972 
L 403.118603 202.734555 
L 405.497291 202.778364 
L 405.952714 202.527281 
L 408.034304 202.610389 
L 408.858351 202.528731 
L 408.809406 202.534392 
L 408.776765 202.749347 
L 409.859197 202.642373 
L 409.858035 202.644711 
L 410.147698 202.18686 
L 410.055355 202.186278 
L 409.845099 202.157936 
L 410.310266 201.599179 
L 408.415522 201.436669 
L 408.437379 201.439083 
L 409.544747 201.289323 
L 409.379347 201.295004 
L 410.188826 202.550296 
L 408.530156 202.628922 
L 406.159881 202.157894 
L 404.101575 202.218397 
L 403.404505 202.136372 
L 402.584322 202.164572 
L 401.454415 200.394497 
L 398.405163 199.552335 
L 396.576456 198.779297 
L 392.310739 195.625453 
L 392.793926 196.087052 
L 394.336814 195.829614 
L 394.329505 195.825804 
L 394.304253 196.74474 
L 394.384933 197.001087 
L 394.275996 197.512111 
L 394.419733 198.085291 
L 393.789139 199.918247 
L 394.080647 200.996624 
L 394.116443 201.950078 
L 394.314406 202.039838 
L 394.404026 202.742938 
L 394.19843 204.279257 
L 393.74463 205.436082 
L 392.095155 205.842346 
L 391.59368 206.536785 
L 390.237612 207.642678 
L 389.405532 208.114164 
L 388.27324 208.461383 
L 386.472812 208.895715 
L 384.703937 209.077037 
L 385.145254 210.208476 
L 382.69299 210.381922 
L 381.122777 210.057455 
L 379.910471 208.923334 
L 377.637747 208.430321 
L 375.742232 208.463928 
L 371.002329 207.924095 
L 368.492066 209.240461 
L 368.702924 208.640946 
L 367.240804 209.064505 
L 365.572024 211.229475 
L 365.539202 211.200265 
L 365.222911 211.339593 
L 365.350144 210.699137 
L 364.473385 211.085768 
L 364.164357 211.032104 
L 362.702513 211.076474 
L 361.483153 210.802086 
L 360.949545 210.570244 
L 360.478503 209.131693 
L 359.612203 208.791189 
L 359.621925 208.794171 
L 360.666847 209.444214 
L 360.61848 209.456212 
L 359.913678 210.191558 
L 358.769735 210.543509 
L 357.183255 210.264365 
L 356.318097 210.324065 
L 355.784047 210.23172 
L 355.167204 209.620821 
L 354.032417 209.469848 
L 351.830165 209.853437 
L 349.546886 209.607184 
L 348.284129 209.645785 
L 346.554859 209.429692 
L 346.3326 210.785401 
L 343.793836 210.80951 
L 338.127657 211.417687 
L 336.324157 211.840994 
L 333.256657 212.955334 
L 331.3474 213.246418 
L 327.474472 212.55381 
L 325.556516 211.949964 
L 324.206696 211.668378 
L 324.060673 210.663988 
L 320.882816 210.780799 
L 319.868941 211.847167 
L 319.359414 212.03558 
L 317.314503 212.410701 
L 313.682222 211.950419 
L 313.39203 212.007401 
L 312.920211 212.626413 
L 311.211706 212.362004 
L 310.607411 212.30614 
L 309.166956 211.889525 
L 307.657765 211.912817 
L 305.98847 211.903125 
L 300.432742 212.080818 
L 299.175366 211.226883 
L 298.120078 211.064322 
L 295.153323 210.867472 
L 294.063846 210.762781 
L 292.621943 211.59245 
L 288.14365 211.400114 
L 280.688444 210.773805 
L 272.359497 210.873041 
L 271.698134 210.819998 
L 268.80017 210.915237 
L 267.770742 210.864249 
L 267.066801 213.229994 
L 265.35286 213.329837 
L 263.37152 213.371628 
L 261.433373 214.326217 
L 257.074638 214.542872 
L 254.629084 211.676689 
L 251.583894 211.658613 
L 250.416406 210.240304 
L 248.959155 210.193189 
L 245.129069 209.931619 
L 244.053053 209.939756 
L 238.738833 209.226842 
L 236.938905 209.131883 
L 235.041147 208.833306 
L 228.273779 210.955192 
L 222.928217 211.082781 
L 221.832655 211.440444 
L 211.604014 211.952556 
L 208.87582 211.750751 
L 199.461173 212.144664 
L 197.481219 211.974308 
L 193.569731 212.391915 
L 198.836989 214.588806 
L 189.457627 214.865693 
L 198.700455 213.094957 
L 197.76834 213.173755 
L 196.942266 213.284929 
L 196.1343 213.277239 
L 202.421465 212.146625 
L 200.595457 212.101247 
L 200.656581 212.74537 
L 200.333606 212.699677 
L 198.44201 212.732961 
L 196.765335 212.820168 
L 195.777043 213.046441 
L 193.376954 212.009831 
L 190.51176 211.971107 
L 182.735123 211.497624 
L 172.770375 211.258668 
L 157.965286 217.020649 
L 155.673681 217.391376 
L 153.800549 217.50618 
L 153.180347 217.595698 
L 147.235888 213.759912 
L 142.543197 214.240503 
L 138.27515 214.441262 
L 138.040918 215.746906 
L 137.083419 215.723983 
L 128.518239 216.055065 
L 104.730514 212.718758 
L 103.084871 212.705254 
L 102.130446 212.516437 
L 97.013924 213.95282 
L 94.588491 213.190591 
L 93.75883 212.695482 
L 92.918116 212.039933 
L 92.241339 211.192518 
L 91.374186 209.215097 
L 90.569561 207.948556 
L 87.599972 206.174117 
L 87.065051 205.717821 
L 84.592874 204.582203 
L 80.931076 202.276462 
L 79.762077 198.916768 
L 79.074432 198.285126 
L 77.735149 195.878445 
L 77.51091 194.712356 
L 77.027018 194.593291 
L 76.537097 191.008969 
L 76.377929 190.254574 
L 74.558266 188.498577 
L 74.578504 187.361403 
L 74.793792 186.26498 
L 75.194019 185.186985 
L 77.664978 180.065034 
L 78.331874 177.926377 
L 78.446497 176.275831 
L 78.819512 175.704302 
L 78.325024 176.626713 
L 78.325024 176.626713 
" clip-path="url(#pf0ad683f28)" style="fill: none; stroke: #55a868; stroke-opacity: 0.75; stroke-width: 1.5; stroke-linecap: round"/>
   </g>
   <g id="line2d_22">
    <path d="M 115.779821 204.110368 
L 116.833057 204.189474 
L 119.340958 204.109837 
L 119.908452 204.19257 
L 121.082049 204.133809 
L 127.916693 204.015506 
L 128.433679 203.95864 
L 130.036303 204.064857 
L 131.964373 204.104491 
L 134.042007 204.12409 
L 137.862436 204.163525 
L 138.079303 204.214903 
L 141.749381 204.09908 
L 145.069652 203.927195 
L 146.013806 203.87953 
L 151.023973 203.811839 
L 152.332672 203.830901 
L 153.776423 203.862997 
L 155.02937 203.920426 
L 157.118272 203.7603 
L 158.552366 203.757144 
L 160.73909 203.698233 
L 161.837844 203.774533 
L 162.868271 203.773445 
L 166.259656 203.88 
L 167.43943 203.869483 
L 170.836397 203.871331 
L 171.867894 203.704512 
L 172.386673 203.793328 
L 173.925704 203.659983 
L 175.120316 203.674953 
L 183.054894 203.460731 
L 183.470197 203.42896 
L 184.333762 203.50843 
L 185.243138 203.532384 
L 187.00113 203.529877 
L 187.972395 203.551686 
L 189.346151 203.417132 
L 191.074196 203.484663 
L 198.921393 203.407037 
L 199.458272 203.361698 
L 199.957278 203.470235 
L 201.085399 203.406856 
L 202.070663 203.381766 
L 208.029502 203.504867 
L 209.353592 203.411076 
L 210.188608 203.269725 
L 212.184203 203.294988 
L 213.961087 203.30216 
L 214.782273 203.399085 
L 216.774527 203.364019 
L 217.267524 203.373461 
L 218.313552 203.184432 
L 220.557998 203.225281 
L 221.875695 203.103107 
L 225.850432 203.208845 
L 226.828301 203.190353 
L 230.332146 203.466452 
L 232.383664 203.296404 
L 233.446659 203.325367 
L 233.890978 203.424967 
L 239.963395 202.791639 
L 242.028021 202.934835 
L 242.940835 202.832234 
L 246.160785 202.925416 
L 249.406969 203.019106 
L 252.010338 202.938911 
L 252.851841 202.992017 
L 253.872112 202.821952 
L 275.185207 202.780466 
L 275.736469 202.660557 
L 285.339638 202.604606 
L 286.511741 202.561161 
L 290.550362 202.580425 
L 291.029164 202.469354 
L 293.982272 202.561808 
L 294.424793 202.436263 
L 294.878729 202.525304 
L 298.105302 202.565819 
L 298.378853 202.611657 
L 301.173452 202.422666 
L 302.235225 202.424671 
L 304.219607 202.39488 
L 305.913967 202.425786 
L 308.316208 202.492001 
L 308.783935 202.400126 
L 311.073439 202.552 
L 311.577482 202.459184 
L 313.492429 202.459805 
L 313.953922 202.372717 
L 314.757391 202.460395 
L 315.508364 202.38239 
L 316.322463 202.290978 
L 316.73542 202.382214 
L 317.526804 202.294344 
L 318.551236 202.36606 
L 319.45857 202.31374 
L 320.314794 202.390141 
L 325.073092 202.296202 
L 325.581458 202.371167 
L 326.074585 202.319962 
L 326.555118 202.449625 
L 327.533857 202.301659 
L 331.407074 202.151307 
L 332.355591 202.121314 
L 334.206826 202.067091 
L 340.540233 202.169022 
L 343.162936 202.039386 
L 344.101481 202.08913 
L 345.357508 202.032925 
L 346.342371 202.136811 
L 348.126092 202.14505 
L 349.002931 202.217967 
L 349.418326 202.388543 
L 353.013055 202.263603 
L 354.333445 202.195896 
L 359.492692 201.936038 
L 360.458405 201.7715 
L 361.559853 201.776424 
L 363.815893 201.55489 
L 376.23655 201.952989 
L 377.163593 202.065537 
L 380.667075 201.881326 
L 381.863736 201.911568 
L 383.213515 201.953724 
L 384.096726 201.921915 
L 386.406862 201.93629 
L 388.397989 201.668945 
L 389.009529 201.736147 
L 391.083642 201.700879 
L 398.740781 201.603206 
L 401.590704 201.408788 
L 403.775633 201.483157 
L 407.274832 201.610623 
L 405.32928 201.663731 
L 404.343124 201.811138 
L 402.842631 202.091885 
L 402.31406 202.061804 
L 401.432494 202.195226 
L 399.879815 201.988433 
L 399.016763 201.960983 
L 398.638848 201.802628 
L 397.56326 201.754101 
L 397.069371 201.607945 
L 394.607868 200.2441 
L 393.76283 199.690992 
L 393.202606 198.875295 
L 392.814109 198.560687 
L 392.420143 197.716805 
L 392.147073 197.348761 
L 391.906078 196.717654 
L 392.003986 197.273708 
L 392.12141 198.028317 
L 392.180102 198.632027 
L 392.28601 199.853772 
L 392.346379 200.373389 
L 391.934963 204.481268 
L 391.453572 205.825531 
L 391.156234 206.385623 
L 389.060345 208.567687 
L 387.77985 209.53346 
L 386.65281 210.038983 
L 384.620085 210.508456 
L 381.619345 210.496287 
L 379.044597 210.29501 
L 377.42894 209.722267 
L 375.778711 209.172333 
L 373.753917 208.63908 
L 371.634999 208.634999 
L 369.861796 208.99567 
L 368.24059 209.705816 
L 367.113592 210.20605 
L 364.535304 211.126201 
L 364.294256 211.195492 
L 363.512294 211.473225 
L 362.630801 211.740568 
L 361.298686 211.688202 
L 360.2766 211.381455 
L 359.758224 211.222225 
L 357.674505 210.377334 
L 357.75652 210.458251 
L 356.781716 210.709732 
L 356.527592 210.819241 
L 354.302564 211.049551 
L 352.885066 210.821774 
L 352.017098 210.740141 
L 350.888857 210.924062 
L 350.039309 211.11855 
L 347.002964 211.329461 
L 346.090297 211.125098 
L 345.136079 211.111368 
L 343.338509 211.061908 
L 342.376809 210.946125 
L 336.154544 211.135727 
L 333.139414 211.657844 
L 330.427415 212.528052 
L 328.319315 212.795537 
L 326.725106 212.614649 
L 325.219159 212.090755 
L 323.243022 211.672664 
L 320.303693 211.633702 
L 317.980152 212.097276 
L 316.689262 212.554736 
L 314.817387 212.80598 
L 313.068509 212.754176 
L 312.693328 212.771372 
L 311.313167 212.539266 
L 309.099082 212.297058 
L 307.523008 212.444577 
L 306.694327 212.419221 
L 304.938752 212.471367 
L 301.341158 212.381563 
L 298.588679 212.552259 
L 297.434149 212.509554 
L 296.226967 212.591747 
L 295.457158 212.487854 
L 294.34049 212.526269 
L 293.192988 212.497707 
L 291.472149 212.480605 
L 287.741096 212.442463 
L 286.842746 212.485083 
L 276.62168 212.451148 
L 276.185916 212.519754 
L 269.280873 212.725079 
L 267.792615 212.762446 
L 261.212887 212.783057 
L 259.69711 212.714211 
L 257.571686 212.713613 
L 256.222515 212.634379 
L 252.104738 212.690159 
L 247.772901 212.744854 
L 246.792696 212.839504 
L 245.323657 212.870038 
L 244.5578 212.988988 
L 244.184481 212.95209 
L 242.25312 212.96741 
L 240.541196 212.964509 
L 239.493384 213.004932 
L 238.967603 212.97322 
L 233.916135 212.932063 
L 232.578501 212.969972 
L 229.021643 213.014338 
L 212.439373 213.238586 
L 211.388918 213.130468 
L 209.966421 213.319963 
L 207.15099 213.310587 
L 205.180186 213.256241 
L 200.116108 213.207543 
L 198.412867 213.36419 
L 195.844472 213.723486 
L 194.257219 213.768155 
L 192.513137 213.789304 
L 183.404528 213.462078 
L 172.926677 213.604737 
L 145.673256 213.861791 
L 144.291681 213.975192 
L 136.78609 214.121372 
L 135.934989 214.085523 
L 131.669164 214.079718 
L 130.863848 214.008184 
L 130.466489 214.070773 
L 129.697223 214.005641 
L 129.147046 213.99707 
L 114.521484 213.914418 
L 112.623095 213.724797 
L 110.871756 213.824982 
L 107.43375 214.614971 
L 105.730296 214.661123 
L 104.167368 214.474416 
L 99.599162 214.269752 
L 97.522614 213.784862 
L 95.216063 212.38421 
L 94.182413 211.129347 
L 93.174999 209.907135 
L 92.752873 209.077435 
L 90.89591 206.592995 
L 88.787717 205.0656 
L 87.419823 204.430706 
L 82.84477 201.143958 
L 81.305509 199.581932 
L 81.064763 199.259675 
L 80.320698 197.383158 
L 78.879091 188.933556 
L 79.006752 187.676308 
L 79.585109 185.960953 
L 80.887656 183.753301 
L 82.155403 181.621766 
L 82.598459 180.47078 
L 82.843836 179.167468 
L 82.956316 177.810933 
L 83.031117 177.572407 
L 82.9513 177.793656 
" clip-path="url(#pf0ad683f28)" style="fill: none; stroke: #c44e52; stroke-opacity: 0.75; stroke-width: 1.5; stroke-linecap: round"/>
   </g>
   <g id="patch_4">
    <path d="M 65.43 380.34 
L 65.43 12.96 
" style="fill: none; stroke: #ffffff; stroke-width: 1.25; stroke-linejoin: miter; stroke-linecap: square"/>
   </g>
   <g id="patch_5">
    <path d="M 419.04 380.34 
L 419.04 12.96 
" style="fill: none; stroke: #ffffff; stroke-width: 1.25; stroke-linejoin: miter; stroke-linecap: square"/>
   </g>
   <g id="patch_6">
    <path d="M 65.43 380.34 
L 419.04 380.34 
" style="fill: none; stroke: #ffffff; stroke-width: 1.25; stroke-linejoin: miter; stroke-linecap: square"/>
   </g>
   <g id="patch_7">
    <path d="M 65.43 12.96 
L 419.04 12.96 
" style="fill: none; stroke: #ffffff; stroke-width: 1.25; stroke-linejoin: miter; stroke-linecap: square"/>
   </g>
   <g id="legend_1">
    <g id="patch_8">
     <path d="M 204.132656 86.34375 
L 411.34 86.34375 
Q 413.54 86.34375 413.54 84.14375 
L 413.54 20.66 
Q 413.54 18.46 411.34 18.46 
L 204.132656 18.46 
Q 201.932656 18.46 201.932656 20.66 
L 201.932656 84.14375 
Q 201.932656 86.34375 204.132656 86.34375 
z
" style="fill: #eaeaf2; opacity: 0.8; stroke: #cccccc; stroke-linejoin: miter"/>
    </g>
    <g id="line2d_23">
     <path d="M 206.332656 27.368281 
L 217.332656 27.368281 
L 228.332656 27.368281 
" style="fill: none; stroke-dasharray: 5.55,2.4; stroke-dashoffset: 0; stroke: #000000; stroke-opacity: 0.5; stroke-width: 1.5"/>
    </g>
    <g id="text_21">
     <!-- Ground Truth -->
     <g style="fill: #262626" transform="translate(237.132656 31.218281)scale(0.11 -0.11)">
      <defs>
       <path id="DejaVuSans-47" d="M 3809 666 
L 3809 1919 
L 2778 1919 
L 2778 2438 
L 4434 2438 
L 4434 434 
Q 4069 175 3628 42 
Q 3188 -91 2688 -91 
Q 1594 -91 976 548 
Q 359 1188 359 2328 
Q 359 3472 976 4111 
Q 1594 4750 2688 4750 
Q 3144 4750 3555 4637 
Q 3966 4525 4313 4306 
L 4313 3634 
Q 3963 3931 3569 4081 
Q 3175 4231 2741 4231 
Q 1884 4231 1454 3753 
Q 1025 3275 1025 2328 
Q 1025 1384 1454 906 
Q 1884 428 2741 428 
Q 3075 428 3337 486 
Q 3600 544 3809 666 
z
" transform="scale(0.015625)"/>
       <path id="DejaVuSans-72" d="M 2631 2963 
Q 2534 3019 2420 3045 
Q 2306 3072 2169 3072 
Q 1681 3072 1420 2755 
Q 1159 2438 1159 1844 
L 1159 0 
L 581 0 
L 581 3500 
L 1159 3500 
L 1159 2956 
Q 1341 3275 1631 3429 
Q 1922 3584 2338 3584 
Q 2397 3584 2469 3576 
Q 2541 3569 2628 3553 
L 2631 2963 
z
" transform="scale(0.015625)"/>
       <path id="DejaVuSans-6f" d="M 1959 3097 
Q 1497 3097 1228 2736 
Q 959 2375 959 1747 
Q 959 1119 1226 758 
Q 1494 397 1959 397 
Q 2419 397 2687 759 
Q 2956 1122 2956 1747 
Q 2956 2369 2687 2733 
Q 2419 3097 1959 3097 
z
M 1959 3584 
Q 2709 3584 3137 3096 
Q 3566 2609 3566 1747 
Q 3566 888 3137 398 
Q 2709 -91 1959 -91 
Q 1206 -91 779 398 
Q 353 888 353 1747 
Q 353 2609 779 3096 
Q 1206 3584 1959 3584 
z
" transform="scale(0.015625)"/>
       <path id="DejaVuSans-75" d="M 544 1381 
L 544 3500 
L 1119 3500 
L 1119 1403 
Q 1119 906 1312 657 
Q 1506 409 1894 409 
Q 2359 409 2629 706 
Q 2900 1003 2900 1516 
L 2900 3500 
L 3475 3500 
L 3475 0 
L 2900 0 
L 2900 538 
Q 2691 219 2414 64 
Q 2138 -91 1772 -91 
Q 1169 -91 856 284 
Q 544 659 544 1381 
z
M 1991 3584 
L 1991 3584 
z
" transform="scale(0.015625)"/>
       <path id="DejaVuSans-6e" d="M 3513 2113 
L 3513 0 
L 2938 0 
L 2938 2094 
Q 2938 2591 2744 2837 
Q 2550 3084 2163 3084 
Q 1697 3084 1428 2787 
Q 1159 2491 1159 1978 
L 1159 0 
L 581 0 
L 581 3500 
L 1159 3500 
L 1159 2956 
Q 1366 3272 1645 3428 
Q 1925 3584 2291 3584 
Q 2894 3584 3203 3211 
Q 3513 2838 3513 2113 
z
" transform="scale(0.015625)"/>
       <path id="DejaVuSans-64" d="M 2906 2969 
L 2906 4863 
L 3481 4863 
L 3481 0 
L 2906 0 
L 2906 525 
Q 2725 213 2448 61 
Q 2172 -91 1784 -91 
Q 1150 -91 751 415 
Q 353 922 353 1747 
Q 353 2572 751 3078 
Q 1150 3584 1784 3584 
Q 2172 3584 2448 3432 
Q 2725 3281 2906 2969 
z
M 947 1747 
Q 947 1113 1208 752 
Q 1469 391 1925 391 
Q 2381 391 2643 752 
Q 2906 1113 2906 1747 
Q 2906 2381 2643 2742 
Q 2381 3103 1925 3103 
Q 1469 3103 1208 2742 
Q 947 2381 947 1747 
z
" transform="scale(0.015625)"/>
       <path id="DejaVuSans-54" d="M -19 4666 
L 3928 4666 
L 3928 4134 
L 2272 4134 
L 2272 0 
L 1638 0 
L 1638 4134 
L -19 4134 
L -19 4666 
z
" transform="scale(0.015625)"/>
       <path id="DejaVuSans-74" d="M 1172 4494 
L 1172 3500 
L 2356 3500 
L 2356 3053 
L 1172 3053 
L 1172 1153 
Q 1172 725 1289 603 
Q 1406 481 1766 481 
L 2356 481 
L 2356 0 
L 1766 0 
Q 1100 0 847 248 
Q 594 497 594 1153 
L 594 3053 
L 172 3053 
L 172 3500 
L 594 3500 
L 594 4494 
L 1172 4494 
z
" transform="scale(0.015625)"/>
       <path id="DejaVuSans-68" d="M 3513 2113 
L 3513 0 
L 2938 0 
L 2938 2094 
Q 2938 2591 2744 2837 
Q 2550 3084 2163 3084 
Q 1697 3084 1428 2787 
Q 1159 2491 1159 1978 
L 1159 0 
L 581 0 
L 581 4863 
L 1159 4863 
L 1159 2956 
Q 1366 3272 1645 3428 
Q 1925 3584 2291 3584 
Q 2894 3584 3203 3211 
Q 3513 2838 3513 2113 
z
" transform="scale(0.015625)"/>
      </defs>
      <use xlink:href="#DejaVuSans-47"/>
      <use xlink:href="#DejaVuSans-72" x="77.490234"/>
      <use xlink:href="#DejaVuSans-6f" x="116.353516"/>
      <use xlink:href="#DejaVuSans-75" x="177.535156"/>
      <use xlink:href="#DejaVuSans-6e" x="240.914062"/>
      <use xlink:href="#DejaVuSans-64" x="304.292969"/>
      <use xlink:href="#DejaVuSans-20" x="367.769531"/>
      <use xlink:href="#DejaVuSans-54" x="399.556641"/>
      <use xlink:href="#DejaVuSans-72" x="445.890625"/>
      <use xlink:href="#DejaVuSans-75" x="487.003906"/>
      <use xlink:href="#DejaVuSans-74" x="550.382812"/>
      <use xlink:href="#DejaVuSans-68" x="589.591797"/>
     </g>
    </g>
    <g id="line2d_24">
     <path d="M 206.332656 43.514219 
L 217.332656 43.514219 
L 228.332656 43.514219 
" style="fill: none; stroke: #4c72b0; stroke-opacity: 0.75; stroke-width: 1.5; stroke-linecap: round"/>
    </g>
    <g id="text_22">
     <!-- GNSS-Stereo-Inertial (Ours) -->
     <g style="fill: #262626" transform="translate(237.132656 47.364219)scale(0.11 -0.11)">
      <defs>
       <path id="DejaVuSans-4e" d="M 628 4666 
L 1478 4666 
L 3547 763 
L 3547 4666 
L 4159 4666 
L 4159 0 
L 3309 0 
L 1241 3903 
L 1241 0 
L 628 0 
L 628 4666 
z
" transform="scale(0.015625)"/>
       <path id="DejaVuSans-53" d="M 3425 4513 
L 3425 3897 
Q 3066 4069 2747 4153 
Q 2428 4238 2131 4238 
Q 1616 4238 1336 4038 
Q 1056 3838 1056 3469 
Q 1056 3159 1242 3001 
Q 1428 2844 1947 2747 
L 2328 2669 
Q 3034 2534 3370 2195 
Q 3706 1856 3706 1288 
Q 3706 609 3251 259 
Q 2797 -91 1919 -91 
Q 1588 -91 1214 -16 
Q 841 59 441 206 
L 441 856 
Q 825 641 1194 531 
Q 1563 422 1919 422 
Q 2459 422 2753 634 
Q 3047 847 3047 1241 
Q 3047 1584 2836 1778 
Q 2625 1972 2144 2069 
L 1759 2144 
Q 1053 2284 737 2584 
Q 422 2884 422 3419 
Q 422 4038 858 4394 
Q 1294 4750 2059 4750 
Q 2388 4750 2728 4690 
Q 3069 4631 3425 4513 
z
" transform="scale(0.015625)"/>
       <path id="DejaVuSans-2d" d="M 313 2009 
L 1997 2009 
L 1997 1497 
L 313 1497 
L 313 2009 
z
" transform="scale(0.015625)"/>
       <path id="DejaVuSans-65" d="M 3597 1894 
L 3597 1613 
L 953 1613 
Q 991 1019 1311 708 
Q 1631 397 2203 397 
Q 2534 397 2845 478 
Q 3156 559 3463 722 
L 3463 178 
Q 3153 47 2828 -22 
Q 2503 -91 2169 -91 
Q 1331 -91 842 396 
Q 353 884 353 1716 
Q 353 2575 817 3079 
Q 1281 3584 2069 3584 
Q 2775 3584 3186 3129 
Q 3597 2675 3597 1894 
z
M 3022 2063 
Q 3016 2534 2758 2815 
Q 2500 3097 2075 3097 
Q 1594 3097 1305 2825 
Q 1016 2553 972 2059 
L 3022 2063 
z
" transform="scale(0.015625)"/>
       <path id="DejaVuSans-49" d="M 628 4666 
L 1259 4666 
L 1259 0 
L 628 0 
L 628 4666 
z
" transform="scale(0.015625)"/>
       <path id="DejaVuSans-69" d="M 603 3500 
L 1178 3500 
L 1178 0 
L 603 0 
L 603 3500 
z
M 603 4863 
L 1178 4863 
L 1178 4134 
L 603 4134 
L 603 4863 
z
" transform="scale(0.015625)"/>
       <path id="DejaVuSans-61" d="M 2194 1759 
Q 1497 1759 1228 1600 
Q 959 1441 959 1056 
Q 959 750 1161 570 
Q 1363 391 1709 391 
Q 2188 391 2477 730 
Q 2766 1069 2766 1631 
L 2766 1759 
L 2194 1759 
z
M 3341 1997 
L 3341 0 
L 2766 0 
L 2766 531 
Q 2569 213 2275 61 
Q 1981 -91 1556 -91 
Q 1019 -91 701 211 
Q 384 513 384 1019 
Q 384 1609 779 1909 
Q 1175 2209 1959 2209 
L 2766 2209 
L 2766 2266 
Q 2766 2663 2505 2880 
Q 2244 3097 1772 3097 
Q 1472 3097 1187 3025 
Q 903 2953 641 2809 
L 641 3341 
Q 956 3463 1253 3523 
Q 1550 3584 1831 3584 
Q 2591 3584 2966 3190 
Q 3341 2797 3341 1997 
z
" transform="scale(0.015625)"/>
       <path id="DejaVuSans-6c" d="M 603 4863 
L 1178 4863 
L 1178 0 
L 603 0 
L 603 4863 
z
" transform="scale(0.015625)"/>
       <path id="DejaVuSans-4f" d="M 2522 4238 
Q 1834 4238 1429 3725 
Q 1025 3213 1025 2328 
Q 1025 1447 1429 934 
Q 1834 422 2522 422 
Q 3209 422 3611 934 
Q 4013 1447 4013 2328 
Q 4013 3213 3611 3725 
Q 3209 4238 2522 4238 
z
M 2522 4750 
Q 3503 4750 4090 4092 
Q 4678 3434 4678 2328 
Q 4678 1225 4090 567 
Q 3503 -91 2522 -91 
Q 1538 -91 948 565 
Q 359 1222 359 2328 
Q 359 3434 948 4092 
Q 1538 4750 2522 4750 
z
" transform="scale(0.015625)"/>
       <path id="DejaVuSans-73" d="M 2834 3397 
L 2834 2853 
Q 2591 2978 2328 3040 
Q 2066 3103 1784 3103 
Q 1356 3103 1142 2972 
Q 928 2841 928 2578 
Q 928 2378 1081 2264 
Q 1234 2150 1697 2047 
L 1894 2003 
Q 2506 1872 2764 1633 
Q 3022 1394 3022 966 
Q 3022 478 2636 193 
Q 2250 -91 1575 -91 
Q 1294 -91 989 -36 
Q 684 19 347 128 
L 347 722 
Q 666 556 975 473 
Q 1284 391 1588 391 
Q 1994 391 2212 530 
Q 2431 669 2431 922 
Q 2431 1156 2273 1281 
Q 2116 1406 1581 1522 
L 1381 1569 
Q 847 1681 609 1914 
Q 372 2147 372 2553 
Q 372 3047 722 3315 
Q 1072 3584 1716 3584 
Q 2034 3584 2315 3537 
Q 2597 3491 2834 3397 
z
" transform="scale(0.015625)"/>
      </defs>
      <use xlink:href="#DejaVuSans-47"/>
      <use xlink:href="#DejaVuSans-4e" x="77.490234"/>
      <use xlink:href="#DejaVuSans-53" x="152.294922"/>
      <use xlink:href="#DejaVuSans-53" x="215.771484"/>
      <use xlink:href="#DejaVuSans-2d" x="279.248047"/>
      <use xlink:href="#DejaVuSans-53" x="315.332031"/>
      <use xlink:href="#DejaVuSans-74" x="378.808594"/>
      <use xlink:href="#DejaVuSans-65" x="418.017578"/>
      <use xlink:href="#DejaVuSans-72" x="479.541016"/>
      <use xlink:href="#DejaVuSans-65" x="518.404297"/>
      <use xlink:href="#DejaVuSans-6f" x="579.927734"/>
      <use xlink:href="#DejaVuSans-2d" x="642.984375"/>
      <use xlink:href="#DejaVuSans-49" x="679.068359"/>
      <use xlink:href="#DejaVuSans-6e" x="708.560547"/>
      <use xlink:href="#DejaVuSans-65" x="771.939453"/>
      <use xlink:href="#DejaVuSans-72" x="833.462891"/>
      <use xlink:href="#DejaVuSans-74" x="874.576172"/>
      <use xlink:href="#DejaVuSans-69" x="913.785156"/>
      <use xlink:href="#DejaVuSans-61" x="941.568359"/>
      <use xlink:href="#DejaVuSans-6c" x="1002.847656"/>
      <use xlink:href="#DejaVuSans-20" x="1030.630859"/>
      <use xlink:href="#DejaVuSans-28" x="1062.417969"/>
      <use xlink:href="#DejaVuSans-4f" x="1101.431641"/>
      <use xlink:href="#DejaVuSans-75" x="1180.142578"/>
      <use xlink:href="#DejaVuSans-72" x="1243.521484"/>
      <use xlink:href="#DejaVuSans-73" x="1284.634766"/>
      <use xlink:href="#DejaVuSans-29" x="1336.734375"/>
     </g>
    </g>
    <g id="line2d_25">
     <path d="M 206.332656 59.660156 
L 217.332656 59.660156 
L 228.332656 59.660156 
" style="fill: none; stroke: #55a868; stroke-opacity: 0.75; stroke-width: 1.5; stroke-linecap: round"/>
    </g>
    <g id="text_23">
     <!-- GNSS-Stereo-Inertial (Qin et al) -->
     <g style="fill: #262626" transform="translate(237.132656 63.510156)scale(0.11 -0.11)">
      <defs>
       <path id="DejaVuSans-51" d="M 2522 4238 
Q 1834 4238 1429 3725 
Q 1025 3213 1025 2328 
Q 1025 1447 1429 934 
Q 1834 422 2522 422 
Q 3209 422 3611 934 
Q 4013 1447 4013 2328 
Q 4013 3213 3611 3725 
Q 3209 4238 2522 4238 
z
M 3406 84 
L 4238 -825 
L 3475 -825 
L 2784 -78 
Q 2681 -84 2626 -87 
Q 2572 -91 2522 -91 
Q 1538 -91 948 567 
Q 359 1225 359 2328 
Q 359 3434 948 4092 
Q 1538 4750 2522 4750 
Q 3503 4750 4090 4092 
Q 4678 3434 4678 2328 
Q 4678 1516 4351 937 
Q 4025 359 3406 84 
z
" transform="scale(0.015625)"/>
      </defs>
      <use xlink:href="#DejaVuSans-47"/>
      <use xlink:href="#DejaVuSans-4e" x="77.490234"/>
      <use xlink:href="#DejaVuSans-53" x="152.294922"/>
      <use xlink:href="#DejaVuSans-53" x="215.771484"/>
      <use xlink:href="#DejaVuSans-2d" x="279.248047"/>
      <use xlink:href="#DejaVuSans-53" x="315.332031"/>
      <use xlink:href="#DejaVuSans-74" x="378.808594"/>
      <use xlink:href="#DejaVuSans-65" x="418.017578"/>
      <use xlink:href="#DejaVuSans-72" x="479.541016"/>
      <use xlink:href="#DejaVuSans-65" x="518.404297"/>
      <use xlink:href="#DejaVuSans-6f" x="579.927734"/>
      <use xlink:href="#DejaVuSans-2d" x="642.984375"/>
      <use xlink:href="#DejaVuSans-49" x="679.068359"/>
      <use xlink:href="#DejaVuSans-6e" x="708.560547"/>
      <use xlink:href="#DejaVuSans-65" x="771.939453"/>
      <use xlink:href="#DejaVuSans-72" x="833.462891"/>
      <use xlink:href="#DejaVuSans-74" x="874.576172"/>
      <use xlink:href="#DejaVuSans-69" x="913.785156"/>
      <use xlink:href="#DejaVuSans-61" x="941.568359"/>
      <use xlink:href="#DejaVuSans-6c" x="1002.847656"/>
      <use xlink:href="#DejaVuSans-20" x="1030.630859"/>
      <use xlink:href="#DejaVuSans-28" x="1062.417969"/>
      <use xlink:href="#DejaVuSans-51" x="1101.431641"/>
      <use xlink:href="#DejaVuSans-69" x="1180.142578"/>
      <use xlink:href="#DejaVuSans-6e" x="1207.925781"/>
      <use xlink:href="#DejaVuSans-20" x="1271.304688"/>
      <use xlink:href="#DejaVuSans-65" x="1303.091797"/>
      <use xlink:href="#DejaVuSans-74" x="1364.615234"/>
      <use xlink:href="#DejaVuSans-20" x="1403.824219"/>
      <use xlink:href="#DejaVuSans-61" x="1435.611328"/>
      <use xlink:href="#DejaVuSans-6c" x="1496.890625"/>
      <use xlink:href="#DejaVuSans-29" x="1524.673828"/>
     </g>
    </g>
    <g id="line2d_26">
     <path d="M 206.332656 75.806094 
L 217.332656 75.806094 
L 228.332656 75.806094 
" style="fill: none; stroke: #c44e52; stroke-opacity: 0.75; stroke-width: 1.5; stroke-linecap: round"/>
    </g>
    <g id="text_24">
     <!-- Stereo-Inertial (Campos et al) -->
     <g style="fill: #262626" transform="translate(237.132656 79.656094)scale(0.11 -0.11)">
      <defs>
       <path id="DejaVuSans-43" d="M 4122 4306 
L 4122 3641 
Q 3803 3938 3442 4084 
Q 3081 4231 2675 4231 
Q 1875 4231 1450 3742 
Q 1025 3253 1025 2328 
Q 1025 1406 1450 917 
Q 1875 428 2675 428 
Q 3081 428 3442 575 
Q 3803 722 4122 1019 
L 4122 359 
Q 3791 134 3420 21 
Q 3050 -91 2638 -91 
Q 1578 -91 968 557 
Q 359 1206 359 2328 
Q 359 3453 968 4101 
Q 1578 4750 2638 4750 
Q 3056 4750 3426 4639 
Q 3797 4528 4122 4306 
z
" transform="scale(0.015625)"/>
       <path id="DejaVuSans-70" d="M 1159 525 
L 1159 -1331 
L 581 -1331 
L 581 3500 
L 1159 3500 
L 1159 2969 
Q 1341 3281 1617 3432 
Q 1894 3584 2278 3584 
Q 2916 3584 3314 3078 
Q 3713 2572 3713 1747 
Q 3713 922 3314 415 
Q 2916 -91 2278 -91 
Q 1894 -91 1617 61 
Q 1341 213 1159 525 
z
M 3116 1747 
Q 3116 2381 2855 2742 
Q 2594 3103 2138 3103 
Q 1681 3103 1420 2742 
Q 1159 2381 1159 1747 
Q 1159 1113 1420 752 
Q 1681 391 2138 391 
Q 2594 391 2855 752 
Q 3116 1113 3116 1747 
z
" transform="scale(0.015625)"/>
      </defs>
      <use xlink:href="#DejaVuSans-53"/>
      <use xlink:href="#DejaVuSans-74" x="63.476562"/>
      <use xlink:href="#DejaVuSans-65" x="102.685547"/>
      <use xlink:href="#DejaVuSans-72" x="164.208984"/>
      <use xlink:href="#DejaVuSans-65" x="203.072266"/>
      <use xlink:href="#DejaVuSans-6f" x="264.595703"/>
      <use xlink:href="#DejaVuSans-2d" x="327.652344"/>
      <use xlink:href="#DejaVuSans-49" x="363.736328"/>
      <use xlink:href="#DejaVuSans-6e" x="393.228516"/>
      <use xlink:href="#DejaVuSans-65" x="456.607422"/>
      <use xlink:href="#DejaVuSans-72" x="518.130859"/>
      <use xlink:href="#DejaVuSans-74" x="559.244141"/>
      <use xlink:href="#DejaVuSans-69" x="598.453125"/>
      <use xlink:href="#DejaVuSans-61" x="626.236328"/>
      <use xlink:href="#DejaVuSans-6c" x="687.515625"/>
      <use xlink:href="#DejaVuSans-20" x="715.298828"/>
      <use xlink:href="#DejaVuSans-28" x="747.085938"/>
      <use xlink:href="#DejaVuSans-43" x="786.099609"/>
      <use xlink:href="#DejaVuSans-61" x="855.923828"/>
      <use xlink:href="#DejaVuSans-6d" x="917.203125"/>
      <use xlink:href="#DejaVuSans-70" x="1014.615234"/>
      <use xlink:href="#DejaVuSans-6f" x="1078.091797"/>
      <use xlink:href="#DejaVuSans-73" x="1139.273438"/>
      <use xlink:href="#DejaVuSans-20" x="1191.373047"/>
      <use xlink:href="#DejaVuSans-65" x="1223.160156"/>
      <use xlink:href="#DejaVuSans-74" x="1284.683594"/>
      <use xlink:href="#DejaVuSans-20" x="1323.892578"/>
      <use xlink:href="#DejaVuSans-61" x="1355.679688"/>
      <use xlink:href="#DejaVuSans-6c" x="1416.958984"/>
      <use xlink:href="#DejaVuSans-29" x="1444.742188"/>
     </g>
    </g>
   </g>
  </g>
  <g id="axes_2">
   <g id="patch_9">
    <path d="M 270.741696 358.34 
L 397.04 358.34 
L 397.04 232.041696 
L 270.741696 232.041696 
z
" style="fill: #eaeaf2"/>
   </g>
   <g id="matplotlib.axis_3">
    <g id="xtick_10">
     <g id="line2d_27">
      <path d="M 289.994332 358.34 
L 289.994332 232.041696 
" clip-path="url(#p04473dac68)" style="fill: none; stroke: #ffffff; stroke-linecap: round"/>
     </g>
     <g id="text_25">
      <!-- −20 -->
      <g style="fill: #262626" transform="translate(278.386754 376.198281)scale(0.11 -0.11)">
       <use xlink:href="#DejaVuSans-2212"/>
       <use xlink:href="#DejaVuSans-32" x="83.789062"/>
       <use xlink:href="#DejaVuSans-30" x="147.412109"/>
      </g>
     </g>
    </g>
    <g id="xtick_11">
     <g id="line2d_28">
      <path d="M 353.143484 358.34 
L 353.143484 232.041696 
" clip-path="url(#p04473dac68)" style="fill: none; stroke: #ffffff; stroke-linecap: round"/>
     </g>
     <g id="text_26">
      <!-- −15 -->
      <g style="fill: #262626" transform="translate(341.535906 376.198281)scale(0.11 -0.11)">
       <defs>
        <path id="DejaVuSans-35" d="M 691 4666 
L 3169 4666 
L 3169 4134 
L 1269 4134 
L 1269 2991 
Q 1406 3038 1543 3061 
Q 1681 3084 1819 3084 
Q 2600 3084 3056 2656 
Q 3513 2228 3513 1497 
Q 3513 744 3044 326 
Q 2575 -91 1722 -91 
Q 1428 -91 1123 -41 
Q 819 9 494 109 
L 494 744 
Q 775 591 1075 516 
Q 1375 441 1709 441 
Q 2250 441 2565 725 
Q 2881 1009 2881 1497 
Q 2881 1984 2565 2268 
Q 2250 2553 1709 2553 
Q 1456 2553 1204 2497 
Q 953 2441 691 2322 
L 691 4666 
z
" transform="scale(0.015625)"/>
       </defs>
       <use xlink:href="#DejaVuSans-2212"/>
       <use xlink:href="#DejaVuSans-31" x="83.789062"/>
       <use xlink:href="#DejaVuSans-35" x="147.412109"/>
      </g>
     </g>
    </g>
   </g>
   <g id="matplotlib.axis_4">
    <g id="ytick_10">
     <g id="line2d_29">
      <path d="M 270.741696 337.085152 
L 397.04 337.085152 
" clip-path="url(#p04473dac68)" style="fill: none; stroke: #ffffff; stroke-linecap: round"/>
     </g>
     <g id="text_27">
      <!-- 10 -->
      <g style="fill: #262626" transform="translate(247.244196 341.264293)scale(0.11 -0.11)">
       <use xlink:href="#DejaVuSans-31"/>
       <use xlink:href="#DejaVuSans-30" x="63.623047"/>
      </g>
     </g>
    </g>
    <g id="ytick_11">
     <g id="line2d_30">
      <path d="M 270.741696 311.825491 
L 397.04 311.825491 
" clip-path="url(#p04473dac68)" style="fill: none; stroke: #ffffff; stroke-linecap: round"/>
     </g>
     <g id="text_28">
      <!-- 12 -->
      <g style="fill: #262626" transform="translate(247.244196 316.004632)scale(0.11 -0.11)">
       <use xlink:href="#DejaVuSans-31"/>
       <use xlink:href="#DejaVuSans-32" x="63.623047"/>
      </g>
     </g>
    </g>
    <g id="ytick_12">
     <g id="line2d_31">
      <path d="M 270.741696 286.56583 
L 397.04 286.56583 
" clip-path="url(#p04473dac68)" style="fill: none; stroke: #ffffff; stroke-linecap: round"/>
     </g>
     <g id="text_29">
      <!-- 14 -->
      <g style="fill: #262626" transform="translate(247.244196 290.744971)scale(0.11 -0.11)">
       <use xlink:href="#DejaVuSans-31"/>
       <use xlink:href="#DejaVuSans-34" x="63.623047"/>
      </g>
     </g>
    </g>
    <g id="ytick_13">
     <g id="line2d_32">
      <path d="M 270.741696 261.30617 
L 397.04 261.30617 
" clip-path="url(#p04473dac68)" style="fill: none; stroke: #ffffff; stroke-linecap: round"/>
     </g>
     <g id="text_30">
      <!-- 16 -->
      <g style="fill: #262626" transform="translate(247.244196 265.48531)scale(0.11 -0.11)">
       <use xlink:href="#DejaVuSans-31"/>
       <use xlink:href="#DejaVuSans-36" x="63.623047"/>
      </g>
     </g>
    </g>
    <g id="ytick_14">
     <g id="line2d_33">
      <path d="M 270.741696 236.046509 
L 397.04 236.046509 
" clip-path="url(#p04473dac68)" style="fill: none; stroke: #ffffff; stroke-linecap: round"/>
     </g>
     <g id="text_31">
      <!-- 18 -->
      <g style="fill: #262626" transform="translate(247.244196 240.225649)scale(0.11 -0.11)">
       <use xlink:href="#DejaVuSans-31"/>
       <use xlink:href="#DejaVuSans-38" x="63.623047"/>
      </g>
     </g>
    </g>
   </g>
   <g id="patch_10">
    <path d="M 270.741696 232.041696 
L 67.805305 165.878544 
" style="fill: none; stroke: #808080; stroke-linejoin: miter"/>
   </g>
   <g id="patch_11">
    <path d="M 397.04 358.34 
L 88.855022 186.928262 
" style="fill: none; stroke: #808080; stroke-linejoin: miter"/>
   </g>
   <g id="line2d_34">
    <path d="M 324.151558 433 
L 324.072787 432.895144 
L 321.753217 430.099853 
L 320.087402 426.876393 
L 318.896963 423.097404 
L 317.571421 419.385745 
L 315.829876 411.432 
L 315.370234 407.305793 
L 314.290088 399.227608 
L 313.805275 394.984134 
L 312.564254 386.788281 
L 311.463202 382.77057 
L 309.614313 374.87304 
L 309.045325 370.707264 
L 308.868274 366.612442 
L 308.921343 362.51759 
L 310.398398 354.521329 
L 311.597634 350.743822 
L 313.02412 347.108675 
L 314.845815 343.57724 
L 316.838638 340.142662 
L 318.99381 337.045291 
L 320.856843 333.902331 
L 324.762422 328.077727 
L 328.048516 322.639949 
L 329.516122 320.086824 
L 332.393885 312.562493 
L 333.400668 308.087555 
L 333.683064 306.080317 
L 333.778959 304.153384 
L 333.684866 298.285491 
L 333.849568 297.237977 
L 333.80646 296.35207 
L 334.075413 295.6943 
L 334.319564 294.120635 
L 334.57298 293.843187 
L 334.302083 294.304763 
L 333.890848 295.190848 
L 333.890848 295.190848 
" clip-path="url(#p04473dac68)" style="fill: none; stroke-dasharray: 5.55,2.4; stroke-dashoffset: 0; stroke: #000000; stroke-opacity: 0.5; stroke-width: 1.5"/>
   </g>
   <g id="line2d_35">
    <path d="M 348.594311 433 
L 347.746964 432.351518 
L 342.930581 426.751356 
L 341.600339 424.894728 
L 338.331773 417.337562 
L 337.218366 413.762438 
L 336.489486 409.903994 
L 335.673059 406.441213 
L 334.544612 398.817649 
L 333.929628 395.033913 
L 332.792982 387.223225 
L 332.026438 383.663786 
L 329.881674 374.739749 
L 328.916549 367.234423 
L 328.808513 363.268103 
L 329.06676 359.60217 
L 329.590175 355.747319 
L 331.554448 348.806121 
L 332.968353 345.561924 
L 337.071969 338.308475 
L 338.38911 336.35342 
L 342.474544 329.827013 
L 347.002509 322.362907 
L 349.335858 317.54615 
L 350.309811 315.197569 
L 351.042511 312.970157 
L 351.967753 308.860007 
L 351.967753 308.860007 
L 352.410489 305.243419 
L 352.477233 301.634526 
L 352.629918 299.471266 
L 352.929111 297.707853 
L 353.573735 295.635255 
L 353.123998 296.952227 
" clip-path="url(#p04473dac68)" style="fill: none; stroke: #4c72b0; stroke-opacity: 0.75; stroke-width: 1.5; stroke-linecap: round"/>
   </g>
   <g id="line2d_36">
    <path d="M 343.431867 433 
L 342.482329 430.271035 
L 338.356458 426.481184 
L 330.320759 412.041101 
L 328.97533 405.044566 
L 326.071973 404.330174 
L 325.223034 397.0809 
L 324.46702 389.665474 
L 322.177439 378.29787 
L 311.259463 367.761893 
L 311.38089 360.938848 
L 312.672622 354.360307 
L 315.073981 347.892339 
L 323.211852 330.622543 
L 325.967987 325.922719 
L 328.179864 321.420616 
L 329.899737 317.160632 
L 333.90111 304.328689 
L 334.100873 297.192553 
L 334.28584 295.630111 
L 334.588847 294.425415 
L 336.826941 290.996242 
L 336.667814 291.496635 
L 336.572636 291.766835 
L 333.860014 296.53071 
L 333.860014 296.53071 
" clip-path="url(#p04473dac68)" style="fill: none; stroke: #55a868; stroke-opacity: 0.75; stroke-width: 1.5; stroke-linecap: round"/>
   </g>
   <g id="line2d_37">
    <path d="M 350.800116 433 
L 350.298447 432.328477 
L 346.982395 424.625745 
L 345.834058 421.069375 
L 345.117916 417.167709 
L 344.268282 413.753688 
L 343.103681 406.145962 
L 342.472736 402.316304 
L 341.986242 398.477978 
L 341.336833 394.401504 
L 340.560384 390.82589 
L 338.340278 381.839518 
L 337.309308 374.259467 
L 337.184412 370.371768 
L 337.366816 366.666077 
L 337.95038 362.828274 
L 339.945565 355.852307 
L 341.420522 352.53615 
L 343.222582 349.199875 
L 346.781851 343.169331 
L 354.204347 331.441697 
L 355.623543 328.968393 
L 357.922885 324.197611 
L 358.832136 321.904709 
L 359.500622 319.595112 
L 360.529435 315.458555 
L 360.529435 315.458555 
L 360.972881 311.775237 
L 361.058439 308.20206 
L 361.286585 305.02241 
L 362.056068 302.297015 
L 362.096571 302.204873 
L 361.61767 303.532364 
L 361.61767 303.532364 
" clip-path="url(#p04473dac68)" style="fill: none; stroke: #c44e52; stroke-opacity: 0.75; stroke-width: 1.5; stroke-linecap: round"/>
   </g>
   <g id="patch_12">
    <path d="M 270.741696 358.34 
L 270.741696 232.041696 
" style="fill: none; stroke: #000000; stroke-width: 1.25; stroke-linejoin: miter; stroke-linecap: square"/>
   </g>
   <g id="patch_13">
    <path d="M 397.04 358.34 
L 397.04 232.041696 
" style="fill: none; stroke: #000000; stroke-width: 1.25; stroke-linejoin: miter; stroke-linecap: square"/>
   </g>
   <g id="patch_14">
    <path d="M 270.741696 358.34 
L 397.04 358.34 
" style="fill: none; stroke: #000000; stroke-width: 1.25; stroke-linejoin: miter; stroke-linecap: square"/>
   </g>
   <g id="patch_15">
    <path d="M 270.741696 232.041696 
L 397.04 232.041696 
" style="fill: none; stroke: #000000; stroke-width: 1.25; stroke-linejoin: miter; stroke-linecap: square"/>
   </g>
  </g>
 </g>
 <defs>
  <clipPath id="pf0ad683f28">
   <rect x="65.43" y="12.96" width="353.61" height="367.38"/>
  </clipPath>
  <clipPath id="p04473dac68">
   <rect x="270.741696" y="232.041696" width="126.298304" height="126.298304"/>
  </clipPath>
 </defs>
</svg>
