<?xml version="1.0" encoding="utf-8" standalone="no"?>
<!DOCTYPE svg PUBLIC "-//W3C//DTD SVG 1.1//EN"
  "http://www.w3.org/Graphics/SVG/1.1/DTD/svg11.dtd">
<svg xmlns:xlink="http://www.w3.org/1999/xlink" width="432pt" height="432pt" viewBox="0 0 432 432" xmlns="http://www.w3.org/2000/svg" version="1.1">
 <metadata>
  <rdf:RDF xmlns:dc="http://purl.org/dc/elements/1.1/" xmlns:cc="http://creativecommons.org/ns#" xmlns:rdf="http://www.w3.org/1999/02/22-rdf-syntax-ns#">
   <cc:Work>
    <dc:type rdf:resource="http://purl.org/dc/dcmitype/StillImage"/>
    <dc:date>2022-08-29T17:00:34.726639</dc:date>
    <dc:format>image/svg+xml</dc:format>
    <dc:creator>
     <cc:Agent>
      <dc:title>Matplotlib v3.5.3, https://matplotlib.org/</dc:title>
     </cc:Agent>
    </dc:creator>
   </cc:Work>
  </rdf:RDF>
 </metadata>
 <defs>
  <style type="text/css">*{stroke-linejoin: round; stroke-linecap: butt}</style>
 </defs>
 <g id="figure_1">
  <g id="patch_1">
   <path d="M 0 432 
L 432 432 
L 432 0 
L 0 0 
z
" style="fill: #ffffff"/>
  </g>
  <g id="axes_1">
   <g id="patch_2">
    <path d="M 65.43 380.34 
L 419.04 380.34 
L 419.04 13.192938 
L 65.43 13.192938 
z
" style="fill: #eaeaf2"/>
   </g>
   <g id="matplotlib.axis_1">
    <g id="xtick_1">
     <g id="line2d_1">
      <path d="M 89.384249 380.34 
L 89.384249 13.192938 
" clip-path="url(#p6d8a6232f9)" style="fill: none; stroke: #ffffff; stroke-linecap: round"/>
     </g>
     <g id="text_1">
      <!-- −140 -->
      <g style="fill: #262626" transform="translate(74.277295 398.198281)scale(0.11 -0.11)">
       <defs>
        <path id="DejaVuSans-2212" d="M 678 2272 
L 4684 2272 
L 4684 1741 
L 678 1741 
L 678 2272 
z
" transform="scale(0.015625)"/>
        <path id="DejaVuSans-31" d="M 794 531 
L 1825 531 
L 1825 4091 
L 703 3866 
L 703 4441 
L 1819 4666 
L 2450 4666 
L 2450 531 
L 3481 531 
L 3481 0 
L 794 0 
L 794 531 
z
" transform="scale(0.015625)"/>
        <path id="DejaVuSans-34" d="M 2419 4116 
L 825 1625 
L 2419 1625 
L 2419 4116 
z
M 2253 4666 
L 3047 4666 
L 3047 1625 
L 3713 1625 
L 3713 1100 
L 3047 1100 
L 3047 0 
L 2419 0 
L 2419 1100 
L 313 1100 
L 313 1709 
L 2253 4666 
z
" transform="scale(0.015625)"/>
        <path id="DejaVuSans-30" d="M 2034 4250 
Q 1547 4250 1301 3770 
Q 1056 3291 1056 2328 
Q 1056 1369 1301 889 
Q 1547 409 2034 409 
Q 2525 409 2770 889 
Q 3016 1369 3016 2328 
Q 3016 3291 2770 3770 
Q 2525 4250 2034 4250 
z
M 2034 4750 
Q 2819 4750 3233 4129 
Q 3647 3509 3647 2328 
Q 3647 1150 3233 529 
Q 2819 -91 2034 -91 
Q 1250 -91 836 529 
Q 422 1150 422 2328 
Q 422 3509 836 4129 
Q 1250 4750 2034 4750 
z
" transform="scale(0.015625)"/>
       </defs>
       <use xlink:href="#DejaVuSans-2212"/>
       <use xlink:href="#DejaVuSans-31" x="83.789062"/>
       <use xlink:href="#DejaVuSans-34" x="147.412109"/>
       <use xlink:href="#DejaVuSans-30" x="211.035156"/>
      </g>
     </g>
    </g>
    <g id="xtick_2">
     <g id="line2d_2">
      <path d="M 134.918977 380.34 
L 134.918977 13.192938 
" clip-path="url(#p6d8a6232f9)" style="fill: none; stroke: #ffffff; stroke-linecap: round"/>
     </g>
     <g id="text_2">
      <!-- −120 -->
      <g style="fill: #262626" transform="translate(119.812024 398.198281)scale(0.11 -0.11)">
       <defs>
        <path id="DejaVuSans-32" d="M 1228 531 
L 3431 531 
L 3431 0 
L 469 0 
L 469 531 
Q 828 903 1448 1529 
Q 2069 2156 2228 2338 
Q 2531 2678 2651 2914 
Q 2772 3150 2772 3378 
Q 2772 3750 2511 3984 
Q 2250 4219 1831 4219 
Q 1534 4219 1204 4116 
Q 875 4013 500 3803 
L 500 4441 
Q 881 4594 1212 4672 
Q 1544 4750 1819 4750 
Q 2544 4750 2975 4387 
Q 3406 4025 3406 3419 
Q 3406 3131 3298 2873 
Q 3191 2616 2906 2266 
Q 2828 2175 2409 1742 
Q 1991 1309 1228 531 
z
" transform="scale(0.015625)"/>
       </defs>
       <use xlink:href="#DejaVuSans-2212"/>
       <use xlink:href="#DejaVuSans-31" x="83.789062"/>
       <use xlink:href="#DejaVuSans-32" x="147.412109"/>
       <use xlink:href="#DejaVuSans-30" x="211.035156"/>
      </g>
     </g>
    </g>
    <g id="xtick_3">
     <g id="line2d_3">
      <path d="M 180.453706 380.34 
L 180.453706 13.192938 
" clip-path="url(#p6d8a6232f9)" style="fill: none; stroke: #ffffff; stroke-linecap: round"/>
     </g>
     <g id="text_3">
      <!-- −100 -->
      <g style="fill: #262626" transform="translate(165.346753 398.198281)scale(0.11 -0.11)">
       <use xlink:href="#DejaVuSans-2212"/>
       <use xlink:href="#DejaVuSans-31" x="83.789062"/>
       <use xlink:href="#DejaVuSans-30" x="147.412109"/>
       <use xlink:href="#DejaVuSans-30" x="211.035156"/>
      </g>
     </g>
    </g>
    <g id="xtick_4">
     <g id="line2d_4">
      <path d="M 225.988435 380.34 
L 225.988435 13.192938 
" clip-path="url(#p6d8a6232f9)" style="fill: none; stroke: #ffffff; stroke-linecap: round"/>
     </g>
     <g id="text_4">
      <!-- −80 -->
      <g style="fill: #262626" transform="translate(214.380856 398.198281)scale(0.11 -0.11)">
       <defs>
        <path id="DejaVuSans-38" d="M 2034 2216 
Q 1584 2216 1326 1975 
Q 1069 1734 1069 1313 
Q 1069 891 1326 650 
Q 1584 409 2034 409 
Q 2484 409 2743 651 
Q 3003 894 3003 1313 
Q 3003 1734 2745 1975 
Q 2488 2216 2034 2216 
z
M 1403 2484 
Q 997 2584 770 2862 
Q 544 3141 544 3541 
Q 544 4100 942 4425 
Q 1341 4750 2034 4750 
Q 2731 4750 3128 4425 
Q 3525 4100 3525 3541 
Q 3525 3141 3298 2862 
Q 3072 2584 2669 2484 
Q 3125 2378 3379 2068 
Q 3634 1759 3634 1313 
Q 3634 634 3220 271 
Q 2806 -91 2034 -91 
Q 1263 -91 848 271 
Q 434 634 434 1313 
Q 434 1759 690 2068 
Q 947 2378 1403 2484 
z
M 1172 3481 
Q 1172 3119 1398 2916 
Q 1625 2713 2034 2713 
Q 2441 2713 2670 2916 
Q 2900 3119 2900 3481 
Q 2900 3844 2670 4047 
Q 2441 4250 2034 4250 
Q 1625 4250 1398 4047 
Q 1172 3844 1172 3481 
z
" transform="scale(0.015625)"/>
       </defs>
       <use xlink:href="#DejaVuSans-2212"/>
       <use xlink:href="#DejaVuSans-38" x="83.789062"/>
       <use xlink:href="#DejaVuSans-30" x="147.412109"/>
      </g>
     </g>
    </g>
    <g id="xtick_5">
     <g id="line2d_5">
      <path d="M 271.523163 380.34 
L 271.523163 13.192938 
" clip-path="url(#p6d8a6232f9)" style="fill: none; stroke: #ffffff; stroke-linecap: round"/>
     </g>
     <g id="text_5">
      <!-- −60 -->
      <g style="fill: #262626" transform="translate(259.915585 398.198281)scale(0.11 -0.11)">
       <defs>
        <path id="DejaVuSans-36" d="M 2113 2584 
Q 1688 2584 1439 2293 
Q 1191 2003 1191 1497 
Q 1191 994 1439 701 
Q 1688 409 2113 409 
Q 2538 409 2786 701 
Q 3034 994 3034 1497 
Q 3034 2003 2786 2293 
Q 2538 2584 2113 2584 
z
M 3366 4563 
L 3366 3988 
Q 3128 4100 2886 4159 
Q 2644 4219 2406 4219 
Q 1781 4219 1451 3797 
Q 1122 3375 1075 2522 
Q 1259 2794 1537 2939 
Q 1816 3084 2150 3084 
Q 2853 3084 3261 2657 
Q 3669 2231 3669 1497 
Q 3669 778 3244 343 
Q 2819 -91 2113 -91 
Q 1303 -91 875 529 
Q 447 1150 447 2328 
Q 447 3434 972 4092 
Q 1497 4750 2381 4750 
Q 2619 4750 2861 4703 
Q 3103 4656 3366 4563 
z
" transform="scale(0.015625)"/>
       </defs>
       <use xlink:href="#DejaVuSans-2212"/>
       <use xlink:href="#DejaVuSans-36" x="83.789062"/>
       <use xlink:href="#DejaVuSans-30" x="147.412109"/>
      </g>
     </g>
    </g>
    <g id="xtick_6">
     <g id="line2d_6">
      <path d="M 317.057892 380.34 
L 317.057892 13.192938 
" clip-path="url(#p6d8a6232f9)" style="fill: none; stroke: #ffffff; stroke-linecap: round"/>
     </g>
     <g id="text_6">
      <!-- −40 -->
      <g style="fill: #262626" transform="translate(305.450314 398.198281)scale(0.11 -0.11)">
       <use xlink:href="#DejaVuSans-2212"/>
       <use xlink:href="#DejaVuSans-34" x="83.789062"/>
       <use xlink:href="#DejaVuSans-30" x="147.412109"/>
      </g>
     </g>
    </g>
    <g id="xtick_7">
     <g id="line2d_7">
      <path d="M 362.592621 380.34 
L 362.592621 13.192938 
" clip-path="url(#p6d8a6232f9)" style="fill: none; stroke: #ffffff; stroke-linecap: round"/>
     </g>
     <g id="text_7">
      <!-- −20 -->
      <g style="fill: #262626" transform="translate(350.985042 398.198281)scale(0.11 -0.11)">
       <use xlink:href="#DejaVuSans-2212"/>
       <use xlink:href="#DejaVuSans-32" x="83.789062"/>
       <use xlink:href="#DejaVuSans-30" x="147.412109"/>
      </g>
     </g>
    </g>
    <g id="xtick_8">
     <g id="line2d_8">
      <path d="M 408.127349 380.34 
L 408.127349 13.192938 
" clip-path="url(#p6d8a6232f9)" style="fill: none; stroke: #ffffff; stroke-linecap: round"/>
     </g>
     <g id="text_8">
      <!-- 0 -->
      <g style="fill: #262626" transform="translate(404.627974 398.198281)scale(0.11 -0.11)">
       <use xlink:href="#DejaVuSans-30"/>
      </g>
     </g>
    </g>
    <g id="text_9">
     <!-- $x$ (m) -->
     <g style="fill: #262626" transform="translate(226.215 413.604063)scale(0.12 -0.12)">
      <defs>
       <path id="DejaVuSans-Oblique-78" d="M 3841 3500 
L 2234 1784 
L 3219 0 
L 2559 0 
L 1819 1388 
L 531 0 
L -166 0 
L 1556 1844 
L 641 3500 
L 1300 3500 
L 1972 2234 
L 3144 3500 
L 3841 3500 
z
" transform="scale(0.015625)"/>
       <path id="DejaVuSans-20" transform="scale(0.015625)"/>
       <path id="DejaVuSans-28" d="M 1984 4856 
Q 1566 4138 1362 3434 
Q 1159 2731 1159 2009 
Q 1159 1288 1364 580 
Q 1569 -128 1984 -844 
L 1484 -844 
Q 1016 -109 783 600 
Q 550 1309 550 2009 
Q 550 2706 781 3412 
Q 1013 4119 1484 4856 
L 1984 4856 
z
" transform="scale(0.015625)"/>
       <path id="DejaVuSans-6d" d="M 3328 2828 
Q 3544 3216 3844 3400 
Q 4144 3584 4550 3584 
Q 5097 3584 5394 3201 
Q 5691 2819 5691 2113 
L 5691 0 
L 5113 0 
L 5113 2094 
Q 5113 2597 4934 2840 
Q 4756 3084 4391 3084 
Q 3944 3084 3684 2787 
Q 3425 2491 3425 1978 
L 3425 0 
L 2847 0 
L 2847 2094 
Q 2847 2600 2669 2842 
Q 2491 3084 2119 3084 
Q 1678 3084 1418 2786 
Q 1159 2488 1159 1978 
L 1159 0 
L 581 0 
L 581 3500 
L 1159 3500 
L 1159 2956 
Q 1356 3278 1631 3431 
Q 1906 3584 2284 3584 
Q 2666 3584 2933 3390 
Q 3200 3197 3328 2828 
z
" transform="scale(0.015625)"/>
       <path id="DejaVuSans-29" d="M 513 4856 
L 1013 4856 
Q 1481 4119 1714 3412 
Q 1947 2706 1947 2009 
Q 1947 1309 1714 600 
Q 1481 -109 1013 -844 
L 513 -844 
Q 928 -128 1133 580 
Q 1338 1288 1338 2009 
Q 1338 2731 1133 3434 
Q 928 4138 513 4856 
z
" transform="scale(0.015625)"/>
      </defs>
      <use xlink:href="#DejaVuSans-Oblique-78" transform="translate(0 0.125)"/>
      <use xlink:href="#DejaVuSans-20" transform="translate(59.179688 0.125)"/>
      <use xlink:href="#DejaVuSans-28" transform="translate(90.966797 0.125)"/>
      <use xlink:href="#DejaVuSans-6d" transform="translate(129.980469 0.125)"/>
      <use xlink:href="#DejaVuSans-29" transform="translate(227.392578 0.125)"/>
     </g>
    </g>
   </g>
   <g id="matplotlib.axis_2">
    <g id="ytick_1">
     <g id="line2d_9">
      <path d="M 65.43 336.357835 
L 419.04 336.357835 
" clip-path="url(#p6d8a6232f9)" style="fill: none; stroke: #ffffff; stroke-linecap: round"/>
     </g>
     <g id="text_10">
      <!-- −60 -->
      <g style="fill: #262626" transform="translate(32.714844 340.536976)scale(0.11 -0.11)">
       <use xlink:href="#DejaVuSans-2212"/>
       <use xlink:href="#DejaVuSans-36" x="83.789062"/>
       <use xlink:href="#DejaVuSans-30" x="147.412109"/>
      </g>
     </g>
    </g>
    <g id="ytick_2">
     <g id="line2d_10">
      <path d="M 65.43 290.775893 
L 419.04 290.775893 
" clip-path="url(#p6d8a6232f9)" style="fill: none; stroke: #ffffff; stroke-linecap: round"/>
     </g>
     <g id="text_11">
      <!-- −40 -->
      <g style="fill: #262626" transform="translate(32.714844 294.955033)scale(0.11 -0.11)">
       <use xlink:href="#DejaVuSans-2212"/>
       <use xlink:href="#DejaVuSans-34" x="83.789062"/>
       <use xlink:href="#DejaVuSans-30" x="147.412109"/>
      </g>
     </g>
    </g>
    <g id="ytick_3">
     <g id="line2d_11">
      <path d="M 65.43 245.19395 
L 419.04 245.19395 
" clip-path="url(#p6d8a6232f9)" style="fill: none; stroke: #ffffff; stroke-linecap: round"/>
     </g>
     <g id="text_12">
      <!-- −20 -->
      <g style="fill: #262626" transform="translate(32.714844 249.373091)scale(0.11 -0.11)">
       <use xlink:href="#DejaVuSans-2212"/>
       <use xlink:href="#DejaVuSans-32" x="83.789062"/>
       <use xlink:href="#DejaVuSans-30" x="147.412109"/>
      </g>
     </g>
    </g>
    <g id="ytick_4">
     <g id="line2d_12">
      <path d="M 65.43 199.612008 
L 419.04 199.612008 
" clip-path="url(#p6d8a6232f9)" style="fill: none; stroke: #ffffff; stroke-linecap: round"/>
     </g>
     <g id="text_13">
      <!-- 0 -->
      <g style="fill: #262626" transform="translate(48.93125 203.791148)scale(0.11 -0.11)">
       <use xlink:href="#DejaVuSans-30"/>
      </g>
     </g>
    </g>
    <g id="ytick_5">
     <g id="line2d_13">
      <path d="M 65.43 154.030065 
L 419.04 154.030065 
" clip-path="url(#p6d8a6232f9)" style="fill: none; stroke: #ffffff; stroke-linecap: round"/>
     </g>
     <g id="text_14">
      <!-- 20 -->
      <g style="fill: #262626" transform="translate(41.9325 158.209206)scale(0.11 -0.11)">
       <use xlink:href="#DejaVuSans-32"/>
       <use xlink:href="#DejaVuSans-30" x="63.623047"/>
      </g>
     </g>
    </g>
    <g id="ytick_6">
     <g id="line2d_14">
      <path d="M 65.43 108.448123 
L 419.04 108.448123 
" clip-path="url(#p6d8a6232f9)" style="fill: none; stroke: #ffffff; stroke-linecap: round"/>
     </g>
     <g id="text_15">
      <!-- 40 -->
      <g style="fill: #262626" transform="translate(41.9325 112.627263)scale(0.11 -0.11)">
       <use xlink:href="#DejaVuSans-34"/>
       <use xlink:href="#DejaVuSans-30" x="63.623047"/>
      </g>
     </g>
    </g>
    <g id="ytick_7">
     <g id="line2d_15">
      <path d="M 65.43 62.86618 
L 419.04 62.86618 
" clip-path="url(#p6d8a6232f9)" style="fill: none; stroke: #ffffff; stroke-linecap: round"/>
     </g>
     <g id="text_16">
      <!-- 60 -->
      <g style="fill: #262626" transform="translate(41.9325 67.045321)scale(0.11 -0.11)">
       <use xlink:href="#DejaVuSans-36"/>
       <use xlink:href="#DejaVuSans-30" x="63.623047"/>
      </g>
     </g>
    </g>
    <g id="ytick_8">
     <g id="line2d_16">
      <path d="M 65.43 17.284238 
L 419.04 17.284238 
" clip-path="url(#p6d8a6232f9)" style="fill: none; stroke: #ffffff; stroke-linecap: round"/>
     </g>
     <g id="text_17">
      <!-- 80 -->
      <g style="fill: #262626" transform="translate(41.9325 21.463378)scale(0.11 -0.11)">
       <use xlink:href="#DejaVuSans-38"/>
       <use xlink:href="#DejaVuSans-30" x="63.623047"/>
      </g>
     </g>
    </g>
    <g id="text_18">
     <!-- $y$ (m) -->
     <g style="fill: #262626" transform="translate(26.194844 212.786469)rotate(-90)scale(0.12 -0.12)">
      <defs>
       <path id="DejaVuSans-Oblique-79" d="M 1588 -325 
Q 1188 -997 936 -1164 
Q 684 -1331 294 -1331 
L -159 -1331 
L -63 -850 
L 269 -850 
Q 509 -850 678 -719 
Q 847 -588 1056 -206 
L 1234 128 
L 459 3500 
L 1069 3500 
L 1650 819 
L 3256 3500 
L 3859 3500 
L 1588 -325 
z
" transform="scale(0.015625)"/>
      </defs>
      <use xlink:href="#DejaVuSans-Oblique-79" transform="translate(0 0.125)"/>
      <use xlink:href="#DejaVuSans-20" transform="translate(59.179688 0.125)"/>
      <use xlink:href="#DejaVuSans-28" transform="translate(90.966797 0.125)"/>
      <use xlink:href="#DejaVuSans-6d" transform="translate(129.980469 0.125)"/>
      <use xlink:href="#DejaVuSans-29" transform="translate(227.392578 0.125)"/>
     </g>
    </g>
   </g>
   <g id="patch_3">
    <path d="M 63.923801 214.687974 
L 86.691165 214.687974 
L 86.691165 191.897002 
L 63.923801 191.897002 
L 63.923801 214.687974 
z
" clip-path="url(#p6d8a6232f9)" style="fill: none; stroke: #808080; stroke-linejoin: miter"/>
   </g>
   <g id="line2d_17">
    <path d="M 408.127349 199.612008 
L 408.148285 199.611167 
L 406.006434 199.627316 
L 404.43433 199.36337 
L 401.992597 198.408471 
L 400.26955 198.315512 
L 398.572082 198.677333 
L 396.00912 198.75872 
L 393.12322 198.836956 
L 392.312288 198.963006 
L 379.924575 199.482661 
L 377.88044 199.435471 
L 371.205477 199.315811 
L 366.967276 199.271921 
L 365.487769 199.392053 
L 354.523749 199.412052 
L 352.616535 199.783967 
L 351.368045 200.052461 
L 349.072846 200.183087 
L 347.924296 200.084459 
L 346.779745 199.787435 
L 341.662382 199.578305 
L 340.566185 199.608838 
L 339.411731 199.556866 
L 337.233414 199.605575 
L 333.888314 199.527899 
L 331.639433 199.594568 
L 329.255454 199.644181 
L 326.82773 199.770869 
L 324.459319 199.769387 
L 322.104846 199.850358 
L 320.890504 199.796756 
L 316.153475 199.751229 
L 314.372444 199.896457 
L 310.317921 199.869351 
L 304.651744 200.045255 
L 302.864224 200.055085 
L 301.705928 200.088159 
L 289.828222 200.125556 
L 288.113473 200.148656 
L 283.31707 200.111208 
L 277.20669 200.26677 
L 276.016525 200.350611 
L 271.728421 200.443106 
L 265.976698 200.395218 
L 265.06615 200.397478 
L 263.270205 200.367952 
L 257.476097 200.452792 
L 256.538331 200.55648 
L 250.634481 200.720856 
L 248.908866 200.790514 
L 246.790647 200.777659 
L 245.600311 200.887625 
L 245.033363 200.852999 
L 242.908837 200.801248 
L 242.392547 200.891957 
L 240.924902 200.757815 
L 239.811624 200.809078 
L 238.986056 200.693801 
L 238.078551 200.650613 
L 237.622959 200.737912 
L 237.124277 200.711408 
L 236.401689 200.904985 
L 234.852619 200.870333 
L 234.054836 200.924596 
L 233.233829 200.846915 
L 232.826163 200.895993 
L 232.118872 200.752764 
L 231.620714 200.788215 
L 227.924382 200.862328 
L 225.187452 200.832345 
L 222.721673 200.876947 
L 221.199241 200.857583 
L 220.867539 200.831922 
L 220.621825 200.937787 
L 214.747909 200.865953 
L 213.776001 200.974853 
L 211.626255 201.048593 
L 210.693878 200.972878 
L 209.779213 201.038688 
L 208.78749 201.022455 
L 208.2968 201.127166 
L 207.244867 201.054937 
L 205.804644 201.090751 
L 204.994238 201.138018 
L 204.666943 201.157536 
L 204.158991 201.028025 
L 202.791926 201.093128 
L 202.800506 201.036835 
L 199.724706 201.002541 
L 199.288541 200.935161 
L 198.501529 201.035574 
L 197.66139 201.115531 
L 196.781843 201.286135 
L 194.739 201.456426 
L 194.088359 201.352268 
L 192.585408 201.509863 
L 190.065727 201.537367 
L 189.462818 201.615793 
L 174.666183 201.224331 
L 173.597063 201.494771 
L 171.476847 201.457863 
L 170.328334 201.480606 
L 169.532724 201.497411 
L 168.884994 201.547964 
L 168.282376 201.523998 
L 161.807066 201.578674 
L 161.428141 201.485902 
L 161.067988 201.570073 
L 159.145204 201.553586 
L 157.221341 201.520222 
L 156.54982 201.519728 
L 152.323124 201.468104 
L 145.674287 201.670984 
L 145.026727 201.853858 
L 142.266496 202.223739 
L 132.969855 201.738969 
L 131.807996 201.808219 
L 131.042964 201.69754 
L 129.049684 201.625272 
L 128.051685 201.586162 
L 125.780966 201.364178 
L 123.480889 201.596284 
L 122.480325 201.860525 
L 121.207111 201.790154 
L 120.555875 201.873927 
L 119.94537 201.819041 
L 119.644623 201.911154 
L 118.906137 201.820395 
L 117.476396 201.846313 
L 116.111436 201.806958 
L 115.62024 201.919246 
L 113.130725 201.892587 
L 110.850805 202.004161 
L 109.137789 202.152465 
L 108.593058 202.21184 
L 107.407857 202.137347 
L 106.847017 202.186706 
L 105.598936 202.012759 
L 103.978888 202.157461 
L 99.401708 202.062111 
L 97.563652 202.292591 
L 95.517194 202.431214 
L 83.227065 202.279195 
L 82.052358 202.458173 
L 80.404639 202.92047 
L 78.760507 203.222288 
L 76.324712 203.186604 
L 75.307483 203.292488 
L 75.307483 203.292488 
" clip-path="url(#p6d8a6232f9)" style="fill: none; stroke-dasharray: 5.55,2.4; stroke-dashoffset: 0; stroke: #000000; stroke-opacity: 0.5; stroke-width: 1.5"/>
   </g>
   <g id="line2d_18">
    <path d="M 403.184626 199.745913 
L 403.093207 199.743264 
L 402.214191 199.767715 
L 400.63208 199.619808 
L 399.459005 199.276032 
L 398.110801 198.738749 
L 397.325842 198.523949 
L 395.952921 198.396895 
L 394.009562 198.731734 
L 389.509443 198.724809 
L 387.431647 198.995645 
L 386.180405 198.979952 
L 383.754938 199.167128 
L 379.928403 199.321786 
L 379.569163 199.426134 
L 378.740654 199.384161 
L 378.360083 199.440809 
L 376.745631 199.425219 
L 375.188398 199.468305 
L 372.726294 199.406567 
L 371.568818 199.425415 
L 371.193111 199.350053 
L 370.381587 199.355315 
L 368.252292 199.349348 
L 365.779628 199.336759 
L 364.818291 199.314361 
L 363.411051 199.287569 
L 361.821611 199.397915 
L 351.195287 199.480447 
L 350.569996 199.557779 
L 348.033868 200.048321 
L 345.33604 200.122327 
L 342.686021 199.68751 
L 339.852751 199.707115 
L 338.739611 199.610945 
L 337.652922 199.628085 
L 336.604631 199.597432 
L 336.107682 199.640819 
L 326.625703 199.647751 
L 325.457341 199.694493 
L 322.590332 199.822126 
L 321.291852 199.818198 
L 320.153361 199.879854 
L 317.869309 199.775991 
L 315.417867 199.771394 
L 313.732214 199.779021 
L 312.635992 199.912234 
L 310.961426 199.899641 
L 305.345695 199.928998 
L 304.254121 200.019216 
L 303.174356 200.024382 
L 299.119247 200.089867 
L 283.803286 200.146983 
L 282.084016 200.107931 
L 280.966588 200.231842 
L 278.441951 200.242325 
L 277.274107 200.281579 
L 273.226426 200.432392 
L 271.357679 200.481942 
L 270.279137 200.467128 
L 260.257025 200.369749 
L 259.28713 200.445264 
L 251.294396 200.685613 
L 249.65855 200.84006 
L 246.450374 200.86571 
L 245.713129 200.925034 
L 239.723265 200.857578 
L 239.159253 200.715108 
L 237.097817 200.808724 
L 236.728262 200.960971 
L 231.501729 200.817582 
L 230.945218 200.930456 
L 230.264474 200.852976 
L 229.165742 200.882546 
L 228.805385 200.798141 
L 228.076556 200.878729 
L 226.122221 200.901586 
L 225.172154 200.888827 
L 224.889788 200.952089 
L 223.87202 200.890669 
L 222.772512 200.960146 
L 222.284632 200.870373 
L 221.018803 201.020303 
L 220.730643 200.892975 
L 217.175834 200.873346 
L 216.696409 200.75853 
L 215.387718 200.951272 
L 213.870966 201.055722 
L 213.281361 200.944117 
L 212.358196 201.030673 
L 211.835853 200.985369 
L 209.112103 201.113462 
L 208.14774 201.072602 
L 203.396859 201.078249 
L 202.303905 201.050088 
L 201.316188 201.071959 
L 200.45376 200.987432 
L 200.096093 201.082055 
L 199.274676 201.106082 
L 197.291301 201.381103 
L 197.000009 201.327309 
L 196.479857 201.522885 
L 195.715059 201.344075 
L 194.327273 201.439479 
L 193.636338 201.504863 
L 193.249268 201.439988 
L 192.914548 201.515123 
L 192.106955 201.479166 
L 190.72229 201.617164 
L 190.178769 201.614148 
L 188.448648 201.443785 
L 187.305559 201.485468 
L 182.725129 201.319578 
L 182.037957 201.25525 
L 181.189684 201.273649 
L 180.651613 201.281108 
L 180.244728 201.308525 
L 177.051994 201.209135 
L 174.523904 201.433297 
L 173.250431 201.416101 
L 164.219969 201.517806 
L 162.765898 201.511795 
L 161.587538 201.55516 
L 158.743081 201.460361 
L 157.56679 201.464835 
L 155.609151 201.466016 
L 154.945369 201.441952 
L 148.530113 201.659748 
L 148.217098 201.80719 
L 145.189357 202.148796 
L 140.396996 201.950067 
L 139.51311 201.914223 
L 136.501716 201.699659 
L 136.204885 201.764077 
L 132.266199 201.591775 
L 131.84003 201.6511 
L 130.216132 201.400461 
L 129.079654 201.356358 
L 128.026802 201.449981 
L 126.151667 201.789574 
L 124.547835 201.721985 
L 124.239633 201.815596 
L 123.34979 201.744883 
L 122.833653 201.806913 
L 122.599925 201.834307 
L 122.248559 201.696996 
L 121.987438 201.834878 
L 120.857536 201.792654 
L 119.950374 201.750873 
L 117.709195 201.897269 
L 117.004454 201.803462 
L 115.921292 201.857576 
L 114.728015 201.847823 
L 114.193774 201.964594 
L 113.122095 201.950019 
L 112.650663 202.092784 
L 110.804535 202.107944 
L 109.63649 201.905727 
L 108.611868 202.056849 
L 107.988343 202.144742 
L 107.448422 202.028307 
L 107.074645 202.126101 
L 104.861147 202.03753 
L 102.851401 202.039215 
L 101.719453 202.158215 
L 97.985377 202.350111 
L 97.39551 202.284162 
L 96.372812 202.356538 
L 95.646961 202.285481 
L 94.772945 202.341484 
L 93.710586 202.258452 
L 91.821097 202.157191 
L 90.95761 202.303305 
L 90.502355 202.221012 
L 88.267309 202.062401 
L 87.226729 202.234594 
L 86.182765 202.414499 
L 84.535466 202.782062 
L 83.355432 203.008154 
L 79.962589 203.099289 
L 79.74267 203.14177 
L 79.74267 203.14177 
" clip-path="url(#p6d8a6232f9)" style="fill: none; stroke: #4c72b0; stroke-opacity: 0.75; stroke-width: 1.5; stroke-linecap: round"/>
   </g>
   <g id="line2d_19">
    <path d="M 405.336164 201.359151 
L 405.334893 201.35906 
L 405.343965 201.358787 
L 406.684484 204.6425 
L 406.774484 204.607032 
L 407.169074 202.002987 
L 407.43197 201.881381 
L 405.918441 201.295795 
L 406.177147 201.387708 
L 406.679887 201.325455 
L 406.830096 201.14841 
L 409.226115 200.883128 
L 407.797979 198.819115 
L 409.64775 197.767875 
L 410.029715 197.467039 
L 405.61957 193.877771 
L 406.125436 188.727741 
L 396.756625 191.799471 
L 395.440593 190.72256 
L 389.370069 199.652253 
L 386.334032 199.743706 
L 382.572509 200.425617 
L 381.077067 200.46009 
L 379.642197 200.534578 
L 378.72162 201.395758 
L 376.105795 201.56201 
L 376.067287 200.172506 
L 369.307331 200.16678 
L 367.216143 198.886549 
L 364.351152 198.824613 
L 362.618026 198.793223 
L 359.121948 200.531047 
L 356.012372 200.590272 
L 354.921462 200.678014 
L 353.743883 199.766484 
L 351.711186 199.975911 
L 349.667018 199.878066 
L 347.740828 197.526208 
L 345.148786 197.346432 
L 343.488928 196.687695 
L 342.111622 196.671989 
L 338.549575 196.418607 
L 336.534642 196.862687 
L 332.99505 196.706054 
L 330.400855 198.926712 
L 327.317945 199.07824 
L 326.266044 199.108369 
L 323.9618 199.851136 
L 321.88648 199.932171 
L 319.64692 199.923761 
L 312.102883 200.571382 
L 311.283519 201.45001 
L 307.726851 201.705406 
L 306.173785 200.431735 
L 301.350786 200.65549 
L 300.182367 199.83157 
L 298.105767 199.91508 
L 296.323601 199.961795 
L 295.019042 197.987206 
L 292.9565 197.961524 
L 290.899318 197.938844 
L 287.798886 198.192655 
L 284.565714 198.066021 
L 282.818952 199.836588 
L 280.996038 199.834946 
L 279.875663 200.019727 
L 278.807125 200.048548 
L 277.415322 200.766598 
L 275.210286 200.835843 
L 272.467954 201.067617 
L 270.762805 200.1951 
L 269.760772 200.215852 
L 265.165258 199.68576 
L 263.524251 199.663386 
L 262.087284 199.699899 
L 261.050952 200.745347 
L 257.594869 200.964108 
L 255.410019 201.620534 
L 252.530935 201.855362 
L 251.522952 202.008004 
L 248.915177 202.898967 
L 247.430297 203.128237 
L 246.761042 203.231527 
L 245.791639 201.791694 
L 243.799197 201.766669 
L 243.297857 201.918757 
L 243.596297 202.200603 
L 241.806467 202.169581 
L 240.030585 200.960465 
L 238.506188 201.095235 
L 237.880974 201.258822 
L 237.199113 201.256103 
L 235.516709 199.90595 
L 234.069651 199.827493 
L 233.002896 199.766748 
L 231.960998 200.830499 
L 229.006592 200.902113 
L 227.56489 201.806244 
L 225.232905 202.002143 
L 224.424831 201.645435 
L 223.003724 201.752305 
L 221.931615 201.697724 
L 221.391897 201.844652 
L 220.085356 200.626423 
L 218.47673 200.553246 
L 216.980202 200.625082 
L 215.426888 201.120713 
L 213.669718 201.320888 
L 212.571556 201.274184 
L 211.519149 201.529174 
L 210.875043 201.541079 
L 208.646803 203.750322 
L 207.539081 203.772029 
L 203.65613 204.264017 
L 201.732908 204.202544 
L 199.410648 204.228363 
L 197.805603 204.805197 
L 196.498022 204.618636 
L 195.469551 204.708211 
L 194.562573 202.640932 
L 192.651212 202.634851 
L 193.221391 202.39005 
L 189.036887 202.4281 
L 189.635645 203.34827 
L 187.406948 203.429031 
L 187.091349 203.59749 
L 185.41939 203.502555 
L 186.486168 203.308818 
L 187.639216 202.185441 
L 187.008749 202.299063 
L 186.361757 202.282822 
L 184.710779 202.525303 
L 184.478041 204.2878 
L 182.746785 204.357667 
L 182.22872 203.764327 
L 181.838882 203.847432 
L 180.386359 203.898232 
L 180.867645 204.251947 
L 176.713274 204.540607 
L 176.168456 203.686629 
L 174.726792 203.703841 
L 174.660962 203.545879 
L 173.437757 203.603834 
L 172.775427 203.672635 
L 171.824578 203.970246 
L 172.03849 202.865029 
L 169.62027 202.877557 
L 169.855282 202.675749 
L 168.334905 202.702772 
L 167.865656 201.339309 
L 166.238734 201.296604 
L 165.103659 201.368577 
L 162.722182 201.331837 
L 160.33391 201.186504 
L 157.490563 200.594357 
L 152.636857 200.454813 
L 144.463511 199.835775 
L 143.159425 202.095597 
L 140.926596 202.101301 
L 131.659436 200.099126 
L 129.72102 199.775808 
L 128.072363 199.220473 
L 127.04938 198.971954 
L 127.22561 198.987638 
L 128.598529 202.728879 
L 128.589819 202.729226 
L 128.393204 202.71096 
L 127.027745 200.599056 
L 124.913274 199.811748 
L 122.681875 199.301244 
L 122.884728 199.826348 
L 120.242325 199.710168 
L 119.179371 199.326751 
L 118.107553 199.104267 
L 119.392423 199.937071 
L 116.827928 199.34864 
L 116.301974 198.948296 
L 115.574478 198.538098 
L 114.490113 198.369145 
L 111.398177 197.676633 
L 113.157112 200.891229 
L 110.011077 200.289425 
L 108.642718 200.24608 
L 107.124355 199.859539 
L 108.692938 201.709754 
L 106.957695 201.103725 
L 105.507047 201.027058 
L 104.175745 200.658355 
L 103.046961 200.50574 
L 100.807327 202.498662 
L 97.691512 202.243034 
L 95.927263 202.205026 
L 96.082875 202.330197 
L 94.400753 202.012117 
L 92.952461 201.94957 
L 91.857159 201.699975 
L 90.570802 201.596529 
L 89.234299 201.261809 
L 89.477319 202.451526 
L 88.188073 202.107666 
L 86.974367 202.127015 
L 84.687353 201.416854 
L 81.753624 201.324945 
L 80.339909 201.432495 
L 77.860504 201.37069 
L 77.944157 200.705651 
L 74.440285 200.169514 
L 74.440285 200.169514 
" clip-path="url(#p6d8a6232f9)" style="fill: none; stroke: #55a868; stroke-opacity: 0.75; stroke-width: 1.5; stroke-linecap: round"/>
   </g>
   <g id="line2d_20">
    <path d="M 402.978454 199.741548 
L 402.47866 199.769662 
L 400.162303 199.544288 
L 399.572878 199.36973 
L 397.16154 198.524285 
L 395.791556 198.396352 
L 393.854228 198.742594 
L 388.971163 198.795035 
L 387.236849 199.005464 
L 385.964064 198.990166 
L 383.937107 199.151199 
L 378.132783 199.469321 
L 376.527448 199.451199 
L 374.937714 199.478464 
L 371.703661 199.428986 
L 370.549618 199.429998 
L 369.70139 199.401557 
L 367.578646 199.375958 
L 366.789598 199.369268 
L 363.637259 199.300609 
L 358.448408 199.470721 
L 356.643986 199.439592 
L 353.228982 199.4567 
L 350.326959 199.565921 
L 347.776672 200.067801 
L 345.567509 200.15558 
L 344.525709 200.047879 
L 343.98385 199.881675 
L 340.666953 199.676858 
L 339.567774 199.73044 
L 338.466549 199.628273 
L 337.377204 199.638535 
L 336.351997 199.613527 
L 335.858469 199.661353 
L 324.587872 199.74587 
L 322.366564 199.838925 
L 321.063748 199.833577 
L 319.945595 199.897285 
L 317.701256 199.78969 
L 315.304458 199.786076 
L 313.6418 199.789394 
L 312.55047 199.920456 
L 309.784974 199.893357 
L 290.463418 200.127339 
L 288.844285 200.139203 
L 284.272296 200.173672 
L 281.912842 200.103856 
L 280.795725 200.241782 
L 278.286225 200.232075 
L 277.107026 200.293236 
L 273.639681 200.404258 
L 269.018166 200.465466 
L 265.955503 200.448701 
L 262.065276 200.391466 
L 261.61021 200.341997 
L 254.325561 200.619305 
L 252.336437 200.634647 
L 251.318186 200.679052 
L 249.695241 200.821448 
L 246.468511 200.853954 
L 245.727806 200.920953 
L 239.787455 200.841204 
L 239.230433 200.710519 
L 237.128981 200.795049 
L 236.76951 200.950325 
L 234.842457 200.904755 
L 234.109695 200.942667 
L 233.290013 200.901863 
L 232.943131 200.899161 
L 232.612377 200.777069 
L 231.016854 200.912358 
L 230.325063 200.837806 
L 229.243281 200.865946 
L 228.876778 200.792008 
L 228.16668 200.865789 
L 225.828116 200.844928 
L 223.547578 200.925179 
L 222.779273 200.941082 
L 222.284206 200.843434 
L 221.015361 200.995203 
L 220.726829 200.867144 
L 218.703952 200.81549 
L 215.860452 200.876733 
L 213.894137 201.023315 
L 213.323996 200.918312 
L 212.407712 200.997227 
L 211.853536 200.959404 
L 210.475437 200.994367 
L 210.010256 200.96792 
L 209.559694 201.113395 
L 207.711648 201.054541 
L 203.407602 201.054142 
L 202.319545 201.026274 
L 201.338211 201.043201 
L 200.467684 200.960504 
L 200.091969 201.054162 
L 199.289005 201.089048 
L 196.461168 201.516019 
L 195.704463 201.305623 
L 191.495422 201.528404 
L 190.940569 201.561307 
L 189.778674 201.540632 
L 189.073861 201.494665 
L 179.884665 201.25742 
L 179.692009 201.31009 
L 179.166201 201.208879 
L 176.606812 201.225515 
L 175.187533 201.440087 
L 173.203357 201.383815 
L 161.332712 201.533574 
L 158.657462 201.45098 
L 156.252212 201.496192 
L 155.560392 201.453811 
L 154.87865 201.416986 
L 148.487671 201.639417 
L 148.186123 201.779006 
L 145.146629 202.146274 
L 140.388122 201.932581 
L 139.811751 201.943019 
L 138.392663 201.765843 
L 137.753342 201.767778 
L 136.518065 201.690995 
L 136.214159 201.776051 
L 133.066917 201.551792 
L 131.983991 201.650914 
L 130.395158 201.41656 
L 129.231026 201.381494 
L 128.18375 201.455844 
L 126.351409 201.830189 
L 125.143405 201.732175 
L 122.86645 201.852748 
L 122.510831 201.721974 
L 122.221488 201.863609 
L 121.520021 201.77336 
L 120.642108 201.767902 
L 119.766898 201.805226 
L 119.286973 201.908723 
L 118.661027 201.799984 
L 117.982238 201.914538 
L 117.336213 201.830699 
L 115.742246 201.864302 
L 113.577915 201.991618 
L 113.106506 202.148888 
L 111.324861 202.168904 
L 110.153962 201.96683 
L 109.048782 202.12143 
L 108.527393 202.205902 
L 107.983117 202.091085 
L 107.601849 202.186068 
L 106.558976 202.070085 
L 101.124864 202.294431 
L 100.468128 202.389471 
L 99.343031 202.354588 
L 97.114274 202.391362 
L 96.38909 202.318721 
L 94.978941 202.296877 
L 87.997 202.279197 
L 86.954996 202.450435 
L 85.341577 202.838838 
L 84.152568 203.07879 
L 81.065686 203.126495 
L 80.543524 203.180234 
L 80.543524 203.180234 
" clip-path="url(#p6d8a6232f9)" style="fill: none; stroke: #c44e52; stroke-opacity: 0.75; stroke-width: 1.5; stroke-linecap: round"/>
   </g>
   <g id="patch_4">
    <path d="M 65.43 380.34 
L 65.43 13.192938 
" style="fill: none; stroke: #ffffff; stroke-width: 1.25; stroke-linejoin: miter; stroke-linecap: square"/>
   </g>
   <g id="patch_5">
    <path d="M 419.04 380.34 
L 419.04 13.192938 
" style="fill: none; stroke: #ffffff; stroke-width: 1.25; stroke-linejoin: miter; stroke-linecap: square"/>
   </g>
   <g id="patch_6">
    <path d="M 65.43 380.34 
L 419.04 380.34 
" style="fill: none; stroke: #ffffff; stroke-width: 1.25; stroke-linejoin: miter; stroke-linecap: square"/>
   </g>
   <g id="patch_7">
    <path d="M 65.43 13.192938 
L 419.04 13.192938 
" style="fill: none; stroke: #ffffff; stroke-width: 1.25; stroke-linejoin: miter; stroke-linecap: square"/>
   </g>
   <g id="legend_1">
    <g id="patch_8">
     <path d="M 204.132656 86.576688 
L 411.34 86.576688 
Q 413.54 86.576688 413.54 84.376688 
L 413.54 20.892938 
Q 413.54 18.692938 411.34 18.692938 
L 204.132656 18.692938 
Q 201.932656 18.692938 201.932656 20.892938 
L 201.932656 84.376688 
Q 201.932656 86.576688 204.132656 86.576688 
z
" style="fill: #eaeaf2; opacity: 0.8; stroke: #cccccc; stroke-linejoin: miter"/>
    </g>
    <g id="line2d_21">
     <path d="M 206.332656 27.601219 
L 217.332656 27.601219 
L 228.332656 27.601219 
" style="fill: none; stroke-dasharray: 5.55,2.4; stroke-dashoffset: 0; stroke: #000000; stroke-opacity: 0.5; stroke-width: 1.5"/>
    </g>
    <g id="text_19">
     <!-- Ground Truth -->
     <g style="fill: #262626" transform="translate(237.132656 31.451219)scale(0.11 -0.11)">
      <defs>
       <path id="DejaVuSans-47" d="M 3809 666 
L 3809 1919 
L 2778 1919 
L 2778 2438 
L 4434 2438 
L 4434 434 
Q 4069 175 3628 42 
Q 3188 -91 2688 -91 
Q 1594 -91 976 548 
Q 359 1188 359 2328 
Q 359 3472 976 4111 
Q 1594 4750 2688 4750 
Q 3144 4750 3555 4637 
Q 3966 4525 4313 4306 
L 4313 3634 
Q 3963 3931 3569 4081 
Q 3175 4231 2741 4231 
Q 1884 4231 1454 3753 
Q 1025 3275 1025 2328 
Q 1025 1384 1454 906 
Q 1884 428 2741 428 
Q 3075 428 3337 486 
Q 3600 544 3809 666 
z
" transform="scale(0.015625)"/>
       <path id="DejaVuSans-72" d="M 2631 2963 
Q 2534 3019 2420 3045 
Q 2306 3072 2169 3072 
Q 1681 3072 1420 2755 
Q 1159 2438 1159 1844 
L 1159 0 
L 581 0 
L 581 3500 
L 1159 3500 
L 1159 2956 
Q 1341 3275 1631 3429 
Q 1922 3584 2338 3584 
Q 2397 3584 2469 3576 
Q 2541 3569 2628 3553 
L 2631 2963 
z
" transform="scale(0.015625)"/>
       <path id="DejaVuSans-6f" d="M 1959 3097 
Q 1497 3097 1228 2736 
Q 959 2375 959 1747 
Q 959 1119 1226 758 
Q 1494 397 1959 397 
Q 2419 397 2687 759 
Q 2956 1122 2956 1747 
Q 2956 2369 2687 2733 
Q 2419 3097 1959 3097 
z
M 1959 3584 
Q 2709 3584 3137 3096 
Q 3566 2609 3566 1747 
Q 3566 888 3137 398 
Q 2709 -91 1959 -91 
Q 1206 -91 779 398 
Q 353 888 353 1747 
Q 353 2609 779 3096 
Q 1206 3584 1959 3584 
z
" transform="scale(0.015625)"/>
       <path id="DejaVuSans-75" d="M 544 1381 
L 544 3500 
L 1119 3500 
L 1119 1403 
Q 1119 906 1312 657 
Q 1506 409 1894 409 
Q 2359 409 2629 706 
Q 2900 1003 2900 1516 
L 2900 3500 
L 3475 3500 
L 3475 0 
L 2900 0 
L 2900 538 
Q 2691 219 2414 64 
Q 2138 -91 1772 -91 
Q 1169 -91 856 284 
Q 544 659 544 1381 
z
M 1991 3584 
L 1991 3584 
z
" transform="scale(0.015625)"/>
       <path id="DejaVuSans-6e" d="M 3513 2113 
L 3513 0 
L 2938 0 
L 2938 2094 
Q 2938 2591 2744 2837 
Q 2550 3084 2163 3084 
Q 1697 3084 1428 2787 
Q 1159 2491 1159 1978 
L 1159 0 
L 581 0 
L 581 3500 
L 1159 3500 
L 1159 2956 
Q 1366 3272 1645 3428 
Q 1925 3584 2291 3584 
Q 2894 3584 3203 3211 
Q 3513 2838 3513 2113 
z
" transform="scale(0.015625)"/>
       <path id="DejaVuSans-64" d="M 2906 2969 
L 2906 4863 
L 3481 4863 
L 3481 0 
L 2906 0 
L 2906 525 
Q 2725 213 2448 61 
Q 2172 -91 1784 -91 
Q 1150 -91 751 415 
Q 353 922 353 1747 
Q 353 2572 751 3078 
Q 1150 3584 1784 3584 
Q 2172 3584 2448 3432 
Q 2725 3281 2906 2969 
z
M 947 1747 
Q 947 1113 1208 752 
Q 1469 391 1925 391 
Q 2381 391 2643 752 
Q 2906 1113 2906 1747 
Q 2906 2381 2643 2742 
Q 2381 3103 1925 3103 
Q 1469 3103 1208 2742 
Q 947 2381 947 1747 
z
" transform="scale(0.015625)"/>
       <path id="DejaVuSans-54" d="M -19 4666 
L 3928 4666 
L 3928 4134 
L 2272 4134 
L 2272 0 
L 1638 0 
L 1638 4134 
L -19 4134 
L -19 4666 
z
" transform="scale(0.015625)"/>
       <path id="DejaVuSans-74" d="M 1172 4494 
L 1172 3500 
L 2356 3500 
L 2356 3053 
L 1172 3053 
L 1172 1153 
Q 1172 725 1289 603 
Q 1406 481 1766 481 
L 2356 481 
L 2356 0 
L 1766 0 
Q 1100 0 847 248 
Q 594 497 594 1153 
L 594 3053 
L 172 3053 
L 172 3500 
L 594 3500 
L 594 4494 
L 1172 4494 
z
" transform="scale(0.015625)"/>
       <path id="DejaVuSans-68" d="M 3513 2113 
L 3513 0 
L 2938 0 
L 2938 2094 
Q 2938 2591 2744 2837 
Q 2550 3084 2163 3084 
Q 1697 3084 1428 2787 
Q 1159 2491 1159 1978 
L 1159 0 
L 581 0 
L 581 4863 
L 1159 4863 
L 1159 2956 
Q 1366 3272 1645 3428 
Q 1925 3584 2291 3584 
Q 2894 3584 3203 3211 
Q 3513 2838 3513 2113 
z
" transform="scale(0.015625)"/>
      </defs>
      <use xlink:href="#DejaVuSans-47"/>
      <use xlink:href="#DejaVuSans-72" x="77.490234"/>
      <use xlink:href="#DejaVuSans-6f" x="116.353516"/>
      <use xlink:href="#DejaVuSans-75" x="177.535156"/>
      <use xlink:href="#DejaVuSans-6e" x="240.914062"/>
      <use xlink:href="#DejaVuSans-64" x="304.292969"/>
      <use xlink:href="#DejaVuSans-20" x="367.769531"/>
      <use xlink:href="#DejaVuSans-54" x="399.556641"/>
      <use xlink:href="#DejaVuSans-72" x="445.890625"/>
      <use xlink:href="#DejaVuSans-75" x="487.003906"/>
      <use xlink:href="#DejaVuSans-74" x="550.382812"/>
      <use xlink:href="#DejaVuSans-68" x="589.591797"/>
     </g>
    </g>
    <g id="line2d_22">
     <path d="M 206.332656 43.747157 
L 217.332656 43.747157 
L 228.332656 43.747157 
" style="fill: none; stroke: #4c72b0; stroke-opacity: 0.75; stroke-width: 1.5; stroke-linecap: round"/>
    </g>
    <g id="text_20">
     <!-- GNSS-Stereo-Inertial (Ours) -->
     <g style="fill: #262626" transform="translate(237.132656 47.597157)scale(0.11 -0.11)">
      <defs>
       <path id="DejaVuSans-4e" d="M 628 4666 
L 1478 4666 
L 3547 763 
L 3547 4666 
L 4159 4666 
L 4159 0 
L 3309 0 
L 1241 3903 
L 1241 0 
L 628 0 
L 628 4666 
z
" transform="scale(0.015625)"/>
       <path id="DejaVuSans-53" d="M 3425 4513 
L 3425 3897 
Q 3066 4069 2747 4153 
Q 2428 4238 2131 4238 
Q 1616 4238 1336 4038 
Q 1056 3838 1056 3469 
Q 1056 3159 1242 3001 
Q 1428 2844 1947 2747 
L 2328 2669 
Q 3034 2534 3370 2195 
Q 3706 1856 3706 1288 
Q 3706 609 3251 259 
Q 2797 -91 1919 -91 
Q 1588 -91 1214 -16 
Q 841 59 441 206 
L 441 856 
Q 825 641 1194 531 
Q 1563 422 1919 422 
Q 2459 422 2753 634 
Q 3047 847 3047 1241 
Q 3047 1584 2836 1778 
Q 2625 1972 2144 2069 
L 1759 2144 
Q 1053 2284 737 2584 
Q 422 2884 422 3419 
Q 422 4038 858 4394 
Q 1294 4750 2059 4750 
Q 2388 4750 2728 4690 
Q 3069 4631 3425 4513 
z
" transform="scale(0.015625)"/>
       <path id="DejaVuSans-2d" d="M 313 2009 
L 1997 2009 
L 1997 1497 
L 313 1497 
L 313 2009 
z
" transform="scale(0.015625)"/>
       <path id="DejaVuSans-65" d="M 3597 1894 
L 3597 1613 
L 953 1613 
Q 991 1019 1311 708 
Q 1631 397 2203 397 
Q 2534 397 2845 478 
Q 3156 559 3463 722 
L 3463 178 
Q 3153 47 2828 -22 
Q 2503 -91 2169 -91 
Q 1331 -91 842 396 
Q 353 884 353 1716 
Q 353 2575 817 3079 
Q 1281 3584 2069 3584 
Q 2775 3584 3186 3129 
Q 3597 2675 3597 1894 
z
M 3022 2063 
Q 3016 2534 2758 2815 
Q 2500 3097 2075 3097 
Q 1594 3097 1305 2825 
Q 1016 2553 972 2059 
L 3022 2063 
z
" transform="scale(0.015625)"/>
       <path id="DejaVuSans-49" d="M 628 4666 
L 1259 4666 
L 1259 0 
L 628 0 
L 628 4666 
z
" transform="scale(0.015625)"/>
       <path id="DejaVuSans-69" d="M 603 3500 
L 1178 3500 
L 1178 0 
L 603 0 
L 603 3500 
z
M 603 4863 
L 1178 4863 
L 1178 4134 
L 603 4134 
L 603 4863 
z
" transform="scale(0.015625)"/>
       <path id="DejaVuSans-61" d="M 2194 1759 
Q 1497 1759 1228 1600 
Q 959 1441 959 1056 
Q 959 750 1161 570 
Q 1363 391 1709 391 
Q 2188 391 2477 730 
Q 2766 1069 2766 1631 
L 2766 1759 
L 2194 1759 
z
M 3341 1997 
L 3341 0 
L 2766 0 
L 2766 531 
Q 2569 213 2275 61 
Q 1981 -91 1556 -91 
Q 1019 -91 701 211 
Q 384 513 384 1019 
Q 384 1609 779 1909 
Q 1175 2209 1959 2209 
L 2766 2209 
L 2766 2266 
Q 2766 2663 2505 2880 
Q 2244 3097 1772 3097 
Q 1472 3097 1187 3025 
Q 903 2953 641 2809 
L 641 3341 
Q 956 3463 1253 3523 
Q 1550 3584 1831 3584 
Q 2591 3584 2966 3190 
Q 3341 2797 3341 1997 
z
" transform="scale(0.015625)"/>
       <path id="DejaVuSans-6c" d="M 603 4863 
L 1178 4863 
L 1178 0 
L 603 0 
L 603 4863 
z
" transform="scale(0.015625)"/>
       <path id="DejaVuSans-4f" d="M 2522 4238 
Q 1834 4238 1429 3725 
Q 1025 3213 1025 2328 
Q 1025 1447 1429 934 
Q 1834 422 2522 422 
Q 3209 422 3611 934 
Q 4013 1447 4013 2328 
Q 4013 3213 3611 3725 
Q 3209 4238 2522 4238 
z
M 2522 4750 
Q 3503 4750 4090 4092 
Q 4678 3434 4678 2328 
Q 4678 1225 4090 567 
Q 3503 -91 2522 -91 
Q 1538 -91 948 565 
Q 359 1222 359 2328 
Q 359 3434 948 4092 
Q 1538 4750 2522 4750 
z
" transform="scale(0.015625)"/>
       <path id="DejaVuSans-73" d="M 2834 3397 
L 2834 2853 
Q 2591 2978 2328 3040 
Q 2066 3103 1784 3103 
Q 1356 3103 1142 2972 
Q 928 2841 928 2578 
Q 928 2378 1081 2264 
Q 1234 2150 1697 2047 
L 1894 2003 
Q 2506 1872 2764 1633 
Q 3022 1394 3022 966 
Q 3022 478 2636 193 
Q 2250 -91 1575 -91 
Q 1294 -91 989 -36 
Q 684 19 347 128 
L 347 722 
Q 666 556 975 473 
Q 1284 391 1588 391 
Q 1994 391 2212 530 
Q 2431 669 2431 922 
Q 2431 1156 2273 1281 
Q 2116 1406 1581 1522 
L 1381 1569 
Q 847 1681 609 1914 
Q 372 2147 372 2553 
Q 372 3047 722 3315 
Q 1072 3584 1716 3584 
Q 2034 3584 2315 3537 
Q 2597 3491 2834 3397 
z
" transform="scale(0.015625)"/>
      </defs>
      <use xlink:href="#DejaVuSans-47"/>
      <use xlink:href="#DejaVuSans-4e" x="77.490234"/>
      <use xlink:href="#DejaVuSans-53" x="152.294922"/>
      <use xlink:href="#DejaVuSans-53" x="215.771484"/>
      <use xlink:href="#DejaVuSans-2d" x="279.248047"/>
      <use xlink:href="#DejaVuSans-53" x="315.332031"/>
      <use xlink:href="#DejaVuSans-74" x="378.808594"/>
      <use xlink:href="#DejaVuSans-65" x="418.017578"/>
      <use xlink:href="#DejaVuSans-72" x="479.541016"/>
      <use xlink:href="#DejaVuSans-65" x="518.404297"/>
      <use xlink:href="#DejaVuSans-6f" x="579.927734"/>
      <use xlink:href="#DejaVuSans-2d" x="642.984375"/>
      <use xlink:href="#DejaVuSans-49" x="679.068359"/>
      <use xlink:href="#DejaVuSans-6e" x="708.560547"/>
      <use xlink:href="#DejaVuSans-65" x="771.939453"/>
      <use xlink:href="#DejaVuSans-72" x="833.462891"/>
      <use xlink:href="#DejaVuSans-74" x="874.576172"/>
      <use xlink:href="#DejaVuSans-69" x="913.785156"/>
      <use xlink:href="#DejaVuSans-61" x="941.568359"/>
      <use xlink:href="#DejaVuSans-6c" x="1002.847656"/>
      <use xlink:href="#DejaVuSans-20" x="1030.630859"/>
      <use xlink:href="#DejaVuSans-28" x="1062.417969"/>
      <use xlink:href="#DejaVuSans-4f" x="1101.431641"/>
      <use xlink:href="#DejaVuSans-75" x="1180.142578"/>
      <use xlink:href="#DejaVuSans-72" x="1243.521484"/>
      <use xlink:href="#DejaVuSans-73" x="1284.634766"/>
      <use xlink:href="#DejaVuSans-29" x="1336.734375"/>
     </g>
    </g>
    <g id="line2d_23">
     <path d="M 206.332656 59.893094 
L 217.332656 59.893094 
L 228.332656 59.893094 
" style="fill: none; stroke: #55a868; stroke-opacity: 0.75; stroke-width: 1.5; stroke-linecap: round"/>
    </g>
    <g id="text_21">
     <!-- GNSS-Stereo-Inertial (Qin et al) -->
     <g style="fill: #262626" transform="translate(237.132656 63.743094)scale(0.11 -0.11)">
      <defs>
       <path id="DejaVuSans-51" d="M 2522 4238 
Q 1834 4238 1429 3725 
Q 1025 3213 1025 2328 
Q 1025 1447 1429 934 
Q 1834 422 2522 422 
Q 3209 422 3611 934 
Q 4013 1447 4013 2328 
Q 4013 3213 3611 3725 
Q 3209 4238 2522 4238 
z
M 3406 84 
L 4238 -825 
L 3475 -825 
L 2784 -78 
Q 2681 -84 2626 -87 
Q 2572 -91 2522 -91 
Q 1538 -91 948 567 
Q 359 1225 359 2328 
Q 359 3434 948 4092 
Q 1538 4750 2522 4750 
Q 3503 4750 4090 4092 
Q 4678 3434 4678 2328 
Q 4678 1516 4351 937 
Q 4025 359 3406 84 
z
" transform="scale(0.015625)"/>
      </defs>
      <use xlink:href="#DejaVuSans-47"/>
      <use xlink:href="#DejaVuSans-4e" x="77.490234"/>
      <use xlink:href="#DejaVuSans-53" x="152.294922"/>
      <use xlink:href="#DejaVuSans-53" x="215.771484"/>
      <use xlink:href="#DejaVuSans-2d" x="279.248047"/>
      <use xlink:href="#DejaVuSans-53" x="315.332031"/>
      <use xlink:href="#DejaVuSans-74" x="378.808594"/>
      <use xlink:href="#DejaVuSans-65" x="418.017578"/>
      <use xlink:href="#DejaVuSans-72" x="479.541016"/>
      <use xlink:href="#DejaVuSans-65" x="518.404297"/>
      <use xlink:href="#DejaVuSans-6f" x="579.927734"/>
      <use xlink:href="#DejaVuSans-2d" x="642.984375"/>
      <use xlink:href="#DejaVuSans-49" x="679.068359"/>
      <use xlink:href="#DejaVuSans-6e" x="708.560547"/>
      <use xlink:href="#DejaVuSans-65" x="771.939453"/>
      <use xlink:href="#DejaVuSans-72" x="833.462891"/>
      <use xlink:href="#DejaVuSans-74" x="874.576172"/>
      <use xlink:href="#DejaVuSans-69" x="913.785156"/>
      <use xlink:href="#DejaVuSans-61" x="941.568359"/>
      <use xlink:href="#DejaVuSans-6c" x="1002.847656"/>
      <use xlink:href="#DejaVuSans-20" x="1030.630859"/>
      <use xlink:href="#DejaVuSans-28" x="1062.417969"/>
      <use xlink:href="#DejaVuSans-51" x="1101.431641"/>
      <use xlink:href="#DejaVuSans-69" x="1180.142578"/>
      <use xlink:href="#DejaVuSans-6e" x="1207.925781"/>
      <use xlink:href="#DejaVuSans-20" x="1271.304688"/>
      <use xlink:href="#DejaVuSans-65" x="1303.091797"/>
      <use xlink:href="#DejaVuSans-74" x="1364.615234"/>
      <use xlink:href="#DejaVuSans-20" x="1403.824219"/>
      <use xlink:href="#DejaVuSans-61" x="1435.611328"/>
      <use xlink:href="#DejaVuSans-6c" x="1496.890625"/>
      <use xlink:href="#DejaVuSans-29" x="1524.673828"/>
     </g>
    </g>
    <g id="line2d_24">
     <path d="M 206.332656 76.039032 
L 217.332656 76.039032 
L 228.332656 76.039032 
" style="fill: none; stroke: #c44e52; stroke-opacity: 0.75; stroke-width: 1.5; stroke-linecap: round"/>
    </g>
    <g id="text_22">
     <!-- Stereo-Inertial (Campos et al) -->
     <g style="fill: #262626" transform="translate(237.132656 79.889032)scale(0.11 -0.11)">
      <defs>
       <path id="DejaVuSans-43" d="M 4122 4306 
L 4122 3641 
Q 3803 3938 3442 4084 
Q 3081 4231 2675 4231 
Q 1875 4231 1450 3742 
Q 1025 3253 1025 2328 
Q 1025 1406 1450 917 
Q 1875 428 2675 428 
Q 3081 428 3442 575 
Q 3803 722 4122 1019 
L 4122 359 
Q 3791 134 3420 21 
Q 3050 -91 2638 -91 
Q 1578 -91 968 557 
Q 359 1206 359 2328 
Q 359 3453 968 4101 
Q 1578 4750 2638 4750 
Q 3056 4750 3426 4639 
Q 3797 4528 4122 4306 
z
" transform="scale(0.015625)"/>
       <path id="DejaVuSans-70" d="M 1159 525 
L 1159 -1331 
L 581 -1331 
L 581 3500 
L 1159 3500 
L 1159 2969 
Q 1341 3281 1617 3432 
Q 1894 3584 2278 3584 
Q 2916 3584 3314 3078 
Q 3713 2572 3713 1747 
Q 3713 922 3314 415 
Q 2916 -91 2278 -91 
Q 1894 -91 1617 61 
Q 1341 213 1159 525 
z
M 3116 1747 
Q 3116 2381 2855 2742 
Q 2594 3103 2138 3103 
Q 1681 3103 1420 2742 
Q 1159 2381 1159 1747 
Q 1159 1113 1420 752 
Q 1681 391 2138 391 
Q 2594 391 2855 752 
Q 3116 1113 3116 1747 
z
" transform="scale(0.015625)"/>
      </defs>
      <use xlink:href="#DejaVuSans-53"/>
      <use xlink:href="#DejaVuSans-74" x="63.476562"/>
      <use xlink:href="#DejaVuSans-65" x="102.685547"/>
      <use xlink:href="#DejaVuSans-72" x="164.208984"/>
      <use xlink:href="#DejaVuSans-65" x="203.072266"/>
      <use xlink:href="#DejaVuSans-6f" x="264.595703"/>
      <use xlink:href="#DejaVuSans-2d" x="327.652344"/>
      <use xlink:href="#DejaVuSans-49" x="363.736328"/>
      <use xlink:href="#DejaVuSans-6e" x="393.228516"/>
      <use xlink:href="#DejaVuSans-65" x="456.607422"/>
      <use xlink:href="#DejaVuSans-72" x="518.130859"/>
      <use xlink:href="#DejaVuSans-74" x="559.244141"/>
      <use xlink:href="#DejaVuSans-69" x="598.453125"/>
      <use xlink:href="#DejaVuSans-61" x="626.236328"/>
      <use xlink:href="#DejaVuSans-6c" x="687.515625"/>
      <use xlink:href="#DejaVuSans-20" x="715.298828"/>
      <use xlink:href="#DejaVuSans-28" x="747.085938"/>
      <use xlink:href="#DejaVuSans-43" x="786.099609"/>
      <use xlink:href="#DejaVuSans-61" x="855.923828"/>
      <use xlink:href="#DejaVuSans-6d" x="917.203125"/>
      <use xlink:href="#DejaVuSans-70" x="1014.615234"/>
      <use xlink:href="#DejaVuSans-6f" x="1078.091797"/>
      <use xlink:href="#DejaVuSans-73" x="1139.273438"/>
      <use xlink:href="#DejaVuSans-20" x="1191.373047"/>
      <use xlink:href="#DejaVuSans-65" x="1223.160156"/>
      <use xlink:href="#DejaVuSans-74" x="1284.683594"/>
      <use xlink:href="#DejaVuSans-20" x="1323.892578"/>
      <use xlink:href="#DejaVuSans-61" x="1355.679688"/>
      <use xlink:href="#DejaVuSans-6c" x="1416.958984"/>
      <use xlink:href="#DejaVuSans-29" x="1444.742188"/>
     </g>
    </g>
   </g>
  </g>
  <g id="axes_2">
   <g id="patch_9">
    <path d="M 260.435814 358.34 
L 397.04 358.34 
L 397.04 221.594173 
L 260.435814 221.594173 
z
" style="fill: #eaeaf2"/>
   </g>
   <g id="matplotlib.axis_3">
    <g id="xtick_9">
     <g id="line2d_25">
      <path d="M 276.594314 358.34 
L 276.594314 221.594173 
" clip-path="url(#pcf77346b61)" style="fill: none; stroke: #ffffff; stroke-linecap: round"/>
     </g>
     <g id="text_23">
      <!-- −150.0 -->
      <g style="fill: #262626" transform="translate(256.240018 376.198281)scale(0.11 -0.11)">
       <defs>
        <path id="DejaVuSans-35" d="M 691 4666 
L 3169 4666 
L 3169 4134 
L 1269 4134 
L 1269 2991 
Q 1406 3038 1543 3061 
Q 1681 3084 1819 3084 
Q 2600 3084 3056 2656 
Q 3513 2228 3513 1497 
Q 3513 744 3044 326 
Q 2575 -91 1722 -91 
Q 1428 -91 1123 -41 
Q 819 9 494 109 
L 494 744 
Q 775 591 1075 516 
Q 1375 441 1709 441 
Q 2250 441 2565 725 
Q 2881 1009 2881 1497 
Q 2881 1984 2565 2268 
Q 2250 2553 1709 2553 
Q 1456 2553 1204 2497 
Q 953 2441 691 2322 
L 691 4666 
z
" transform="scale(0.015625)"/>
        <path id="DejaVuSans-2e" d="M 684 794 
L 1344 794 
L 1344 0 
L 684 0 
L 684 794 
z
" transform="scale(0.015625)"/>
       </defs>
       <use xlink:href="#DejaVuSans-2212"/>
       <use xlink:href="#DejaVuSans-31" x="83.789062"/>
       <use xlink:href="#DejaVuSans-35" x="147.412109"/>
       <use xlink:href="#DejaVuSans-30" x="211.035156"/>
       <use xlink:href="#DejaVuSans-2e" x="274.658203"/>
       <use xlink:href="#DejaVuSans-30" x="306.445312"/>
      </g>
     </g>
    </g>
    <g id="xtick_10">
     <g id="line2d_26">
      <path d="M 310.745361 358.34 
L 310.745361 221.594173 
" clip-path="url(#pcf77346b61)" style="fill: none; stroke: #ffffff; stroke-linecap: round"/>
     </g>
     <g id="text_24">
      <!-- −147.5 -->
      <g style="fill: #262626" transform="translate(290.391064 376.198281)scale(0.11 -0.11)">
       <defs>
        <path id="DejaVuSans-37" d="M 525 4666 
L 3525 4666 
L 3525 4397 
L 1831 0 
L 1172 0 
L 2766 4134 
L 525 4134 
L 525 4666 
z
" transform="scale(0.015625)"/>
       </defs>
       <use xlink:href="#DejaVuSans-2212"/>
       <use xlink:href="#DejaVuSans-31" x="83.789062"/>
       <use xlink:href="#DejaVuSans-34" x="147.412109"/>
       <use xlink:href="#DejaVuSans-37" x="211.035156"/>
       <use xlink:href="#DejaVuSans-2e" x="274.658203"/>
       <use xlink:href="#DejaVuSans-35" x="306.445312"/>
      </g>
     </g>
    </g>
    <g id="xtick_11">
     <g id="line2d_27">
      <path d="M 344.896407 358.34 
L 344.896407 221.594173 
" clip-path="url(#pcf77346b61)" style="fill: none; stroke: #ffffff; stroke-linecap: round"/>
     </g>
     <g id="text_25">
      <!-- −145.0 -->
      <g style="fill: #262626" transform="translate(324.542111 376.198281)scale(0.11 -0.11)">
       <use xlink:href="#DejaVuSans-2212"/>
       <use xlink:href="#DejaVuSans-31" x="83.789062"/>
       <use xlink:href="#DejaVuSans-34" x="147.412109"/>
       <use xlink:href="#DejaVuSans-35" x="211.035156"/>
       <use xlink:href="#DejaVuSans-2e" x="274.658203"/>
       <use xlink:href="#DejaVuSans-30" x="306.445312"/>
      </g>
     </g>
    </g>
    <g id="xtick_12">
     <g id="line2d_28">
      <path d="M 379.047454 358.34 
L 379.047454 221.594173 
" clip-path="url(#pcf77346b61)" style="fill: none; stroke: #ffffff; stroke-linecap: round"/>
     </g>
     <g id="text_26">
      <!-- −142.5 -->
      <g style="fill: #262626" transform="translate(358.693157 376.198281)scale(0.11 -0.11)">
       <use xlink:href="#DejaVuSans-2212"/>
       <use xlink:href="#DejaVuSans-31" x="83.789062"/>
       <use xlink:href="#DejaVuSans-34" x="147.412109"/>
       <use xlink:href="#DejaVuSans-32" x="211.035156"/>
       <use xlink:href="#DejaVuSans-2e" x="274.658203"/>
       <use xlink:href="#DejaVuSans-35" x="306.445312"/>
      </g>
     </g>
    </g>
   </g>
   <g id="matplotlib.axis_4">
    <g id="ytick_9">
     <g id="line2d_29">
      <path d="M 260.435814 349.931701 
L 397.04 349.931701 
" clip-path="url(#pcf77346b61)" style="fill: none; stroke: #ffffff; stroke-linecap: round"/>
     </g>
     <g id="text_27">
      <!-- −6 -->
      <g style="fill: #262626" transform="translate(234.719408 354.110842)scale(0.11 -0.11)">
       <use xlink:href="#DejaVuSans-2212"/>
       <use xlink:href="#DejaVuSans-36" x="83.789062"/>
      </g>
     </g>
    </g>
    <g id="ytick_10">
     <g id="line2d_30">
      <path d="M 260.435814 322.582536 
L 397.04 322.582536 
" clip-path="url(#pcf77346b61)" style="fill: none; stroke: #ffffff; stroke-linecap: round"/>
     </g>
     <g id="text_28">
      <!-- −4 -->
      <g style="fill: #262626" transform="translate(234.719408 326.761676)scale(0.11 -0.11)">
       <use xlink:href="#DejaVuSans-2212"/>
       <use xlink:href="#DejaVuSans-34" x="83.789062"/>
      </g>
     </g>
    </g>
    <g id="ytick_11">
     <g id="line2d_31">
      <path d="M 260.435814 295.23337 
L 397.04 295.23337 
" clip-path="url(#pcf77346b61)" style="fill: none; stroke: #ffffff; stroke-linecap: round"/>
     </g>
     <g id="text_29">
      <!-- −2 -->
      <g style="fill: #262626" transform="translate(234.719408 299.412511)scale(0.11 -0.11)">
       <use xlink:href="#DejaVuSans-2212"/>
       <use xlink:href="#DejaVuSans-32" x="83.789062"/>
      </g>
     </g>
    </g>
    <g id="ytick_12">
     <g id="line2d_32">
      <path d="M 260.435814 267.884205 
L 397.04 267.884205 
" clip-path="url(#pcf77346b61)" style="fill: none; stroke: #ffffff; stroke-linecap: round"/>
     </g>
     <g id="text_30">
      <!-- 0 -->
      <g style="fill: #262626" transform="translate(243.937064 272.063345)scale(0.11 -0.11)">
       <use xlink:href="#DejaVuSans-30"/>
      </g>
     </g>
    </g>
    <g id="ytick_13">
     <g id="line2d_33">
      <path d="M 260.435814 240.535039 
L 397.04 240.535039 
" clip-path="url(#pcf77346b61)" style="fill: none; stroke: #ffffff; stroke-linecap: round"/>
     </g>
     <g id="text_31">
      <!-- 2 -->
      <g style="fill: #262626" transform="translate(243.937064 244.71418)scale(0.11 -0.11)">
       <use xlink:href="#DejaVuSans-32"/>
      </g>
     </g>
    </g>
   </g>
   <g id="patch_10">
    <path d="M 260.435814 221.594173 
L 63.923801 191.897002 
" style="fill: none; stroke: #808080; stroke-linejoin: miter"/>
   </g>
   <g id="patch_11">
    <path d="M 397.04 358.34 
L 86.691165 214.687974 
" style="fill: none; stroke: #808080; stroke-linejoin: miter"/>
   </g>
   <g id="line2d_34">
    <path d="M 433 284.850777 
L 432.07788 284.890304 
L 428.763761 284.876498 
L 425.269296 284.416589 
L 422.584133 284.650617 
L 419.712091 284.445996 
L 416.478077 284.363013 
L 413.118868 284.158671 
L 410.310749 284.160137 
L 407.594147 284.370776 
L 404.545615 283.634164 
L 401.724256 283.870501 
L 399.11673 284.369046 
L 395.985728 284.030251 
L 392.978903 283.863363 
L 390.150737 283.381508 
L 383.247112 282.979199 
L 376.255396 283.887331 
L 372.382947 284.13279 
L 369.207158 284.961194 
L 366.317771 285.934438 
L 362.676081 286.76355 
L 359.320842 287.734976 
L 349.45605 289.545889 
L 343.187352 289.411763 
L 340.166692 289.826119 
L 337.191251 289.262913 
L 334.84128 289.331781 
L 332.445458 289.670258 
L 330.310465 289.733352 
L 328.737907 289.967086 
L 328.737907 289.967086 
" clip-path="url(#pcf77346b61)" style="fill: none; stroke-dasharray: 5.55,2.4; stroke-dashoffset: 0; stroke: #000000; stroke-opacity: 0.5; stroke-width: 1.5"/>
   </g>
   <g id="line2d_35">
    <path d="M 433 283.80312 
L 427.819593 283.155306 
L 425.170346 283.85547 
L 422.638669 284.031986 
L 419.907137 283.538233 
L 406.496863 282.586565 
L 403.115588 283.322373 
L 397.303848 283.843591 
L 390.870937 285.508368 
L 387.929394 286.430138 
L 384.105805 286.904531 
L 379.870192 287.574776 
L 377.025599 288.261083 
L 370.711357 288.233461 
L 368.057301 288.707658 
L 365.553907 288.379681 
L 362.856853 288.191704 
L 360.72713 288.677712 
L 356.668544 288.807894 
L 355.349029 289.062776 
L 355.349029 289.062776 
" clip-path="url(#pcf77346b61)" style="fill: none; stroke: #4c72b0; stroke-opacity: 0.75; stroke-width: 1.5; stroke-linecap: round"/>
   </g>
   <g id="line2d_36">
    <path d="M 433 281.543204 
L 428.035962 280.412011 
L 420.317821 279.79133 
L 412.298801 277.783015 
L 413.756924 284.921313 
L 406.021445 282.858152 
L 398.739211 282.974247 
L 385.01713 278.713283 
L 375.934899 278.142415 
L 367.414756 278.161826 
L 358.932465 278.80713 
L 344.056031 278.4363 
L 344.557949 274.446062 
L 323.534719 271.229245 
L 323.534719 271.229245 
" clip-path="url(#pcf77346b61)" style="fill: none; stroke: #55a868; stroke-opacity: 0.75; stroke-width: 1.5; stroke-linecap: round"/>
   </g>
   <g id="line2d_37">
    <path d="M 433 283.355961 
L 432.259359 283.247821 
L 429.664455 283.992059 
L 427.14381 284.094909 
L 424.526915 283.811055 
L 411.149793 282.869587 
L 407.85019 283.517272 
L 404.875012 283.887342 
L 402.001108 284.125833 
L 395.704103 285.703424 
L 392.605884 286.678258 
L 384.739551 287.920729 
L 381.808417 288.684896 
L 375.40784 288.578689 
L 372.927979 288.976847 
L 367.729952 288.523539 
L 365.540313 288.942582 
L 361.492479 289.097239 
L 360.154154 289.293561 
L 360.154154 289.293561 
" clip-path="url(#pcf77346b61)" style="fill: none; stroke: #c44e52; stroke-opacity: 0.75; stroke-width: 1.5; stroke-linecap: round"/>
   </g>
   <g id="patch_12">
    <path d="M 260.435814 358.34 
L 260.435814 221.594173 
" style="fill: none; stroke: #000000; stroke-width: 1.25; stroke-linejoin: miter; stroke-linecap: square"/>
   </g>
   <g id="patch_13">
    <path d="M 397.04 358.34 
L 397.04 221.594173 
" style="fill: none; stroke: #000000; stroke-width: 1.25; stroke-linejoin: miter; stroke-linecap: square"/>
   </g>
   <g id="patch_14">
    <path d="M 260.435814 358.34 
L 397.04 358.34 
" style="fill: none; stroke: #000000; stroke-width: 1.25; stroke-linejoin: miter; stroke-linecap: square"/>
   </g>
   <g id="patch_15">
    <path d="M 260.435814 221.594173 
L 397.04 221.594173 
" style="fill: none; stroke: #000000; stroke-width: 1.25; stroke-linejoin: miter; stroke-linecap: square"/>
   </g>
  </g>
 </g>
 <defs>
  <clipPath id="p6d8a6232f9">
   <rect x="65.43" y="13.192938" width="353.61" height="367.147062"/>
  </clipPath>
  <clipPath id="pcf77346b61">
   <rect x="260.435814" y="221.594173" width="136.604186" height="136.745827"/>
  </clipPath>
 </defs>
</svg>
