<?xml version="1.0" encoding="utf-8" standalone="no"?>
<!DOCTYPE svg PUBLIC "-//W3C//DTD SVG 1.1//EN"
  "http://www.w3.org/Graphics/SVG/1.1/DTD/svg11.dtd">
<svg xmlns:xlink="http://www.w3.org/1999/xlink" width="432pt" height="432pt" viewBox="0 0 432 432" xmlns="http://www.w3.org/2000/svg" version="1.1">
 <metadata>
  <rdf:RDF xmlns:dc="http://purl.org/dc/elements/1.1/" xmlns:cc="http://creativecommons.org/ns#" xmlns:rdf="http://www.w3.org/1999/02/22-rdf-syntax-ns#">
   <cc:Work>
    <dc:type rdf:resource="http://purl.org/dc/dcmitype/StillImage"/>
    <dc:date>2022-08-29T17:06:23.013088</dc:date>
    <dc:format>image/svg+xml</dc:format>
    <dc:creator>
     <cc:Agent>
      <dc:title>Matplotlib v3.5.3, https://matplotlib.org/</dc:title>
     </cc:Agent>
    </dc:creator>
   </cc:Work>
  </rdf:RDF>
 </metadata>
 <defs>
  <style type="text/css">*{stroke-linejoin: round; stroke-linecap: butt}</style>
 </defs>
 <g id="figure_1">
  <g id="patch_1">
   <path d="M 0 432 
L 432 432 
L 432 0 
L 0 0 
z
" style="fill: #ffffff"/>
  </g>
  <g id="axes_1">
   <g id="patch_2">
    <path d="M 72.27 380.34 
L 419.04 380.34 
L 419.04 15.923191 
L 72.27 15.923191 
z
" style="fill: #eaeaf2"/>
   </g>
   <g id="matplotlib.axis_1">
    <g id="xtick_1">
     <g id="line2d_1">
      <path d="M 112.451564 380.34 
L 112.451564 15.923191 
" clip-path="url(#p99974ec2df)" style="fill: none; stroke: #ffffff; stroke-linecap: round"/>
     </g>
     <g id="text_1">
      <!-- −150 -->
      <g style="fill: #262626" transform="translate(97.34461 398.198281)scale(0.11 -0.11)">
       <defs>
        <path id="DejaVuSans-2212" d="M 678 2272 
L 4684 2272 
L 4684 1741 
L 678 1741 
L 678 2272 
z
" transform="scale(0.015625)"/>
        <path id="DejaVuSans-31" d="M 794 531 
L 1825 531 
L 1825 4091 
L 703 3866 
L 703 4441 
L 1819 4666 
L 2450 4666 
L 2450 531 
L 3481 531 
L 3481 0 
L 794 0 
L 794 531 
z
" transform="scale(0.015625)"/>
        <path id="DejaVuSans-35" d="M 691 4666 
L 3169 4666 
L 3169 4134 
L 1269 4134 
L 1269 2991 
Q 1406 3038 1543 3061 
Q 1681 3084 1819 3084 
Q 2600 3084 3056 2656 
Q 3513 2228 3513 1497 
Q 3513 744 3044 326 
Q 2575 -91 1722 -91 
Q 1428 -91 1123 -41 
Q 819 9 494 109 
L 494 744 
Q 775 591 1075 516 
Q 1375 441 1709 441 
Q 2250 441 2565 725 
Q 2881 1009 2881 1497 
Q 2881 1984 2565 2268 
Q 2250 2553 1709 2553 
Q 1456 2553 1204 2497 
Q 953 2441 691 2322 
L 691 4666 
z
" transform="scale(0.015625)"/>
        <path id="DejaVuSans-30" d="M 2034 4250 
Q 1547 4250 1301 3770 
Q 1056 3291 1056 2328 
Q 1056 1369 1301 889 
Q 1547 409 2034 409 
Q 2525 409 2770 889 
Q 3016 1369 3016 2328 
Q 3016 3291 2770 3770 
Q 2525 4250 2034 4250 
z
M 2034 4750 
Q 2819 4750 3233 4129 
Q 3647 3509 3647 2328 
Q 3647 1150 3233 529 
Q 2819 -91 2034 -91 
Q 1250 -91 836 529 
Q 422 1150 422 2328 
Q 422 3509 836 4129 
Q 1250 4750 2034 4750 
z
" transform="scale(0.015625)"/>
       </defs>
       <use xlink:href="#DejaVuSans-2212"/>
       <use xlink:href="#DejaVuSans-31" x="83.789062"/>
       <use xlink:href="#DejaVuSans-35" x="147.412109"/>
       <use xlink:href="#DejaVuSans-30" x="211.035156"/>
      </g>
     </g>
    </g>
    <g id="xtick_2">
     <g id="line2d_2">
      <path d="M 158.88619 380.34 
L 158.88619 15.923191 
" clip-path="url(#p99974ec2df)" style="fill: none; stroke: #ffffff; stroke-linecap: round"/>
     </g>
     <g id="text_2">
      <!-- −100 -->
      <g style="fill: #262626" transform="translate(143.779236 398.198281)scale(0.11 -0.11)">
       <use xlink:href="#DejaVuSans-2212"/>
       <use xlink:href="#DejaVuSans-31" x="83.789062"/>
       <use xlink:href="#DejaVuSans-30" x="147.412109"/>
       <use xlink:href="#DejaVuSans-30" x="211.035156"/>
      </g>
     </g>
    </g>
    <g id="xtick_3">
     <g id="line2d_3">
      <path d="M 205.320815 380.34 
L 205.320815 15.923191 
" clip-path="url(#p99974ec2df)" style="fill: none; stroke: #ffffff; stroke-linecap: round"/>
     </g>
     <g id="text_3">
      <!-- −50 -->
      <g style="fill: #262626" transform="translate(193.713237 398.198281)scale(0.11 -0.11)">
       <use xlink:href="#DejaVuSans-2212"/>
       <use xlink:href="#DejaVuSans-35" x="83.789062"/>
       <use xlink:href="#DejaVuSans-30" x="147.412109"/>
      </g>
     </g>
    </g>
    <g id="xtick_4">
     <g id="line2d_4">
      <path d="M 251.755441 380.34 
L 251.755441 15.923191 
" clip-path="url(#p99974ec2df)" style="fill: none; stroke: #ffffff; stroke-linecap: round"/>
     </g>
     <g id="text_4">
      <!-- 0 -->
      <g style="fill: #262626" transform="translate(248.256066 398.198281)scale(0.11 -0.11)">
       <use xlink:href="#DejaVuSans-30"/>
      </g>
     </g>
    </g>
    <g id="xtick_5">
     <g id="line2d_5">
      <path d="M 298.190067 380.34 
L 298.190067 15.923191 
" clip-path="url(#p99974ec2df)" style="fill: none; stroke: #ffffff; stroke-linecap: round"/>
     </g>
     <g id="text_5">
      <!-- 50 -->
      <g style="fill: #262626" transform="translate(291.191317 398.198281)scale(0.11 -0.11)">
       <use xlink:href="#DejaVuSans-35"/>
       <use xlink:href="#DejaVuSans-30" x="63.623047"/>
      </g>
     </g>
    </g>
    <g id="xtick_6">
     <g id="line2d_6">
      <path d="M 344.624693 380.34 
L 344.624693 15.923191 
" clip-path="url(#p99974ec2df)" style="fill: none; stroke: #ffffff; stroke-linecap: round"/>
     </g>
     <g id="text_6">
      <!-- 100 -->
      <g style="fill: #262626" transform="translate(334.126568 398.198281)scale(0.11 -0.11)">
       <use xlink:href="#DejaVuSans-31"/>
       <use xlink:href="#DejaVuSans-30" x="63.623047"/>
       <use xlink:href="#DejaVuSans-30" x="127.246094"/>
      </g>
     </g>
    </g>
    <g id="xtick_7">
     <g id="line2d_7">
      <path d="M 391.059319 380.34 
L 391.059319 15.923191 
" clip-path="url(#p99974ec2df)" style="fill: none; stroke: #ffffff; stroke-linecap: round"/>
     </g>
     <g id="text_7">
      <!-- 150 -->
      <g style="fill: #262626" transform="translate(380.561194 398.198281)scale(0.11 -0.11)">
       <use xlink:href="#DejaVuSans-31"/>
       <use xlink:href="#DejaVuSans-35" x="63.623047"/>
       <use xlink:href="#DejaVuSans-30" x="127.246094"/>
      </g>
     </g>
    </g>
    <g id="text_8">
     <!-- $x$ (m) -->
     <g style="fill: #262626" transform="translate(229.635 413.604063)scale(0.12 -0.12)">
      <defs>
       <path id="DejaVuSans-Oblique-78" d="M 3841 3500 
L 2234 1784 
L 3219 0 
L 2559 0 
L 1819 1388 
L 531 0 
L -166 0 
L 1556 1844 
L 641 3500 
L 1300 3500 
L 1972 2234 
L 3144 3500 
L 3841 3500 
z
" transform="scale(0.015625)"/>
       <path id="DejaVuSans-20" transform="scale(0.015625)"/>
       <path id="DejaVuSans-28" d="M 1984 4856 
Q 1566 4138 1362 3434 
Q 1159 2731 1159 2009 
Q 1159 1288 1364 580 
Q 1569 -128 1984 -844 
L 1484 -844 
Q 1016 -109 783 600 
Q 550 1309 550 2009 
Q 550 2706 781 3412 
Q 1013 4119 1484 4856 
L 1984 4856 
z
" transform="scale(0.015625)"/>
       <path id="DejaVuSans-6d" d="M 3328 2828 
Q 3544 3216 3844 3400 
Q 4144 3584 4550 3584 
Q 5097 3584 5394 3201 
Q 5691 2819 5691 2113 
L 5691 0 
L 5113 0 
L 5113 2094 
Q 5113 2597 4934 2840 
Q 4756 3084 4391 3084 
Q 3944 3084 3684 2787 
Q 3425 2491 3425 1978 
L 3425 0 
L 2847 0 
L 2847 2094 
Q 2847 2600 2669 2842 
Q 2491 3084 2119 3084 
Q 1678 3084 1418 2786 
Q 1159 2488 1159 1978 
L 1159 0 
L 581 0 
L 581 3500 
L 1159 3500 
L 1159 2956 
Q 1356 3278 1631 3431 
Q 1906 3584 2284 3584 
Q 2666 3584 2933 3390 
Q 3200 3197 3328 2828 
z
" transform="scale(0.015625)"/>
       <path id="DejaVuSans-29" d="M 513 4856 
L 1013 4856 
Q 1481 4119 1714 3412 
Q 1947 2706 1947 2009 
Q 1947 1309 1714 600 
Q 1481 -109 1013 -844 
L 513 -844 
Q 928 -128 1133 580 
Q 1338 1288 1338 2009 
Q 1338 2731 1133 3434 
Q 928 4138 513 4856 
z
" transform="scale(0.015625)"/>
      </defs>
      <use xlink:href="#DejaVuSans-Oblique-78" transform="translate(0 0.125)"/>
      <use xlink:href="#DejaVuSans-20" transform="translate(59.179688 0.125)"/>
      <use xlink:href="#DejaVuSans-28" transform="translate(90.966797 0.125)"/>
      <use xlink:href="#DejaVuSans-6d" transform="translate(129.980469 0.125)"/>
      <use xlink:href="#DejaVuSans-29" transform="translate(227.392578 0.125)"/>
     </g>
    </g>
   </g>
   <g id="matplotlib.axis_2">
    <g id="ytick_1">
     <g id="line2d_8">
      <path d="M 72.27 340.840786 
L 419.04 340.840786 
" clip-path="url(#p99974ec2df)" style="fill: none; stroke: #ffffff; stroke-linecap: round"/>
     </g>
     <g id="text_9">
      <!-- −150 -->
      <g style="fill: #262626" transform="translate(32.556094 345.019927)scale(0.11 -0.11)">
       <use xlink:href="#DejaVuSans-2212"/>
       <use xlink:href="#DejaVuSans-31" x="83.789062"/>
       <use xlink:href="#DejaVuSans-35" x="147.412109"/>
       <use xlink:href="#DejaVuSans-30" x="211.035156"/>
      </g>
     </g>
    </g>
    <g id="ytick_2">
     <g id="line2d_9">
      <path d="M 72.27 294.40616 
L 419.04 294.40616 
" clip-path="url(#p99974ec2df)" style="fill: none; stroke: #ffffff; stroke-linecap: round"/>
     </g>
     <g id="text_10">
      <!-- −100 -->
      <g style="fill: #262626" transform="translate(32.556094 298.585301)scale(0.11 -0.11)">
       <use xlink:href="#DejaVuSans-2212"/>
       <use xlink:href="#DejaVuSans-31" x="83.789062"/>
       <use xlink:href="#DejaVuSans-30" x="147.412109"/>
       <use xlink:href="#DejaVuSans-30" x="211.035156"/>
      </g>
     </g>
    </g>
    <g id="ytick_3">
     <g id="line2d_10">
      <path d="M 72.27 247.971534 
L 419.04 247.971534 
" clip-path="url(#p99974ec2df)" style="fill: none; stroke: #ffffff; stroke-linecap: round"/>
     </g>
     <g id="text_11">
      <!-- −50 -->
      <g style="fill: #262626" transform="translate(39.554844 252.150675)scale(0.11 -0.11)">
       <use xlink:href="#DejaVuSans-2212"/>
       <use xlink:href="#DejaVuSans-35" x="83.789062"/>
       <use xlink:href="#DejaVuSans-30" x="147.412109"/>
      </g>
     </g>
    </g>
    <g id="ytick_4">
     <g id="line2d_11">
      <path d="M 72.27 201.536908 
L 419.04 201.536908 
" clip-path="url(#p99974ec2df)" style="fill: none; stroke: #ffffff; stroke-linecap: round"/>
     </g>
     <g id="text_12">
      <!-- 0 -->
      <g style="fill: #262626" transform="translate(55.77125 205.716049)scale(0.11 -0.11)">
       <use xlink:href="#DejaVuSans-30"/>
      </g>
     </g>
    </g>
    <g id="ytick_5">
     <g id="line2d_12">
      <path d="M 72.27 155.102282 
L 419.04 155.102282 
" clip-path="url(#p99974ec2df)" style="fill: none; stroke: #ffffff; stroke-linecap: round"/>
     </g>
     <g id="text_13">
      <!-- 50 -->
      <g style="fill: #262626" transform="translate(48.7725 159.281423)scale(0.11 -0.11)">
       <use xlink:href="#DejaVuSans-35"/>
       <use xlink:href="#DejaVuSans-30" x="63.623047"/>
      </g>
     </g>
    </g>
    <g id="ytick_6">
     <g id="line2d_13">
      <path d="M 72.27 108.667656 
L 419.04 108.667656 
" clip-path="url(#p99974ec2df)" style="fill: none; stroke: #ffffff; stroke-linecap: round"/>
     </g>
     <g id="text_14">
      <!-- 100 -->
      <g style="fill: #262626" transform="translate(41.77375 112.846797)scale(0.11 -0.11)">
       <use xlink:href="#DejaVuSans-31"/>
       <use xlink:href="#DejaVuSans-30" x="63.623047"/>
       <use xlink:href="#DejaVuSans-30" x="127.246094"/>
      </g>
     </g>
    </g>
    <g id="ytick_7">
     <g id="line2d_14">
      <path d="M 72.27 62.23303 
L 419.04 62.23303 
" clip-path="url(#p99974ec2df)" style="fill: none; stroke: #ffffff; stroke-linecap: round"/>
     </g>
     <g id="text_15">
      <!-- 150 -->
      <g style="fill: #262626" transform="translate(41.77375 66.412171)scale(0.11 -0.11)">
       <use xlink:href="#DejaVuSans-31"/>
       <use xlink:href="#DejaVuSans-35" x="63.623047"/>
       <use xlink:href="#DejaVuSans-30" x="127.246094"/>
      </g>
     </g>
    </g>
    <g id="text_16">
     <!-- $y$ (m) -->
     <g style="fill: #262626" transform="translate(26.036094 214.151596)rotate(-90)scale(0.12 -0.12)">
      <defs>
       <path id="DejaVuSans-Oblique-79" d="M 1588 -325 
Q 1188 -997 936 -1164 
Q 684 -1331 294 -1331 
L -159 -1331 
L -63 -850 
L 269 -850 
Q 509 -850 678 -719 
Q 847 -588 1056 -206 
L 1234 128 
L 459 3500 
L 1069 3500 
L 1650 819 
L 3256 3500 
L 3859 3500 
L 1588 -325 
z
" transform="scale(0.015625)"/>
      </defs>
      <use xlink:href="#DejaVuSans-Oblique-79" transform="translate(0 0.125)"/>
      <use xlink:href="#DejaVuSans-20" transform="translate(59.179688 0.125)"/>
      <use xlink:href="#DejaVuSans-28" transform="translate(90.966797 0.125)"/>
      <use xlink:href="#DejaVuSans-6d" transform="translate(129.980469 0.125)"/>
      <use xlink:href="#DejaVuSans-29" transform="translate(227.392578 0.125)"/>
     </g>
    </g>
   </g>
   <g id="patch_3">
    <path d="M 389.347339 208.455144 
L 417.208115 208.455144 
L 417.208115 180.594368 
L 389.347339 180.594368 
L 389.347339 208.455144 
z
" clip-path="url(#p99974ec2df)" style="fill: none; stroke: #808080; stroke-linejoin: miter"/>
   </g>
   <g id="line2d_15">
    <path d="M 251.755441 201.536908 
L 245.595383 201.466964 
L 241.467842 201.392157 
L 238.432041 201.283214 
L 237.118143 201.339488 
L 212.341748 201.171047 
L 208.469831 201.071187 
L 206.875986 201.00317 
L 205.790454 200.980429 
L 204.476402 200.943981 
L 202.237038 201.122751 
L 186.67222 200.762478 
L 184.924275 200.848818 
L 183.907355 200.823169 
L 181.775773 200.792054 
L 178.661695 200.699239 
L 174.901095 200.766651 
L 172.905244 200.810906 
L 171.775774 200.765305 
L 161.378259 200.520383 
L 157.875242 200.522934 
L 156.449391 200.558419 
L 153.992779 200.501528 
L 152.628993 200.492933 
L 152.190658 200.506078 
L 143.485216 200.241702 
L 139.424043 200.203651 
L 119.397413 199.979212 
L 118.256748 199.936483 
L 116.260722 200.025392 
L 97.276512 199.889144 
L 96.871802 199.992087 
L 95.963226 200.396189 
L 93.988375 202.169148 
L 92.971456 202.617258 
L 92.449176 202.719722 
L 91.04927 202.522729 
L 90.280321 202.169828 
L 89.348506 201.466104 
L 88.817491 200.846351 
L 88.300102 199.887572 
L 88.033518 198.532732 
L 88.212443 196.90904 
L 88.50572 196.242531 
L 89.163145 195.361508 
L 89.753954 194.807969 
L 90.328228 194.464956 
L 91.377647 194.061973 
L 92.261222 193.944123 
L 93.351516 193.996137 
L 94.390124 194.144126 
L 95.720413 194.11409 
L 96.333541 194.110988 
L 100.614697 194.163067 
L 104.787444 194.240953 
L 111.736473 194.287205 
L 112.825901 194.202694 
L 115.33585 194.253951 
L 127.025144 194.420793 
L 133.103175 194.369837 
L 136.053167 194.40215 
L 140.362556 194.632194 
L 142.220255 194.639922 
L 145.048755 194.607975 
L 146.404034 194.57948 
L 160.509079 194.800025 
L 163.315474 194.774163 
L 166.585806 194.899999 
L 217.737976 195.303969 
L 220.196004 195.312311 
L 223.466713 195.462558 
L 228.083189 195.632897 
L 231.127356 195.513459 
L 232.80471 195.578527 
L 234.471483 195.644756 
L 235.316572 195.649775 
L 262.178033 195.976912 
L 263.40607 196.04031 
L 264.5314 196.025912 
L 270.339525 195.876709 
L 274.973301 195.963798 
L 276.956087 195.907797 
L 280.36156 195.808368 
L 282.447772 195.823137 
L 283.985888 195.735847 
L 289.806049 195.757237 
L 290.961032 195.699654 
L 295.874183 195.666868 
L 296.958204 195.549473 
L 297.890837 195.573777 
L 299.237817 195.497917 
L 318.513128 195.444192 
L 319.521799 195.534767 
L 323.060986 195.359751 
L 323.991964 195.351399 
L 329.096877 195.391011 
L 329.593074 195.427464 
L 330.41482 195.31354 
L 334.243165 195.358312 
L 334.6308 195.356344 
L 335.642503 195.339663 
L 336.844623 195.332833 
L 337.704751 195.130051 
L 345.265145 195.196884 
L 346.171417 195.029547 
L 350.861104 195.091016 
L 356.014685 195.076849 
L 358.910738 194.922699 
L 359.77626 194.646192 
L 360.676696 194.502951 
L 361.607299 194.627843 
L 363.9036 195.347792 
L 364.550571 195.351916 
L 365.637114 195.03076 
L 366.736579 194.735793 
L 367.75543 194.694534 
L 368.821103 194.827131 
L 370.213925 194.844759 
L 374.804179 194.866972 
L 376.924264 194.787148 
L 378.833013 194.795268 
L 382.380042 194.755054 
L 384.246263 194.763519 
L 386.536497 194.687473 
L 387.590721 194.713725 
L 388.381817 194.728314 
L 390.432165 194.743071 
L 390.79988 194.753582 
L 392.158004 194.763472 
L 394.60874 194.696162 
L 396.118185 194.725419 
L 399.079721 194.601622 
L 400.064328 194.451325 
L 401.974537 194.480256 
L 403.277727 194.524756 
L 403.277727 194.524756 
" clip-path="url(#p99974ec2df)" style="fill: none; stroke-dasharray: 5.55,2.4; stroke-dashoffset: 0; stroke: #000000; stroke-opacity: 0.5; stroke-width: 1.5"/>
   </g>
   <g id="line2d_16">
    <path d="M 249.671612 198.893265 
L 230.900745 199.142818 
L 229.307731 199.170355 
L 228.26389 199.156842 
L 226.777795 199.20003 
L 220.282989 199.264569 
L 217.258724 199.29534 
L 214.839146 199.29757 
L 212.474619 199.365644 
L 211.281737 199.451559 
L 206.093558 199.421997 
L 202.446263 199.564944 
L 199.888307 199.603936 
L 194.471341 199.57365 
L 189.46612 199.598562 
L 186.857661 199.581614 
L 180.440962 199.694644 
L 177.775222 199.684501 
L 173.900736 199.821279 
L 172.249392 199.900672 
L 170.853121 199.867303 
L 159.444724 199.848905 
L 155.149528 199.960536 
L 142.519091 199.877231 
L 141.5269 199.896226 
L 138.593556 199.9173 
L 137.062997 199.965059 
L 119.75876 199.988988 
L 118.212103 200.063822 
L 114.920521 200.133377 
L 113.400716 200.148008 
L 99.299599 200.173611 
L 98.012116 200.395208 
L 97.259456 200.689135 
L 96.04988 201.746576 
L 95.241965 202.448527 
L 93.713533 202.992719 
L 92.401149 202.83263 
L 91.321891 202.363766 
L 90.347424 201.529171 
L 89.804264 200.703328 
L 89.486666 199.735113 
L 89.42702 198.733636 
L 89.550111 197.998556 
L 89.891627 197.116831 
L 90.727836 196.061109 
L 91.414379 195.555816 
L 92.358701 195.100604 
L 93.776519 194.931087 
L 97.630577 195.017259 
L 100.799021 195.011034 
L 103.135125 195.065092 
L 105.821829 195.079179 
L 112.084368 195.123112 
L 117.927889 195.102108 
L 120.115868 195.154695 
L 132.057588 195.170689 
L 133.320944 195.101282 
L 138.924024 195.252743 
L 140.962082 195.30233 
L 142.350324 195.315829 
L 145.620206 195.255519 
L 149.423678 195.310622 
L 152.001236 195.400309 
L 155.695054 195.400873 
L 156.760077 195.396211 
L 167.734803 195.456726 
L 169.431862 195.442298 
L 171.542903 195.42059 
L 175.393075 195.499934 
L 179.795381 195.516978 
L 181.793433 195.548814 
L 192.223009 195.593584 
L 194.20856 195.618633 
L 199.991414 195.741373 
L 203.418352 195.643818 
L 205.013933 195.663306 
L 210.549018 195.842773 
L 211.403743 195.80965 
L 212.2327 195.834657 
L 213.402654 195.82329 
L 218.420859 195.728804 
L 222.371678 195.79358 
L 229.419621 195.889703 
L 231.713563 195.897643 
L 238.87958 196.034812 
L 243.497511 196.02551 
L 246.370908 196.049522 
L 267.025606 196.249453 
L 268.699108 196.216623 
L 269.345418 196.211362 
L 272.997022 196.244571 
L 281.381192 196.170143 
L 282.25265 196.163052 
L 283.239126 196.106158 
L 285.128398 196.085783 
L 285.732732 196.049862 
L 287.969415 196.048006 
L 292.195591 196.039132 
L 293.018165 195.995259 
L 294.457297 195.995795 
L 295.088435 195.979141 
L 295.724602 195.969201 
L 297.137619 195.911041 
L 298.217779 195.860884 
L 299.148563 195.825212 
L 305.229634 195.791132 
L 305.702316 195.829772 
L 307.269894 195.811475 
L 309.610656 195.812506 
L 310.492248 195.769604 
L 313.468759 195.650781 
L 314.274869 195.65088 
L 318.10835 195.729865 
L 319.844357 195.76279 
L 320.831253 195.812646 
L 321.988296 195.749107 
L 323.49786 195.666386 
L 324.088364 195.673362 
L 324.97154 195.619061 
L 325.793538 195.596815 
L 327.753388 195.603442 
L 329.829115 195.712247 
L 330.316352 195.684487 
L 333.235281 195.633733 
L 333.980036 195.682646 
L 335.180303 195.613043 
L 335.745854 195.648646 
L 337.820636 195.519973 
L 339.381721 195.321352 
L 340.572114 195.3785 
L 341.06271 195.330761 
L 342.136576 195.367122 
L 346.104267 195.425195 
L 347.421528 195.266838 
L 353.752866 195.429596 
L 355.428404 195.377872 
L 356.540519 195.36707 
L 357.586404 195.344115 
L 359.555295 194.857168 
L 360.244193 194.846595 
L 361.04419 195.07659 
L 362.548625 195.607622 
L 364.004709 195.515217 
L 365.564477 195.104017 
L 366.715568 195.039146 
L 367.803111 195.145937 
L 368.560991 195.138941 
L 371.798947 195.252546 
L 374.231391 195.151403 
L 376.362948 195.098468 
L 397.210963 194.927787 
L 398.756775 194.866911 
L 399.922631 194.881099 
L 400.941738 194.92575 
L 400.941738 194.92575 
" clip-path="url(#p99974ec2df)" style="fill: none; stroke: #4c72b0; stroke-opacity: 0.75; stroke-width: 1.5; stroke-linecap: round"/>
   </g>
   <g id="line2d_17">
    <path d="M 250.935066 201.532939 
L 251.523633 201.524352 
L 251.639871 201.502807 
L 252.368657 200.935575 
L 251.134639 199.895097 
L 251.524157 199.40357 
L 252.152663 198.833411 
L 250.226109 200.660386 
L 250.656959 200.318777 
L 251.070365 200.060676 
L 248.866696 199.833014 
L 248.912186 199.213783 
L 242.922251 200.582699 
L 242.162333 200.542983 
L 240.56149 200.566579 
L 239.288091 200.484434 
L 237.751828 200.610767 
L 235.750917 200.642574 
L 234.901543 200.629995 
L 233.643697 200.518151 
L 232.982173 200.511814 
L 232.133517 200.715141 
L 230.688006 200.727857 
L 229.356284 200.972425 
L 228.259698 201.003126 
L 228.165157 201.182968 
L 226.435452 201.247508 
L 226.0365 200.783896 
L 220.164311 200.890746 
L 219.42795 201.462557 
L 217.570216 201.543186 
L 217.062033 201.301326 
L 215.374502 201.377234 
L 214.811989 201.687965 
L 212.005178 201.900735 
L 210.920875 201.972552 
L 210.203604 201.743404 
L 208.700512 201.770536 
L 207.259287 201.425672 
L 206.120171 201.461424 
L 204.613815 200.96952 
L 203.815104 200.92645 
L 203.083677 200.48978 
L 197.429821 200.103144 
L 196.725185 199.943237 
L 195.591823 199.88107 
L 194.897337 199.770698 
L 193.280047 200.378429 
L 192.150187 200.166966 
L 190.753883 200.124102 
L 189.978381 200.00696 
L 189.225057 200.468709 
L 187.839699 200.389067 
L 187.324214 200.649895 
L 179.391216 200.374153 
L 177.574896 200.386545 
L 176.786923 200.415439 
L 175.589494 200.935393 
L 174.111324 200.991151 
L 173.019502 200.799802 
L 171.541035 200.759902 
L 170.88012 201.007325 
L 169.553338 201.022952 
L 168.088401 201.14395 
L 165.15178 200.968497 
L 163.35355 201.252739 
L 162.236911 201.275619 
L 161.469894 200.872486 
L 157.751933 201.031453 
L 157.120193 200.668703 
L 153.566077 200.661842 
L 152.308396 201.037272 
L 151.064286 201.046329 
L 150.42639 200.581014 
L 148.471829 200.521603 
L 147.657823 200.203914 
L 142.465444 200.093777 
L 141.484264 199.718408 
L 140.380243 199.693904 
L 138.184048 199.823332 
L 135.004647 199.668677 
L 133.178645 199.498877 
L 132.802719 199.49087 
L 132.088113 199.203075 
L 130.408775 199.139153 
L 130.042834 199.308376 
L 128.492969 199.231639 
L 127.840377 200.044279 
L 126.255992 200.066275 
L 124.396487 199.889725 
L 123.6139 199.874374 
L 122.575488 199.642539 
L 119.839267 199.609101 
L 117.844985 199.52135 
L 116.254184 199.476421 
L 116.023275 199.636274 
L 110.295864 199.603025 
L 109.839607 199.601933 
L 109.276379 199.751862 
L 107.063335 199.695137 
L 106.591891 199.491052 
L 102.731511 199.27512 
L 102.044705 199.531459 
L 100.872666 199.491368 
L 100.396218 199.795341 
L 98.48405 199.810965 
L 98.184017 200.269353 
L 97.613608 200.415577 
L 97.287995 200.572809 
L 97.39995 201.021346 
L 96.567261 201.597178 
L 96.293518 201.813194 
L 95.638765 201.679544 
L 93.894805 202.477299 
L 93.277683 202.641558 
L 92.804707 202.9556 
L 91.496531 203.075137 
L 90.362151 202.996635 
L 90.683927 201.947914 
L 88.942465 201.056785 
L 88.715078 200.872819 
L 88.81223 200.745444 
L 89.426101 200.187975 
L 89.270221 199.386438 
L 89.376038 198.589651 
L 89.530118 197.114741 
L 90.207007 196.253652 
L 90.475028 196.039183 
L 90.627875 195.146865 
L 91.440018 194.735224 
L 91.899961 194.706338 
L 91.948382 194.859243 
L 92.830222 194.884407 
L 93.973799 195.093605 
L 94.192914 194.740754 
L 95.810645 194.497369 
L 95.491667 194.014965 
L 100.188483 193.43014 
L 101.379842 193.495092 
L 103.701645 193.2478 
L 104.430654 193.188054 
L 106.192693 193.536409 
L 107.967667 193.397884 
L 107.911983 194.182561 
L 110.335431 193.978771 
L 112.067651 193.654835 
L 114.994908 193.592325 
L 116.307196 193.714626 
L 123.05783 193.423775 
L 124.787055 193.257822 
L 125.27614 193.843189 
L 126.616076 193.781485 
L 127.293714 194.385756 
L 128.530569 194.400476 
L 129.526492 195.089847 
L 134.296417 194.989349 
L 135.955732 195.148016 
L 136.283797 194.917064 
L 139.061693 194.973406 
L 141.32232 194.90728 
L 141.447122 195.134097 
L 143.419858 195.157037 
L 143.461631 195.070134 
L 144.890441 194.918974 
L 147.803731 194.957616 
L 148.403705 194.453703 
L 150.509565 194.452189 
L 150.440913 194.754718 
L 152.518386 194.650942 
L 152.730931 194.753063 
L 154.400809 194.751144 
L 154.692515 195.278852 
L 156.059506 195.250104 
L 156.81695 194.88092 
L 157.700012 194.85374 
L 162.855969 194.729785 
L 162.932633 194.626314 
L 165.302288 194.628685 
L 165.550407 195.108299 
L 169.451081 195.00198 
L 170.343448 194.650782 
L 172.82024 194.741594 
L 174.67694 194.696747 
L 175.264601 195.587368 
L 177.421715 195.572032 
L 177.626417 195.399678 
L 178.852841 195.393343 
L 179.827698 195.403923 
L 179.977563 195.294236 
L 182.747889 195.128636 
L 184.015049 195.105926 
L 184.410957 195.499078 
L 186.570584 195.48858 
L 186.730426 195.278114 
L 188.099087 195.250293 
L 188.775014 194.906174 
L 190.265168 194.810061 
L 190.792036 194.807259 
L 193.129717 194.637694 
L 195.249429 194.676933 
L 196.483008 194.619495 
L 196.907815 194.610609 
L 197.062619 195.003196 
L 199.729295 194.995008 
L 200.647314 194.896275 
L 200.929078 194.989444 
L 206.045848 194.764192 
L 206.589065 195.119766 
L 208.549117 195.093684 
L 210.703868 195.000912 
L 210.751959 195.317836 
L 213.516785 195.298901 
L 218.05651 195.292208 
L 218.180804 195.085474 
L 220.179912 195.092082 
L 220.254354 195.495653 
L 222.670499 195.612271 
L 223.021995 195.053471 
L 224.800896 195.033074 
L 225.268274 195.177956 
L 227.391534 195.237052 
L 227.494518 195.636076 
L 228.368152 195.463397 
L 229.522858 195.421972 
L 229.52729 195.75143 
L 231.726347 195.889518 
L 235.103159 196.105374 
L 235.374181 196.122587 
L 235.653004 195.662057 
L 238.671057 195.61062 
L 240.972145 195.596204 
L 240.812968 196.1463 
L 242.933505 196.198933 
L 243.20529 195.940545 
L 247.673278 196.046685 
L 247.98016 195.752673 
L 249.951057 195.794463 
L 249.762 195.598829 
L 252.276649 195.539896 
L 253.520901 196.12109 
L 254.989589 196.159792 
L 255.00002 196.363617 
L 257.182713 196.431948 
L 257.390001 196.730147 
L 261.318603 197.073536 
L 261.255116 197.546035 
L 262.088542 197.674685 
L 263.347121 197.76015 
L 263.53471 197.135698 
L 264.44992 197.12546 
L 265.290708 197.132735 
L 266.375804 197.646777 
L 268.979807 197.730184 
L 269.388711 197.805712 
L 270.268098 197.007644 
L 272.348457 197.189679 
L 272.534319 196.810514 
L 272.95992 196.747465 
L 274.30527 196.848386 
L 274.905714 196.485032 
L 277.338415 196.57119 
L 277.904022 195.511917 
L 280.109712 195.370233 
L 280.061201 195.127385 
L 281.320928 195.104816 
L 282.050797 195.656868 
L 283.216593 195.548297 
L 283.712036 195.534944 
L 284.38241 195.672195 
L 286.222848 195.645685 
L 286.84327 195.460723 
L 288.471868 195.460821 
L 288.654652 195.801561 
L 293.05533 195.666828 
L 293.852686 195.718013 
L 295.568797 195.654371 
L 296.389174 195.816864 
L 297.326932 195.753677 
L 299.112999 196.211663 
L 299.975676 196.254882 
L 300.362517 196.344257 
L 302.378934 196.41525 
L 302.903852 196.240792 
L 303.721895 196.277831 
L 304.205247 196.412018 
L 305.176763 196.411944 
L 305.531887 196.114387 
L 307.567636 196.185202 
L 307.83031 196.512509 
L 309.462946 196.581983 
L 311.517624 196.465478 
L 312.921237 196.662053 
L 313.383858 196.664152 
L 313.745091 196.146747 
L 316.161425 196.230431 
L 317.624418 196.354129 
L 318.177316 196.446248 
L 318.687059 195.860659 
L 319.907668 195.793471 
L 320.462026 195.996964 
L 321.132795 195.560019 
L 320.943161 196.240908 
L 325.083572 196.353661 
L 325.469396 196.056215 
L 328.921269 196.278906 
L 329.334933 196.195993 
L 329.700607 196.29083 
L 330.012275 196.249661 
L 329.951697 195.563289 
L 333.858961 195.797466 
L 334.147818 195.282854 
L 335.104437 195.521935 
L 335.472245 195.29312 
L 335.867078 195.192944 
L 336.052684 194.819124 
L 337.20936 194.774538 
L 338.206574 194.740013 
L 338.487731 194.512424 
L 341.045421 194.562915 
L 342.993692 194.590934 
L 343.31261 194.515852 
L 343.151416 194.944314 
L 344.095376 194.783887 
L 347.261954 194.908581 
L 352.023084 195.282702 
L 352.920351 195.244594 
L 353.151145 194.814144 
L 354.46492 194.769741 
L 354.365053 194.627799 
L 354.453394 194.634682 
L 354.513736 194.622675 
L 354.466302 194.624898 
L 354.757761 194.293731 
L 354.754127 194.293503 
L 354.968048 194.577573 
L 355.598897 194.434996 
L 356.304856 194.430109 
L 357.981005 194.296253 
L 358.977964 193.969241 
L 359.127907 193.922664 
L 360.650741 193.877494 
L 361.803483 194.419892 
L 362.412357 194.702018 
L 362.781378 194.540963 
L 363.229715 194.565984 
L 364.180622 194.370794 
L 364.935593 194.067812 
L 364.988946 194.331575 
L 365.922293 194.154605 
L 366.44504 194.161612 
L 366.989842 194.286499 
L 367.114133 194.617427 
L 369.978444 194.900094 
L 370.817688 194.573945 
L 371.869481 194.703707 
L 372.83973 194.62607 
L 373.342478 194.174626 
L 374.940633 194.19376 
L 375.439085 194.296082 
L 379.637577 194.481819 
L 380.139518 194.232202 
L 381.244189 194.21704 
L 381.567115 194.277683 
L 382.631754 194.269839 
L 382.76999 194.511273 
L 385.378797 194.603849 
L 386.66774 194.756207 
L 385.910842 195.397364 
L 388.018118 195.811843 
L 388.409728 195.282401 
L 388.800437 195.406151 
L 390.002652 195.526973 
L 389.939337 194.953816 
L 391.780083 195.032752 
L 394.030891 195.368294 
L 395.018511 195.434314 
L 395.786477 194.609323 
L 397.675552 194.511915 
L 398.734493 194.479725 
L 400.662435 194.653485 
L 400.868638 194.884895 
L 401.496178 194.954081 
L 401.496178 194.954081 
" clip-path="url(#p99974ec2df)" style="fill: none; stroke: #55a868; stroke-opacity: 0.75; stroke-width: 1.5; stroke-linecap: round"/>
   </g>
   <g id="line2d_18">
    <path d="M 251.7097 199.156878 
L 233.706664 199.331247 
L 229.071535 199.40416 
L 224.736474 199.389517 
L 214.559352 199.508103 
L 213.611913 199.57591 
L 210.743397 199.601703 
L 207.78114 199.531122 
L 206.269864 199.513509 
L 205.202192 199.564738 
L 204.055546 199.698299 
L 202.026434 199.707241 
L 194.30484 199.674687 
L 187.393776 199.717409 
L 185.510189 199.762566 
L 183.105307 199.751558 
L 181.830306 199.694503 
L 180.835542 199.675163 
L 172.343866 199.865767 
L 164.689294 199.723732 
L 163.53698 199.824424 
L 157.145932 199.945553 
L 149.192988 199.87603 
L 146.461033 199.868465 
L 140.905177 199.890462 
L 139.578391 199.9445 
L 132.879419 199.92892 
L 122.654739 199.976175 
L 120.447592 200.01967 
L 113.901698 200.0605 
L 112.146208 200.112999 
L 109.580027 200.147855 
L 107.494121 200.092346 
L 105.232841 200.05908 
L 103.482959 200.111222 
L 101.01001 200.145684 
L 99.482531 200.611202 
L 98.260141 201.697547 
L 97.464059 202.40314 
L 95.928435 202.966415 
L 94.599242 202.80665 
L 93.510587 202.312629 
L 92.894885 201.828709 
L 92.241238 201.107588 
L 91.834676 200.17305 
L 91.625663 199.117647 
L 91.629258 198.360971 
L 91.98485 197.187145 
L 92.324706 196.597415 
L 92.932357 195.853506 
L 93.616403 195.342531 
L 94.552846 194.881792 
L 95.984943 194.716324 
L 102.593215 194.806627 
L 111.042283 194.955508 
L 113.420197 194.968151 
L 116.787443 194.860158 
L 122.607833 195.015261 
L 124.791895 195.046974 
L 133.25213 195.073096 
L 134.680088 194.97299 
L 137.354161 194.952779 
L 141.995919 195.202641 
L 145.156246 195.2407 
L 146.340761 195.227109 
L 147.671635 195.134048 
L 149.744109 195.188565 
L 152.455228 195.265979 
L 210.425906 195.816945 
L 211.681682 195.835312 
L 214.271651 195.804919 
L 216.340246 195.786484 
L 217.244478 195.742398 
L 222.522076 195.810546 
L 223.381667 195.872282 
L 225.812516 195.96484 
L 228.532679 195.983809 
L 229.763765 195.92392 
L 264.517849 196.31995 
L 266.760022 196.237943 
L 267.497037 196.244223 
L 269.2209 196.24783 
L 274.318703 196.322144 
L 275.020653 196.286679 
L 275.728381 196.281628 
L 280.817824 196.203128 
L 281.224353 196.140772 
L 283.058406 196.121201 
L 283.646806 196.083514 
L 286.930072 196.10491 
L 287.93735 196.113876 
L 292.524439 196.017391 
L 293.987074 196.011208 
L 295.071773 195.903065 
L 295.491975 195.940273 
L 296.397524 195.87389 
L 307.901114 195.775781 
L 311.215815 195.695434 
L 313.106677 195.751846 
L 313.480132 195.736154 
L 315.27695 195.796114 
L 316.388692 195.802754 
L 317.098167 195.834927 
L 317.804767 195.820904 
L 322.319201 195.640221 
L 323.481426 195.650459 
L 323.919992 195.641149 
L 326.362369 195.773608 
L 327.18882 195.686544 
L 328.196675 195.640948 
L 329.508342 195.687639 
L 329.699035 195.636613 
L 330.121005 195.733297 
L 331.624111 195.680395 
L 332.644084 195.681648 
L 335.111296 195.426662 
L 335.543307 195.419325 
L 341.442792 195.508694 
L 342.954167 195.308475 
L 344.263531 195.300453 
L 345.618391 195.32593 
L 349.597223 195.523963 
L 352.418671 195.402795 
L 353.689993 195.407031 
L 354.55036 195.296452 
L 355.757886 194.929725 
L 356.944747 194.865277 
L 358.249723 195.297214 
L 359.315672 195.626487 
L 360.733732 195.44878 
L 362.674702 195.050311 
L 363.159827 195.051849 
L 364.007081 195.156247 
L 371.624205 195.121439 
L 372.79623 195.09244 
L 374.581768 195.107988 
L 377.305147 195.091794 
L 389.727079 195.032253 
L 393.122613 194.973656 
L 394.316256 194.811543 
L 396.303288 194.846225 
L 397.347135 194.889177 
L 397.347135 194.889177 
" clip-path="url(#p99974ec2df)" style="fill: none; stroke: #c44e52; stroke-opacity: 0.75; stroke-width: 1.5; stroke-linecap: round"/>
   </g>
   <g id="patch_4">
    <path d="M 72.27 380.34 
L 72.27 15.923191 
" style="fill: none; stroke: #ffffff; stroke-width: 1.25; stroke-linejoin: miter; stroke-linecap: square"/>
   </g>
   <g id="patch_5">
    <path d="M 419.04 380.34 
L 419.04 15.923191 
" style="fill: none; stroke: #ffffff; stroke-width: 1.25; stroke-linejoin: miter; stroke-linecap: square"/>
   </g>
   <g id="patch_6">
    <path d="M 72.27 380.34 
L 419.04 380.34 
" style="fill: none; stroke: #ffffff; stroke-width: 1.25; stroke-linejoin: miter; stroke-linecap: square"/>
   </g>
   <g id="patch_7">
    <path d="M 72.27 15.923191 
L 419.04 15.923191 
" style="fill: none; stroke: #ffffff; stroke-width: 1.25; stroke-linejoin: miter; stroke-linecap: square"/>
   </g>
   <g id="legend_1">
    <g id="patch_8">
     <path d="M 204.132656 89.306941 
L 411.34 89.306941 
Q 413.54 89.306941 413.54 87.106941 
L 413.54 23.623191 
Q 413.54 21.423191 411.34 21.423191 
L 204.132656 21.423191 
Q 201.932656 21.423191 201.932656 23.623191 
L 201.932656 87.106941 
Q 201.932656 89.306941 204.132656 89.306941 
z
" style="fill: #eaeaf2; opacity: 0.8; stroke: #cccccc; stroke-linejoin: miter"/>
    </g>
    <g id="line2d_19">
     <path d="M 206.332656 30.331472 
L 217.332656 30.331472 
L 228.332656 30.331472 
" style="fill: none; stroke-dasharray: 5.55,2.4; stroke-dashoffset: 0; stroke: #000000; stroke-opacity: 0.5; stroke-width: 1.5"/>
    </g>
    <g id="text_17">
     <!-- Ground Truth -->
     <g style="fill: #262626" transform="translate(237.132656 34.181472)scale(0.11 -0.11)">
      <defs>
       <path id="DejaVuSans-47" d="M 3809 666 
L 3809 1919 
L 2778 1919 
L 2778 2438 
L 4434 2438 
L 4434 434 
Q 4069 175 3628 42 
Q 3188 -91 2688 -91 
Q 1594 -91 976 548 
Q 359 1188 359 2328 
Q 359 3472 976 4111 
Q 1594 4750 2688 4750 
Q 3144 4750 3555 4637 
Q 3966 4525 4313 4306 
L 4313 3634 
Q 3963 3931 3569 4081 
Q 3175 4231 2741 4231 
Q 1884 4231 1454 3753 
Q 1025 3275 1025 2328 
Q 1025 1384 1454 906 
Q 1884 428 2741 428 
Q 3075 428 3337 486 
Q 3600 544 3809 666 
z
" transform="scale(0.015625)"/>
       <path id="DejaVuSans-72" d="M 2631 2963 
Q 2534 3019 2420 3045 
Q 2306 3072 2169 3072 
Q 1681 3072 1420 2755 
Q 1159 2438 1159 1844 
L 1159 0 
L 581 0 
L 581 3500 
L 1159 3500 
L 1159 2956 
Q 1341 3275 1631 3429 
Q 1922 3584 2338 3584 
Q 2397 3584 2469 3576 
Q 2541 3569 2628 3553 
L 2631 2963 
z
" transform="scale(0.015625)"/>
       <path id="DejaVuSans-6f" d="M 1959 3097 
Q 1497 3097 1228 2736 
Q 959 2375 959 1747 
Q 959 1119 1226 758 
Q 1494 397 1959 397 
Q 2419 397 2687 759 
Q 2956 1122 2956 1747 
Q 2956 2369 2687 2733 
Q 2419 3097 1959 3097 
z
M 1959 3584 
Q 2709 3584 3137 3096 
Q 3566 2609 3566 1747 
Q 3566 888 3137 398 
Q 2709 -91 1959 -91 
Q 1206 -91 779 398 
Q 353 888 353 1747 
Q 353 2609 779 3096 
Q 1206 3584 1959 3584 
z
" transform="scale(0.015625)"/>
       <path id="DejaVuSans-75" d="M 544 1381 
L 544 3500 
L 1119 3500 
L 1119 1403 
Q 1119 906 1312 657 
Q 1506 409 1894 409 
Q 2359 409 2629 706 
Q 2900 1003 2900 1516 
L 2900 3500 
L 3475 3500 
L 3475 0 
L 2900 0 
L 2900 538 
Q 2691 219 2414 64 
Q 2138 -91 1772 -91 
Q 1169 -91 856 284 
Q 544 659 544 1381 
z
M 1991 3584 
L 1991 3584 
z
" transform="scale(0.015625)"/>
       <path id="DejaVuSans-6e" d="M 3513 2113 
L 3513 0 
L 2938 0 
L 2938 2094 
Q 2938 2591 2744 2837 
Q 2550 3084 2163 3084 
Q 1697 3084 1428 2787 
Q 1159 2491 1159 1978 
L 1159 0 
L 581 0 
L 581 3500 
L 1159 3500 
L 1159 2956 
Q 1366 3272 1645 3428 
Q 1925 3584 2291 3584 
Q 2894 3584 3203 3211 
Q 3513 2838 3513 2113 
z
" transform="scale(0.015625)"/>
       <path id="DejaVuSans-64" d="M 2906 2969 
L 2906 4863 
L 3481 4863 
L 3481 0 
L 2906 0 
L 2906 525 
Q 2725 213 2448 61 
Q 2172 -91 1784 -91 
Q 1150 -91 751 415 
Q 353 922 353 1747 
Q 353 2572 751 3078 
Q 1150 3584 1784 3584 
Q 2172 3584 2448 3432 
Q 2725 3281 2906 2969 
z
M 947 1747 
Q 947 1113 1208 752 
Q 1469 391 1925 391 
Q 2381 391 2643 752 
Q 2906 1113 2906 1747 
Q 2906 2381 2643 2742 
Q 2381 3103 1925 3103 
Q 1469 3103 1208 2742 
Q 947 2381 947 1747 
z
" transform="scale(0.015625)"/>
       <path id="DejaVuSans-54" d="M -19 4666 
L 3928 4666 
L 3928 4134 
L 2272 4134 
L 2272 0 
L 1638 0 
L 1638 4134 
L -19 4134 
L -19 4666 
z
" transform="scale(0.015625)"/>
       <path id="DejaVuSans-74" d="M 1172 4494 
L 1172 3500 
L 2356 3500 
L 2356 3053 
L 1172 3053 
L 1172 1153 
Q 1172 725 1289 603 
Q 1406 481 1766 481 
L 2356 481 
L 2356 0 
L 1766 0 
Q 1100 0 847 248 
Q 594 497 594 1153 
L 594 3053 
L 172 3053 
L 172 3500 
L 594 3500 
L 594 4494 
L 1172 4494 
z
" transform="scale(0.015625)"/>
       <path id="DejaVuSans-68" d="M 3513 2113 
L 3513 0 
L 2938 0 
L 2938 2094 
Q 2938 2591 2744 2837 
Q 2550 3084 2163 3084 
Q 1697 3084 1428 2787 
Q 1159 2491 1159 1978 
L 1159 0 
L 581 0 
L 581 4863 
L 1159 4863 
L 1159 2956 
Q 1366 3272 1645 3428 
Q 1925 3584 2291 3584 
Q 2894 3584 3203 3211 
Q 3513 2838 3513 2113 
z
" transform="scale(0.015625)"/>
      </defs>
      <use xlink:href="#DejaVuSans-47"/>
      <use xlink:href="#DejaVuSans-72" x="77.490234"/>
      <use xlink:href="#DejaVuSans-6f" x="116.353516"/>
      <use xlink:href="#DejaVuSans-75" x="177.535156"/>
      <use xlink:href="#DejaVuSans-6e" x="240.914062"/>
      <use xlink:href="#DejaVuSans-64" x="304.292969"/>
      <use xlink:href="#DejaVuSans-20" x="367.769531"/>
      <use xlink:href="#DejaVuSans-54" x="399.556641"/>
      <use xlink:href="#DejaVuSans-72" x="445.890625"/>
      <use xlink:href="#DejaVuSans-75" x="487.003906"/>
      <use xlink:href="#DejaVuSans-74" x="550.382812"/>
      <use xlink:href="#DejaVuSans-68" x="589.591797"/>
     </g>
    </g>
    <g id="line2d_20">
     <path d="M 206.332656 46.47741 
L 217.332656 46.47741 
L 228.332656 46.47741 
" style="fill: none; stroke: #4c72b0; stroke-opacity: 0.75; stroke-width: 1.5; stroke-linecap: round"/>
    </g>
    <g id="text_18">
     <!-- GNSS-Stereo-Inertial (Ours) -->
     <g style="fill: #262626" transform="translate(237.132656 50.32741)scale(0.11 -0.11)">
      <defs>
       <path id="DejaVuSans-4e" d="M 628 4666 
L 1478 4666 
L 3547 763 
L 3547 4666 
L 4159 4666 
L 4159 0 
L 3309 0 
L 1241 3903 
L 1241 0 
L 628 0 
L 628 4666 
z
" transform="scale(0.015625)"/>
       <path id="DejaVuSans-53" d="M 3425 4513 
L 3425 3897 
Q 3066 4069 2747 4153 
Q 2428 4238 2131 4238 
Q 1616 4238 1336 4038 
Q 1056 3838 1056 3469 
Q 1056 3159 1242 3001 
Q 1428 2844 1947 2747 
L 2328 2669 
Q 3034 2534 3370 2195 
Q 3706 1856 3706 1288 
Q 3706 609 3251 259 
Q 2797 -91 1919 -91 
Q 1588 -91 1214 -16 
Q 841 59 441 206 
L 441 856 
Q 825 641 1194 531 
Q 1563 422 1919 422 
Q 2459 422 2753 634 
Q 3047 847 3047 1241 
Q 3047 1584 2836 1778 
Q 2625 1972 2144 2069 
L 1759 2144 
Q 1053 2284 737 2584 
Q 422 2884 422 3419 
Q 422 4038 858 4394 
Q 1294 4750 2059 4750 
Q 2388 4750 2728 4690 
Q 3069 4631 3425 4513 
z
" transform="scale(0.015625)"/>
       <path id="DejaVuSans-2d" d="M 313 2009 
L 1997 2009 
L 1997 1497 
L 313 1497 
L 313 2009 
z
" transform="scale(0.015625)"/>
       <path id="DejaVuSans-65" d="M 3597 1894 
L 3597 1613 
L 953 1613 
Q 991 1019 1311 708 
Q 1631 397 2203 397 
Q 2534 397 2845 478 
Q 3156 559 3463 722 
L 3463 178 
Q 3153 47 2828 -22 
Q 2503 -91 2169 -91 
Q 1331 -91 842 396 
Q 353 884 353 1716 
Q 353 2575 817 3079 
Q 1281 3584 2069 3584 
Q 2775 3584 3186 3129 
Q 3597 2675 3597 1894 
z
M 3022 2063 
Q 3016 2534 2758 2815 
Q 2500 3097 2075 3097 
Q 1594 3097 1305 2825 
Q 1016 2553 972 2059 
L 3022 2063 
z
" transform="scale(0.015625)"/>
       <path id="DejaVuSans-49" d="M 628 4666 
L 1259 4666 
L 1259 0 
L 628 0 
L 628 4666 
z
" transform="scale(0.015625)"/>
       <path id="DejaVuSans-69" d="M 603 3500 
L 1178 3500 
L 1178 0 
L 603 0 
L 603 3500 
z
M 603 4863 
L 1178 4863 
L 1178 4134 
L 603 4134 
L 603 4863 
z
" transform="scale(0.015625)"/>
       <path id="DejaVuSans-61" d="M 2194 1759 
Q 1497 1759 1228 1600 
Q 959 1441 959 1056 
Q 959 750 1161 570 
Q 1363 391 1709 391 
Q 2188 391 2477 730 
Q 2766 1069 2766 1631 
L 2766 1759 
L 2194 1759 
z
M 3341 1997 
L 3341 0 
L 2766 0 
L 2766 531 
Q 2569 213 2275 61 
Q 1981 -91 1556 -91 
Q 1019 -91 701 211 
Q 384 513 384 1019 
Q 384 1609 779 1909 
Q 1175 2209 1959 2209 
L 2766 2209 
L 2766 2266 
Q 2766 2663 2505 2880 
Q 2244 3097 1772 3097 
Q 1472 3097 1187 3025 
Q 903 2953 641 2809 
L 641 3341 
Q 956 3463 1253 3523 
Q 1550 3584 1831 3584 
Q 2591 3584 2966 3190 
Q 3341 2797 3341 1997 
z
" transform="scale(0.015625)"/>
       <path id="DejaVuSans-6c" d="M 603 4863 
L 1178 4863 
L 1178 0 
L 603 0 
L 603 4863 
z
" transform="scale(0.015625)"/>
       <path id="DejaVuSans-4f" d="M 2522 4238 
Q 1834 4238 1429 3725 
Q 1025 3213 1025 2328 
Q 1025 1447 1429 934 
Q 1834 422 2522 422 
Q 3209 422 3611 934 
Q 4013 1447 4013 2328 
Q 4013 3213 3611 3725 
Q 3209 4238 2522 4238 
z
M 2522 4750 
Q 3503 4750 4090 4092 
Q 4678 3434 4678 2328 
Q 4678 1225 4090 567 
Q 3503 -91 2522 -91 
Q 1538 -91 948 565 
Q 359 1222 359 2328 
Q 359 3434 948 4092 
Q 1538 4750 2522 4750 
z
" transform="scale(0.015625)"/>
       <path id="DejaVuSans-73" d="M 2834 3397 
L 2834 2853 
Q 2591 2978 2328 3040 
Q 2066 3103 1784 3103 
Q 1356 3103 1142 2972 
Q 928 2841 928 2578 
Q 928 2378 1081 2264 
Q 1234 2150 1697 2047 
L 1894 2003 
Q 2506 1872 2764 1633 
Q 3022 1394 3022 966 
Q 3022 478 2636 193 
Q 2250 -91 1575 -91 
Q 1294 -91 989 -36 
Q 684 19 347 128 
L 347 722 
Q 666 556 975 473 
Q 1284 391 1588 391 
Q 1994 391 2212 530 
Q 2431 669 2431 922 
Q 2431 1156 2273 1281 
Q 2116 1406 1581 1522 
L 1381 1569 
Q 847 1681 609 1914 
Q 372 2147 372 2553 
Q 372 3047 722 3315 
Q 1072 3584 1716 3584 
Q 2034 3584 2315 3537 
Q 2597 3491 2834 3397 
z
" transform="scale(0.015625)"/>
      </defs>
      <use xlink:href="#DejaVuSans-47"/>
      <use xlink:href="#DejaVuSans-4e" x="77.490234"/>
      <use xlink:href="#DejaVuSans-53" x="152.294922"/>
      <use xlink:href="#DejaVuSans-53" x="215.771484"/>
      <use xlink:href="#DejaVuSans-2d" x="279.248047"/>
      <use xlink:href="#DejaVuSans-53" x="315.332031"/>
      <use xlink:href="#DejaVuSans-74" x="378.808594"/>
      <use xlink:href="#DejaVuSans-65" x="418.017578"/>
      <use xlink:href="#DejaVuSans-72" x="479.541016"/>
      <use xlink:href="#DejaVuSans-65" x="518.404297"/>
      <use xlink:href="#DejaVuSans-6f" x="579.927734"/>
      <use xlink:href="#DejaVuSans-2d" x="642.984375"/>
      <use xlink:href="#DejaVuSans-49" x="679.068359"/>
      <use xlink:href="#DejaVuSans-6e" x="708.560547"/>
      <use xlink:href="#DejaVuSans-65" x="771.939453"/>
      <use xlink:href="#DejaVuSans-72" x="833.462891"/>
      <use xlink:href="#DejaVuSans-74" x="874.576172"/>
      <use xlink:href="#DejaVuSans-69" x="913.785156"/>
      <use xlink:href="#DejaVuSans-61" x="941.568359"/>
      <use xlink:href="#DejaVuSans-6c" x="1002.847656"/>
      <use xlink:href="#DejaVuSans-20" x="1030.630859"/>
      <use xlink:href="#DejaVuSans-28" x="1062.417969"/>
      <use xlink:href="#DejaVuSans-4f" x="1101.431641"/>
      <use xlink:href="#DejaVuSans-75" x="1180.142578"/>
      <use xlink:href="#DejaVuSans-72" x="1243.521484"/>
      <use xlink:href="#DejaVuSans-73" x="1284.634766"/>
      <use xlink:href="#DejaVuSans-29" x="1336.734375"/>
     </g>
    </g>
    <g id="line2d_21">
     <path d="M 206.332656 62.623347 
L 217.332656 62.623347 
L 228.332656 62.623347 
" style="fill: none; stroke: #55a868; stroke-opacity: 0.75; stroke-width: 1.5; stroke-linecap: round"/>
    </g>
    <g id="text_19">
     <!-- GNSS-Stereo-Inertial (Qin et al) -->
     <g style="fill: #262626" transform="translate(237.132656 66.473347)scale(0.11 -0.11)">
      <defs>
       <path id="DejaVuSans-51" d="M 2522 4238 
Q 1834 4238 1429 3725 
Q 1025 3213 1025 2328 
Q 1025 1447 1429 934 
Q 1834 422 2522 422 
Q 3209 422 3611 934 
Q 4013 1447 4013 2328 
Q 4013 3213 3611 3725 
Q 3209 4238 2522 4238 
z
M 3406 84 
L 4238 -825 
L 3475 -825 
L 2784 -78 
Q 2681 -84 2626 -87 
Q 2572 -91 2522 -91 
Q 1538 -91 948 567 
Q 359 1225 359 2328 
Q 359 3434 948 4092 
Q 1538 4750 2522 4750 
Q 3503 4750 4090 4092 
Q 4678 3434 4678 2328 
Q 4678 1516 4351 937 
Q 4025 359 3406 84 
z
" transform="scale(0.015625)"/>
      </defs>
      <use xlink:href="#DejaVuSans-47"/>
      <use xlink:href="#DejaVuSans-4e" x="77.490234"/>
      <use xlink:href="#DejaVuSans-53" x="152.294922"/>
      <use xlink:href="#DejaVuSans-53" x="215.771484"/>
      <use xlink:href="#DejaVuSans-2d" x="279.248047"/>
      <use xlink:href="#DejaVuSans-53" x="315.332031"/>
      <use xlink:href="#DejaVuSans-74" x="378.808594"/>
      <use xlink:href="#DejaVuSans-65" x="418.017578"/>
      <use xlink:href="#DejaVuSans-72" x="479.541016"/>
      <use xlink:href="#DejaVuSans-65" x="518.404297"/>
      <use xlink:href="#DejaVuSans-6f" x="579.927734"/>
      <use xlink:href="#DejaVuSans-2d" x="642.984375"/>
      <use xlink:href="#DejaVuSans-49" x="679.068359"/>
      <use xlink:href="#DejaVuSans-6e" x="708.560547"/>
      <use xlink:href="#DejaVuSans-65" x="771.939453"/>
      <use xlink:href="#DejaVuSans-72" x="833.462891"/>
      <use xlink:href="#DejaVuSans-74" x="874.576172"/>
      <use xlink:href="#DejaVuSans-69" x="913.785156"/>
      <use xlink:href="#DejaVuSans-61" x="941.568359"/>
      <use xlink:href="#DejaVuSans-6c" x="1002.847656"/>
      <use xlink:href="#DejaVuSans-20" x="1030.630859"/>
      <use xlink:href="#DejaVuSans-28" x="1062.417969"/>
      <use xlink:href="#DejaVuSans-51" x="1101.431641"/>
      <use xlink:href="#DejaVuSans-69" x="1180.142578"/>
      <use xlink:href="#DejaVuSans-6e" x="1207.925781"/>
      <use xlink:href="#DejaVuSans-20" x="1271.304688"/>
      <use xlink:href="#DejaVuSans-65" x="1303.091797"/>
      <use xlink:href="#DejaVuSans-74" x="1364.615234"/>
      <use xlink:href="#DejaVuSans-20" x="1403.824219"/>
      <use xlink:href="#DejaVuSans-61" x="1435.611328"/>
      <use xlink:href="#DejaVuSans-6c" x="1496.890625"/>
      <use xlink:href="#DejaVuSans-29" x="1524.673828"/>
     </g>
    </g>
    <g id="line2d_22">
     <path d="M 206.332656 78.769285 
L 217.332656 78.769285 
L 228.332656 78.769285 
" style="fill: none; stroke: #c44e52; stroke-opacity: 0.75; stroke-width: 1.5; stroke-linecap: round"/>
    </g>
    <g id="text_20">
     <!-- Stereo-Inertial (Campos et al) -->
     <g style="fill: #262626" transform="translate(237.132656 82.619285)scale(0.11 -0.11)">
      <defs>
       <path id="DejaVuSans-43" d="M 4122 4306 
L 4122 3641 
Q 3803 3938 3442 4084 
Q 3081 4231 2675 4231 
Q 1875 4231 1450 3742 
Q 1025 3253 1025 2328 
Q 1025 1406 1450 917 
Q 1875 428 2675 428 
Q 3081 428 3442 575 
Q 3803 722 4122 1019 
L 4122 359 
Q 3791 134 3420 21 
Q 3050 -91 2638 -91 
Q 1578 -91 968 557 
Q 359 1206 359 2328 
Q 359 3453 968 4101 
Q 1578 4750 2638 4750 
Q 3056 4750 3426 4639 
Q 3797 4528 4122 4306 
z
" transform="scale(0.015625)"/>
       <path id="DejaVuSans-70" d="M 1159 525 
L 1159 -1331 
L 581 -1331 
L 581 3500 
L 1159 3500 
L 1159 2969 
Q 1341 3281 1617 3432 
Q 1894 3584 2278 3584 
Q 2916 3584 3314 3078 
Q 3713 2572 3713 1747 
Q 3713 922 3314 415 
Q 2916 -91 2278 -91 
Q 1894 -91 1617 61 
Q 1341 213 1159 525 
z
M 3116 1747 
Q 3116 2381 2855 2742 
Q 2594 3103 2138 3103 
Q 1681 3103 1420 2742 
Q 1159 2381 1159 1747 
Q 1159 1113 1420 752 
Q 1681 391 2138 391 
Q 2594 391 2855 752 
Q 3116 1113 3116 1747 
z
" transform="scale(0.015625)"/>
      </defs>
      <use xlink:href="#DejaVuSans-53"/>
      <use xlink:href="#DejaVuSans-74" x="63.476562"/>
      <use xlink:href="#DejaVuSans-65" x="102.685547"/>
      <use xlink:href="#DejaVuSans-72" x="164.208984"/>
      <use xlink:href="#DejaVuSans-65" x="203.072266"/>
      <use xlink:href="#DejaVuSans-6f" x="264.595703"/>
      <use xlink:href="#DejaVuSans-2d" x="327.652344"/>
      <use xlink:href="#DejaVuSans-49" x="363.736328"/>
      <use xlink:href="#DejaVuSans-6e" x="393.228516"/>
      <use xlink:href="#DejaVuSans-65" x="456.607422"/>
      <use xlink:href="#DejaVuSans-72" x="518.130859"/>
      <use xlink:href="#DejaVuSans-74" x="559.244141"/>
      <use xlink:href="#DejaVuSans-69" x="598.453125"/>
      <use xlink:href="#DejaVuSans-61" x="626.236328"/>
      <use xlink:href="#DejaVuSans-6c" x="687.515625"/>
      <use xlink:href="#DejaVuSans-20" x="715.298828"/>
      <use xlink:href="#DejaVuSans-28" x="747.085938"/>
      <use xlink:href="#DejaVuSans-43" x="786.099609"/>
      <use xlink:href="#DejaVuSans-61" x="855.923828"/>
      <use xlink:href="#DejaVuSans-6d" x="917.203125"/>
      <use xlink:href="#DejaVuSans-70" x="1014.615234"/>
      <use xlink:href="#DejaVuSans-6f" x="1078.091797"/>
      <use xlink:href="#DejaVuSans-73" x="1139.273438"/>
      <use xlink:href="#DejaVuSans-20" x="1191.373047"/>
      <use xlink:href="#DejaVuSans-65" x="1223.160156"/>
      <use xlink:href="#DejaVuSans-74" x="1284.683594"/>
      <use xlink:href="#DejaVuSans-20" x="1323.892578"/>
      <use xlink:href="#DejaVuSans-61" x="1355.679688"/>
      <use xlink:href="#DejaVuSans-6c" x="1416.958984"/>
      <use xlink:href="#DejaVuSans-29" x="1444.742188"/>
     </g>
    </g>
   </g>
  </g>
  <g id="axes_2">
   <g id="patch_9">
    <path d="M 285.596898 358.34 
L 397.04 358.34 
L 397.04 246.896898 
L 285.596898 246.896898 
z
" style="fill: #eaeaf2"/>
   </g>
   <g id="matplotlib.axis_3">
    <g id="xtick_8">
     <g id="line2d_23">
      <path d="M 292.444817 358.34 
L 292.444817 246.896898 
" clip-path="url(#pb2d61a86f3)" style="fill: none; stroke: #ffffff; stroke-linecap: round"/>
     </g>
     <g id="text_21">
      <!-- 150 -->
      <g style="fill: #262626" transform="translate(281.946692 376.198281)scale(0.11 -0.11)">
       <use xlink:href="#DejaVuSans-31"/>
       <use xlink:href="#DejaVuSans-35" x="63.623047"/>
       <use xlink:href="#DejaVuSans-30" x="127.246094"/>
      </g>
     </g>
    </g>
    <g id="xtick_9">
     <g id="line2d_24">
      <path d="M 329.592518 358.34 
L 329.592518 246.896898 
" clip-path="url(#pb2d61a86f3)" style="fill: none; stroke: #ffffff; stroke-linecap: round"/>
     </g>
     <g id="text_22">
      <!-- 160 -->
      <g style="fill: #262626" transform="translate(319.094393 376.198281)scale(0.11 -0.11)">
       <defs>
        <path id="DejaVuSans-36" d="M 2113 2584 
Q 1688 2584 1439 2293 
Q 1191 2003 1191 1497 
Q 1191 994 1439 701 
Q 1688 409 2113 409 
Q 2538 409 2786 701 
Q 3034 994 3034 1497 
Q 3034 2003 2786 2293 
Q 2538 2584 2113 2584 
z
M 3366 4563 
L 3366 3988 
Q 3128 4100 2886 4159 
Q 2644 4219 2406 4219 
Q 1781 4219 1451 3797 
Q 1122 3375 1075 2522 
Q 1259 2794 1537 2939 
Q 1816 3084 2150 3084 
Q 2853 3084 3261 2657 
Q 3669 2231 3669 1497 
Q 3669 778 3244 343 
Q 2819 -91 2113 -91 
Q 1303 -91 875 529 
Q 447 1150 447 2328 
Q 447 3434 972 4092 
Q 1497 4750 2381 4750 
Q 2619 4750 2861 4703 
Q 3103 4656 3366 4563 
z
" transform="scale(0.015625)"/>
       </defs>
       <use xlink:href="#DejaVuSans-31"/>
       <use xlink:href="#DejaVuSans-36" x="63.623047"/>
       <use xlink:href="#DejaVuSans-30" x="127.246094"/>
      </g>
     </g>
    </g>
    <g id="xtick_10">
     <g id="line2d_25">
      <path d="M 366.740218 358.34 
L 366.740218 246.896898 
" clip-path="url(#pb2d61a86f3)" style="fill: none; stroke: #ffffff; stroke-linecap: round"/>
     </g>
     <g id="text_23">
      <!-- 170 -->
      <g style="fill: #262626" transform="translate(356.242093 376.198281)scale(0.11 -0.11)">
       <defs>
        <path id="DejaVuSans-37" d="M 525 4666 
L 3525 4666 
L 3525 4397 
L 1831 0 
L 1172 0 
L 2766 4134 
L 525 4134 
L 525 4666 
z
" transform="scale(0.015625)"/>
       </defs>
       <use xlink:href="#DejaVuSans-31"/>
       <use xlink:href="#DejaVuSans-37" x="63.623047"/>
       <use xlink:href="#DejaVuSans-30" x="127.246094"/>
      </g>
     </g>
    </g>
   </g>
   <g id="matplotlib.axis_4">
    <g id="ytick_8">
     <g id="line2d_26">
      <path d="M 285.596898 330.667059 
L 397.04 330.667059 
" clip-path="url(#pb2d61a86f3)" style="fill: none; stroke: #ffffff; stroke-linecap: round"/>
     </g>
     <g id="text_24">
      <!-- 0 -->
      <g style="fill: #262626" transform="translate(269.098148 334.846199)scale(0.11 -0.11)">
       <use xlink:href="#DejaVuSans-30"/>
      </g>
     </g>
    </g>
    <g id="ytick_9">
     <g id="line2d_27">
      <path d="M 285.596898 293.519358 
L 397.04 293.519358 
" clip-path="url(#pb2d61a86f3)" style="fill: none; stroke: #ffffff; stroke-linecap: round"/>
     </g>
     <g id="text_25">
      <!-- 10 -->
      <g style="fill: #262626" transform="translate(262.099398 297.698498)scale(0.11 -0.11)">
       <use xlink:href="#DejaVuSans-31"/>
       <use xlink:href="#DejaVuSans-30" x="63.623047"/>
      </g>
     </g>
    </g>
    <g id="ytick_10">
     <g id="line2d_28">
      <path d="M 285.596898 256.371657 
L 397.04 256.371657 
" clip-path="url(#pb2d61a86f3)" style="fill: none; stroke: #ffffff; stroke-linecap: round"/>
     </g>
     <g id="text_26">
      <!-- 20 -->
      <g style="fill: #262626" transform="translate(262.099398 260.550798)scale(0.11 -0.11)">
       <defs>
        <path id="DejaVuSans-32" d="M 1228 531 
L 3431 531 
L 3431 0 
L 469 0 
L 469 531 
Q 828 903 1448 1529 
Q 2069 2156 2228 2338 
Q 2531 2678 2651 2914 
Q 2772 3150 2772 3378 
Q 2772 3750 2511 3984 
Q 2250 4219 1831 4219 
Q 1534 4219 1204 4116 
Q 875 4013 500 3803 
L 500 4441 
Q 881 4594 1212 4672 
Q 1544 4750 1819 4750 
Q 2544 4750 2975 4387 
Q 3406 4025 3406 3419 
Q 3406 3131 3298 2873 
Q 3191 2616 2906 2266 
Q 2828 2175 2409 1742 
Q 1991 1309 1228 531 
z
" transform="scale(0.015625)"/>
       </defs>
       <use xlink:href="#DejaVuSans-32"/>
       <use xlink:href="#DejaVuSans-30" x="63.623047"/>
      </g>
     </g>
    </g>
   </g>
   <g id="patch_10">
    <path d="M 285.596898 246.896898 
L 389.347339 180.594368 
" style="fill: none; stroke: #808080; stroke-linejoin: miter"/>
   </g>
   <g id="patch_11">
    <path d="M 397.04 358.34 
L 417.208115 208.455144 
" style="fill: none; stroke: #808080; stroke-linejoin: miter"/>
   </g>
   <g id="line2d_29">
    <path d="M -1 306.321207 
L 0.479229 306.334452 
L 2.260051 306.296193 
L 3.309958 306.47191 
L 5.369573 306.550543 
L 6.294734 306.658493 
L 7.393287 306.573505 
L 8.285947 306.629286 
L 11.950757 306.428472 
L 19.025148 305.946142 
L 19.716991 306.063124 
L 20.451485 305.958429 
L 21.192706 306.036569 
L 21.876756 305.908878 
L 23.466269 305.976656 
L 27.188735 305.814095 
L 28.0395 305.853235 
L 28.872096 305.731974 
L 30.697687 305.739951 
L 33.508858 305.814514 
L 35.346148 305.615301 
L 37.388766 305.762277 
L 39.750205 305.991924 
L 40.675366 305.87047 
L 42.625762 306.029323 
L 44.595046 306.083471 
L 45.624607 306.350128 
L 50.576173 305.796823 
L 52.167264 305.901037 
L 52.947086 305.786267 
L 60.253697 305.865659 
L 61.13875 306.097807 
L 63.482436 306.031755 
L 65.180198 305.952674 
L 65.888235 305.81173 
L 67.342323 305.996976 
L 69.038354 306.003715 
L 69.895649 306.005898 
L 70.777551 305.878078 
L 74.77573 305.927823 
L 75.58603 305.850758 
L 78.146998 305.165438 
L 79.026544 305.039631 
L 79.837316 305.053926 
L 82.450107 304.724749 
L 85.296868 304.813083 
L 86.268667 304.759882 
L 87.146292 304.930065 
L 88.150041 304.812945 
L 89.180886 304.815196 
L 91.211232 304.996956 
L 92.316064 304.916218 
L 93.342584 305.04682 
L 95.498863 305.036745 
L 98.706622 305.181816 
L 107.432002 305.591362 
L 112.893209 304.637615 
L 113.810315 304.628643 
L 114.660717 304.485077 
L 115.69875 304.589813 
L 118.298449 304.479477 
L 125.078621 304.530403 
L 133.307637 304.969092 
L 134.997997 305.19963 
L 136.656628 305.253697 
L 139.650508 305.30448 
L 140.478831 305.452378 
L 144.737622 305.344607 
L 148.974578 304.885419 
L 150.791446 304.838279 
L 154.268058 304.876137 
L 155.35328 304.935807 
L 156.304286 304.909662 
L 162.257215 304.759145 
L 163.090044 304.540361 
L 165.535465 303.560808 
L 166.453351 303.255137 
L 170.914322 302.531229 
L 173.766848 302.763924 
L 176.294153 303.575247 
L 180.816988 305.433741 
L 182.30192 305.810556 
L 183.01173 305.925842 
L 187.25387 305.754551 
L 188.224783 305.515887 
L 189.918617 304.914732 
L 193.371968 303.868974 
L 194.320855 303.718469 
L 195.153854 303.462599 
L 197.140418 303.291132 
L 198.1253 303.22034 
L 199.229259 303.297561 
L 201.276146 303.663048 
L 203.491952 303.827951 
L 205.73962 303.761345 
L 209.06324 303.898461 
L 214.817293 304.142996 
L 219.170123 304.478083 
L 229.775182 303.849302 
L 235.123172 303.718873 
L 236.643646 303.710401 
L 242.641034 303.678932 
L 247.35095 303.748551 
L 248.310415 303.675874 
L 252.517586 303.718179 
L 254.618672 303.461797 
L 259.678612 303.587247 
L 261.695368 303.439058 
L 265.192593 303.573501 
L 269.781358 303.339842 
L 279.326917 303.297552 
L 280.103515 303.428611 
L 280.924928 303.345594 
L 283.414504 303.503663 
L 284.132763 303.429554 
L 286.637232 303.623639 
L 290.559755 303.351813 
L 291.40706 303.533753 
L 293.323543 303.595777 
L 294.179683 303.597942 
L 295.0197 303.481645 
L 296.839554 303.573314 
L 303.577346 303.201698 
L 308.632075 303.384744 
L 309.655345 303.303739 
L 310.672834 303.423176 
L 312.680278 303.4211 
L 314.625433 303.32367 
L 317.627867 303.237272 
L 319.58808 303.282323 
L 324.526425 302.925912 
L 326.459247 302.579596 
L 328.464851 302.324726 
L 330.388031 302.341556 
L 332.924527 302.410599 
L 333.767242 302.303973 
L 334.607556 302.459672 
L 338.208853 302.511053 
L 338.828734 302.581944 
L 339.495171 302.4958 
L 341.318449 302.618449 
L 341.318449 302.618449 
" clip-path="url(#pb2d61a86f3)" style="fill: none; stroke-dasharray: 5.55,2.4; stroke-dashoffset: 0; stroke: #000000; stroke-opacity: 0.5; stroke-width: 1.5"/>
   </g>
   <g id="line2d_30">
    <path d="M -1 307.370805 
L 3.645692 307.464804 
L 4.565133 307.424152 
L 6.524238 307.580594 
L 7.584969 307.570586 
L 9.60211 307.765699 
L 10.602859 307.66112 
L 11.532552 307.770011 
L 12.452082 307.634578 
L 19.338804 307.346293 
L 20.734624 307.355852 
L 22.198981 307.184971 
L 22.885034 307.275424 
L 33.900343 306.863874 
L 35.650961 307.029223 
L 37.367927 306.771128 
L 39.22109 306.933192 
L 41.361857 307.020306 
L 42.269456 307.091738 
L 43.415802 307.019793 
L 44.47546 307.233888 
L 47.524 307.368412 
L 48.543315 307.467545 
L 49.472946 307.257373 
L 53.404865 307.029688 
L 54.078721 307.151429 
L 56.035326 306.968963 
L 58.379388 307.034232 
L 60.091758 306.986961 
L 61.610798 307.106922 
L 62.424922 306.914265 
L 64.127682 307.25001 
L 66.703092 307.059295 
L 67.51448 307.091872 
L 68.928754 306.971598 
L 69.738966 307.149617 
L 70.427825 307.064372 
L 71.97844 307.102809 
L 73.739502 306.953535 
L 74.62619 307.062937 
L 75.587041 306.996772 
L 76.380185 307.146948 
L 78.821641 306.905762 
L 79.490082 306.599316 
L 82.256189 306.193096 
L 83.040216 306.218084 
L 85.734422 305.804833 
L 87.539011 305.969046 
L 88.476889 305.839156 
L 90.495996 306.033428 
L 91.343156 305.875328 
L 92.458379 305.842468 
L 93.512956 305.972317 
L 99.236731 306.076334 
L 101.356471 306.250418 
L 103.480536 306.239107 
L 110.661885 306.579218 
L 112.624608 306.220206 
L 115.253813 305.759008 
L 116.939883 305.681369 
L 118.646495 305.615157 
L 128.698769 305.701956 
L 133.575516 305.976673 
L 134.972816 305.995146 
L 135.778402 306.049991 
L 132.398816 306.346965 
L 133.228605 306.368554 
L 134.478361 306.422042 
L 136.068195 306.440818 
L 139.010659 306.63027 
L 140.499829 306.569398 
L 141.341486 306.546835 
L 141.522677 306.412553 
L 142.292556 306.386802 
L 143.219004 306.237808 
L 145.761623 306.077148 
L 149.404485 305.998021 
L 151.788135 306.11582 
L 154.369614 305.987706 
L 157.145147 306.070172 
L 158.553156 305.895887 
L 159.358746 305.65148 
L 160.924997 305.027946 
L 162.918378 304.520114 
L 166.42872 303.948099 
L 167.363859 303.821186 
L 168.301138 303.934515 
L 169.184312 303.905807 
L 170.104309 304.076497 
L 177.714048 306.760852 
L 178.402041 306.949913 
L 181.577463 306.990012 
L 184.226376 306.580294 
L 187.016893 305.768016 
L 191.362643 304.806089 
L 193.207189 304.610907 
L 194.15322 304.547454 
L 198.462666 305.098332 
L 199.419985 305.103172 
L 200.359971 304.97518 
L 202.451502 305.07519 
L 204.535127 305.153991 
L 207.724759 305.215624 
L 209.529064 305.424876 
L 210.588302 305.420535 
L 212.646139 305.642635 
L 228.729585 304.931467 
L 233.65933 304.913297 
L 242.043415 304.914908 
L 243.080535 305.049054 
L 248.316843 304.753059 
L 249.286513 304.821972 
L 250.295739 304.779386 
L 252.504215 304.957025 
L 254.393161 304.767333 
L 256.255358 304.855468 
L 257.01521 304.982096 
L 261.424605 304.713495 
L 262.199851 304.786943 
L 266.820928 304.617843 
L 269.307691 304.694707 
L 271.00361 304.64768 
L 272.700614 304.737549 
L 274.326367 304.770953 
L 276.626998 304.836671 
L 277.311375 304.703566 
L 278.140176 304.883576 
L 279.751494 304.920315 
L 281.270386 304.791387 
L 283.894145 304.797035 
L 284.672832 304.970952 
L 297.053136 304.743522 
L 304.787405 304.908236 
L 315.178136 304.534987 
L 317.051391 304.230572 
L 320.850445 303.844659 
L 323.234642 303.987071 
L 324.053727 303.932866 
L 325.827644 304.111066 
L 327.898064 304.043821 
L 329.594318 304.132564 
L 330.214336 304.091032 
L 331.371035 304.197158 
L 331.974491 304.222424 
L 331.974491 304.222424 
" clip-path="url(#pb2d61a86f3)" style="fill: none; stroke: #4c72b0; stroke-opacity: 0.75; stroke-width: 1.5; stroke-linecap: round"/>
   </g>
   <g id="line2d_31">
    <path d="M -1 309.985055 
L 0.916805 310.304417 
L 2.955777 307.962063 
L 7.838212 307.69331 
L 10.055642 308.507283 
L 12.738719 306.759502 
L 11.980182 309.483058 
L 13.295457 309.536844 
L 15.566057 309.748683 
L 23.590729 309.71449 
L 26.774048 309.977517 
L 28.541828 309.934069 
L 30.085125 308.744287 
L 32.530135 308.912766 
L 34.966843 309.231667 
L 40.316573 309.718704 
L 42.27139 309.58036 
L 43.892616 309.635048 
L 45.547272 309.303399 
L 47.009968 309.682745 
L 48.25664 309.518069 
L 48.014328 306.77258 
L 52.675369 307.008494 
L 57.32375 307.532822 
L 59.026388 307.611373 
L 60.533554 307.504468 
L 63.643384 307.709289 
L 64.798811 305.650842 
L 68.625286 306.607167 
L 70.096522 305.691906 
L 71.67585 305.2912 
L 72.418278 303.795922 
L 75.279579 303.431917 
L 77.04498 303.617578 
L 81.033835 303.479478 
L 82.158464 302.56912 
L 88.103732 302.541962 
L 90.259564 302.836914 
L 92.389223 302.771085 
L 96.398989 302.927944 
L 100.182307 302.88316 
L 101.457982 302.582834 
L 100.813203 304.296682 
L 102.71073 303.854768 
L 104.589045 303.654975 
L 108.084273 303.692638 
L 109.333586 303.590786 
L 112.201196 303.896919 
L 115.62651 303.997191 
L 124.530104 304.82366 
L 126.194779 304.900304 
L 127.84597 305.221224 
L 129.541411 305.421843 
L 131.923942 305.312384 
L 136.299875 305.650232 
L 139.888946 305.497801 
L 140.81212 303.776001 
L 146.067219 303.59839 
L 145.667752 303.03062 
L 146.262482 303.010127 
L 146.072747 303.019018 
L 147.238584 301.694351 
L 147.224049 301.693436 
L 147.929067 302.843888 
L 148.079733 302.829719 
L 149.972597 302.263784 
L 158.396279 302.217835 
L 160.131561 301.704437 
L 161.24685 301.202945 
L 164.719169 300.21008 
L 168.027364 299.914657 
L 169.985513 300.075457 
L 170.810503 300.0294 
L 172.391818 300.629939 
L 176.329148 302.713308 
L 177.856967 303.327496 
L 179.333052 302.683278 
L 181.126399 302.78336 
L 184.930027 302.002601 
L 187.949912 300.790675 
L 188.163322 301.845726 
L 190.01415 301.394733 
L 191.896712 301.137845 
L 193.987701 301.165873 
L 196.166909 301.66542 
L 196.664073 302.989132 
L 198.763218 303.259575 
L 201.003892 303.427703 
L 203.208757 303.723185 
L 208.121315 304.1198 
L 211.47829 302.815207 
L 213.781994 303.322648 
L 215.685464 303.334255 
L 219.56646 303.023705 
L 221.577451 301.217929 
L 224.867207 301.183443 
L 226.256855 301.339402 
L 227.970072 301.294467 
L 229.963879 301.703753 
L 235.998744 301.984056 
L 237.505356 301.741193 
L 246.757846 302.446702 
L 248.765613 301.448234 
L 251.0441 301.283504 
L 253.184295 301.387585 
L 254.476001 301.630159 
L 258.734556 301.598781 
L 259.2875 302.564518 
L 264.010812 302.667562 
L 269.722727 302.93482 
L 271.391877 303.177061 
L 273.218085 303.285287 
L 274.878498 303.544253 
L 271.850908 306.108881 
L 275.109772 306.71911 
L 276.796186 306.839512 
L 278.540366 307.470692 
L 280.280013 307.766798 
L 281.846452 305.649028 
L 283.409286 306.144029 
L 286.9987 306.379744 
L 288.218149 306.627319 
L 287.964886 304.334688 
L 293.321826 304.495062 
L 295.327873 304.650434 
L 298.866302 305.362947 
L 304.331103 305.992601 
L 306.279401 306.04644 
L 308.281582 306.25668 
L 311.353446 302.956718 
L 316.920692 302.935815 
L 318.909746 302.567087 
L 320.865957 302.329767 
L 326.727682 302.713436 
L 329.404095 303.059887 
L 330.857281 303.133365 
L 331.682091 304.059004 
L 332.933576 304.073115 
L 334.192253 304.335751 
L 334.192253 304.335751 
" clip-path="url(#pb2d61a86f3)" style="fill: none; stroke: #55a868; stroke-opacity: 0.75; stroke-width: 1.5; stroke-linecap: round"/>
   </g>
   <g id="line2d_32">
    <path d="M -1 307.822942 
L 8.546627 307.477559 
L 10.212579 307.418788 
L 10.868183 307.252021 
L 11.526227 307.352755 
L 12.241625 307.262373 
L 12.984242 307.32451 
L 13.696734 307.179082 
L 14.467092 307.247374 
L 15.221713 307.166062 
L 19.559396 307.044107 
L 21.305929 307.222401 
L 23.031677 306.978341 
L 24.861428 307.16345 
L 25.872088 307.12212 
L 27.789633 307.308865 
L 28.791704 307.207855 
L 29.91713 307.404473 
L 32.799053 307.507848 
L 33.657015 307.613859 
L 34.601768 307.400103 
L 42.542366 307.172145 
L 46.240907 307.269982 
L 47.00368 307.065877 
L 48.691561 307.452612 
L 51.187625 307.289564 
L 51.922635 307.294957 
L 52.64438 307.153859 
L 53.297073 307.140366 
L 54.023589 307.330478 
L 54.703985 307.241005 
L 56.178127 307.322224 
L 57.909307 307.140686 
L 58.783875 307.246016 
L 59.720749 307.189645 
L 60.476513 307.36848 
L 61.978621 307.220204 
L 62.832504 307.104998 
L 63.535154 306.760362 
L 66.830274 306.431914 
L 69.430583 306.079989 
L 71.114316 306.220305 
L 72.061839 306.086887 
L 73.814728 306.274156 
L 74.693836 306.104908 
L 83.832023 306.455431 
L 86.666702 306.451496 
L 92.005245 306.727559 
L 92.846672 306.722782 
L 100.024209 305.753324 
L 100.739897 305.806383 
L 108.400535 305.711808 
L 109.891051 305.816651 
L 113.325422 305.953266 
L 119.546209 306.367596 
L 121.098534 306.417551 
L 122.776125 306.42942 
L 125.765924 306.59967 
L 128.12285 306.534152 
L 130.555703 306.289662 
L 133.008574 306.147708 
L 137.104383 306.107786 
L 139.92075 306.181384 
L 141.531354 306.064277 
L 144.204809 306.147176 
L 145.61182 305.972066 
L 150.652748 304.400951 
L 151.239082 304.238326 
L 154.1968 303.905824 
L 155.138304 304.047889 
L 155.986526 303.980535 
L 157.61973 304.450529 
L 164.20161 306.780851 
L 164.809576 306.983946 
L 167.115322 307.03863 
L 167.81614 307.031686 
L 170.301327 306.590964 
L 171.142468 306.314546 
L 177.081669 304.870453 
L 177.964478 304.732202 
L 180.846848 304.726822 
L 181.76115 304.930165 
L 185.190847 305.153213 
L 186.197464 305.00038 
L 187.156458 305.110499 
L 190.210121 305.199272 
L 193.425511 305.222443 
L 197.704161 305.621827 
L 199.673248 305.670257 
L 202.452949 305.490396 
L 205.743087 305.300893 
L 206.756912 305.290843 
L 207.570712 305.164977 
L 209.103152 305.159278 
L 211.156454 305.024519 
L 211.805042 305.172555 
L 217.123227 304.963757 
L 228.362832 304.866223 
L 229.344074 305.028084 
L 234.244365 304.749929 
L 235.257937 304.827935 
L 236.186602 304.770134 
L 238.39214 304.874339 
L 240.2158 304.730127 
L 241.116155 304.696735 
L 242.853102 304.927182 
L 245.988606 304.658003 
L 247.098551 304.595836 
L 247.872673 304.695932 
L 252.409699 304.516671 
L 255.541145 304.561432 
L 259.630573 304.633443 
L 261.876569 304.674161 
L 262.55972 304.556544 
L 263.346329 304.747596 
L 264.953849 304.791155 
L 266.463056 304.619734 
L 268.931594 304.599798 
L 269.662986 304.819519 
L 276.634169 304.651514 
L 277.498885 304.545827 
L 281.234221 304.509645 
L 285.019272 304.707651 
L 285.83814 304.59776 
L 291.283189 304.765074 
L 292.240028 304.643418 
L 298.627107 304.595982 
L 300.69799 304.414049 
L 302.606812 304.072522 
L 306.32968 303.740804 
L 307.919132 303.825547 
L 314.108967 303.983309 
L 314.710145 304.056467 
L 315.826633 303.950757 
L 317.006604 304.057844 
L 317.596081 304.076133 
L 317.596081 304.076133 
" clip-path="url(#pb2d61a86f3)" style="fill: none; stroke: #c44e52; stroke-opacity: 0.75; stroke-width: 1.5; stroke-linecap: round"/>
   </g>
   <g id="patch_12">
    <path d="M 285.596898 358.34 
L 285.596898 246.896898 
" style="fill: none; stroke: #000000; stroke-width: 1.25; stroke-linejoin: miter; stroke-linecap: square"/>
   </g>
   <g id="patch_13">
    <path d="M 397.04 358.34 
L 397.04 246.896898 
" style="fill: none; stroke: #000000; stroke-width: 1.25; stroke-linejoin: miter; stroke-linecap: square"/>
   </g>
   <g id="patch_14">
    <path d="M 285.596898 358.34 
L 397.04 358.34 
" style="fill: none; stroke: #000000; stroke-width: 1.25; stroke-linejoin: miter; stroke-linecap: square"/>
   </g>
   <g id="patch_15">
    <path d="M 285.596898 246.896898 
L 397.04 246.896898 
" style="fill: none; stroke: #000000; stroke-width: 1.25; stroke-linejoin: miter; stroke-linecap: square"/>
   </g>
  </g>
 </g>
 <defs>
  <clipPath id="p99974ec2df">
   <rect x="72.27" y="15.923191" width="346.77" height="364.416809"/>
  </clipPath>
  <clipPath id="pb2d61a86f3">
   <rect x="285.596898" y="246.896898" width="111.443102" height="111.443102"/>
  </clipPath>
 </defs>
</svg>
